<?xml version="1.0" encoding="UTF-8" standalone="no"?>
<!-- Created with Inkscape (http://www.inkscape.org/) -->

<svg
   xmlns:dc="http://purl.org/dc/elements/1.1/"
   xmlns:cc="http://creativecommons.org/ns#"
   xmlns:rdf="http://www.w3.org/1999/02/22-rdf-syntax-ns#"
   xmlns:svg="http://www.w3.org/2000/svg"
   xmlns="http://www.w3.org/2000/svg"
   xmlns:xlink="http://www.w3.org/1999/xlink"
   version="1.1"
   width="800"
   height="500"
   id="svg2"
   xml:space="preserve"
   style="fill-rule:evenodd"><rect
     width="800"
     height="500"
     style="fill:#74acdf" /><rect
     width="800"
     height="166.66667"
     x="0"
     y="166.66667"
     id="white"
     style="fill:#ffffff" /><path
     d="m 377.19001,252.47501 c -9.42767,-0.3447 -14.613,5.45274 -23.03166,4.69422 -8.42004,-0.7569 -13.17968,3.86748 -16.454,4.93965 -3.2733,1.07235 -5.23233,-1.16001 -5.69817,-0.198 -0.4662,0.96201 2.12067,3.07098 6.77556,2.38338 4.65498,-0.6876 6.03666,-4.22046 16.32034,-3.38976 10.28333,0.8307 12.67833,-4.20606 22.05767,-2.9817 m 0.0302,-5.44752 0,0 0,0 z"
     id="path112"
     style="fill:#f6b40e;stroke:#85340a;stroke-width:1.11155045" /><path
     d="m 402.47668,272.80967 c -0.3465,9.42784 5.45265,14.61287 4.69431,23.03151 -0.7569,8.41995 3.8673,13.1798 4.93965,16.45406 1.07334,3.27438 -1.16001,5.23233 -0.198,5.69817 0.96336,0.4662 3.06999,-2.12067 2.38329,-6.77556 -0.68675,-4.65491 -4.22042,-6.03678 -3.38975,-16.32024 0.83,-10.28346 -4.206,-12.67847 -2.98,-22.05773 m -5.44734,-0.0302 0,0 0,0 z m -5.63883,-21.50134 28.45401,61.992 c 0,0 0.4896,1.18503 1.27998,0.8586 0.7902,-0.3267 0.2988,-1.51164 0.2988,-1.51164 l -23.71492,-63.95563 m -6.31764,2.61666 0,0 0,0 z m 0.6831,-24.11799 c 0.3465,-9.42784 -5.45265,-14.61287 -4.69431,-23.0315 0.7569,-8.41995 -3.8673,-13.1798 -4.93965,-16.45407 -1.07334,-3.27438 1.16001,-5.23233 0.198,-5.69817 -0.96336,-0.4662 -3.06999,2.12067 -2.38338,6.77556 0.6867,4.65489 4.22037,6.03675 3.38967,16.32021 -0.8298,10.28346 4.20597,12.67846 2.97999,22.05773 m 5.44734,0.0302 0,0 0,0 z m 5.63902,21.50137 -28.45407,-61.992 c 0,0 -0.4896,-1.18503 -1.27998,-0.8586 -0.7902,0.3267 -0.2988,1.51164 -0.2988,1.51164 l 23.71533,63.95533 m 6.31764,-2.61666 0,0 0,0 z m 19.64988,-1.16637 c 9.42799,0.3447 14.613,-5.45274 23.03166,-4.69422 8.42004,0.7569 13.17967,-3.86748 16.454,-4.93965 3.2733,-1.07235 5.23233,1.16001 5.69835,0.198 0.4671,-0.96201 -2.11995,-3.07098 -6.77565,-2.38338 -4.65498,0.6876 -6.03666,4.22046 -16.32033,3.38976 -10.28334,-0.8307 -12.67834,4.20606 -22.05767,2.9817 m -0.0302,5.44752 0,0 0,0 z m -21.50017,5.63394 61.99201,-28.45407 c 0,0 1.18665,-0.4905 0.8568,-1.27962 -0.3267,-0.7902 -1.51335,-0.2988 -1.51335,-0.2988 l -63.95546,23.71478 m 2.61666,6.31764 0,0 0,0 z m -2.61666,-6.31727 -61.992,28.45407 c 0,0 -1.18665,0.4905 -0.8568,1.27971 0.3267,0.7902 1.51335,0.2988 1.51335,0.2988 l 63.95545,-23.71486 m -2.61666,-6.31764 0,0 0,0 z m -13.07333,21.03792 c -6.9093,6.42258 -6.47766,14.18767 -12.96601,19.60501 -6.48936,5.41737 -6.5853,12.05513 -8.14167,15.1273 -1.55664,3.07332 -4.51971,2.88063 -4.17069,3.8898 0.3501,1.00935 3.672,0.6705 6.47766,-3.10635 2.80665,-3.77821 1.28331,-7.25329 9.14166,-13.93701 7.8597,-6.68376 5.99202,-11.93833 13.48967,-17.70603 m -3.83067,-3.8727 0,0 0,0 z m 11.22004,-19.18769 -23.71533,63.95534 c 0,0 -0.4896,1.18368 0.2979,1.51164 0.7902,0.3267 1.27998,-0.8586 1.27998,-0.8586 l 28.454,-61.992 m -6.31764,-2.61666 0,0 0,0 z m -16.96558,12.32429 c -8.83999,3.28866 -11.41333,10.62859 -19.48167,13.15093 -8.06697,2.52099 -10.69566,8.61678 -13.311,10.85957 -2.61333,2.24397 -5.27697,0.93168 -5.33997,1.99737 -0.063,1.06704 3.13335,2.02635 7.17201,-0.3906 4.03803,-2.41596 3.96198,-6.20865 13.77967,-9.37665 9.819,-3.168 10.105,-8.73756 19.23867,-11.19686 m -2.05668,-5.04333 0,0 0,0 z m 17.70898,-13.43344 -46.38467,50.01034 c 0,0 -0.90666,0.90666 -0.3033,1.51164 0.603,0.6039 1.51335,-0.3033 1.51335,-0.3033 l 50.01048,-46.38449 m -4.83471,-4.83462 0,0 0,0 z m -4.02782,24.43877 c -3.92671,8.57745 -0.5571,15.5866 -4.47769,23.0748 -3.9213,7.48818 -1.46997,13.65617 -1.73331,17.09186 -0.2628,3.43566 -3.07332,4.38975 -2.36331,5.18895 0.7101,0.7983 3.64833,-0.7848 4.79403,-5.34906 1.1467,-4.563 -1.59003,-7.19163 3.11338,-16.374 4.70322,-9.18238 0.9666,-13.32282 5.6862,-21.52098 m -5.02101,-2.11167 0,0 0,0 z m 3.02504,-22.0209 2.56329,68.16266 c 0,0 0,1.28205 0.8532,1.28205 0.8532,0 0.8532,-1.28205 0.8532,-1.28205 l 2.56725,-68.16266 m -6.8373,0 0,0 0,0 z m 21.30036,14.37933 c 6.42267,6.90939 14.18767,6.47775 19.605,12.96587 5.41737,6.48954 12.05501,6.5853 15.12734,8.14176 3.07332,1.55763 2.88,4.51971 3.88971,4.1706 1.00998,-0.3501 0.6696,-3.67191 -3.10662,-6.47766 -3.77843,-2.80574 -7.25343,-1.2834 -13.93709,-9.1418 -6.6833,-7.85956 -11.93791,-5.99214 -17.7056,-13.48951 m -3.8727,3.83067 0,0 0,0 z m -19.19004,-11.22059 63.95534,23.71523 c 0,0 1.18332,0.4905 1.51335,-0.2979 0.3267,-0.7902 -0.8568,-1.28097 -0.8568,-1.28097 l -61.99189,-28.4541 m -2.61666,6.31764 0,0 0,0 z m -16.57334,-17.53791 c -6.42257,-6.90943 -14.18767,-6.47769 -19.605,-12.96586 -5.41734,-6.4895 -12.05513,-6.5853 -15.1273,-8.14174 -3.07332,-1.55763 -2.88,-4.51971 -3.88971,-4.1706 -1.00998,0.3501 -0.6696,3.67191 3.10662,6.47775 3.77829,2.80566 7.25337,1.28331 13.937,9.14173 6.68367,7.85952 11.93833,5.99211 17.706,13.4895 m 3.8727,-3.83067 0,0 0,0 z m 19.18969,11.22056 -63.95533,-23.71523 c 0,0 -1.18332,-0.4905 -1.51335,0.2979 -0.3267,0.7902 0.8568,1.28097 0.8568,1.28097 l 61.992,28.45407 m 2.61666,-6.31764 0,0 0,0 z m 13.07322,-14.72074 c 6.9093,-6.42258 6.47766,-14.18766 12.96601,-19.60499 6.48963,-5.41738 6.5853,-12.05514 8.14167,-15.1273 1.55664,-3.07332 4.51971,-2.88063 4.17069,-3.8898 -0.3501,-1.00935 -3.672,-0.6705 -6.47766,3.10635 -2.80665,3.7782 -1.28331,7.25328 -9.14167,13.93699 -7.8597,6.68376 -5.99202,11.93834 -13.48966,17.70603 m 3.83067,3.8727 0,0 0,0 z m -11.22004,19.18769 23.71533,-63.95533 c 0,0 0.4896,-1.18368 -0.2979,-1.51164 -0.7902,-0.3267 -1.27998,0.8586 -1.27998,0.8586 l -28.45399,61.992 m 6.31764,2.61666 0,0 0,0 z m 7.85556,18.81871 c 3.29004,8.83989 10.62866,11.41341 13.151,19.48164 2.52,8.06697 8.61669,10.69553 10.85966,13.31103 2.24334,2.61432 0.9333,5.27688 1.99665,5.33988 1.06668,0.063 2.02662,-3.13398 -0.3897,-7.17192 -2.41695,-4.03803 -6.20894,-3.9619 -9.37694,-13.77949 -3.16667,-9.8189 -8.73767,-10.10501 -11.197,-19.23884 m -5.04333,2.05767 0,0 0,0 z m -13.43367,-17.70997 50.01033,46.38467 c 0,0 0.90666,0.90666 1.51335,0.3033 0.603,-0.6048 -0.3033,-1.51164 -0.3033,-1.51164 l -46.38452,-50.01051 m -4.83471,4.83462 0,0 0,0 z m -8.60116,-22.54511 c -3.2887,-8.8399 -10.62859,-11.41339 -13.15092,-19.48163 -2.52101,-8.06693 -8.61681,-10.69553 -10.85957,-13.31103 -2.24334,-2.61432 -0.9333,-5.27688 -1.99665,-5.33988 -1.06668,-0.063 -2.02662,3.13398 0.3897,7.17192 2.41668,4.03803 6.20865,3.96189 9.37666,13.77954 3.16665,9.81889 8.73765,10.10499 11.197,19.23883 m 5.04333,-2.05767 0,0 0,0 z m 13.43379,17.70992 -50.01034,-46.38467 c 0,0 -0.90666,-0.90666 -1.51335,-0.3033 -0.603,0.6048 0.3033,1.51164 0.3033,1.51164 l 46.38466,50.01034 m 4.83597,-4.83462 0,0 0,0 z m 17.70976,-8.59772 c 8.84,-3.28867 11.41334,-10.6286 19.48166,-13.15093 8.06697,-2.52099 10.69568,-8.61678 13.31101,-10.85957 2.61333,-2.24397 5.27697,-0.93168 5.33997,-1.99728 0.063,-1.06704 -3.13335,-2.02635 -7.17201,0.3906 -4.03804,2.41596 -3.96199,6.20865 -13.77967,9.37663 -9.819,3.168 -10.105,8.73756 -19.23867,11.19686 m 2.05668,5.04333 0,0 0,0 z m -17.70897,13.43336 46.38467,-50.01033 c 0,0 0.90666,-0.90666 0.3033,-1.51164 -0.603,-0.6039 -1.51335,0.3033 -1.51335,0.3033 l -50.01049,46.38449 m 4.83597,4.83462 0,0 0,0 z m 19.60323,4.02457 c 8.57736,3.92652 15.58667,0.5553 23.07467,4.47768 7.48836,3.9213 13.656,1.4697 17.092,1.73232 3.43566,0.2628 4.38966,3.07332 5.18904,2.36367 0.7965,-0.7101 -0.783,-3.64833 -5.34897,-4.79394 -4.563,-1.14705 -7.19163,1.58931 -16.374,-3.11436 -9.18233,-4.7034 -13.32266,-0.96597 -21.52099,-5.68638 m -2.11005,5.02101 0,0 0,0 z m -22.0217,-3.02367 68.16267,-2.56437 c 0,0 1.28331,0 1.28331,-0.8541 0,-0.8541 -1.28331,-0.8541 -1.28331,-0.8541 l -68.16267,-2.56428 m 0,6.8373 0,0 0,0 z m -22.02,-9.86145 c -8.57736,-3.92653 -15.58666,-0.5553 -23.07466,-4.47769 -7.48836,-3.9213 -13.656,-1.4697 -17.092,-1.73232 -3.43566,-0.2628 -4.38966,-3.07332 -5.18895,-2.36367 -0.7983,0.7101 0.7848,3.64833 5.34906,4.79394 4.563,1.14697 7.19163,-1.58931 16.37399,3.11437 9.18234,4.7034 13.323,0.96597 21.521,5.68638 m 2.11005,-5.02101 0,0 0,0 z m 22.02151,3.02366 -68.16266,2.56437 c 0,0 -1.28205,0 -1.28205,0.8541 0,0.8541 1.28205,0.8541 1.28205,0.8541 l 68.16266,2.56428 m 0,-6.8373 0,0 0,0 z m 6.44333,-18.60188 c 3.9267,-8.57745 0.5571,-15.5866 4.47768,-23.07481 3.9213,-7.48818 1.46997,-13.65616 1.73331,-17.09186 0.2628,-3.43566 3.07332,-4.38975 2.36331,-5.18895 -0.7101,-0.7983 -3.64833,0.7848 -4.79403,5.34906 -1.14669,4.563 1.59003,7.19163 -3.11337,16.374 -4.70331,9.1824 -0.96669,13.32283 -5.68629,21.521 m 5.02101,2.11167 0,0 0,0 z m -3.02495,22.02089 -2.56333,-68.16267 c 0,0 0,-1.28196 -0.8532,-1.28196 -0.8532,0 -0.8532,1.28196 -0.8532,1.28196 l -2.56725,68.16267 m 6.8373,0 0,0 0,0 z"
     id="path136"
     style="fill:#f6b40e;stroke:#85340a;stroke-width:1.11155045" /><path
     d="m 404.31001,274.41201 c 0.45334,9.0538 5.58667,13.063 4.57867,21.31364 2.21333,-6.52494 -3.12333,-11.58267 -2.82,-21.22047 m -1.76004,-0.0936 0,0 0,0 z m -5.88863,-23.75657 19.487,42.57733 -16.32933,-43.887 m -3.15666,1.30968 0,0 0,0 z m -22.83434,3.65466 c -9.05367,0.4536 -13.063,5.58657 -21.31367,4.57875 6.52501,2.214 11.58267,-3.12201 21.22033,-2.81898 m 0.0936,-1.76004 0,0 0,0 z m 23.75974,-5.88807 -42.57734,19.48687 43.887,-16.3294 m -1.30995,-3.15729 0,0 0,0 z m -13.55971,21.88815 c -6.08134,6.7231 -5.28733,13.18768 -11.83467,18.30841 6.181,-3.04867 5.983,-10.39897 13.01167,-16.99737 m -1.17666,-1.31103 0,0 0,0 z m 12.63299,-20.96467 -16.32934,43.887 19.48701,-42.57734 m -3.15667,-1.30966 0,0 0,0 z m -19.32433,13.979 c -8.19171,3.88449 -9.93167,10.1601 -17.93966,12.38583 6.87663,-0.4509 9.50666,-7.31763 18.52633,-10.7244 m -0.5868,-1.66131 0,0 0,0 z m 19.69346,-14.53279 -31.88066,34.298 34.298,-31.88057 m -2.41668,-2.41731 0,0 0,0 z m -4.15066,25.41188 c -3.04335,8.53803 0.1629,14.20603 -3.9267,21.44227 4.54329,-5.18112 1.54998,-11.89634 5.517,-20.6824 m -1.59003,-0.7596 0,0 0,0 z m 3.64973,-24.2036 1.71,46.79533 1.71,-46.79533 m -3.42,0 0,0 0,0 z m 15.03334,20.90433 c 3.88433,8.1916 10.16,9.93177 12.38566,17.93964 -0.45126,-6.87663 -7.31743,-9.50657 -10.72423,-18.52623 m -1.65996,0.5868 0,0 0,0 z m -14.53481,-19.69588 34.29801,31.88057 -31.88067,-34.298 m -2.41668,2.41731 0,0 0,0 z M 395.69002,225.588 c -0.4536,-9.05379 -5.58666,-13.06299 -4.57866,-21.31363 -2.21337,6.52492 3.12336,11.58267 2.81997,21.22047 m 1.76004,0.0936 0,0 0,0 z m 5.88864,23.75657 -19.487,-42.57734 16.32934,43.887 m 3.15666,-1.30968 0,0 0,0 z m 22.83434,-3.65465 c 9.05366,-0.4536 13.06299,-5.58657 21.31366,-4.57875 -6.525,-2.214 -11.58266,3.12201 -21.22033,2.81898 m -0.0936,1.76004 0,0 0,0 z m -23.75973,5.88806 42.57733,-19.48686 -43.887,16.3294 m 1.31004,3.15729 0,0 0,0 z m 19.65629,12.63551 c 6.723,6.08136 13.18767,5.2874 18.30833,11.83463 -3.05,-6.1811 -10.39899,-5.98293 -16.99732,-13.0118 m -1.31004,1.17702 0,0 0,0 z m -20.9643,-12.63519 43.887,16.32941 -42.57734,-19.48687 m -1.30995,3.15729 0,0 0,0 z m 14.86696,-21.88816 c 6.0813,-6.72309 5.28732,-13.18766 11.83467,-18.3084 -6.18102,3.04866 -5.98302,10.39897 -13.01167,16.99737 m 1.17666,1.31103 0,0 0,0 z m -12.633,20.96467 16.32933,-43.88701 -19.48699,42.57734 m 3.15666,1.30968 0,0 0,0 z m -14.90233,-21.55935 c -3.88434,-8.1916 -10.16,-9.93177 -12.38567,-17.93963 0.45,6.87663 7.31763,9.50657 10.72433,18.52624 m 1.66005,-0.5868 0,0 0,0 z m 34.22796,7.58052 c 8.19162,-3.88449 9.93167,-10.1601 17.93966,-12.38582 -6.87663,0.4509 -9.50666,7.31763 -18.52633,10.7244 m 0.5868,1.66131 0,0 0,0 z m -19.69347,14.53278 31.88067,-34.298 -34.298,31.88057 m 2.41668,2.41731 0,0 0,0 z m 22.99399,4.15245 c 8.53803,3.0447 14.206,-0.1629 21.44233,3.92652 -5.181,-4.54331 -11.89634,-1.54868 -20.68233,-5.51708 m -0.7596,1.59066 0,0 0,0 z m -24.20374,-3.65109 46.79534,-1.71 -46.79534,-1.71 m 0,3.41991 0,0 0,0 z m 5.36,-25.91325 c 3.04335,-8.53803 -0.1629,-14.20603 3.9267,-21.44227 -4.54329,5.18112 -1.54998,11.89634 -5.517,20.68241 m 1.59003,0.7596 0,0 0,0 z m -3.64973,24.2036 -1.71,-46.79534 -1.71,46.79534 m 3.42,0 0,0 0,0 z m -25.91333,-5.361 c -8.53803,-3.0447 -14.206,0.1629 -21.44233,-3.92652 5.18103,4.54329 11.89632,1.54863 20.68233,5.51709 m 0.7596,-1.59066 0,0 0,0 z m 24.20373,3.65109 -46.79533,1.71 46.79533,1.71 m 0,-3.41991 0,0 0,0 z m -20.31,-12.5041 c -6.72309,-6.08136 -13.18767,-5.28739 -18.3084,-11.83463 3.05,6.1811 10.39901,5.98294 16.99734,13.01181 m 1.31004,-1.17702 0,0 0,0 z m 20.96436,12.63518 -43.887,-16.3294 42.57733,19.48687 m 1.31004,-3.15729 0,0 0,0 z m 0.55629,0.36982 -34.298,-31.88057 31.88067,34.298 m 2.41668,-2.41731 0,0 0,0 z"
     id="path138"
     style="fill:#85340a" /><circle
     cx="1.2"
     cy="0.75"
     r="0.083330698"
     transform="scale(333.33334,333.33334)"
     id="circle140"
     style="fill:#f6b40e;stroke:#85340a;stroke-width:0.00448819" /><path
     d="m 409.46875,244.0625 c -1.89671,3e-5 -3.7131,0.82183 -4.78125,2.53125 2.13669,1.92267 6.85647,2.13178 10.0625,-0.21875 -1.38834,-1.49535 -3.38454,-2.31253 -5.28125,-2.3125 z m -0.0312,0.4375 c 1.84617,-0.0335 3.57173,0.81446 3.8125,1.65625 -2.13669,2.35035 -5.55081,2.14633 -7.6875,0.4375 0.9348,-1.49566 2.43909,-2.06767 3.875,-2.09375 z"
     id="loweyecontour"
     style="fill:#843511" /><use
     transform="matrix(-1,0,0,1,800.25003,0)"
     id="use3093"
     x="0"
     y="0"
     width="800"
     height="500"
     xlink:href="#uppalpebra_3" /><use
     transform="matrix(-1,0,0,1,800.25003,0)"
     id="use3095"
     x="0"
     y="0"
     width="800"
     height="500"
     xlink:href="#eyebrow_nose_2" /><use
     transform="translate(18.862065,0)"
     id="use3088"
     x="0"
     y="0"
     width="800"
     height="500"
     xlink:href="#pupil_5" /><use
     transform="matrix(-1,0,0,1,800.25003,0)"
     id="use3086"
     x="0"
     y="0"
     width="800"
     height="500"
     xlink:href="#lowpalpebra_6" /><path
     d="m 395.75,253.84375 c -0.91341,0.16668 -1.5625,0.97727 -1.5625,1.90625 0,1.06137 0.87748,1.90625 1.9375,1.90625 0.62667,0 1.2025,-0.2968 1.5625,-0.8125 0.73952,0.55614 1.76459,0.61511 2.3125,0.625 0.0843,0.002 0.19312,0 0.25,0 0.54791,-0.01 1.57298,-0.0689 2.3125,-0.625 0.36,0.5157 0.93583,0.8125 1.5625,0.8125 1.06002,0 1.9375,-0.84488 1.9375,-1.90625 0,-0.92898 -0.64918,-1.73957 -1.5625,-1.90625 0.513,0.1809 0.84375,0.6765 0.84375,1.21875 0,0.7074 -0.57124,1.28125 -1.28125,1.28125 -0.6804,0 -1.24129,-0.54015 -1.28125,-1.21875 -0.20862,0.41637 -1.03409,1.65514 -2.65625,1.71875 -1.62216,-0.0636 -2.44763,-1.30238 -2.65625,-1.71875 -0.04,0.6786 -0.60085,1.21875 -1.28125,1.21875 -0.71001,0 -1.28125,-0.57385 -1.28125,-1.28125 0,-0.54225 0.33075,-1.03785 0.84375,-1.21875 z"
     id="nose"
     style="fill:#85340a" /><path
     d="m 397.84375,259.53125 c -2.138,0 -2.98291,1.93675 -4.90625,3.21875 1.06867,-0.42633 1.90958,-1.26933 3.40625,-2.125 1.496,-0.85442 2.77166,0.1875 3.625,0.1875 l 0.0312,0 c 0.8532,0 2.12902,-1.0416 3.625,-0.1875 1.4967,0.8559 2.36884,1.69867 3.4375,2.125 -1.9233,-1.28196 -2.79955,-3.21875 -4.9375,-3.21875 -0.4266,0 -1.27162,0.23055 -2.125,0.65625 l -0.0312,0 c -0.85334,-0.42642 -1.69833,-0.65625 -2.125,-0.65625 z"
     id="uplip"
     style="fill:#85340a" /><path
     d="m 397.125,262.0625 c -0.8439,0.0374 -1.95962,0.20675 -3.5625,0.6875 3.84734,-0.85434 4.69625,0.4375 6.40625,0.4375 l 0.0312,0 c 1.71,0 2.55884,-1.29205 6.40625,-0.4375 -4.27437,-1.28196 -5.1242,-0.4375 -6.40625,-0.4375 l -0.0312,0 c -0.80125,0 -1.43724,-0.3124 -2.84375,-0.25 z"
     id="midlip"
     style="fill:#85340a" /><path
     d="m 393.75,262.71875 c -0.24819,0.003 -0.51871,0.005 -0.8125,0.0312 4.488,0.42766 2.33058,3 7.03125,3 l 0.0312,0 c 4.7007,0 2.57447,-2.57241 7.0625,-3 -4.7007,-0.4266 -3.21455,2.34375 -7.0625,2.34375 l -0.0312,0 c -3.6075,0 -2.49593,-2.42147 -6.21875,-2.375 z"
     id="uplip_0"
     style="fill:#85340a" /><path
     d="m 403.84668,269.65734 c 0,-2.12337 -1.72332,-3.84651 -3.84633,-3.84651 -2.12328,0 -3.84633,1.72296 -3.84633,3.84651 0.423,-1.78101 2.01663,-3.0393 3.84633,-3.0393 1.8333,0 3.42396,1.25865 3.84633,3.0393 m 0,0 0,0 0,0 z"
     id="chin"
     style="fill:#85340a" /><path
     d="m 382.73002,244.01701 c 4.91463,-4.27293 11.11033,-4.91472 14.53033,-1.70865 0.837,1.12068 1.37331,2.31903 1.59336,3.56958 0.4302,2.43297 -0.3303,5.06169 -2.23668,7.75593 0.2151,-0.001 0.6435,0.2124 0.8568,0.4266 1.69668,-3.24405 2.29671,-6.57612 1.73997,-9.74541 -0.1458,-0.828 -0.3735,-1.64295 -0.6696,-2.43567 -4.7007,-3.84516 -11.11034,-4.27293 -15.81101,2.13768 z"
     id="eyebrow_nose_2"
     style="fill:#85340a" /><path
     d="m 390.42001,242.73501 c 2.77668,0 3.41865,0.6417 4.7007,1.71 1.28331,1.0683 1.9233,0.8541 2.13669,1.0683 0.2124,0.2142 0,0.8541 -0.4266,0.6399 -0.4266,-0.2142 -1.28331,-0.6399 -2.56329,-1.70865 -1.28331,-1.06965 -2.56329,-1.0683 -3.84633,-1.0683 -3.84633,0 -5.98302,3.20463 -6.40935,2.9907 -0.4266,-0.2142 2.13669,-3.63249 6.40935,-3.63249 z"
     id="uppalpebra_3"
     style="fill:#85340a" /><use
     transform="translate(-19.18082,0)"
     id="use3091"
     x="0"
     y="0"
     width="800"
     height="500"
     xlink:href="#loweyecontour" /><circle
     cx="1.1725399"
     cy="0.73846102"
     r="0.0057677198"
     transform="matrix(333.33334,0,0,333.33334,-0.30872762,0)"
     id="pupil_5"
     style="fill:#85340a" /><path
     d="m 385.29334,247.43568 c 3.63267,2.7783 7.26498,2.56437 9.40167,1.28196 2.13669,-1.28196 2.13669,-1.70865 1.71,-1.70865 -0.4266,0 -0.8532,0.4266 -2.56329,1.28097 -1.71,0.8559 -4.27302,0.8559 -8.54604,-0.8541 z"
     id="lowpalpebra_6"
     style="fill:#85340a" />
</svg>