<?xml version="1.0" encoding="UTF-8"?>
<svg xmlns="http://www.w3.org/2000/svg" xmlns:xlink="http://www.w3.org/1999/xlink" width="1200" height="600">
<rect fill="#c00" width="1200" height="600"/>
<rect fill="#090" y="400" width="1200" height="200"/>
<rect fill="#fff" width="133" height="600"/>  
<path fill="#c00" d="m 39.528,453.45649 0,-13.82396 -5.88,0 0,-13.82395 -5.884,0 0,-13.82595 -5.884,0 0,-11.05797 0,-2.76599 -5.88,0 0,-13.82395 5.88,0 0,-13.82195 5.882,0 0,-13.82796 5.884,0 0,-13.82395 5.88,0 0,13.82395 5.884,0 0,13.82796 5.88,0 0,13.82195 -5.88,0 0,16.58994 5.88,0 0,-11.05996 5.882,0 0,-22.11993 2.942,0 0.046,-13.69795 -8.87,-0.126 0,-11.06196 -5.88,0 0,-8.29197 -5.884,0 0,-13.82396 -5.88,0 0,13.82396 -5.884,0 0,8.29197 -5.882,0 0,8.29197 -5.88,0 0,-24.88192 5.88,0 0,-11.05796 5.882,0 0,-9.67597 5.884,0 0,-11.05996 -5.884,0 0,-9.67797 -5.882,0 0,-11.05996 -5.88,0 0,-24.88392 5.88,0 0,8.29397 5.882,0 0,8.29598 5.884,0 0,13.82395 5.88,0 0,-13.82395 5.884,0 0,-8.29598 5.88,0 0,-11.05996 8.87,-0.13 -0.046,-13.69395 -2.942,0 0,-22.11993 -5.882,0 0,-11.06396 -5.88,0 0,16.58994 5.88,0 0,13.82396 -5.88,0 0,13.82595 -5.884,0 0,13.82395 -5.88,0 0,-13.82395 -5.884,0 0,-13.82595 -5.882,0 0,-13.82396 -5.88,0 0,-13.82595 5.88,0 0,-13.82396 5.882,0 0,-13.82595 5.884,0 0,-13.82395 5.88,0 0,-13.82596 5.884,0 0,13.82596 5.88,0 0,13.82395 5.882,0 0,13.82595 5.884,0 0,13.82596 5.88,0 0,-13.82596 5.88,0 0,-13.82595 5.884,0 0,-13.82395 5.882,0 0,-13.82596 5.88,0 0,13.82596 5.884,0 0,13.82395 5.882,0 0,13.82595 5.882,0 0,13.82596 5.89,0 0,13.82595 -5.89,0 0,13.82396 -5.882,0 0,13.82595 -5.882,0 0,13.82395 -5.884,0 0,-13.82395 -5.884,0 0,-13.82595 -5.88,0 0,-13.82396 5.88,0 0,-16.59194 -5.88,0 0,11.05596 -5.884,0 0,22.12193 -2.94,0 0,13.82395 8.83,0 0,11.05996 5.882,0 0,8.29598 5.88,0 0,13.82395 5.884,0 0,-13.82395 5.882,0 0,-8.29598 5.882,0 0,-8.29197 5.886,0 0,24.88392 -5.886,0 0,11.05996 -5.882,0 0,9.67797 -5.882,0 0,11.05996 5.882,0 0,9.67597 5.882,0 0,11.05796 5.886,0 0,24.88392 -5.886,0 0,-8.29397 -5.882,0 0,-8.29197 -5.882,0 0,-13.82396 -5.884,0 0,13.82396 -5.884,0 0,8.29197 -5.88,0 0,11.05996 -8.826,0 0,13.82395 2.94,0 0,22.11993 5.884,0 0,11.05996 5.882,0 0,-16.58994 -5.882,0 0,-13.82195 5.882,0 0,-13.82796 5.88,0 0,-13.82395 5.884,0 0,13.82395 5.882,0 0,13.82796 5.884,0 0,13.82195 5.888,0 0,13.82395 -5.888,0 0,13.82396 -5.884,0 0,13.82595 -5.882,0 0,13.82395 -5.884,0 0,13.82396 -5.878,0 0,-13.82396 -5.88,0 0,-13.82395 -5.884,0 0,-13.82595 -5.88,0 0,-13.82396 -5.882,0 0,13.82396 -5.884,0 0,13.82595 -5.882,0 0,13.82395 -5.878,0 0,13.82396 -5.884,0 0,0.006 -0.002,0 z m 0,-147.92551 5.884,0 0,9.67597 5.88,0 0,11.05996 8.824,0 0,13.00596 2.942,0 0,6.34798 5.884,0 0,-6.21798 2.942,0 0,-13.13196 8.824,0 0,-5.53198 0,-5.53198 5.88,0 0,-9.67597 5.882,0 0,-11.05996 -5.886,0 0,-9.67797 -5.88,0 0,-5.52998 0,-5.52998 -8.824,0 0,-13.13396 -2.94,0 0,-6.21998 -5.884,0 0,6.34998 -2.942,0 0,13.00396 -8.824,0 0,11.05996 -5.876,0 0,9.67797 -5.884,0 -0.002,11.05996 z m -17.644,-13.82595 -5.884,0 0,16.58794 5.884,0 0,-16.58794 z M 16,27.64991 l 5.882,0 0,-16.58995 -5.882,0 0,16.58995 z m 94.112,0 5.888,0 0,-16.58995 -5.888,0 0,16.58995 z m -47.056,0 5.884,0 0,-16.58995 -5.884,0 0,16.58995 z m -23.526,41.47586 5.884,0 0,-13.82595 -5.884,0 0,13.82595 z m 47.054,0 5.882,0 0,-13.82595 -5.882,0 0,13.82595 z M 16,107.83364 l 5.884,0 0,-16.58994 -5.884,0 0,16.58994 z m 94.112,0 5.888,0 0,-16.58994 -5.888,0 0,16.58994 z m -47.056,0 5.884,0 0,-16.58994 -5.884,0 0,16.58994 z m -23.528,-94.00769 -5.882,0 0,13.82396 -5.88,0 0,13.82395 -5.884,0 0,13.82596 -5.882,0 0,13.82795 5.88,0 0,13.82395 5.884,0 0,13.82596 5.88,0 0,13.82195 5.882,0 0,13.82396 5.884,0 0,-13.82396 5.88,0 0,-13.82395 5.882,0 0,-13.82596 5.884,0 0,-13.82395 5.88,0 0,13.82395 5.88,0 0,13.82596 5.884,0 0,13.82395 5.882,0 0,13.82396 5.884,0 0,-13.82396 5.882,0 0,-13.82395 5.884,0 0,-13.82596 5.88,0 0,-13.82395 5.888,0 0,-13.82795 -5.884,0 0,-13.82596 -5.88,0 0,-13.82395 -5.884,0 0,-13.82196 -5.882,0 0,-13.82595 -5.886,0 0,13.82595 -5.88,0 0,13.82396 -5.884,0 0,13.82395 -5.88,0 0,13.82596 -5.882,0 0,-13.82596 -5.884,0 0,-13.82395 -5.88,0 0,-13.82396 -5.878,0 0,-13.82595 -5.888,0 0,13.82595 z m 0,13.82396 5.884,0 0,13.82395 5.88,0 0,13.82596 5.882,0 0,13.82595 -5.882,0 0,13.82395 -5.88,0 0,13.82596 -5.884,0 0,-13.82596 -5.882,0 0,-13.82395 -5.88,0 0,-13.82595 5.88,0 0,-13.82596 5.882,0 0,-13.82395 z m 47.056,0 5.884,0 0,13.82395 5.882,0 0,13.82596 5.884,0 0,13.82595 -5.884,0 0,13.82395 -5.882,0 0,13.82596 -5.884,0 0,-13.82596 -5.88,0 0,-13.82395 -5.884,0 0,-13.82595 5.884,0 0,-13.82596 5.88,0 0,-13.82395 z m -64.7,85.71571 0,8.29397 -2.942,0 0,8.29598 -2.942,0 0,11.05796 2.942,0 0,8.29597 2.942,0 0,8.29397 8.822,0 0,-8.29397 2.942,0 0,-8.29597 2.942,0 0,-11.05796 -2.942,0 0,-8.29598 -2.942,0 0,-8.29197 -8.822,-0.002 0,0 z m 2.942,13.82396 2.94,0 0,5.52998 2.942,0 0,5.52998 -2.942,0 0,5.52998 -2.94,0 0,-5.52998 -2.942,0 0,-5.52998 2.942,0 0,-5.52998 0,0 z m 29.406,-13.82396 0,8.29397 -2.942,0 0,8.29598 -2.942,0 0,11.05796 2.942,0 0,8.29597 2.942,0 0,8.29397 8.824,0 0,-8.29397 5.882,0 0,8.29397 8.822,0 0,-8.29397 2.942,0 0,-8.29597 2.942,0 0,-11.05796 -2.942,0 0,-8.29598 -2.942,0 0,-8.29197 -8.822,0 0,8.29197 -5.882,0 0,-8.29197 -8.824,-0.002 0,0 z m 2.942,13.82396 2.942,0 0,5.52998 2.942,0 0,5.52998 -2.942,0 0,5.52998 -2.942,0 0,-5.52998 -2.942,0 0,-5.52998 2.942,0 0,-5.52998 0,0 0,0 z m 14.704,0 2.942,0 0,5.52998 2.942,0 0,5.52998 -2.942,0 0,5.52998 -2.942,0 0,-5.52998 -2.942,0 0,-5.52998 2.942,0 0,-5.52998 0,0 z m 38.234,52.53382 5.888,0 0,-16.58994 -5.888,0 0,16.58994 z m -47.056,0 5.884,0 0,-16.58994 -5.884,0 0,16.58994 z m -47.056,0 5.884,0 0,-16.58994 -5.884,0 0,16.58994 z m 0,63.59379 5.884,0 0,-11.05996 -5.884,0 0,11.05996 z m 94.112,0 5.888,0 0,-11.05996 -5.888,0 0,11.05996 z m 5.888,48.38784 -5.89,0 0,16.58994 5.89,0 0,-16.58994 z m -32.356,0 -5.882,0 0,16.58994 5.882,0 0,-16.58994 z m -29.412,0 -5.88,0 0,16.58994 5.88,0 0,-16.58994 z m 0,-9.67797 0,8.29197 2.942,0 0,4.14799 2.942,0 0,11.06196 -2.942,0 0,4.14399 -2.942,0 0,8.29197 5.884,0 0,-5.52998 2.942,0 0,-4.14599 5.88,0 0,4.14599 2.942,0 0,5.52998 5.884,0 0,-8.29197 -2.942,0 0,-4.14399 -2.942,0 0,-11.06196 2.942,0 0,-4.14799 2.942,0 0,-8.29197 -5.884,0 0,5.52998 -2.94,0 0,4.14799 -5.88,0 0,-4.14799 -2.942,0 0,-5.52998 -5.886,0 z m 8.824,2.76399 5.884,0 0,-13.82395 -5.884,0 0,13.82395 z M 16,572.35009 l 5.884,0 0,16.58995 -5.884,0 0,-16.58995 z m 94.112,0 5.888,0 0,16.58995 -5.888,0 0,-16.58995 z m -47.056,0 5.884,0 0,16.58995 -5.884,0 0,-16.58995 z m -23.524,-41.47586 5.88,0 0,13.82395 -5.88,0 0,-13.82395 z m 47.052,0 5.88,0 0,13.82395 -5.88,0 0,-13.82395 z M 16,492.16636 l 5.884,0 0,16.58994 -5.884,0 0,-16.58994 z m 94.112,0 5.888,0 0,16.58994 -5.888,0 0,-16.58994 z m -47.056,0 5.88,0 0,16.58994 -5.88,0 0,-16.58994 0,0 z m -23.528,94.00769 -5.882,0 0,-13.82396 -5.88,0 0,-13.82395 -5.884,0 0,-13.82396 -5.882,0 0,-13.82595 5.88,0 0,-13.82195 5.884,0 0,-13.82796 5.88,0 0,-13.82395 5.882,0 0,-13.82196 5.884,0 0,13.82196 5.882,0 0,13.82395 5.88,0 0,13.82796 5.884,0 0,13.82195 5.88,0 0,-13.82195 5.88,0 0,-13.82796 5.884,0 0,-13.82395 5.882,0 0,-13.82196 5.884,0 0,13.82196 5.88,0 0,13.82395 5.884,0 0,13.82796 5.88,0 0,13.82195 5.89,0 0,13.82595 -5.884,0 0,13.82396 -5.88,0 0,13.82395 -5.884,0 0,13.82396 -5.88,0 0,13.82595 -5.886,0 0,-13.82595 -5.88,0 0,-13.82396 -5.884,0 0,-13.82395 -5.88,0 0,-13.82396 -5.882,0 0,13.82396 -5.884,0 0,13.82395 -5.88,0 0,13.82396 -5.878,0 0,13.82595 -5.89,0 0,-13.82595 z m -17.646,-99.53967 0,-8.29197 -2.942,0 0,-8.29598 -2.94,0 0,-11.05796 2.94,0 0,-8.29397 2.942,0 0,-8.29197 8.824,0 0,8.29197 2.942,0 0,8.29397 2.942,0 0,11.05796 -2.942,0 0,8.29598 -2.942,0 0,8.29197 -8.824,0 z m 32.352,0 0,-8.29197 -2.942,0 0,-8.29598 -2.942,0 0,-11.05796 2.942,0 0,-8.29397 2.942,0 0,-8.29197 8.822,0 0,8.29197 5.882,0 0,-8.29197 8.824,0 0,8.29197 2.942,0 0,8.29397 2.938,0 0,11.05796 -2.938,0 0,8.29598 -2.944,0 0,8.29197 -8.824,0 0,-8.29197 -5.882,0 0,8.29197 -8.82,0 z m 55.878,-66.35778 5.888,0 0,16.58994 -5.888,0 0,-16.58994 z m -47.056,0 5.884,0 0,16.58994 -5.884,0 0,-16.58994 z m -47.056,0 5.884,0 0,16.58994 -5.884,0 0,-16.58994 z m 0,-63.59379 5.884,0 0,11.05796 -5.884,0 0,-11.05796 z m 94.112,0 5.888,0 0,11.05796 -5.888,0 0,-11.05796 z m -47.056,-41.47586 5.884,0 0,13.82595 -5.884,0 0,-13.82595 z m 38.158,171.49143 0,-8.29197 -2.942,0 0,-8.29398 -2.942,0 0,-11.05796 2.942,0 0,-8.29397 2.942,0 0,-8.29197 8.824,0 0,8.29197 2.942,0 0,8.29397 3.02,0 0,11.05796 -3.02,0 0,8.29398 -2.94,0 0,8.29197 -8.826,0 z m 0,-373.39476 0,8.29197 -2.942,0 0,8.29398 -2.942,0 0,11.05996 2.942,0 0,8.29397 2.942,0 0,8.29597 8.824,0 0,-8.29597 2.942,0 0,-8.29397 3.02,0 0,-11.05996 -3.02,0 0,-8.29398 -2.94,0 0,-8.29197 -8.826,0 z m 2.942,13.82396 2.942,0 0,5.52998 2.942,0 0,5.52998 -2.942,0 0,5.53198 -2.942,0 0,-5.53198 -2.94,0 0,-5.52998 2.942,0 -0.002,-5.52998 0,0 z m 0,345.74684 2.942,0 0,-5.53198 2.942,0 0,-5.53198 -2.942,0 0,-5.52998 -2.942,0 0,5.52998 -2.94,0 0,5.53198 2.942,0 -0.002,5.53198 0,0 z m -46.98,-0.064 2.942,0 0,-5.53198 2.942,0 0,-5.53198 -2.942,0 0,-5.53198 -2.942,0 0,5.53198 -2.942,0 0,5.53198 2.942,0 0,5.53198 0,0 z m 14.702,0 2.942,0 0,-5.53198 2.942,0 0,-5.53198 -2.942,0 0,-5.53198 -2.942,0 0,5.53198 -2.942,0 0,5.53198 2.942,0 0,5.53198 z m -47.05,0 2.94,0 0,-5.53198 2.942,0 0,-5.53198 -2.942,0 0,-5.53198 -2.94,0 0,5.53198 -2.942,0 0,5.53198 2.942,0 0,5.53198 z m 14.7,99.53967 5.884,0 0,-13.82395 5.88,0 0,-13.82396 5.882,0 0,-13.82595 -5.882,0 0,-13.82395 -5.88,0 0,-13.82596 -5.884,0 0,13.82596 -5.88,0 0,13.82395 -5.884,0 0,13.82595 5.884,0 0,13.82396 5.88,0 0,13.82395 z m 47.056,0 5.882,0 0,-13.82395 5.884,0 0,-13.82396 5.88,0 0,-13.82595 -5.88,0 0,-13.82395 -5.884,0 0,-13.82596 -5.882,0 0,13.82596 -5.88,0 0,13.82395 -5.884,0 0,13.82595 5.884,0 0,13.82396 5.88,0 0,13.82395 z"/>
</svg>