<?xml version="1.0" encoding="UTF-8" standalone="no"?>
<!-- Created with Inkscape (http://www.inkscape.org/) -->

<svg
   xmlns:svg="http://www.w3.org/2000/svg"
   xmlns="http://www.w3.org/2000/svg"
   xmlns:xlink="http://www.w3.org/1999/xlink"
   version="1.0"
   width="900"
   height="450">
  <rect
     width="900"
     height="450"
     id="blue"
     style="fill:#0038a8" />
  <rect
     width="900"
     height="225"
     x="0"
     y="225"
     id="red"
     style="fill:#ce1126" />
  <path
     d="M 389.983,225 0,450 0,0 389.983,225 z"
     id="path279"
     style="fill:#fff" />
  <use
     transform="matrix(1,0,0,-1,0,450)"
     id="use2838"
     xlink:href="#path3899" />
  <path
     d="m 151.91574,182.53822 8.08404,-30.988 -5.38769,-6.71 -6.64357,37.698 3.94722,0 z m -16.78966,0 -4.68526,-41.998 9.45035,-10.54 9.32628,10.54 -4.70583,41.998 -9.38554,0 z m -7.41036,0 -7.71594,-30.988 5.47505,-6.71 6.19434,37.698 -3.95345,0 z"
     id="path426-7-1"
     style="fill:#fcd116" />
  <circle
     cx="140"
     cy="225"
     r="45"
     id="circle1323-7"
     style="fill:#fcd116" />
  <use
     transform="matrix(1,0,0,-1,0,450)"
     id="use2834"
     xlink:href="#path426-7-1" />
  <use
     transform="matrix(0,1,-1,0,364.99978,85.00022)"
     id="use2832"
     xlink:href="#path426-7-1" />
  <use
     transform="matrix(0,-1,1,0,-85.00022,364.99978)"
     id="use2836"
     xlink:href="#path426-7-1" />
  <path
     d="m 118.40063,186.54913 -16.19555,-27.62811 -8.55436,-0.93501 21.9588,31.35422 2.79111,-2.7911 z m -11.87208,11.87208 -33.01005,-26.38409 -0.7705,-14.13531 14.04758,0.85823 26.36955,33.02459 -6.63658,6.63658 z m -5.23992,5.23992 -27.36782,-16.45583 -0.87324,-8.61614 31.03657,22.27646 -2.79551,2.79551 z"
     id="path2954"
     style="fill:#fcd116;fill-opacity:1" />
  <use
     transform="matrix(-1,0,0,1,279.84597,0)"
     id="use2842"
     xlink:href="#path2954" />
  <use
     transform="matrix(-1,0,0,-1,279.99957,450)"
     id="use2846"
     xlink:href="#path2954" />
  <use
     transform="matrix(1,0,0,-1,0,450.15359)"
     id="use2844"
     xlink:href="#path2954" />
  <path
     d="m 295.51186,241.27423 11.91752,-16.24894 -11.95037,-16.22484 19.13642,6.3131 11.73784,-16.37919 -0.0792,20.15063 19.20489,6.10191 -19.19223,6.1407 0.11873,20.15039 -11.77069,-16.35548 -19.12375,6.35172 z"
     id="path2036"
     style="fill:#fcd116" />
  <path
     d="m 60.74334,376.84708 -20.030755,2.1964 -8.075939,-18.46174 -4.100905,19.72917 -20.0537158,1.97567 17.4905578,10.00673 -4.318036,19.68288 14.914118,-13.55061 17.391385,10.17802 -8.278916,-18.37146 15.062626,-13.38579 z"
     id="path3899"
     style="fill:#fcd116" />
</svg>
