<?xml version="1.0" encoding="UTF-8" standalone="no"?>
<!-- Created with Inkscape (http://www.inkscape.org/) -->

<svg
   xmlns:svg="http://www.w3.org/2000/svg"
   xmlns="http://www.w3.org/2000/svg"
   xmlns:xlink="http://www.w3.org/1999/xlink"
   version="1.0"
   width="600"
   height="400"
   id="svg2">
  <path
     d="m 240,400 360,0 0,-400 -360,0 0,400 0,0 z"
     id="path1339"
     style="fill:#FF0000;fill-opacity:1" />
  <path
     d="M 0,400 240,400 240,0 0,0 0,400 0,400 z"
     id="path1341"
     style="fill:#006600;fill-opacity:1" />
  <path
     d="M 318.23975,262.03646 C 288.02741,261.13159 149.4985,174.656 148.54869,160.89325 l 7.64965,-12.75734 c 13.74098,19.96635 155.36273,104.05893 169.27127,101.07795 l -7.22986,12.8226"
     id="path1343"
     style="fill:#FFFF00;fill-rule:evenodd;stroke:none" />
  <path
     d="m 154.59239,146.40465 c -2.70922,7.29369 36.15021,31.31787 82.90269,59.75354 46.75336,28.43567 87.06529,46.00578 90.05318,43.48606 0.18168,-0.32544 1.47014,-2.54088 1.35197,-2.52236 -0.5609,0.8449 -1.92432,1.10949 -4.05148,0.49653 -12.62978,-3.64331 -45.57514,-18.76338 -86.37387,-43.50634 -40.79786,-24.74297 -76.29369,-47.54213 -81.81178,-57.23206 -0.38274,-0.67116 -0.65702,-1.89442 -0.60057,-2.84692 l -0.13494,0 -1.17558,2.05141 -0.1605,0.32191 8.8e-4,-0.002 z m 164.36435,116.03486 c -0.51327,0.92957 -1.46749,0.9622 -3.28246,0.76112 -11.29986,-1.2506 -45.58925,-17.92465 -86.16133,-42.21253 -47.21196,-28.26193 -86.20367,-54.0112 -81.96787,-60.74397 l 1.15088,-2.03464 0.22665,0.0706 c -3.80366,11.40531 76.94807,57.57602 81.70154,60.52171 46.72426,28.9472 86.11371,45.85056 89.60077,41.45671 l -1.26818,2.18105"
     id="path1345"
     style="fill:#FFFF00;fill-rule:evenodd;stroke:none" />
  <path
     d="m 154.59239,146.40465 c -2.7101,7.29369 36.14932,31.31787 82.90269,59.75354 46.75248,28.43391 87.06529,46.00578 90.05318,43.48606 0.18256,-0.32544 1.47014,-2.54088 1.35197,-2.52324 -0.56001,0.84402 -1.92344,1.11037 -4.0506,0.49741 -12.63066,-3.64331 -45.57514,-18.76514 -86.37387,-43.50634 -40.79785,-24.74297 -76.29369,-47.54389 -81.81089,-57.23206 -0.38363,-0.67116 -0.65702,-1.89618 -0.60146,-2.84868 l -0.13405,-0.002 -1.1747,2.05317 -0.16139,0.32191 -8.8e-4,0 z m 164.36346,116.03662 c -0.51238,0.92957 -1.46749,0.96044 -3.28157,0.76112 -11.29986,-1.2506 -45.58925,-17.92465 -86.16221,-42.21253 C 182.30011,192.72617 143.3084,166.97867 147.5442,160.2459 l 1.15088,-2.03465 0.22665,0.0706 c -3.80366,11.40531 76.94806,57.57778 81.70154,60.52171 46.72426,28.9472 86.11459,45.85055 89.60077,41.45847 l -1.26819,2.18105 0,-0.002 z"
     id="path1347"
     style="fill:none;stroke:#000000;stroke-width:0.57293051;stroke-linecap:round;stroke-linejoin:round" />
  <path
     d="m 240.16725,169.23027 c 30.23703,-0.23901 67.54959,-4.13191 89.02312,-12.69031 l -4.62648,-7.51681 c -12.69239,7.02469 -50.21043,11.64432 -84.65239,12.33488 -40.73612,-0.37483 -69.48978,-4.16807 -83.89748,-13.83507 l -4.3672,8.00453 c 26.48364,11.20688 53.62253,13.58725 88.52043,13.70278"
     id="path1349"
     style="fill:#FFFF00;fill-rule:evenodd;stroke:none" />
  <path
     d="m 330.4418,156.71283 c -0.73904,1.1818 -14.74371,6.00957 -35.37413,9.57351 -13.98703,2.13254 -32.23367,3.95552 -55.00448,3.97757 -21.63315,0.0203 -39.30479,-1.51959 -52.68506,-3.33287 -21.65609,-3.39549 -32.83337,-8.12007 -36.96598,-9.78782 0.3951,-0.78582 0.64909,-1.3388 1.03007,-2.07258 11.89515,4.73781 23.12446,7.59355 36.27897,9.61761 13.2912,1.80005 30.7503,3.36198 52.27674,3.33993 22.6641,-0.0212 40.70878,-1.98261 54.61556,-4.05166 21.15516,-3.414 32.71077,-7.80521 34.33436,-9.84427 l 1.49395,2.57881 0,0.002 z m -4.06206,-7.62442 c -2.29296,1.8415 -13.71805,5.89316 -33.81933,9.10344 -13.41467,1.9244 -30.4725,3.64508 -52.26528,3.66624 -20.70362,0.0203 -37.61946,-1.37495 -50.48559,-3.25085 -20.41436,-2.66435 -31.27768,-7.4736 -35.19687,-8.87589 0.3898,-0.67381 0.78666,-1.34408 1.1941,-2.01525 3.04875,1.53459 13.53373,5.79262 34.22677,8.7242 12.72062,1.80182 29.66027,3.1459 50.26159,3.12474 21.69048,-0.0203 38.5534,-1.77624 51.88341,-3.68653 20.20535,-2.77989 31.07749,-7.94721 32.72842,-9.24279 l 1.47278,2.45269"
     id="path1351"
     style="fill:#FFFF00;fill-rule:evenodd;stroke:none" />
  <path
     d="m 330.44092,156.71106 c -0.73904,1.18181 -14.74283,6.01134 -35.37325,9.57528 -13.98791,2.13254 -32.23367,3.95552 -55.00448,3.97757 -21.63315,0.0203 -39.30479,-1.51959 -52.68418,-3.33287 -21.65609,-3.39549 -32.83336,-8.12007 -36.96509,-9.78959 0.39509,-0.78581 0.64908,-1.33703 1.03006,-2.07081 11.89515,4.73605 23.12446,7.59179 36.27897,9.61585 13.29121,1.80005 30.7503,3.36197 52.27586,3.34169 22.6641,-0.0229 40.70878,-1.98438 54.61556,-4.05342 21.15516,-3.41224 32.71077,-7.80345 34.33436,-9.84251 l 1.49395,2.57881 -0.002,0 z m -4.0603,-7.62265 c -2.29295,1.8415 -13.71805,5.89316 -33.81933,9.10344 -13.41467,1.92264 -30.4725,3.64331 -52.26528,3.66448 -20.70362,0.0203 -37.61946,-1.37495 -50.48471,-3.24909 -20.41436,-2.66612 -31.27856,-7.47536 -35.19598,-8.87765 0.3898,-0.67381 0.78666,-1.34232 1.1941,-2.01349 3.04787,1.53459 13.53285,5.79086 34.22589,8.72244 12.71973,1.80358 29.66114,3.14766 50.26158,3.1265 21.69048,-0.0221 38.55341,-1.77624 51.88342,-3.6883 20.20535,-2.77989 31.07748,-7.9472 32.72753,-9.24102 l 1.47278,2.45093 0,0.002 z"
     id="path1353"
     style="fill:none;stroke:#000000;stroke-width:0.57315809;stroke-linecap:round;stroke-linejoin:round" />
  <path
     d="m 140.88051,205.65725 c 18.59764,10.00302 59.90523,15.04421 98.99395,15.39082 35.59108,0.0564 81.95817,-5.50158 99.29733,-14.68968 l -0.47712,-10.01184 c -5.4246,8.47726 -55.11295,16.60879 -99.2056,16.2763 -44.09266,-0.3325 -85.03779,-7.14288 -98.68705,-15.9588 l 0.0794,8.99143"
     id="path1355"
     style="fill:#FFFF00;fill-rule:evenodd;stroke:none" />
  <path
     d="m 340.12248,204.21703 8.8e-4,2.38919 c -2.60603,3.11415 -18.94598,7.82373 -39.43619,11.13985 -15.59562,2.39095 -35.92797,4.19453 -61.26248,4.19453 -24.06898,0 -43.2619,-1.7145 -58.14759,-4.00139 -23.52837,-3.42459 -38.57898,-9.42446 -41.59951,-11.21569 l 0.0132,-2.78342 c 9.07481,6.03162 33.66059,10.44487 41.91699,11.79601 14.7878,2.27189 33.86784,3.97493 57.81688,3.97493 25.21634,0 45.43403,-1.79299 60.93089,-4.16807 14.70137,-2.12373 35.64399,-7.64647 39.7669,-11.32418 l 0,-0.002 z m 0.01,-8.49225 8.8e-4,2.38919 c -2.60603,3.11415 -18.94598,7.82373 -39.43619,11.13985 -15.59562,2.39095 -35.92797,4.19453 -61.26248,4.19453 -24.06898,0 -43.26278,-1.7145 -58.14759,-4.00139 -23.52837,-3.42459 -38.57898,-9.42446 -41.59951,-11.21746 l 0.0123,-2.78341 c 9.0757,6.0325 33.66147,10.44663 41.91699,11.79601 14.7878,2.27189 33.86784,3.97581 57.81688,3.97581 25.21634,0 45.43403,-1.79211 60.93177,-4.16896 14.70137,-2.12372 35.64399,-7.64646 39.7669,-11.32417"
     id="path1357"
     style="fill:#FFFF00;fill-rule:evenodd;stroke:none" />
  <path
     d="m 340.12248,204.21879 8.8e-4,2.38743 c -2.60603,3.11591 -18.94598,7.8255 -39.43707,11.14161 -15.59474,2.39095 -35.92709,4.19453 -61.2616,4.19453 -24.06898,0 -43.26278,-1.71626 -58.14847,-4.00138 -23.52925,-3.42636 -38.57898,-9.42623 -41.59951,-11.21746 l 0.0132,-2.78519 c 9.07481,6.03339 33.66059,10.44664 41.91699,11.79778 14.7878,2.27013 33.86784,3.97317 57.81688,3.97317 25.21634,0 45.43403,-1.79123 60.93088,-4.16631 14.70138,-2.12373 35.644,-7.64647 39.76691,-11.32418 l 8.8e-4,0 z m 0.01,-8.49225 8.8e-4,2.38743 c -2.60603,3.11415 -18.94598,7.82373 -39.43707,11.13985 -15.59474,2.39095 -35.92709,4.19453 -61.2616,4.19453 -24.06898,0 -43.26278,-1.7145 -58.14847,-4.00139 -23.52925,-3.42459 -38.57898,-9.42446 -41.59951,-11.21569 l 0.0132,-2.78518 c 9.07481,6.0325 33.66059,10.44663 41.91699,11.79601 14.7878,2.27189 33.86784,3.97581 57.81688,3.97581 25.21634,0 45.43403,-1.79211 60.93088,-4.16896 14.70138,-2.12372 35.644,-7.64646 39.76691,-11.32417 l 8.8e-4,0.002 z"
     id="path1359"
     style="fill:none;stroke:#000000;stroke-width:0.57282209;stroke-linecap:round;stroke-linejoin:round" />
  <path
     d="m 239.78715,260.3202 c -42.77156,-0.25489 -79.42092,-11.65932 -87.15965,-13.54403 l 5.64332,8.83444 c 13.67042,5.75028 49.42377,14.32014 81.9273,13.37117 32.50353,-0.94809 60.90972,-3.46605 80.92811,-13.21066 l 5.78618,-9.15547 c -13.6422,6.42497 -60.0675,13.63928 -87.12526,13.70455"
     id="path1361"
     style="fill:#FFFF00;fill-rule:evenodd;stroke:none" />
  <path
     d="m 323.30189,253.71972 c -0.85016,1.29734 -1.71707,2.58057 -2.59722,3.82941 -9.44168,3.32757 -24.31944,6.82272 -30.59684,7.84225 -12.82292,2.64407 -32.66404,4.59582 -50.27305,4.60464 -37.88933,-0.55475 -68.90508,-7.97367 -83.49622,-14.30074 l -1.17734,-2.02407 0.19313,-0.30427 1.99664,0.77435 c 25.94832,9.28159 55.0909,12.98488 82.69721,13.65163 17.53758,0.0617 35.09545,-2.00996 49.29149,-4.54908 21.77161,-4.3621 30.5748,-7.64999 33.27607,-9.14047 l 0.68613,-0.38541 0,0.002 z m 5.01628,-8.27705 c 0.022,0.0256 0.0441,0.052 0.0653,0.0776 -0.63585,1.07332 -1.29111,2.16517 -1.96224,3.26231 -5.03657,1.80182 -18.70258,5.79967 -38.65923,8.59103 -13.14922,1.78946 -21.32184,3.52425 -47.47918,4.03401 -49.01633,-1.24707 -80.75084,-10.83204 -88.28937,-13.19654 l -1.11737,-2.14136 c 28.40619,7.41539 57.4209,12.59153 89.40763,13.1207 23.93052,-0.50977 34.11124,-2.2719 47.15022,-4.04813 23.27085,-3.62039 34.99579,-7.45156 38.51636,-8.55751 -0.045,-0.0635 -0.097,-0.13053 -0.15521,-0.19844 l 2.52313,-0.94192"
     id="path1363"
     style="fill:#FFFF00;fill-rule:evenodd;stroke:none" />
  <path
     d="m 323.30101,253.71796 c -0.85016,1.2991 -1.71708,2.58233 -2.59634,3.8294 -9.44168,3.32934 -24.31944,6.82449 -30.59684,7.84402 -12.8238,2.64231 -32.66492,4.59405 -50.27394,4.60287 -37.89021,-0.55474 -68.90508,-7.9719 -83.49621,-14.29897 l -1.17734,-2.02407 0.19225,-0.30427 1.99664,0.77435 c 25.94832,9.28335 55.0909,12.98664 82.69809,13.65163 17.53758,0.0617 35.09456,-2.00996 49.29237,-4.54908 21.77073,-4.3621 30.57391,-7.64999 33.27519,-9.14047 l 0.68701,-0.38541 -8.8e-4,0 z m 5.01716,-8.27529 c 0.022,0.0256 0.0441,0.0503 0.0653,0.0776 -0.63585,1.07332 -1.29111,2.16517 -1.96224,3.26231 -5.03568,1.80005 -18.7017,5.79879 -38.65923,8.58926 -13.14922,1.79123 -21.32184,3.52602 -47.47918,4.03402 -49.01545,-1.24707 -80.74995,-10.83117 -88.28937,-13.19478 l -1.11737,-2.14312 c 28.40619,7.41539 57.42178,12.59152 89.40763,13.12069 23.9314,-0.50976 34.11212,-2.27189 47.15198,-4.04989 23.27086,-3.61862 34.9958,-7.44979 38.51548,-8.55575 -0.0441,-0.0635 -0.0961,-0.13053 -0.15433,-0.19932 l 2.52313,-0.9428 -0.002,0.002 z"
     id="path1365"
     style="fill:none;stroke:#000000;stroke-width:0.54985231;stroke-linecap:round;stroke-linejoin:round" />
  <path
     d="m 239.84095,111.05277 c 49.11687,0 88.77442,39.93623 88.77442,89.06322 0,49.12521 -39.65843,88.79334 -88.77442,88.79334 -49.11687,0 -88.90847,-39.8013 -88.90847,-88.92828 0,-49.12698 39.7916,-88.92652 88.90847,-88.92652 l 0,-0.002 z m 0,-8.80005 c 53.81567,0 97.70813,43.90058 97.70813,97.72833 0,53.82686 -43.89246,97.72921 -97.70813,97.72921 -53.81567,0 -97.70813,-43.90146 -97.70813,-97.72921 0,-53.82775 43.89246,-97.72833 97.70813,-97.72833"
     id="path1367"
     style="fill:#FFFF00;fill-rule:evenodd;stroke:none" />
  <path
     d="m 239.90709,101.07797 c 54.53354,0 99.01071,44.48266 99.01071,99.02038 0,54.53948 -44.47717,99.02125 -99.01071,99.02125 -54.53354,0 -99.0107,-44.48177 -99.0107,-99.02125 0,-54.53772 44.47716,-99.02038 99.0107,-99.02038 z m 0,2.17841 c 53.09692,0 96.8324,43.58219 96.8324,96.84197 0,53.26154 -43.73637,96.84373 -96.8324,96.84373 -53.09603,0 -96.83239,-43.58219 -96.83239,-96.84373 0,-53.25978 43.73548,-96.84197 96.83239,-96.84197"
     id="path1369"
     style="fill:#FFFF00;fill-rule:evenodd;stroke:none" />
  <path
     d="m 239.90709,101.07797 c 54.53354,0 99.01071,44.48266 99.01071,99.02214 0,54.53772 -44.47805,99.02038 -99.01071,99.02038 -54.53354,0 -99.0107,-44.4809 -99.0107,-99.02038 0,-54.53948 44.47804,-99.02214 99.0107,-99.02214 z m 0,2.17841 c 53.09603,0 96.83328,43.58219 96.83328,96.84373 0,53.25978 -43.73636,96.84197 -96.83328,96.84197 -53.09603,0 -96.83239,-43.58219 -96.83239,-96.84197 0,-53.25978 43.73636,-96.84373 96.83239,-96.84373 z"
     id="path1371"
     style="fill:none;stroke:#000000;stroke-width:0.57282209;stroke-linecap:round;stroke-linejoin:round" />
  <path
     d="m 239.9944,109.30828 c 49.73068,0 90.69345,40.82083 90.69345,90.70364 0,49.88369 -40.96277,90.70275 -90.69345,90.70275 -49.7298,0 -90.69345,-40.81906 -90.69345,-90.70275 0,-49.88281 40.96365,-90.70364 90.69345,-90.70364 z m 0,2.17841 c 48.53658,0 88.51514,39.83922 88.51514,88.52523 0,48.68512 -39.97944,88.52434 -88.51514,88.52434 -48.5357,0 -88.51514,-39.83922 -88.51514,-88.52434 0,-48.68601 39.97856,-88.52523 88.51514,-88.52523 z"
     id="path1375"
     style="fill:none;stroke:#000000;stroke-width:0.57282209;stroke-linecap:round;stroke-linejoin:round" />
  <path
     d="m 235.89971,299.85338 8.61446,0 0,-199.24108 -8.61446,0 0,199.24108 z"
     id="path1377"
     style="fill:#FFFF00;fill-rule:evenodd;stroke:none" />
  <path
     d="m 237.02061,100.68286 6.01901,0"
     id="path1379"
     style="fill:none;stroke:#000000;stroke-width:0.57282209;stroke-linecap:round;stroke-linejoin:round" />
  <path
     d="m 237.0312,299.64436 6.04811,0"
     id="path1381"
     style="fill:none;stroke:#000000;stroke-width:0.57282209;stroke-linecap:round;stroke-linejoin:round" />
  <path
     d="m 243.12781,99.546033 2.15979,0 0.0185,201.251027 -2.16155,0 -0.0159,-201.251027 -8.8e-4,0 z m -8.42132,0.0018 2.17655,0 0.002,201.247507 -2.17743,0 0,-201.247507"
     id="path1383"
     style="fill:#FFFF00;fill-rule:evenodd;stroke:none" />
  <path
     d="m 243.12781,99.546033 2.15979,0 0.0185,201.251027 -2.16155,0 -0.0159,-201.251027 -8.8e-4,0 z m -8.42132,0.0018 2.17655,0 0.003,201.247507 -2.17831,0 0,-201.247507 -8.8e-4,0 z"
     id="path1385"
     style="fill:none;stroke:#000000;stroke-width:0.57295704;stroke-linecap:round;stroke-linejoin:round" />
  <path
     d="m 140.54186,195.88353 c 12.41636,-11.43089 58.22696,-18.84275 98.87225,-18.65049 40.64528,0.19138 88.78059,8.54252 99.25234,18.40707 l 0.10495,8.52488 c -8.76967,-8.24883 -46.1669,-18.08604 -99.27704,-18.19628 -53.11102,-0.11025 -91.67236,9.99772 -98.95426,18.41677 l 0.002,-8.50195"
     id="path1387"
     style="fill:#FFFF00;fill-rule:evenodd;stroke:none" />
  <path
     d="m 140.51717,196.27952 0,7.35719"
     id="path1389"
     style="fill:none;stroke:#000000;stroke-width:0.57242781;stroke-linecap:round;stroke-linejoin:round" />
  <path
     d="m 338.99188,196.58291 0,7.35542"
     id="path1391"
     style="fill:none;stroke:#000000;stroke-width:0.57242781;stroke-linecap:round;stroke-linejoin:round" />
  <path
     d="m 239.95472,184.7675 c 23.38285,-0.0432 46.069,2.21721 64.06517,5.71941 18.56942,3.71387 31.63662,8.35731 36.10435,13.57313 l -0.005,2.58057 c -5.38844,-6.48847 -22.97277,-11.24656 -36.51796,-13.96648 -17.8586,-3.47574 -40.39394,-5.71853 -63.64716,-5.67355 -24.53815,0.0441 -47.38657,2.36979 -64.98412,5.80144 -14.1202,2.80193 -32.95154,8.36965 -35.3027,13.858 l 0,-2.68905 c 1.29199,-3.79854 15.31342,-9.47915 34.98521,-13.41703 17.72808,-3.45723 40.61971,-5.7397 65.30161,-5.78644 l 8.9e-4,0 z m 0.01,-8.49225 c 23.38285,-0.0423 46.069,2.21721 64.06518,5.71941 18.56941,3.71387 31.63661,8.35731 36.10435,13.57313 l -0.005,2.58058 c -5.38844,-6.48847 -22.97277,-11.24657 -36.51796,-13.96649 -17.8586,-3.47574 -40.39394,-5.71853 -63.64716,-5.67355 -24.53815,0.0441 -47.27721,2.36979 -64.87476,5.80144 -13.62633,2.58321 -33.2267,8.36965 -35.41206,13.858 l 0,-2.68905 c 1.29199,-3.75885 15.59651,-9.64142 34.98609,-13.41703 17.72808,-3.45723 40.61971,-5.7397 65.30162,-5.78644"
     id="path1393"
     style="fill:#FFFF00;fill-rule:evenodd;stroke:none" />
  <path
     d="m 239.95472,184.7675 c 23.38285,-0.0432 46.06988,2.21544 64.06517,5.71941 18.56942,3.71211 31.63662,8.35555 36.10524,13.57137 l -0.005,2.58233 c -5.38844,-6.49023 -22.97276,-11.24832 -36.51796,-13.96824 -17.85771,-3.47398 -40.39306,-5.71677 -63.64715,-5.67355 -24.53816,0.0459 -47.38658,2.36978 -64.98413,5.8032 -14.1202,2.80193 -32.95065,8.36789 -35.30182,13.858 l 0,-2.68905 c 1.29111,-3.8003 15.31254,-9.47915 34.98433,-13.41703 17.72896,-3.45723 40.61971,-5.74146 65.30162,-5.78644 z m 0.01,-8.49225 c 23.38285,-0.0423 46.06988,2.21721 64.06518,5.71941 18.56941,3.71387 31.63661,8.35555 36.10523,13.57137 l -0.005,2.58234 c -5.38845,-6.48847 -22.97277,-11.24657 -36.51797,-13.96649 -17.85771,-3.47574 -40.39306,-5.71853 -63.64715,-5.67355 -24.53816,0.0441 -47.27634,2.36979 -64.87477,5.80144 -13.62633,2.58321 -33.22581,8.36965 -35.41206,13.85976 l 0,-2.69081 c 1.29111,-3.75885 15.59651,-9.64142 34.98521,-13.41703 17.72896,-3.45723 40.61971,-5.7397 65.30162,-5.78644 z"
     id="path1395"
     style="fill:none;stroke:#000000;stroke-width:0.57282209;stroke-linecap:round;stroke-linejoin:round" />
  <path
     d="m 239.47849,132.96205 c 36.84867,-0.18433 68.98974,5.15232 83.69464,12.68501 l 5.36375,9.27895 c -12.78058,-6.888 -47.45624,-14.05027 -89.00548,-12.97871 -33.85373,0.20814 -70.02686,3.7271 -88.17649,13.40998 l 6.40352,-10.70946 c 14.89539,-7.72408 50.02171,-11.64256 81.72006,-11.68401"
     id="path1397"
     style="fill:#FFFF00;fill-rule:evenodd;stroke:none" />
  <path
     d="m 324.10619,147.14549 3.6502,5.86052"
     id="path1399"
     style="fill:none;stroke:#000000;stroke-width:0.57409382;stroke-linecap:round;stroke-linejoin:round" />
  <path
     d="m 239.96618,140.62439 c 21.0167,-0.0573 41.32612,1.12977 57.47734,4.04371 15.04091,2.7993 29.38511,6.99912 31.43466,9.26219 l 1.58919,2.80988 c -4.98806,-3.25703 -17.4,-6.88358 -33.33869,-9.90601 -16.00747,-3.00831 -36.30101,-4.00491 -57.2013,-3.95023 -23.72239,-0.0811 -42.15158,1.16946 -57.96945,3.9273 -16.72711,3.13179 -28.33299,7.60148 -31.19742,9.72697 l 1.55921,-2.96951 c 5.56306,-2.8381 14.39006,-6.25916 29.22283,-8.92969 16.35671,-2.98803 34.98257,-3.88585 58.42275,-4.01461 l 8.8e-4,0 z m -0.009,-8.48255 c 20.11363,-0.0547 39.97239,1.06627 55.45249,3.85057 12.2091,2.37508 24.28328,6.08718 28.70339,9.38742 l 2.32559,3.69712 c -3.95271,-4.3965 -18.83575,-8.56016 -31.9735,-10.89202 -15.36193,-2.64937 -34.3961,-3.698 -54.50797,-3.86557 -21.10754,0.0573 -40.6153,1.35026 -55.75233,4.1081 -14.4421,2.74814 -23.76031,6.00164 -27.70332,8.54076 l 2.04514,-3.08681 c 5.44136,-2.86456 14.2322,-5.4954 25.30277,-7.6447 15.24992,-2.77636 34.87674,-4.03755 56.10774,-4.09487"
     id="path1401"
     style="fill:#FFFF00;fill-rule:evenodd;stroke:none" />
  <path
     d="m 239.96618,140.62439 c 21.0167,-0.0556 41.32523,1.12977 57.47646,4.04371 15.04091,2.7993 29.38511,7.00088 31.43554,9.26043 l 1.59008,2.80987 c -4.98806,-3.25702 -17.40089,-6.88358 -33.3387,-9.906 -16.00571,-3.00832 -36.30013,-4.00492 -57.20042,-3.95024 -23.72151,-0.0811 -42.15246,1.17123 -57.96856,3.92907 -16.728,3.13002 -28.33388,7.60148 -31.19743,9.72609 l 1.55833,-2.97039 c 5.56306,-2.8381 14.39006,-6.25917 29.22284,-8.9297 16.35671,-2.98802 34.98256,-3.88408 58.42274,-4.01284 l -8.8e-4,0 z m -0.009,-8.48432 c 20.11275,-0.0529 39.97239,1.06804 55.4516,3.85058 12.20911,2.37684 24.28329,6.08718 28.70428,9.38918 l 2.32559,3.69535 c -3.95359,-4.39473 -18.83575,-8.55927 -31.9735,-10.89202 -15.36104,-2.64936 -34.39522,-3.69799 -54.50797,-3.86556 -21.10754,0.0591 -40.6153,1.35202 -55.75233,4.1081 -14.44121,2.74814 -23.76031,6.00163 -27.70332,8.54252 l 2.04514,-3.08681 c 5.44136,-2.86456 14.2322,-5.4954 25.30277,-7.64647 15.24904,-2.77636 34.87585,-4.03578 56.10774,-4.09487 z"
     id="path1403"
     style="fill:none;stroke:#000000;stroke-width:0.57315809;stroke-linecap:round;stroke-linejoin:round" />
  <path
     d="m 289.1492,241.26225 c -18.21754,-3.40078 -36.46946,-3.89467 -49.21653,-3.74474 -61.40712,0.71967 -81.24383,12.60917 -83.66466,16.20927 l -4.58944,-7.48154 c 15.63355,-11.33211 49.07278,-17.68653 88.58658,-17.03742 20.51754,0.33602 38.22357,1.69863 53.11896,4.58347 l -4.2358,7.47272"
     id="path1405"
     style="fill:#FFFF00;fill-rule:evenodd;stroke:none" />
  <path
     d="m 152.69805,247.28064 3.01259,5.18672"
     id="path1407"
     style="fill:none;stroke:#000000;stroke-width:0.57282209;stroke-linecap:round;stroke-linejoin:round" />
  <path
     d="m 239.58167,236.46182 c 17.08164,0.25488 33.8502,0.96044 50.03317,3.97845 l -1.17205,2.06905 c -15.03121,-2.7746 -31.05456,-3.83646 -48.80292,-3.7518 -22.66233,-0.1755 -45.58483,1.94116 -65.5406,7.66852 -6.29681,1.75066 -16.72094,5.80055 -17.78452,9.14576 l -1.165,-1.9244 c 0.33513,-1.97732 6.63635,-6.07925 18.41332,-9.3883 22.85812,-6.5458 44.23905,-7.64911 66.01948,-7.79904 l -8.8e-4,0.002 z m 0.77519,-8.59632 c 17.69809,0.33073 35.97471,1.14918 53.73983,4.66814 l -1.22056,2.15547 c -16.04099,-3.18558 -31.36851,-4.24656 -52.41432,-4.57024 -22.73465,0.0397 -46.85037,1.66247 -68.77808,8.03717 -7.07906,2.06198 -19.29699,6.52022 -19.70531,10.048 l -1.165,-2.06552 c 0.26457,-3.20587 10.84215,-7.38805 20.35792,-10.1556 22.09615,-6.42408 46.27537,-8.07597 69.18552,-8.11742"
     id="path1409"
     style="fill:#FFFF00;fill-rule:evenodd;stroke:none" />
  <path
     d="m 239.58167,236.46182 c 17.08164,0.25488 33.84932,0.96044 50.03317,3.97845 l -1.17205,2.06905 c -15.03121,-2.7746 -31.05456,-3.83646 -48.80292,-3.75003 -22.66322,-0.17727 -45.58483,1.93939 -65.54149,7.66675 -6.2968,1.75242 -16.72093,5.80055 -17.78363,9.14576 l -1.16588,-1.92264 c 0.33601,-1.97732 6.63634,-6.08101 18.4142,-9.39006 22.85812,-6.5458 44.23905,-7.64911 66.0186,-7.79904 l 0,0.002 z m 0.77519,-8.59632 c 17.69809,0.33073 35.97471,1.14918 53.73983,4.66814 l -1.22056,2.15371 c -16.04187,-3.18471 -31.36851,-4.24657 -52.4152,-4.57024 -22.73466,0.0414 -46.85126,1.66246 -68.77809,8.03716 -7.07906,2.06199 -19.29698,6.52022 -19.70442,10.04977 l -1.16588,-2.06552 c 0.26545,-3.20587 10.84215,-7.38805 20.35792,-10.1556 22.09615,-6.42408 46.27537,-8.07597 69.1864,-8.11742 z"
     id="path1411"
     style="fill:none;stroke:#000000;stroke-width:0.54985231;stroke-linecap:round;stroke-linejoin:round" />
  <path
     d="m 156.89857,144.51553 c 30.4187,-0.39511 170.90809,85.84852 171.32171,101.72971 l -8.70353,13.34118 C 315.59315,241.15024 173.03657,157.22435 149.51966,158.80568 l 7.37891,-14.29015"
     id="path1419"
     style="fill:#FFFF00;fill-rule:evenodd;stroke:none" />
  <path
     d="m 327.5809,247.37765 -7.37891,11.44941"
     id="path1421"
     style="fill:none;stroke:#000000;stroke-width:0.5729773;stroke-linecap:round;stroke-linejoin:round" />
  <path
     d="M 156.6728,145.26959 149.80893,157.989"
     id="path1423"
     style="fill:none;stroke:#000000;stroke-width:0.5729773;stroke-linecap:round;stroke-linejoin:round" />
  <path
     d="m 148.64922,158.29592 c 5.64685,-3.82941 47.13876,14.65351 90.55499,40.83229 43.30071,26.25374 84.67797,55.92148 80.9431,61.47509 l -1.22938,1.93058 -0.56354,0.44626 c 0.12083,-0.0882 0.74345,-0.84755 -0.0609,-2.90601 -1.84494,-6.07042 -31.19478,-29.49135 -79.89363,-58.8954 -47.47476,-28.31044 -87.04059,-45.37078 -90.99682,-40.49539 l 1.24702,-2.38742 -8.9e-4,0 z m 180.44238,88.92475 c 3.56996,-7.05027 -34.91642,-36.04421 -82.63195,-64.27174 -48.81349,-27.66397 -83.99361,-43.95085 -90.42005,-39.09486 l -1.42869,2.59733 c -0.0115,0.14463 0.052,-0.17551 0.35364,-0.41011 1.16941,-1.01953 3.10519,-0.95074 3.97916,-0.96661 11.06616,0.16581 42.6675,14.70908 87.00532,40.1285 19.42839,11.31623 82.07105,51.49059 81.83294,62.78919 0.0168,0.97102 0.0802,1.16946 -0.28574,1.65012 l 1.59361,-2.42182"
     id="path1425"
     style="fill:#FFFF00;fill-rule:evenodd;stroke:none" />
  <path
     d="m 148.64922,158.29415 c 5.64597,-3.8294 47.13876,14.65528 90.55499,40.83406 43.30071,26.25374 84.67709,55.92148 80.94222,61.47333 l -1.2285,1.93234 -0.56354,0.4445 c 0.12083,-0.0864 0.74345,-0.84755 -0.0609,-2.90601 -1.84494,-6.07043 -31.19478,-29.49136 -79.89363,-58.8954 -47.47476,-28.30868 -87.04147,-45.37078 -90.99682,-40.49363 l 1.24702,-2.38919 -8.9e-4,0 z m 180.44238,88.92652 c 3.56996,-7.05203 -34.91642,-36.04421 -82.63195,-64.27174 -48.81261,-27.66574 -83.99361,-43.95085 -90.42005,-39.09486 l -1.42781,2.59909 c -0.0124,0.14287 0.052,-0.17727 0.35364,-0.4101 1.16853,-1.01953 3.1052,-0.95074 3.97916,-0.96662 11.06528,0.16581 42.66662,14.70908 87.0062,40.1285 19.42751,11.31536 82.07106,51.4906 81.83206,62.78919 0.0168,0.97102 0.0803,1.17123 -0.28485,1.65189 l 1.5936,-2.42359 0,-0.002 z"
     id="path1427"
     style="fill:none;stroke:#000000;stroke-width:0.57300466;stroke-linecap:round;stroke-linejoin:round" />
  <path
     d="m 180.59715,211.00712 c 0,16.27013 6.6628,30.98714 17.45821,41.74246 10.8157,10.77825 25.51266,17.57893 41.80852,17.57893 16.3814,0 31.24681,-6.65251 42.01576,-17.38931 10.76896,-10.73504 17.44411,-25.55083 17.44587,-41.87828 l -8.8e-4,0 0,-79.18896 -118.73983,-0.14111 0.0123,79.27627"
     id="path1429"
     style="fill:#ffffff;fill-rule:evenodd;stroke:none" />
  <path
     d="m 180.59627,211.00712 c 0,16.27101 6.6628,30.98714 17.45733,41.74246 10.81481,10.77825 25.51177,17.57893 41.80852,17.57893 16.3814,0 31.24681,-6.65251 42.01576,-17.38931 10.76895,-10.73504 17.44322,-25.55171 17.44587,-41.88004 l -0.002,0 0,-79.18896 -118.73982,-0.14111 0.0123,79.27803 0.002,0 z"
     id="path1431"
     style="fill:none;stroke:#000000;stroke-width:0.67037189" />
  <path
     d="m 182.81955,211.11913 0,0.045 0,0 c 0,15.55663 6.44233,29.72419 16.77562,40.00944 10.35358,10.30464 24.614,16.71197 40.21403,16.71197 15.68029,0 29.91161,-6.36059 40.22109,-16.62554 10.3086,-10.26496 16.69712,-24.43253 16.69889,-40.0456 l -0.002,0 0,-76.82446 -113.83819,-0.0203 -0.0697,76.7495 m 91.02152,-53.74661 0.004,48.88886 -0.0423,5.17172 8.8e-4,0 c 0,1.36261 -0.082,2.91395 -0.23988,4.23334 -0.926,7.73113 -4.48096,14.46654 -9.74506,19.70794 -6.16364,6.13746 -14.67227,9.94129 -24.04693,9.94129 -9.32704,0 -17.639,-3.93789 -23.8291,-10.10004 -6.34884,-6.31825 -10.02903,-14.98424 -10.02903,-23.9448 l -0.0132,-54.02266 67.94115,0.12259"
     id="path1433"
     style="fill:#FF0000;fill-opacity:1;fill-rule:evenodd;stroke:none" />
  <path
     d="m 182.81867,211.11913 0,0.045 0,0 c 0,15.55663 6.44144,29.72419 16.77474,40.00944 10.35357,10.30464 24.61399,16.71197 40.21403,16.71197 15.68117,0 29.9116,-6.36059 40.22197,-16.62554 10.30771,-10.26496 16.69712,-24.43253 16.69889,-40.04384 l -0.002,0 0,-76.82622 -113.83819,-0.0185 -0.0697,76.74773 m 91.0224,-53.74661 0.004,48.89062 -0.0414,5.17173 8.8e-4,0 c 0,1.36084 -0.082,2.91218 -0.24076,4.23333 -0.92512,7.72937 -4.48008,14.46655 -9.74506,19.70795 -6.16364,6.13569 -14.67139,9.94128 -24.04693,9.94128 -9.32704,0 -17.639,-3.93788 -23.8291,-10.10003 -6.34972,-6.32002 -10.02992,-14.98601 -10.02992,-23.94657 l -0.0132,-54.02266 67.94028,0.12259 0.002,0.002 z"
     id="path1435"
     style="fill:none;stroke:#000000;stroke-width:0.50734437" />
  <use
     transform="translate(-20.74507,-0.040565)"
     id="use3438"
     xlink:href="#use3436" />
  <use
     transform="translate(-0.06747,51.79972)"
     id="use3434"
     xlink:href="#path1485" />
  <use
     transform="translate(-20.79887,0.05071)"
     id="use3440"
     xlink:href="#use3438" />
  <use
     transform="translate(20.81827,-25.742655)"
     id="use3436"
     xlink:href="#use3434" />
  <path
     d="m 232.63049,176.38549 0,0.005 c 0,2.21192 0.84927,4.22717 2.21182,5.68943 1.36519,1.46667 3.24541,2.37772 5.30202,2.37772 2.06718,0 3.94388,-0.90487 5.3029,-2.36537 1.35813,-1.45874 2.20212,-3.47222 2.20212,-5.69296 l 0,0 0,-10.76766 -14.99152,-0.0123 -0.0273,10.7659"
     id="path1485"
     style="fill:#003399;fill-opacity:1" />
  <use
     transform="translate(-28.88242,-34.22608)"
     id="use6346"
     xlink:href="#use5944" />
  <g
     id="g6250">
    <use
       transform="translate(10.60844,0)"
       id="use4364"
       xlink:href="#path1539" />
    <path
       d="m 190.19141,154.43388 c 0.13493,-5.52098 4.05235,-6.82802 4.08057,-6.84742 0.0282,-0.0185 4.23139,1.40758 4.21728,6.89857 l -8.29785,-0.0512"
       id="path1497"
       style="fill:#FFFF00;fill-rule:evenodd;stroke:none" />
    <path
       d="m 186.8093,147.68435 -0.68172,6.34648 4.14055,0.009 c 0.0397,-5.24934 3.97475,-6.12246 4.07,-6.10306 0.0891,-0.005 3.98886,1.15888 4.09292,6.10306 l 4.15113,0 -0.7505,-6.39322 -15.0215,0.0379"
       id="path1499"
       style="fill:#FFFF00;fill-rule:evenodd;stroke:none" />
    <path
       d="m 186.8093,147.68612 -0.68172,6.34471 4.14055,0.009 c 0.0397,-5.24934 3.97387,-6.12246 4.06912,-6.10306 0.0891,-0.005 3.98886,1.16064 4.09292,6.10306 l 4.15113,0 -0.74962,-6.39322 -15.02238,0.0379 0,0.002 z"
       id="path1501"
       style="fill:none;stroke:#000000;stroke-width:0.49936473" />
    <path
       d="m 185.85155,154.05994 16.94582,0 c 0.35629,0 0.6482,0.35277 0.6482,0.78404 0,0.42863 -0.29103,0.78141 -0.6482,0.78141 l -16.94582,0 c -0.35718,0 -0.64909,-0.35102 -0.64909,-0.78141 0,-0.43127 0.29191,-0.78404 0.64909,-0.78404"
       id="path1503"
       style="fill:#FFFF00;fill-rule:evenodd;stroke:none" />
    <path
       d="m 185.85066,154.05994 16.94583,0 c 0.35717,0 0.64908,0.35277 0.64908,0.78404 l 0,0 c 0,0.43039 -0.29191,0.78141 -0.64908,0.78141 l -16.94583,0 c -0.35717,0 -0.64908,-0.35102 -0.64908,-0.78141 l 0,0 c 0,-0.43127 0.29191,-0.78404 0.64908,-0.78404 z"
       id="path1505"
       style="fill:none;stroke:#000000;stroke-width:0.49943003" />
    <path
       d="m 192.01431,154.02907 c 0.0185,-3.31259 2.26208,-4.2501 2.27355,-4.24833 8.8e-4,0 2.34146,0.96661 2.35998,4.24833 l -4.63353,0"
       id="path1507"
       style="fill:#FFFF00;fill-rule:evenodd;stroke:none" />
    <path
       d="m 192.01431,154.02907 c 0.0185,-3.31259 2.26208,-4.2501 2.27355,-4.24833 8.8e-4,0 2.34234,0.96661 2.36086,4.24833 l -4.63441,0"
       id="path1509"
       style="fill:none;stroke:#000000;stroke-width:0.49703202" />
    <path
       d="m 186.20784,145.05616 16.2447,0 c 0.34218,0 0.62263,0.31662 0.62263,0.70467 0,0.38541 -0.28045,0.70468 -0.62263,0.70468 l -16.2447,0 c -0.34218,0 -0.62263,-0.3175 -0.62263,-0.70468 0,-0.38805 0.28045,-0.70467 0.62263,-0.70467"
       id="path1511"
       style="fill:#FFFF00;fill-rule:evenodd;stroke:none" />
    <path
       d="m 186.20784,145.05439 16.2447,0 c 0.34218,0 0.62263,0.31839 0.62263,0.70468 l 0,0 c 0,0.38717 -0.28045,0.70467 -0.62263,0.70467 l -16.2447,0 c -0.34218,0 -0.62263,-0.31573 -0.62263,-0.70467 l 0,0 c 0,-0.38629 0.28045,-0.70468 0.62263,-0.70468 z"
       id="path1513"
       style="fill:none;stroke:#000000;stroke-width:0.49901107" />
    <path
       d="m 186.5509,146.46551 15.53918,0 c 0.32719,0 0.59617,0.31662 0.59617,0.70379 0,0.38805 -0.2681,0.70467 -0.59617,0.70467 l -15.53918,0 c -0.32719,0 -0.59529,-0.31662 -0.59529,-0.70467 0,-0.38717 0.2681,-0.70379 0.59529,-0.70379"
       id="path1515"
       style="fill:#FFFF00;fill-rule:evenodd;stroke:none" />
    <path
       d="m 186.5509,146.46551 15.5383,0 c 0.32719,0 0.59529,0.31662 0.59529,0.70379 l 0,0 c 0,0.38805 -0.2681,0.70467 -0.59529,0.70467 l -15.5383,0 c -0.32719,0 -0.59529,-0.31662 -0.59529,-0.70467 l 0,0 c 0,-0.38717 0.2681,-0.70379 0.59529,-0.70379 z"
       id="path1517"
       style="fill:none;stroke:#000000;stroke-width:0.49901107" />
    <use
       transform="translate(-5.27909,-3.162655)"
       id="use4658"
       xlink:href="#use4656" />
    <path
       d="m 191.57159,135.88217 1.22673,0.002 0,0.87136 0.89513,0 0,-0.89076 1.25672,0.004 0,0.88723 0.89778,0 0,-0.89076 1.2576,0 -0.002,2.01171 c 0,0.31574 -0.25398,0.52035 -0.54854,0.52035 l -4.41129,0 c -0.29633,0 -0.56972,-0.23724 -0.5706,-0.52652 l -0.003,-1.9879 8.8e-4,0 z"
       id="path1521"
       style="fill:none;stroke:#000000;stroke-width:0.50025284" />
    <path
       d="m 196.19366,138.5721 0.27692,6.45319 -4.30282,-0.0159 0.28485,-6.45055 3.74193,0.015"
       id="path1523"
       style="fill:#FFFF00;fill-rule:evenodd;stroke:none" />
    <path
       d="m 196.19278,138.57386 0.27691,6.45143 -4.30282,-0.0159 0.28486,-6.45231 3.74105,0.0168"
       id="path1525"
       style="fill:none;stroke:#000000;stroke-width:0.49897757" />
    <use
       transform="translate(10.60845,0)"
       id="use4656"
       xlink:href="#path1535" />
    <use
       transform="translate(10.60889,0)"
       id="use4366"
       xlink:href="#path1541" />
    <use
       transform="translate(10.60889,-0.010585)"
       id="use4660"
       xlink:href="#path1537" />
    <path
       d="m 186.3022,139.04482 1.20027,0.002 0,0.87136 0.87662,0 0,-0.89077 1.22938,0.004 0,0.88724 0.87926,0 0,-0.89077 1.23025,0.002 -0.002,2.01171 c 0,0.31398 -0.2487,0.51859 -0.5362,0.51859 l -4.31693,0 c -0.29014,0 -0.55824,-0.23548 -0.55824,-0.52741 l -0.002,-1.98702"
       id="path1535"
       style="fill:#FFFF00;fill-rule:evenodd;stroke:none" />
    <path
       d="m 186.3022,139.04482 1.19939,0.003 0,0.87224 0.8775,0 0,-0.89253 1.22938,0.004 0,0.889 0.87926,0 0,-0.89253 1.23025,0.002 -0.002,2.01171 c 0,0.31398 -0.2487,0.51859 -0.5362,0.51859 l -4.31693,0 c -0.28926,0 -0.55824,-0.23548 -0.55913,-0.52564 l -0.003,-1.98879 8.8e-4,0 z"
       id="path1537"
       style="fill:none;stroke:#000000;stroke-width:0.50017256;stroke-opacity:1" />
    <path
       d="m 190.93926,141.55925 0.13141,3.47751 -4.12644,0.002 0.11641,-3.47927 3.87862,0"
       id="path1539"
       style="fill:#FFFF00;fill-rule:evenodd;stroke:none" />
    <path
       d="m 190.94014,141.55925 0.13141,3.47751 -4.12556,0.002 0.11641,-3.47927 3.87863,0 -8.9e-4,0 z"
       id="path1541"
       style="fill:none;stroke:#000000;stroke-width:0.50127673" />
    <path
       d="m 193.89806,140.61027 c -0.0265,-0.62706 0.87661,-0.63411 0.86603,0 l 0,1.53635 -0.86603,0 0,-1.53635"
       id="path1543"
       style="fill:#000000;fill-rule:evenodd;stroke:none" />
    <use
       transform="translate(10.64108,0)"
       id="use4362"
       xlink:href="#path1547" />
    <path
       d="m 188.56605,142.84424 c -0.003,-0.6059 0.83693,-0.61824 0.82635,0 l 0,1.1871 -0.82635,0 0,-1.1871"
       id="path1547"
       style="fill:#000000;fill-rule:evenodd;stroke:none" />
  </g>
  <use
     transform="translate(-45.20474,0)"
     id="use4984"
     xlink:href="#use4982" />
  <use
     transform="translate(90.91878,-46.31963)"
     id="use4982"
     xlink:href="#use4980" />
  <g
     transform="translate(0,46.31963)"
     id="use4980">
    <use
       transform="translate(10.60844,0)"
       id="use5166"
       xlink:href="#path1539" />
    <path
       d="m 190.19141,154.43388 c 0.13493,-5.52098 4.05235,-6.82802 4.08057,-6.84742 0.0282,-0.0185 4.23139,1.40758 4.21728,6.89857 l -8.29785,-0.0512"
       id="path5168"
       style="fill:#FFFF00;fill-rule:evenodd;stroke:none" />
    <path
       d="m 186.8093,147.68435 -0.68172,6.34648 4.14055,0.009 c 0.0397,-5.24934 3.97475,-6.12246 4.07,-6.10306 0.0891,-0.005 3.98886,1.15888 4.09292,6.10306 l 4.15113,0 -0.7505,-6.39322 -15.0215,0.0379"
       id="path5170"
       style="fill:#FFFF00;fill-rule:evenodd;stroke:none" />
    <path
       d="m 186.8093,147.68612 -0.68172,6.34471 4.14055,0.009 c 0.0397,-5.24934 3.97387,-6.12246 4.06912,-6.10306 0.0891,-0.005 3.98886,1.16064 4.09292,6.10306 l 4.15113,0 -0.74962,-6.39322 -15.02238,0.0379 0,0.002 z"
       id="path5172"
       style="fill:none;stroke:#000000;stroke-width:0.49936473" />
    <path
       d="m 185.85155,154.05994 16.94582,0 c 0.35629,0 0.6482,0.35277 0.6482,0.78404 0,0.42863 -0.29103,0.78141 -0.6482,0.78141 l -16.94582,0 c -0.35718,0 -0.64909,-0.35102 -0.64909,-0.78141 0,-0.43127 0.29191,-0.78404 0.64909,-0.78404"
       id="path5174"
       style="fill:#FFFF00;fill-rule:evenodd;stroke:none" />
    <path
       d="m 185.85066,154.05994 16.94583,0 c 0.35717,0 0.64908,0.35277 0.64908,0.78404 l 0,0 c 0,0.43039 -0.29191,0.78141 -0.64908,0.78141 l -16.94583,0 c -0.35717,0 -0.64908,-0.35102 -0.64908,-0.78141 l 0,0 c 0,-0.43127 0.29191,-0.78404 0.64908,-0.78404 z"
       id="path5176"
       style="fill:none;stroke:#000000;stroke-width:0.49943003" />
    <path
       d="m 192.01431,154.02907 c 0.0185,-3.31259 2.26208,-4.2501 2.27355,-4.24833 8.8e-4,0 2.34146,0.96661 2.35998,4.24833 l -4.63353,0"
       id="path5178"
       style="fill:#FFFF00;fill-rule:evenodd;stroke:none" />
    <path
       d="m 192.01431,154.02907 c 0.0185,-3.31259 2.26208,-4.2501 2.27355,-4.24833 8.8e-4,0 2.34234,0.96661 2.36086,4.24833 l -4.63441,0"
       id="path5180"
       style="fill:none;stroke:#000000;stroke-width:0.49703202" />
    <path
       d="m 186.20784,145.05616 16.2447,0 c 0.34218,0 0.62263,0.31662 0.62263,0.70467 0,0.38541 -0.28045,0.70468 -0.62263,0.70468 l -16.2447,0 c -0.34218,0 -0.62263,-0.3175 -0.62263,-0.70468 0,-0.38805 0.28045,-0.70467 0.62263,-0.70467"
       id="path5182"
       style="fill:#FFFF00;fill-rule:evenodd;stroke:none" />
    <path
       d="m 186.20784,145.05439 16.2447,0 c 0.34218,0 0.62263,0.31839 0.62263,0.70468 l 0,0 c 0,0.38717 -0.28045,0.70467 -0.62263,0.70467 l -16.2447,0 c -0.34218,0 -0.62263,-0.31573 -0.62263,-0.70467 l 0,0 c 0,-0.38629 0.28045,-0.70468 0.62263,-0.70468 z"
       id="path5184"
       style="fill:none;stroke:#000000;stroke-width:0.49901107" />
    <path
       d="m 186.5509,146.46551 15.53918,0 c 0.32719,0 0.59617,0.31662 0.59617,0.70379 0,0.38805 -0.2681,0.70467 -0.59617,0.70467 l -15.53918,0 c -0.32719,0 -0.59529,-0.31662 -0.59529,-0.70467 0,-0.38717 0.2681,-0.70379 0.59529,-0.70379"
       id="path5186"
       style="fill:#FFFF00;fill-rule:evenodd;stroke:none" />
    <path
       d="m 186.5509,146.46551 15.5383,0 c 0.32719,0 0.59529,0.31662 0.59529,0.70379 l 0,0 c 0,0.38805 -0.2681,0.70467 -0.59529,0.70467 l -15.5383,0 c -0.32719,0 -0.59529,-0.31662 -0.59529,-0.70467 l 0,0 c 0,-0.38717 0.2681,-0.70379 0.59529,-0.70379 z"
       id="path5188"
       style="fill:none;stroke:#000000;stroke-width:0.49901107" />
    <use
       transform="translate(-5.27909,-3.162655)"
       id="use5190"
       xlink:href="#use4656" />
    <path
       d="m 191.57159,135.88217 1.22673,0.002 0,0.87136 0.89513,0 0,-0.89076 1.25672,0.004 0,0.88723 0.89778,0 0,-0.89076 1.2576,0 -0.002,2.01171 c 0,0.31574 -0.25398,0.52035 -0.54854,0.52035 l -4.41129,0 c -0.29633,0 -0.56972,-0.23724 -0.5706,-0.52652 l -0.003,-1.9879 8.8e-4,0 z"
       id="path5192"
       style="fill:none;stroke:#000000;stroke-width:0.50025284" />
    <path
       d="m 196.19366,138.5721 0.27692,6.45319 -4.30282,-0.0159 0.28485,-6.45055 3.74193,0.015"
       id="path5194"
       style="fill:#FFFF00;fill-rule:evenodd;stroke:none" />
    <path
       d="m 196.19278,138.57386 0.27691,6.45143 -4.30282,-0.0159 0.28486,-6.45231 3.74105,0.0168"
       id="path5196"
       style="fill:none;stroke:#000000;stroke-width:0.49897757" />
    <use
       transform="translate(10.60845,0)"
       id="use5198"
       xlink:href="#path1535" />
    <use
       transform="translate(10.60889,0)"
       id="use5200"
       xlink:href="#path1541" />
    <use
       transform="translate(10.60889,-0.010585)"
       id="use5202"
       xlink:href="#path1537" />
    <path
       d="m 186.3022,139.04482 1.20027,0.002 0,0.87136 0.87662,0 0,-0.89077 1.22938,0.004 0,0.88724 0.87926,0 0,-0.89077 1.23025,0.002 -0.002,2.01171 c 0,0.31398 -0.2487,0.51859 -0.5362,0.51859 l -4.31693,0 c -0.29014,0 -0.55824,-0.23548 -0.55824,-0.52741 l -0.002,-1.98702"
       id="path5204"
       style="fill:#FFFF00;fill-rule:evenodd;stroke:none" />
    <path
       d="m 186.3022,139.04482 1.19939,0.003 0,0.87224 0.8775,0 0,-0.89253 1.22938,0.004 0,0.889 0.87926,0 0,-0.89253 1.23025,0.002 -0.002,2.01171 c 0,0.31398 -0.2487,0.51859 -0.5362,0.51859 l -4.31693,0 c -0.28926,0 -0.55824,-0.23548 -0.55913,-0.52564 l -0.003,-1.98879 8.8e-4,0 z"
       id="path5206"
       style="fill:none;stroke:#000000;stroke-width:0.50017256;stroke-opacity:1" />
    <path
       d="m 190.93926,141.55925 0.13141,3.47751 -4.12644,0.002 0.11641,-3.47927 3.87862,0"
       id="path5208"
       style="fill:#FFFF00;fill-rule:evenodd;stroke:none" />
    <path
       d="m 190.94014,141.55925 0.13141,3.47751 -4.12556,0.002 0.11641,-3.47927 3.87863,0 -8.9e-4,0 z"
       id="path5210"
       style="fill:none;stroke:#000000;stroke-width:0.50127673" />
    <path
       d="m 193.89806,140.61027 c -0.0265,-0.62706 0.87661,-0.63411 0.86603,0 l 0,1.53635 -0.86603,0 0,-1.53635"
       id="path5212"
       style="fill:#000000;fill-rule:evenodd;stroke:none" />
    <use
       transform="translate(10.64108,0)"
       id="use5214"
       xlink:href="#path1547" />
    <path
       d="m 188.56605,142.84424 c -0.003,-0.6059 0.83693,-0.61824 0.82635,0 l 0,1.1871 -0.82635,0 0,-1.1871"
       id="path5216"
       style="fill:#000000;fill-rule:evenodd;stroke:none" />
  </g>
  <g
     transform="matrix(0.7071068,0.7071068,-0.7071068,0.7071068,240.44317,-0.4953113)"
     id="use5132">
    <use
       transform="translate(10.60844,0)"
       id="use5328"
       xlink:href="#path1539" />
    <path
       d="m 190.19141,154.43388 c 0.13493,-5.52098 4.05235,-6.82802 4.08057,-6.84742 0.0282,-0.0185 4.23139,1.40758 4.21728,6.89857 l -8.29785,-0.0512"
       id="path5330"
       style="fill:#FFFF00;fill-rule:evenodd;stroke:none" />
    <path
       d="m 186.8093,147.68435 -0.68172,6.34648 4.14055,0.009 c 0.0397,-5.24934 3.97475,-6.12246 4.07,-6.10306 0.0891,-0.005 3.98886,1.15888 4.09292,6.10306 l 4.15113,0 -0.7505,-6.39322 -15.0215,0.0379"
       id="path5332"
       style="fill:#FFFF00;fill-rule:evenodd;stroke:none" />
    <path
       d="m 186.8093,147.68612 -0.68172,6.34471 4.14055,0.009 c 0.0397,-5.24934 3.97387,-6.12246 4.06912,-6.10306 0.0891,-0.005 3.98886,1.16064 4.09292,6.10306 l 4.15113,0 -0.74962,-6.39322 -15.02238,0.0379 0,0.002 z"
       id="path5334"
       style="fill:none;stroke:#000000;stroke-width:0.49936473" />
    <path
       d="m 185.85155,154.05994 16.94582,0 c 0.35629,0 0.6482,0.35277 0.6482,0.78404 0,0.42863 -0.29103,0.78141 -0.6482,0.78141 l -16.94582,0 c -0.35718,0 -0.64909,-0.35102 -0.64909,-0.78141 0,-0.43127 0.29191,-0.78404 0.64909,-0.78404"
       id="path5336"
       style="fill:#FFFF00;fill-rule:evenodd;stroke:none" />
    <path
       d="m 185.85066,154.05994 16.94583,0 c 0.35717,0 0.64908,0.35277 0.64908,0.78404 l 0,0 c 0,0.43039 -0.29191,0.78141 -0.64908,0.78141 l -16.94583,0 c -0.35717,0 -0.64908,-0.35102 -0.64908,-0.78141 l 0,0 c 0,-0.43127 0.29191,-0.78404 0.64908,-0.78404 z"
       id="path5338"
       style="fill:none;stroke:#000000;stroke-width:0.49943003" />
    <path
       d="m 192.01431,154.02907 c 0.0185,-3.31259 2.26208,-4.2501 2.27355,-4.24833 8.8e-4,0 2.34146,0.96661 2.35998,4.24833 l -4.63353,0"
       id="path5340"
       style="fill:#FFFF00;fill-rule:evenodd;stroke:none" />
    <path
       d="m 192.01431,154.02907 c 0.0185,-3.31259 2.26208,-4.2501 2.27355,-4.24833 8.8e-4,0 2.34234,0.96661 2.36086,4.24833 l -4.63441,0"
       id="path5342"
       style="fill:none;stroke:#000000;stroke-width:0.49703202" />
    <path
       d="m 186.20784,145.05616 16.2447,0 c 0.34218,0 0.62263,0.31662 0.62263,0.70467 0,0.38541 -0.28045,0.70468 -0.62263,0.70468 l -16.2447,0 c -0.34218,0 -0.62263,-0.3175 -0.62263,-0.70468 0,-0.38805 0.28045,-0.70467 0.62263,-0.70467"
       id="path5344"
       style="fill:#FFFF00;fill-rule:evenodd;stroke:none" />
    <path
       d="m 186.20784,145.05439 16.2447,0 c 0.34218,0 0.62263,0.31839 0.62263,0.70468 l 0,0 c 0,0.38717 -0.28045,0.70467 -0.62263,0.70467 l -16.2447,0 c -0.34218,0 -0.62263,-0.31573 -0.62263,-0.70467 l 0,0 c 0,-0.38629 0.28045,-0.70468 0.62263,-0.70468 z"
       id="path5346"
       style="fill:none;stroke:#000000;stroke-width:0.49901107" />
    <path
       d="m 186.5509,146.46551 15.53918,0 c 0.32719,0 0.59617,0.31662 0.59617,0.70379 0,0.38805 -0.2681,0.70467 -0.59617,0.70467 l -15.53918,0 c -0.32719,0 -0.59529,-0.31662 -0.59529,-0.70467 0,-0.38717 0.2681,-0.70379 0.59529,-0.70379"
       id="path5348"
       style="fill:#FFFF00;fill-rule:evenodd;stroke:none" />
    <path
       d="m 186.5509,146.46551 15.5383,0 c 0.32719,0 0.59529,0.31662 0.59529,0.70379 l 0,0 c 0,0.38805 -0.2681,0.70467 -0.59529,0.70467 l -15.5383,0 c -0.32719,0 -0.59529,-0.31662 -0.59529,-0.70467 l 0,0 c 0,-0.38717 0.2681,-0.70379 0.59529,-0.70379 z"
       id="path5350"
       style="fill:none;stroke:#000000;stroke-width:0.49901107" />
    <use
       transform="translate(-5.27909,-3.162655)"
       id="use5352"
       xlink:href="#use4656" />
    <path
       d="m 191.57159,135.88217 1.22673,0.002 0,0.87136 0.89513,0 0,-0.89076 1.25672,0.004 0,0.88723 0.89778,0 0,-0.89076 1.2576,0 -0.002,2.01171 c 0,0.31574 -0.25398,0.52035 -0.54854,0.52035 l -4.41129,0 c -0.29633,0 -0.56972,-0.23724 -0.5706,-0.52652 l -0.003,-1.9879 8.8e-4,0 z"
       id="path5354"
       style="fill:none;stroke:#000000;stroke-width:0.50025284" />
    <path
       d="m 196.19366,138.5721 0.27692,6.45319 -4.30282,-0.0159 0.28485,-6.45055 3.74193,0.015"
       id="path5356"
       style="fill:#FFFF00;fill-rule:evenodd;stroke:none" />
    <path
       d="m 196.19278,138.57386 0.27691,6.45143 -4.30282,-0.0159 0.28486,-6.45231 3.74105,0.0168"
       id="path5358"
       style="fill:none;stroke:#000000;stroke-width:0.49897757" />
    <use
       transform="translate(10.60845,0)"
       id="use5360"
       xlink:href="#path1535" />
    <use
       transform="translate(10.60889,0)"
       id="use5362"
       xlink:href="#path1541" />
    <use
       transform="translate(10.60889,-0.010585)"
       id="use5364"
       xlink:href="#path1537" />
    <path
       d="m 186.3022,139.04482 1.20027,0.002 0,0.87136 0.87662,0 0,-0.89077 1.22938,0.004 0,0.88724 0.87926,0 0,-0.89077 1.23025,0.002 -0.002,2.01171 c 0,0.31398 -0.2487,0.51859 -0.5362,0.51859 l -4.31693,0 c -0.29014,0 -0.55824,-0.23548 -0.55824,-0.52741 l -0.002,-1.98702"
       id="path5366"
       style="fill:#FFFF00;fill-rule:evenodd;stroke:none" />
    <path
       d="m 186.3022,139.04482 1.19939,0.003 0,0.87224 0.8775,0 0,-0.89253 1.22938,0.004 0,0.889 0.87926,0 0,-0.89253 1.23025,0.002 -0.002,2.01171 c 0,0.31398 -0.2487,0.51859 -0.5362,0.51859 l -4.31693,0 c -0.28926,0 -0.55824,-0.23548 -0.55913,-0.52564 l -0.003,-1.98879 8.8e-4,0 z"
       id="path5368"
       style="fill:none;stroke:#000000;stroke-width:0.50017256;stroke-opacity:1" />
    <path
       d="m 190.93926,141.55925 0.13141,3.47751 -4.12644,0.002 0.11641,-3.47927 3.87862,0"
       id="path5370"
       style="fill:#FFFF00;fill-rule:evenodd;stroke:none" />
    <path
       d="m 190.94014,141.55925 0.13141,3.47751 -4.12556,0.002 0.11641,-3.47927 3.87863,0 -8.9e-4,0 z"
       id="path5372"
       style="fill:none;stroke:#000000;stroke-width:0.50127673" />
    <path
       d="m 193.89806,140.61027 c -0.0265,-0.62706 0.87661,-0.63411 0.86603,0 l 0,1.53635 -0.86603,0 0,-1.53635"
       id="path5374"
       style="fill:#000000;fill-rule:evenodd;stroke:none" />
    <use
       transform="translate(10.64108,0)"
       id="use5376"
       xlink:href="#path1547" />
    <path
       d="m 188.56605,142.84424 c -0.003,-0.6059 0.83693,-0.61824 0.82635,0 l 0,1.1871 -0.82635,0 0,-1.1871"
       id="path5378"
       style="fill:#000000;fill-rule:evenodd;stroke:none" />
  </g>
  <g
     transform="translate(90.84999,46.32063)"
     id="use5100">
    <use
       transform="translate(10.60844,0)"
       id="use5220"
       xlink:href="#path1539" />
    <path
       d="m 190.19141,154.43388 c 0.13493,-5.52098 4.05235,-6.82802 4.08057,-6.84742 0.0282,-0.0185 4.23139,1.40758 4.21728,6.89857 l -8.29785,-0.0512"
       id="path5222"
       style="fill:#FFFF00;fill-rule:evenodd;stroke:none" />
    <path
       d="m 186.8093,147.68435 -0.68172,6.34648 4.14055,0.009 c 0.0397,-5.24934 3.97475,-6.12246 4.07,-6.10306 0.0891,-0.005 3.98886,1.15888 4.09292,6.10306 l 4.15113,0 -0.7505,-6.39322 -15.0215,0.0379"
       id="path5224"
       style="fill:#FFFF00;fill-rule:evenodd;stroke:none" />
    <path
       d="m 186.8093,147.68612 -0.68172,6.34471 4.14055,0.009 c 0.0397,-5.24934 3.97387,-6.12246 4.06912,-6.10306 0.0891,-0.005 3.98886,1.16064 4.09292,6.10306 l 4.15113,0 -0.74962,-6.39322 -15.02238,0.0379 0,0.002 z"
       id="path5226"
       style="fill:none;stroke:#000000;stroke-width:0.49936473" />
    <path
       d="m 185.85155,154.05994 16.94582,0 c 0.35629,0 0.6482,0.35277 0.6482,0.78404 0,0.42863 -0.29103,0.78141 -0.6482,0.78141 l -16.94582,0 c -0.35718,0 -0.64909,-0.35102 -0.64909,-0.78141 0,-0.43127 0.29191,-0.78404 0.64909,-0.78404"
       id="path5228"
       style="fill:#FFFF00;fill-rule:evenodd;stroke:none" />
    <path
       d="m 185.85066,154.05994 16.94583,0 c 0.35717,0 0.64908,0.35277 0.64908,0.78404 l 0,0 c 0,0.43039 -0.29191,0.78141 -0.64908,0.78141 l -16.94583,0 c -0.35717,0 -0.64908,-0.35102 -0.64908,-0.78141 l 0,0 c 0,-0.43127 0.29191,-0.78404 0.64908,-0.78404 z"
       id="path5230"
       style="fill:none;stroke:#000000;stroke-width:0.49943003" />
    <path
       d="m 192.01431,154.02907 c 0.0185,-3.31259 2.26208,-4.2501 2.27355,-4.24833 8.8e-4,0 2.34146,0.96661 2.35998,4.24833 l -4.63353,0"
       id="path5232"
       style="fill:#FFFF00;fill-rule:evenodd;stroke:none" />
    <path
       d="m 192.01431,154.02907 c 0.0185,-3.31259 2.26208,-4.2501 2.27355,-4.24833 8.8e-4,0 2.34234,0.96661 2.36086,4.24833 l -4.63441,0"
       id="path5234"
       style="fill:none;stroke:#000000;stroke-width:0.49703202" />
    <path
       d="m 186.20784,145.05616 16.2447,0 c 0.34218,0 0.62263,0.31662 0.62263,0.70467 0,0.38541 -0.28045,0.70468 -0.62263,0.70468 l -16.2447,0 c -0.34218,0 -0.62263,-0.3175 -0.62263,-0.70468 0,-0.38805 0.28045,-0.70467 0.62263,-0.70467"
       id="path5236"
       style="fill:#FFFF00;fill-rule:evenodd;stroke:none" />
    <path
       d="m 186.20784,145.05439 16.2447,0 c 0.34218,0 0.62263,0.31839 0.62263,0.70468 l 0,0 c 0,0.38717 -0.28045,0.70467 -0.62263,0.70467 l -16.2447,0 c -0.34218,0 -0.62263,-0.31573 -0.62263,-0.70467 l 0,0 c 0,-0.38629 0.28045,-0.70468 0.62263,-0.70468 z"
       id="path5238"
       style="fill:none;stroke:#000000;stroke-width:0.49901107" />
    <path
       d="m 186.5509,146.46551 15.53918,0 c 0.32719,0 0.59617,0.31662 0.59617,0.70379 0,0.38805 -0.2681,0.70467 -0.59617,0.70467 l -15.53918,0 c -0.32719,0 -0.59529,-0.31662 -0.59529,-0.70467 0,-0.38717 0.2681,-0.70379 0.59529,-0.70379"
       id="path5240"
       style="fill:#FFFF00;fill-rule:evenodd;stroke:none" />
    <path
       d="m 186.5509,146.46551 15.5383,0 c 0.32719,0 0.59529,0.31662 0.59529,0.70379 l 0,0 c 0,0.38805 -0.2681,0.70467 -0.59529,0.70467 l -15.5383,0 c -0.32719,0 -0.59529,-0.31662 -0.59529,-0.70467 l 0,0 c 0,-0.38717 0.2681,-0.70379 0.59529,-0.70379 z"
       id="path5242"
       style="fill:none;stroke:#000000;stroke-width:0.49901107" />
    <use
       transform="translate(-5.27909,-3.162655)"
       id="use5244"
       xlink:href="#use4656" />
    <path
       d="m 191.57159,135.88217 1.22673,0.002 0,0.87136 0.89513,0 0,-0.89076 1.25672,0.004 0,0.88723 0.89778,0 0,-0.89076 1.2576,0 -0.002,2.01171 c 0,0.31574 -0.25398,0.52035 -0.54854,0.52035 l -4.41129,0 c -0.29633,0 -0.56972,-0.23724 -0.5706,-0.52652 l -0.003,-1.9879 8.8e-4,0 z"
       id="path5246"
       style="fill:none;stroke:#000000;stroke-width:0.50025284" />
    <path
       d="m 196.19366,138.5721 0.27692,6.45319 -4.30282,-0.0159 0.28485,-6.45055 3.74193,0.015"
       id="path5248"
       style="fill:#FFFF00;fill-rule:evenodd;stroke:none" />
    <path
       d="m 196.19278,138.57386 0.27691,6.45143 -4.30282,-0.0159 0.28486,-6.45231 3.74105,0.0168"
       id="path5250"
       style="fill:none;stroke:#000000;stroke-width:0.49897757" />
    <use
       transform="translate(10.60845,0)"
       id="use5252"
       xlink:href="#path1535" />
    <use
       transform="translate(10.60889,0)"
       id="use5254"
       xlink:href="#path1541" />
    <use
       transform="translate(10.60889,-0.010585)"
       id="use5256"
       xlink:href="#path1537" />
    <path
       d="m 186.3022,139.04482 1.20027,0.002 0,0.87136 0.87662,0 0,-0.89077 1.22938,0.004 0,0.88724 0.87926,0 0,-0.89077 1.23025,0.002 -0.002,2.01171 c 0,0.31398 -0.2487,0.51859 -0.5362,0.51859 l -4.31693,0 c -0.29014,0 -0.55824,-0.23548 -0.55824,-0.52741 l -0.002,-1.98702"
       id="path5258"
       style="fill:#FFFF00;fill-rule:evenodd;stroke:none" />
    <path
       d="m 186.3022,139.04482 1.19939,0.003 0,0.87224 0.8775,0 0,-0.89253 1.22938,0.004 0,0.889 0.87926,0 0,-0.89253 1.23025,0.002 -0.002,2.01171 c 0,0.31398 -0.2487,0.51859 -0.5362,0.51859 l -4.31693,0 c -0.28926,0 -0.55824,-0.23548 -0.55913,-0.52564 l -0.003,-1.98879 8.8e-4,0 z"
       id="path5260"
       style="fill:none;stroke:#000000;stroke-width:0.50017256;stroke-opacity:1" />
    <path
       d="m 190.93926,141.55925 0.13141,3.47751 -4.12644,0.002 0.11641,-3.47927 3.87862,0"
       id="path5262"
       style="fill:#FFFF00;fill-rule:evenodd;stroke:none" />
    <path
       d="m 190.94014,141.55925 0.13141,3.47751 -4.12556,0.002 0.11641,-3.47927 3.87863,0 -8.9e-4,0 z"
       id="path5264"
       style="fill:none;stroke:#000000;stroke-width:0.50127673" />
    <path
       d="m 193.89806,140.61027 c -0.0265,-0.62706 0.87661,-0.63411 0.86603,0 l 0,1.53635 -0.86603,0 0,-1.53635"
       id="path5266"
       style="fill:#000000;fill-rule:evenodd;stroke:none" />
    <use
       transform="translate(10.64108,0)"
       id="use5268"
       xlink:href="#path1547" />
    <path
       d="m 188.56605,142.84424 c -0.003,-0.6059 0.83693,-0.61824 0.82635,0 l 0,1.1871 -0.82635,0 0,-1.1871"
       id="path5270"
       style="fill:#000000;fill-rule:evenodd;stroke:none" />
  </g>
  <use
     transform="matrix(0.7071068,-0.7071068,0.7071068,0.7071068,-27.964959,266.75824)"
     id="use5274"
     xlink:href="#path1539" />
  <path
     d="m 208.22063,248.97515 c -3.80852,-3.99934 -1.9627,-7.69359 -1.95646,-7.72726 0.007,-0.0331 3.98735,-1.99673 7.86009,1.89596 l -5.90363,5.8313"
     id="path5276"
     style="fill:#FFFF00;fill-rule:evenodd;stroke:none" />
  <path
     d="m 201.05648,246.59402 4.00559,4.96969 2.93404,-2.92157 c -3.68378,-3.73991 -1.51866,-7.13981 -1.43759,-7.19344 0.0592,-0.0667 3.64,-2.0011 7.20965,1.42138 l 2.93529,-2.93529 -5.05137,-3.99001 -10.59499,10.64862"
     id="path5278"
     style="fill:#FFFF00;fill-rule:evenodd;stroke:none" />
  <path
     d="m 201.05773,246.59527 4.00434,4.96844 2.93404,-2.92157 c -3.68378,-3.73991 -1.51928,-7.13919 -1.43821,-7.19282 0.0592,-0.0667 3.64125,-1.99986 7.20965,1.42138 l 2.93529,-2.93529 -5.05075,-3.99063 -10.59561,10.64924 0.001,0.001 z"
     id="path5280"
     style="fill:none;stroke:#000000;stroke-width:0.49936473" />
  <path
     d="m 204.88747,251.77948 11.9825,-11.98251 c 0.25194,-0.25193 0.70779,-0.2089 1.01275,0.0961 0.30309,0.30308 0.34675,0.75832 0.0942,1.01088 l -11.9825,11.98251 c -0.25257,0.25256 -0.70719,0.21076 -1.01152,-0.0936 -0.30495,-0.30495 -0.34799,-0.76081 -0.0954,-1.01337"
     id="path5282"
     style="fill:#FFFF00;fill-rule:evenodd;stroke:none" />
  <path
     d="m 204.88684,251.78011 11.98251,-11.98252 c 0.25256,-0.25255 0.70841,-0.20952 1.01337,0.0954 l 0,0 c 0.30433,0.30433 0.34613,0.75895 0.0936,1.0115 l -11.98251,11.98252 c -0.25256,0.25255 -0.70718,0.21076 -1.01151,-0.0936 l 0,0 c -0.30496,-0.30495 -0.34799,-0.76081 -0.0954,-1.01336 z"
     id="path5284"
     style="fill:none;stroke:#000000;stroke-width:0.49943003" />
  <path
     d="m 209.22337,247.39992 c -2.32926,-2.35545 -1.40574,-4.60481 -1.39638,-4.61167 6.2e-4,-6.2e-4 2.33916,-0.97216 4.67278,1.33527 l -3.2764,3.2764"
     id="path5286"
     style="fill:#FFFF00;fill-rule:evenodd;stroke:none" />
  <path
     d="m 209.22337,247.39992 c -2.32926,-2.35545 -1.40574,-4.60481 -1.39638,-4.61167 6.2e-4,-6.2e-4 2.33978,-0.97279 4.6734,1.33465 l -3.27702,3.27702"
     id="path5288"
     style="fill:none;stroke:#000000;stroke-width:0.49703202" />
  <path
     d="m 198.77277,245.16091 11.48674,-11.48674 c 0.24195,-0.24196 0.66415,-0.21638 0.93854,0.058 0.27252,0.27253 0.29997,0.69659 0.058,0.93855 l -11.48674,11.48674 c -0.24196,0.24196 -0.66477,0.21576 -0.93855,-0.058 -0.27439,-0.27439 -0.29997,-0.69658 -0.058,-0.93854"
     id="path5290"
     style="fill:#FFFF00;fill-rule:evenodd;stroke:none" />
  <path
     d="m 198.77152,245.15966 11.48673,-11.48674 c 0.24196,-0.24196 0.66541,-0.21513 0.93855,0.058 l 0,0 c 0.27377,0.27377 0.29997,0.69658 0.058,0.93854 l -11.48674,11.48674 c -0.24196,0.24195 -0.66352,0.21701 -0.93855,-0.058 l 0,0 c -0.27314,-0.27315 -0.29997,-0.6966 -0.058,-0.93855 z"
     id="path5292"
     style="fill:none;stroke:#000000;stroke-width:0.49901107" />
  <path
     d="m 200.01191,245.91489 10.98786,-10.98786 c 0.23136,-0.23136 0.64544,-0.19767 0.91921,0.0761 0.27439,0.27439 0.3087,0.68785 0.0767,0.91983 l -10.98786,10.98786 c -0.23136,0.23136 -0.64482,0.19705 -0.91921,-0.0773 -0.27377,-0.27377 -0.30808,-0.68723 -0.0767,-0.91859"
     id="path5294"
     style="fill:#FFFF00;fill-rule:evenodd;stroke:none" />
  <path
     d="m 200.01191,245.91489 10.98724,-10.98724 c 0.23135,-0.23136 0.64481,-0.19705 0.91858,0.0767 l 0,0 c 0.2744,0.27439 0.30871,0.68785 0.0773,0.91921 l -10.98724,10.98724 c -0.23136,0.23136 -0.64482,0.19705 -0.91921,-0.0773 l 0,0 c -0.27377,-0.27377 -0.30808,-0.68723 -0.0767,-0.91859 z"
     id="path5296"
     style="fill:none;stroke:#000000;stroke-width:0.49901107" />
  <use
     transform="matrix(0.7071068,-0.7071068,0.7071068,0.7071068,-41.435474,275.75609)"
     id="use5298"
     xlink:href="#use4656" />
  <path
     d="m 196.07852,234.88117 0.86868,-0.86618 0.61614,0.61614 0.63295,-0.63295 -0.62986,-0.62986 0.89113,-0.88614 0.62737,0.62736 0.63482,-0.63482 -0.62986,-0.62986 0.88926,-0.88926 1.42124,1.42374 c 0.22326,0.22327 0.18835,0.54754 -0.0199,0.75582 l -3.11926,3.11926 c -0.20953,0.20953 -0.5706,0.2351 -0.77578,0.0312 l -1.40752,-1.4038 6.2e-4,-6.2e-4 z"
     id="path5300"
     style="fill:none;stroke:#000000;stroke-width:0.50025284" />
  <path
     d="m 201.24889,233.51494 4.7589,4.36729 -3.05377,3.03133 -4.35981,-4.76265 2.65654,-2.63534"
     id="path5302"
     style="fill:#FFFF00;fill-rule:evenodd;stroke:none" />
  <path
     d="m 201.24951,233.51681 4.75765,4.36604 -3.05377,3.03134 -4.36105,-4.7639 2.65717,-2.63348"
     id="path5304"
     style="fill:none;stroke:#000000;stroke-width:0.49897757" />
  <use
     transform="matrix(0.7071068,-0.7071068,0.7071068,0.7071068,-27.964952,266.75823)"
     id="use5306"
     xlink:href="#path1535" />
  <use
     transform="matrix(0.7071068,-0.7071068,0.7071068,0.7071068,-27.964641,266.75792)"
     id="use5308"
     xlink:href="#path1541" />
  <use
     transform="matrix(0.7071068,-0.7071068,0.7071068,0.7071068,-27.972125,266.75044)"
     id="use5310"
     xlink:href="#path1537" />
  <path
     d="m 194.58883,240.84353 0.84997,-0.84747 0.61615,0.61614 0.61986,-0.61986 -0.62987,-0.62987 0.8718,-0.86681 0.62737,0.62738 0.62173,-0.62174 -0.62987,-0.62986 0.87117,-0.86867 1.42125,1.42374 c 0.22202,0.22201 0.19084,0.54255 -0.0125,0.74585 l -3.05253,3.05253 c -0.20516,0.20516 -0.56124,0.22822 -0.76767,0.0218 l -1.40629,-1.40379"
     id="path5312"
     style="fill:#FFFF00;fill-rule:evenodd;stroke:none" />
  <path
     d="m 194.58883,240.84353 0.84997,-0.84623 0.61677,0.61677 0.62048,-0.62049 -0.63111,-0.63111 0.8718,-0.86681 0.62862,0.62862 0.62173,-0.62173 -0.63112,-0.63111 0.87117,-0.86867 1.42125,1.42374 c 0.22202,0.22201 0.19084,0.54255 -0.0125,0.74585 l -3.05253,3.05253 c -0.20454,0.20453 -0.56124,0.22822 -0.76705,0.0237 l -1.40815,-1.40442 6.2e-4,-6.2e-4 z"
     id="path5314"
     style="fill:none;stroke:#000000;stroke-width:0.50017256;stroke-opacity:1" />
  <path
     d="m 199.6457,239.3426 2.55189,2.36605 -2.91659,2.91908 -2.3779,-2.54253 2.7426,-2.7426"
     id="path5316"
     style="fill:#FFFF00;fill-rule:evenodd;stroke:none" />
  <path
     d="m 199.64632,239.34198 2.55189,2.36605 -2.91596,2.91845 -2.37791,-2.54253 2.74261,-2.7426 -6.3e-4,6.3e-4 z"
     id="path5318"
     style="fill:none;stroke:#000000;stroke-width:0.50127673" />
  <path
     d="m 201.06686,236.57938 c -0.46211,-0.42469 0.17147,-1.06824 0.61237,-0.61237 l 1.08637,1.08636 -0.61238,0.61237 -1.08636,-1.08636"
     id="path5320"
     style="fill:#000000;fill-rule:evenodd;stroke:none" />
  <use
     transform="matrix(0.7071068,-0.7071068,0.7071068,0.7071068,-27.941879,266.73516)"
     id="use5322"
     xlink:href="#path1547" />
  <path
     d="m 198.87621,241.92934 c -0.4303,-0.42657 0.15464,-1.02896 0.58432,-0.58432 l 0.8394,0.83941 -0.58431,0.58431 -0.83941,-0.8394"
     id="path5324"
     style="fill:#000000;fill-rule:evenodd;stroke:none" />
  <use
     transform="translate(-20.819155,25.74354)"
     id="use6358"
     xlink:href="#use5944" />
  <use
     transform="translate(-28.931805,25.75368)"
     id="use6360"
     xlink:href="#use5944" />
  <use
     transform="translate(-24.97646,21.575025)"
     id="use6356"
     xlink:href="#use5944" />
  <use
     transform="translate(-20.810335,17.580695)"
     id="use6352"
     xlink:href="#use5944" />
  <path
     d="m 265.12607,202.45534 c -0.8184,0 -1.48601,0.66676 -1.48601,1.4852 0,0.81669 0.66761,1.48519 1.48601,1.48519 0.81841,0 1.48602,-0.66675 1.48602,-1.48519 0,-0.81844 -0.66761,-1.4852 -1.48602,-1.4852"
     id="use5944"
     style="fill:#ffffff" />
  <use
     transform="translate(-8.112655,0.012345)"
     id="use5946"
     xlink:href="#use5944" />
  <use
     transform="translate(3.95535,-4.17998)"
     id="use5948"
     xlink:href="#use5946" />
  <use
     transform="translate(4.166125,-3.99477)"
     id="use5950"
     xlink:href="#use5948" />
  <use
     transform="translate(-8.13911,-0.00705)"
     id="use5952"
     xlink:href="#use5950" />
  <use
     transform="translate(-12.616545,8.129765)"
     id="use5954"
     xlink:href="#use5952" />
  <use
     transform="translate(-8.112655,0.010585)"
     id="use5956"
     xlink:href="#use5954" />
  <use
     transform="translate(3.955345,-4.18086)"
     id="use5958"
     xlink:href="#use5956" />
  <use
     transform="translate(4.16701,-3.993005)"
     id="use5960"
     xlink:href="#use5958" />
  <use
     transform="translate(-8.13911,-0.007495)"
     id="use5962"
     xlink:href="#use5960" />
  <use
     transform="translate(-12.66858,8.22281)"
     id="use5964"
     xlink:href="#use5962" />
  <use
     transform="translate(-8.112655,0.010145)"
     id="use5966"
     xlink:href="#use5964" />
  <use
     transform="translate(3.95535,-4.179975)"
     id="use5968"
     xlink:href="#use5966" />
  <use
     transform="translate(4.167005,-3.99345)"
     id="use5970"
     xlink:href="#use5968" />
  <use
     transform="translate(-28.949445,17.57364)"
     id="use6354"
     xlink:href="#use5944" />
  <path
     d="m 215.45183,194.29735 c -0.81839,0 -1.48601,0.66675 -1.48601,1.4852 0,0.81668 0.66762,1.48519 1.48601,1.48519 0.81841,0 1.48602,-0.66675 1.48602,-1.48519 0,-0.81845 -0.66761,-1.4852 -1.48602,-1.4852"
     id="use6320"
     style="fill:#FFFF00" />
  <use
     transform="translate(-20.743315,-34.22609)"
     id="use6332"
     xlink:href="#use5944" />
  <use
     transform="translate(-24.91032,-30.224695)"
     id="use6334"
     xlink:href="#use5944" />
  <use
     transform="translate(-20.752135,-26.056185)"
     id="use6336"
     xlink:href="#use5944" />
  <use
     transform="translate(-28.86567,-26.04472)"
     id="use6338"
     xlink:href="#use5944" />
  <use
     transform="translate(-49.67424,-8.15799)"
     id="use6340"
     xlink:href="#use5944" />
</svg>
