<?xml version="1.0" encoding="UTF-8" standalone="no"?>
<!-- Created with Inkscape (http://www.inkscape.org/) -->

<svg
   xmlns:dc="http://purl.org/dc/elements/1.1/"
   xmlns:cc="http://creativecommons.org/ns#"
   xmlns:rdf="http://www.w3.org/1999/02/22-rdf-syntax-ns#"
   xmlns:svg="http://www.w3.org/2000/svg"
   xmlns="http://www.w3.org/2000/svg"
   xmlns:xlink="http://www.w3.org/1999/xlink"
   xmlns:sodipodi="http://sodipodi.sourceforge.net/DTD/sodipodi-0.dtd"
   xmlns:inkscape="http://www.inkscape.org/namespaces/inkscape"
   version="1.0"
   width="1200"
   height="600"
   id="Layer_1"
   xml:space="preserve"
   inkscape:version="0.47 r22583"
   sodipodi:docname="Flag_of_Slovenia.svg"><metadata
     id="metadata17"><rdf:RDF><cc:Work
         rdf:about=""><dc:format>image/svg+xml</dc:format><dc:type
           rdf:resource="http://purl.org/dc/dcmitype/StillImage" /></cc:Work></rdf:RDF></metadata><sodipodi:namedview
     pagecolor="#ffffff"
     bordercolor="#666666"
     borderopacity="1"
     objecttolerance="10"
     gridtolerance="10"
     guidetolerance="10"
     inkscape:pageopacity="0"
     inkscape:pageshadow="2"
     inkscape:window-width="1920"
     inkscape:window-height="1018"
     id="namedview15"
     showgrid="false"
     inkscape:zoom="0.55625733"
     inkscape:cx="600"
     inkscape:cy="300"
     inkscape:window-x="-8"
     inkscape:window-y="-8"
     inkscape:window-maximized="1"
     inkscape:current-layer="Layer_1" /><defs
     id="defs3"><inkscape:perspective
       sodipodi:type="inkscape:persp3d"
       inkscape:vp_x="0 : 300 : 1"
       inkscape:vp_y="0 : 1000 : 0"
       inkscape:vp_z="1200 : 300 : 1"
       inkscape:persp3d-origin="600 : 200 : 1"
       id="perspective19" /></defs><rect
     width="1200"
     height="300"
     x="0"
     y="0"
     id="rect3212"
     style="fill:#ffffff" /><rect
     width="1200"
     height="300"
     x="0"
     y="300"
     id="rect6123"
     style="fill:#ed1c24" /><rect
     width="1200"
     height="200"
     x="0"
     y="200"
     id="rect4183"
     style="fill:#005da4" /><path
     d="m 227.41468,115.3367 c -1.84803,0.8149 -3.68224,1.66088 -5.50265,2.53724 l 5.73469,90.7426 c 1.56212,24.73842 12.08262,48.15024 29.71347,65.78039 12.05638,12.05569 26.81574,20.78825 42.85477,25.60306 l 10e-4,0 c 16.03904,-4.8155 30.79909,-13.54737 42.85478,-25.60306 17.63016,-17.63015 28.15135,-41.04197 29.71278,-65.78039 l 5.73538,-90.7426 c -1.8211,-0.87636 -3.65393,-1.72234 -5.50334,-2.53724 l 0.001,6.9e-4 -5.87004,92.89102 c -1.4689,23.38143 -11.4093,45.51011 -28.07124,62.17206 -10.98044,10.98182 -24.33652,19.04241 -38.85901,23.68391 l -0.002,0 c -14.52318,-4.6415 -27.87787,-12.70209 -38.85831,-23.68391 -16.66263,-16.66195 -26.60303,-38.79063 -28.07124,-62.17206 l -5.87073,-92.89171 10e-4,0"
     id="path13"
     style="fill:#ed1c24" /><path
     d="M 373.01732,115.33739 C 350.29472,105.31895 325.52936,100 300.21565,100 c -25.31439,0 -50.07976,5.31895 -72.80235,15.33739 l 5.87142,92.89102 c 1.4682,23.38143 11.40861,45.51011 28.07124,62.17206 10.98113,10.98182 24.33582,19.04241 38.85831,23.68391 l 0.002,0 c 14.52249,-4.6415 27.87857,-12.70209 38.85762,-23.68391 16.66333,-16.66195 26.60373,-38.79063 28.07124,-62.17206"
     id="path15"
     style="fill:#005da4" /><use
     transform="translate(20.554822,27.406199)"
     id="use2825"
     x="0"
     y="0"
     width="1200"
     height="600"
     xlink:href="#polyline19" /><polyline
     style="fill:#ffdd00;fill-opacity:1"
     id="polyline19"
     points="90,23.232 94.669,16.854 86.811,17.709 83.622,10.476 80.433,17.709 72.575,16.854 77.244,23.232    72.575,29.61 80.433,28.755 83.622,35.988 86.811,28.755 94.669,29.61  "
     transform="matrix(0.6905934,0,0,0.6905934,221.91203,100)" /><use
     transform="translate(41.108608,0)"
     id="use2827"
     x="0"
     y="0"
     width="1200"
     height="600"
     xlink:href="#polyline19" /><path
     d="m 358.94372,221.75438 -29.36473,-39.1525 -11.74561,15.66127 -17.61842,-35.23683 -17.61842,35.23683 -11.74561,-15.66127 -29.36403,39.1525 c 0,5.19188 2.0628,10.17037 5.734,13.84156 3.67119,3.66981 8.64968,5.73401 13.84225,5.73401 3.46678,0 6.83895,-0.91987 9.78916,-2.62358 0.0193,-0.0124 -0.0235,0.0138 -0.005,0.003 1.47027,-0.84943 3.05657,-1.51104 4.72435,-1.95715 5.01509,-1.3432 10.35821,-0.64087 14.85466,1.95437 3.00201,1.7334 6.38247,2.62358 9.78985,2.62358 0.0145,0 -0.0179,0 -0.003,0 3.40808,0 6.78784,-0.89018 9.79054,-2.62358 4.49577,-2.59524 9.83958,-3.29896 14.85467,-1.95437 1.66709,0.44611 3.25338,1.10772 4.72366,1.95715 0.02,0.011 -0.0228,-0.0145 -0.004,-0.003 2.95091,1.70371 6.32169,2.62358 9.78847,2.62358 5.19327,0 10.17175,-2.0635 13.84295,-5.73401 3.67119,-3.67119 5.734,-8.64968 5.734,-13.84156"
     id="path23"
     style="fill:#ffffff" /><path
     d="m 248.44325,243.01153 c 1.34735,2.67744 2.82867,5.28996 4.43844,7.82719 0,0 -6.9e-4,0.001 0,0.003 4.13251,1.90051 8.81819,2.31072 13.24835,1.12359 1.66847,-0.44612 3.25407,-1.1084 4.72434,-1.95715 0.0193,-0.011 -0.0235,0.0138 -0.004,0.003 2.95022,-1.70508 6.32238,-2.62358 9.78916,-2.62358 0.007,0 -0.009,0 -0.002,0 3.40739,-0.001 6.78784,0.88879 9.78985,2.62358 4.49646,2.59523 9.83958,3.29757 14.85536,1.95437 1.66709,-0.44612 3.25338,-1.1084 4.72366,-1.95715 0.02,-0.011 -0.0228,0.0138 -0.004,0.003 2.94953,-1.70508 6.3217,-2.62358 9.78986,-2.62358 0.007,0 -0.01,0 -0.003,0 3.40739,-0.001 6.78854,0.88879 9.78985,2.62358 4.49715,2.59523 9.83958,3.29757 14.85467,1.95437 1.07663,-0.28729 2.11736,-0.66643 3.11596,-1.12498 l 0,0 c 1.61046,-2.53861 3.09178,-5.15113 4.43913,-7.82718 0,-0.001 0,0 0,0 -0.97788,0.37223 -1.92607,0.82249 -2.83489,1.34734 -0.0186,0.0111 0.0242,-0.0138 0.006,-0.003 -1.47027,0.84875 -3.05657,1.50965 -4.72504,1.95715 -5.01509,1.3432 -10.35752,0.64087 -14.85467,-1.95576 -3.00131,-1.7334 -6.38246,-2.62219 -9.78985,-2.62219 -0.007,0 0.01,0 0.003,0 -3.46748,0 -6.83964,0.91987 -9.78986,2.62356 -0.0186,0.0111 0.0242,-0.0138 0.004,-0.003 -1.47028,0.84943 -3.05657,1.51101 -4.72366,1.95715 -5.01578,1.34459 -10.3589,0.64225 -14.85536,-1.95439 -3.00201,-1.73338 -6.38246,-2.62356 -9.78985,-2.62356 -0.008,0 0.009,0 0.002,0 -3.46678,0 -6.83894,0.91987 -9.78916,2.62495 -0.0193,0.011 0.0235,-0.0138 0.004,-0.003 -1.47027,0.84873 -3.05587,1.50962 -4.72434,1.95713 -5.01509,1.34322 -10.35821,0.64088 -14.85467,-1.95576 -0.91227,-0.52623 -1.85977,-0.97511 -2.83212,-1.34459 -6.9e-4,0 0,-0.001 0,0"
     id="path25"
     style="fill:#ffffff" /><path
     d="m 342.47859,258.03471 c -2.28103,2.92258 -4.75059,5.72017 -7.40109,8.36929 -9.90311,9.90311 -21.8559,17.28348 -34.86254,21.72952 l -6.9e-4,0 c -13.00663,-4.44604 -24.96012,-11.82502 -34.86322,-21.72952 -2.64981,-2.64912 -5.11937,-5.44671 -7.4004,-8.36929 0,0 -6.9e-4,0 0,0 2.69953,0.43437 5.48676,0.30248 8.1787,-0.41781 1.66847,-0.44751 3.25407,-1.10841 4.72434,-1.95715 0.0193,-0.011 -0.0235,0.0138 -0.004,0.003 2.95021,-1.70507 6.32238,-2.62357 9.78916,-2.62357 0.007,0 -0.009,0 -0.002,0 3.40739,-0.001 6.78784,0.88879 9.78985,2.62219 4.49646,2.59662 9.83958,3.29895 14.85467,1.95576 1.66847,-0.44751 3.25476,-1.10841 4.72504,-1.95715 0.0186,-0.011 -0.0242,0.0138 -0.004,0.003 2.94953,-1.70507 6.3217,-2.62357 9.78847,-2.62357 0.007,0 -0.008,0 -0.001,0 3.40739,-0.001 6.78715,0.88879 9.78985,2.62219 3.91567,2.2617 8.47566,3.08627 12.90029,2.37287 0.001,0 0,0 -0.001,0.001"
     id="path27"
     style="fill:#ffffff" /></svg>