<?xml version="1.0" encoding="UTF-8" standalone="no"?>
<svg
   xmlns:dc="http://purl.org/dc/elements/1.1/"
   xmlns:cc="http://creativecommons.org/ns#"
   xmlns:rdf="http://www.w3.org/1999/02/22-rdf-syntax-ns#"
   xmlns:svg="http://www.w3.org/2000/svg"
   xmlns="http://www.w3.org/2000/svg"
   xmlns:sodipodi="http://sodipodi.sourceforge.net/DTD/sodipodi-0.dtd"
   xmlns:inkscape="http://www.inkscape.org/namespaces/inkscape"
   height="600"
   width="840"
   version="1.1"
   id="svg18"
   sodipodi:docname="Flag_of_Kosovo.svg"
   inkscape:version="0.92.2 (5c3e80d, 2017-08-06)">
  <metadata
     id="metadata22">
    <rdf:RDF>
      <cc:Work
         rdf:about="">
        <dc:format>image/svg+xml</dc:format>
        <dc:type
           rdf:resource="http://purl.org/dc/dcmitype/StillImage" />
      </cc:Work>
    </rdf:RDF>
  </metadata>
  <sodipodi:namedview
     pagecolor="#ffffff"
     bordercolor="#666666"
     borderopacity="1"
     objecttolerance="10"
     gridtolerance="10"
     guidetolerance="10"
     inkscape:pageopacity="0"
     inkscape:pageshadow="2"
     inkscape:window-width="1366"
     inkscape:window-height="705"
     id="namedview20"
     showgrid="false"
     inkscape:snap-bbox="true"
     inkscape:zoom="1"
     inkscape:cx="443.74545"
     inkscape:cy="321.32946"
     inkscape:window-x="-8"
     inkscape:window-y="-8"
     inkscape:window-maximized="1"
     inkscape:current-layer="svg18" />
  <defs
     id="defs3" />
  <g
     id="g132">
    <path
       id="path5"
       fill="#244aa5"
       d="m0 0h840v600h-840z" />
    <path
       id="path26"
       d="m 424.54114,190.13476 c 3.51444,4.1016 5.86738,8.2 5.86738,13.18502 -2.9508,1.45883 -7.0278,2.05455 -9.38074,4.69091 14.65133,-2.05561 17.57005,14.93369 33.9786,8.48663 0.59573,2.35294 2.94867,4.40642 5.86631,3.51872 l 1.75722,-4.67914 c 6.43209,-1.75722 4.67487,8.78395 11.73155,6.72941 3.51658,2.93369 1.16364,7.90695 3.51658,11.43636 0,4.09412 1.75829,7.60856 3.51337,11.12193 1.75829,-2.03958 2.91872,-4.97327 7.02781,-4.09412 2.91871,3.21604 5.27166,6.14973 5.86524,9.6631 -1.19038,6.74545 -2.94759,12.59679 4.08021,16.11016 v 2.05454 c 4.70588,2.05455 15.24813,-2.05454 15.24813,6.14974 -0.59786,2.93369 2.91765,0.29839 4.10909,2.05454 2.91872,-1.17647 7.02781,-0.57968 10.54118,-0.57968 2.91871,6.14974 -3.51337,10.54118 -5.27059,16.11016 2.91765,2.91872 1.75722,8.20428 1.1615,11.70161 l -1.75829,0.87914 c 4.67486,0.87808 10.54117,-0.5647 14.6524,2.07059 l 7.62353,2.91765 c 3.51337,-2.03851 7.59359,-2.35187 12.2984,-2.03851 3.51444,2.63637 -1.19144,7.02781 1.75829,9.06738 4.11016,0 7.62353,0.5968 8.18823,4.11123 l 0.59573,1.16043 c 2.91871,-5.27166 11.13796,-1.75829 14.6524,-5.55294 5.86631,0 7.02674,6.43209 9.94439,9.94652 1.19251,9.09733 -9.94439,13.20856 -6.43102,22.27487 -2.35294,4.39144 -7.02781,7.90695 -10.54118,12.01604 1.16043,0.59573 0.56364,2.03958 0.56364,2.91765 -3.51337,2.07166 -0.56364,8.22032 -5.27059,8.78717 -0.5647,3.82566 -7.59251,2.35187 -5.27059,6.46096 4.70482,6.14973 -2.32192,9.94652 -2.32192,15.53048 -2.94973,3.23102 -8.81604,-2.94973 -8.81604,3.23102 -3.51444,0.87807 -7.02781,-3.23102 -9.34974,0.28342 -1.19144,4.11016 2.32193,5.55294 1.75722,9.6631 5.83637,-0.59679 7.59359,5.27059 9.94653,8.78503 l 5.86631,5.86631 c -5.86631,4.67486 -13.49091,-0.5968 -20.51979,2.0385 -1.75722,-0.87808 0,-3.2 -1.75722,-4.07808 -1.75722,-2.07165 -5.27059,-2.07165 -8.18823,-2.63743 0.5647,2.63743 -4.70589,3.51444 -2.35294,6.71444 0,0.87807 1.16042,3.51444 -1.1615,3.51444 -4.70588,1.47486 -4.10909,-4.07808 -8.22032,-2.03957 -5.27059,2.03957 -1.16043,9.94652 -8.78396,9.06737 1.16043,7.0599 -11.70267,11.73476 -2.91872,17.8845 1.16043,1.16149 0.56471,3.51337 0.56471,5.27058 -5.27166,4.70589 -14.62246,2.94974 -20.4877,1.19145 -4.70588,-1.19145 -1.75722,-7.05882 -3.51337,-10.25882 -1.75722,-2.94867 -7.02781,-4.98824 -7.02781,-9.0984 -3.51657,-1.44492 -6.4631,-2.3508 -8.81604,-5.27166 -8.18823,7.90695 -18.16257,15.53048 -29.86845,15.81284 -5.27059,2.63529 -8.21925,13.20962 -16.40855,8.81497 -3.21605,5.27273 -12.89519,0 -13.47594,7.59465 -3.81176,1.4738 -2.05455,6.46203 -4.39144,8.78396 -0.87915,5.86631 0,10.85454 4.97219,14.37005 2.05454,4.39145 -4.39251,4.39145 -1.75722,8.50268 0.59679,1.44385 0,3.51336 -0.87808,4.10909 -1.75721,0.87807 -2.33689,1.75828 -1.75721,3.51443 -1.45883,0 -2.05348,0.87808 -3.21605,2.03851 -1.47486,2.91871 -6.14973,4.39251 -9.38075,6.43208 -3.21604,0.87808 -5.56898,-1.44385 -7.60855,-3.51337 -0.59679,3.23102 -3.23102,4.98824 -6.44706,4.98824 -4.69091,0 -3.81176,-4.11016 -7.3262,-5.86631 1.45882,-5.27166 -3.23102,-7.59358 -1.75722,-12.29947 3.81069,-2.91764 10.24385,-4.98823 8.48663,-11.13689 -4.09412,-4.95829 -2.6353,-12.29947 -6.72941,-18.16578 -2.6353,-2.32192 -7.02781,-5.83529 -5.56899,-11.42032 3.81177,-4.39144 0,-9.6631 -2.05454,-14.33797 -0.87808,-3.82674 -3.21605,-7.3401 -3.21605,-11.73369 -6.44705,-3.79572 -6.74545,-13.77326 -15.8278,-14.65133 -6.44706,0 -7.60856,-8.18931 -14.05562,-7.6246 -0.59572,-1.16043 -2.05454,-2.03851 -3.23101,-3.2 -4.67487,3.2 -10.54118,-0.87808 -16.39359,0.5647 -3.81176,-6.43208 3.21605,-15.21711 -7.04278,-19.04492 v -4.07807 c 1.17647,0.56364 1.75722,-0.59786 2.05455,-1.19251 0.58075,-4.39252 -7.3262,-4.95722 -4.09412,-9.94653 -1.75722,-1.4738 -3.81176,-2.07059 -2.63529,-4.98823 -4.40749,-9.06738 -17.58503,-8.18824 -20.51872,-17.28663 2.35294,-2.03851 2.35294,-4.11016 3.23209,-5.86631 -2.05562,-3.51444 -2.6353,-7.31123 -2.05562,-11.10696 2.05562,-0.59679 3.21604,-3.23101 4.39251,-5.30267 -2.63529,-1.75615 -5.8524,-4.39144 -8.78502,-3.51337 -5.27059,-0.87807 -9.08342,-4.95722 -13.77326,-7.31016 -1.17647,-1.1615 -0.57968,-3.23102 -0.57968,-4.67487 6.44599,-2.07165 -0.87808,-11.15401 7.0278,-9.97647 2.05562,-2.63529 6.44706,-3.51443 9.66418,-5.56898 3.23101,-0.57968 5.86631,0.59572 9.08235,1.47487 2.63529,3.49839 7.3262,2.03957 9.96043,4.97219 2.63529,-0.59572 5.86738,-2.05562 9.08342,-0.59572 0,-4.97326 2.33797,-7.90695 5.86631,-11.42139 0.58075,-2.03958 3.79679,-3.51337 6.43208,-4.67487 4.98931,1.1615 10.84065,1.1615 14.37006,-2.35294 2.33796,1.4738 4.39251,-1.45882 7.0278,-1.45882 3.21498,-0.59573 5.85134,0.28235 8.20428,1.75722 0.28236,-5.86738 10.54118,-0.87915 12.59679,-7.90696 2.33797,-4.69091 -6.44706,-6.44706 -5.86738,-10.55722 -1.45882,-4.6909 2.05562,-7.0278 3.81177,-10.24385 2.05454,-0.87914 4.39251,-2.05454 7.02781,-1.47486 6.74545,-2.33797 1.47379,-16.11016 12.31443,-11.12193 0,1.4599 -0.59572,3.21605 0.28236,3.51444 3.81176,0 4.39679,-4.39679 7.04385,-5.86631 1.16043,-4.09412 -1.4738,-9.08235 2.03957,-12.29946 1.75722,-0.29733 3.23102,-0.87808 4.39251,-2.35294 0,-3.21605 -1.75722,-4.9722 -4.39251,-7.02781 -0.87808,1.46417 -3.21604,0.29839 -4.68663,0.87914 0,-3.51444 -2.04385,-5.85133 -2.63957,-9.08342 -1.75722,-0.87808 -2.6353,-2.3369 -2.03958,-4.39251 2.6353,-2.6353 0,-9.08236 6.14974,-7.62032 2.33796,-2.04278 6.44706,-0.58396 8.78502,-4.0984 6.14974,-3.51337 14.35294,-3.51337 19.04385,-9.96043 2.05455,0.29733 4.39252,-1.75722 6.44706,0 0.58182,3.8107 6.1508,2.33583 6.1508,5.85776"
       inkscape:connector-curvature="0"
       style="fill:#d0a650" />
    <path
       style="fill:#ffffff"
       d="m 469.9,110.7 -8.1,-24.9 -8,24.9 h -26.2 l 21.2,15.4 -8.1,24.9 21.1,-15.4 21.2,15.4 -8.1,-24.9 21.2,-15.4 z"
       id="polygon37"
       inkscape:connector-curvature="0" />
    <path
       style="fill:#ffffff"
       d="m 552.3,125.2 -8.1,-24.8 -8,24.8 H 510 l 21.2,15.4 -8.1,24.9 21.1,-15.4 21.2,15.4 -8.1,-24.9 21.2,-15.4 z"
       id="polygon39"
       inkscape:connector-curvature="0" />
    <path
       style="fill:#ffffff"
       d="m 630.9,153.8 -8,-24.8 -8.1,24.8 h -26.2 l 21.2,15.4 -8.1,24.9 21.2,-15.4 21.1,15.4 -8.1,-24.9 21.2,-15.4 z"
       id="polygon41"
       inkscape:connector-curvature="0" />
    <path
       style="fill:#ffffff"
       d="m 386.2,110.7 -8,-24.9 -8.1,24.9 h -26.2 l 21.2,15.4 -8.1,24.9 21.2,-15.4 21.1,15.4 -8.1,-24.9 21.2,-15.4 z"
       id="polygon43"
       inkscape:connector-curvature="0" />
    <path
       style="fill:#ffffff"
       d="m 303.8,125.2 -8,-24.8 -8.1,24.8 h -26.2 l 21.2,15.4 -8.1,24.9 21.2,-15.4 21.1,15.4 -8.1,-24.9 21.2,-15.4 z"
       id="polygon45"
       inkscape:connector-curvature="0" />
    <path
       style="fill:#ffffff"
       d="m 225.2,153.8 -8.1,-24.8 -8,24.8 h -26.2 l 21.2,15.4 -8.1,24.9 21.1,-15.4 21.2,15.4 -8.1,-24.9 21.2,-15.4 z"
       id="polygon47"
       inkscape:connector-curvature="0" />
  </g>
</svg>
