<?xml version="1.0" encoding="UTF-8" standalone="no"?>
<svg
   version="1.1"
   xmlns:svg="http://www.w3.org/2000/svg"
   width="250"
   id="svg13"
   height="231.66667"
   xmlns="http://www.w3.org/2000/svg">
  <defs
     id="defs13" />
  <g
     transform="matrix(1.705559,0,0,1.705559,-18.310328,-4.2419088)"
     id="g13">
    <path
       d="M 90.069854,3.479957 C 89.356513,1.2235709 86.980392,-0.01102897 84.723451,0.70218215 L 3.4767601,26.377781 C 1.2199188,27.090982 -0.01486587,29.46663 0.69839437,31.723116 L 33.512365,135.52112 c 0.713341,2.25639 3.089462,3.49099 5.346403,2.77777 l 81.246672,-25.6756 c 2.25684,-0.71319 3.49163,-3.08884 2.77837,-5.34533 L 90.074852,3.479957 Z"
       style="display:none;fill:#ffffff;stroke:#000000;stroke-width:1"
       id="path1" />
    <path
       d="m 110.61293,7.4983294 c -0.36657,-2.337853 -2.53055,-3.9150142 -4.86886,-3.5484627 L 21.563382,17.14452 c -2.338314,0.366502 -3.915784,2.529976 -3.549207,4.867929 L 34.876507,129.55893 c 0.366577,2.33786 2.530549,3.91502 4.868863,3.54847 l 84.18069,-13.19466 c 2.33831,-0.3665 3.91578,-2.52997 3.5492,-4.86793 L 110.61093,7.4983294 Z"
       style="fill:#7f7f7f;fill-opacity:1;stroke:#000000;stroke-width:1"
       id="path4" />
    <path
       d="m 130.53623,15.555064 c 0,-2.366441 -1.89356,-4.259575 -4.26046,-4.259575 H 41.067426 c -2.366905,0 -4.260468,1.893134 -4.260468,4.259575 V 124.41102 c 0,2.36644 1.893563,4.25957 4.260468,4.25957 h 85.208344 c 2.3669,0 4.26046,-1.89313 4.26046,-4.25957 z"
       style="fill:#7f7f7f;fill-opacity:1;stroke:#000000;stroke-width:1"
       id="path7" />
    <path
       d="m 149.43988,26.480639 c 0.38018,-2.335754 -1.1846,-4.508374 -3.52082,-4.88852 L 61.817351,7.9076636 C 59.481136,7.5275576 57.308066,9.0920839 56.927894,11.427736 L 39.439773,118.87426 c -0.380182,2.33576 1.184602,4.50838 3.520816,4.88852 l 84.102711,13.68346 c 2.33622,0.38011 4.50929,-1.18442 4.88946,-3.52007 L 149.43688,26.479639 Z"
       style="display:inline;fill:#7f7f7f;fill-opacity:1;stroke:#000000;stroke-width:1"
       id="path10" />
  </g>
</svg>
