<?xml version="1.0" encoding="UTF-8" standalone="no"?>
<!--!Font Awesome Free 7.1.0 by @fontawesome - https://fontawesome.com        License - https://fontawesome.com/license/free Copyright 2026 Fonticons, Inc.-->

<svg
   version="1.1"
   width="172.65051"
   id="svg13"
   height="213.30714"
   xml:space="preserve"
   xmlns:svg="http://www.w3.org/2000/svg"
   xmlns="http://www.w3.org/2000/svg"><defs
     id="defs13" /><g
     transform="matrix(1.705559,0,0,1.705559,-97.653345,-68.741256)"
     id="g13"><path
       d="m 151.48519,45.063813 c 0,-2.366441 -1.89356,-4.259575 -4.26046,-4.259575 H 62.016385 c -2.366905,0 -4.260468,1.893134 -4.260468,4.259575 V 153.91977 c 0,2.36644 1.893563,4.25957 4.260468,4.25957 h 85.208345 c 2.3669,0 4.26046,-1.89313 4.26046,-4.25957 z"
       style="fill:#c0c0c0;fill-opacity:1;stroke:#989898;stroke-width:1;stroke-opacity:1"
       id="path7" /><path
       d="m 154.70135,48.441704 c 0,-2.366441 -1.89356,-4.259575 -4.26046,-4.259575 H 65.232545 c -2.366905,0 -4.260468,1.893134 -4.260468,4.259575 V 157.29767 c 0,2.36644 1.893563,4.25957 4.260468,4.25957 h 85.208345 c 2.3669,0 4.26046,-1.89313 4.26046,-4.25957 z"
       style="fill:#c0c0c0;fill-opacity:1;stroke:#989898;stroke-width:1;stroke-opacity:1"
       id="path7-5" /><path
       d="m 157.98403,51.75453 c 0,-2.366441 -1.89356,-4.259575 -4.26046,-4.259575 H 68.515228 c -2.366905,0 -4.260468,1.893134 -4.260468,4.259575 v 108.85596 c 0,2.36644 1.893563,4.25957 4.260468,4.25957 h 85.208342 c 2.3669,0 4.26046,-1.89313 4.26046,-4.25957 z"
       style="fill:#c0c0c0;fill-opacity:1;stroke:#989898;stroke-width:1;stroke-opacity:1"
       id="path7-6" /></g><path
     d="m 196.24576,207.42361 c 0,0.11213 0,0.22413 0,0.33621 -0.0498,4.54511 -4.18399,7.63329 -8.72909,7.63329 h -12.19086 c -3.29988,0 -5.97713,2.67727 -5.97713,5.97712 0,0.4234 0.0498,0.83433 0.12449,1.23279 0.26149,1.27014 0.80939,2.49046 1.34485,3.72325 0.75959,1.71843 1.50674,3.4244 1.50674,5.22998 0,3.95986 -2.68971,7.55859 -6.64956,7.72046 -0.43583,0.0128 -0.87166,0.025 -1.31995,0.025 -17.60761,0 -31.878,-14.27038 -31.878,-31.878 0,-17.60761 14.28284,-31.878 31.89046,-31.878 17.60762,0 31.87801,14.27039 31.87801,31.878 z m -47.81703,3.98475 c 0,-2.20407 -1.78067,-3.98475 -3.98473,-3.98475 -2.20407,0 -3.98477,1.78068 -3.98477,3.98475 0,2.20406 1.7807,3.98475 3.98477,3.98475 2.20406,0 3.98473,-1.78069 3.98473,-3.98475 z m 0,-11.95426 c 2.20407,0 3.98477,-1.78068 3.98477,-3.98475 0,-2.20407 -1.7807,-3.98475 -3.98477,-3.98475 -2.20405,0 -3.98473,1.78068 -3.98473,3.98475 0,2.20407 1.78068,3.98475 3.98473,3.98475 z m 19.92376,-11.95424 c 0,-2.20408 -1.78068,-3.98477 -3.98473,-3.98477 -2.20407,0 -3.98477,1.78069 -3.98477,3.98477 0,2.20405 1.7807,3.98474 3.98477,3.98474 2.20405,0 3.98473,-1.78069 3.98473,-3.98474 z m 11.95426,11.95424 c 2.20407,0 3.98475,-1.78068 3.98475,-3.98475 0,-2.20407 -1.78068,-3.98475 -3.98475,-3.98475 -2.20406,0 -3.98475,1.78068 -3.98475,3.98475 0,2.20407 1.78069,3.98475 3.98475,3.98475 z"
     id="path1"
     style="display:none;fill:#3b3b3b;fill-opacity:1;stroke:#000000;stroke-width:2.53798;stroke-dasharray:none;stroke-opacity:1" /><path
     d="M 126.20915,54.574783 82.324247,83.8512 c -5.76807,3.845383 -9.435059,10.089163 -10.029703,16.90777 12.348823,2.53716 22.081191,12.26955 24.638191,24.63819 6.838435,-0.59465 13.062395,-4.26163 16.907775,-10.0297 l 29.2566,-43.904722 c 1.32804,-2.001984 2.04162,-4.340923 2.04162,-6.75915 0,-6.719506 -5.45092,-12.170428 -12.17043,-12.170428 -2.3984,0 -4.75718,0.713573 -6.75915,2.041623 z M 88.052677,131.81933 c 0,-12.26953 -9.930593,-22.20012 -22.200138,-22.20012 -12.269532,0 -22.200126,9.93059 -22.200126,22.20012 0,0.77305 0.03966,1.54609 0.118929,2.2993 0.356787,3.46877 -2.021792,7.21505 -5.510393,7.21505 h -0.951431 c -3.508409,0 -6.342895,2.83447 -6.342895,6.3429 0,3.5084 2.834486,6.34289 6.342895,6.34289 h 28.543021 c 12.269545,0 22.200138,-9.93059 22.200138,-22.20014 z"
     id="path1-2"
     style="fill:#989898;fill-opacity:1;stroke-width:0.198215" /></svg>
