<?xml version="1.0" encoding="utf-8"?>
<!-- Generator: Adobe Illustrator 15.1.0, SVG Export Plug-In . SVG Version: 6.00 Build 0)  -->
<!DOCTYPE svg PUBLIC "-//W3C//DTD SVG 1.1//EN" "http://www.w3.org/Graphics/SVG/1.1/DTD/svg11.dtd">
<svg version="1.1" id="Layer_1" xmlns="http://www.w3.org/2000/svg" xmlns:xlink="http://www.w3.org/1999/xlink" x="0px" y="0px"
	 width="60px" height="60px" viewBox="0 0 60 60" enable-background="new 0 0 60 60" xml:space="preserve">
<radialGradient id="SVGID_1_" cx="798" cy="-1046" r="30" gradientTransform="matrix(1 0 0 -1 -768 -1016)" gradientUnits="userSpaceOnUse">
	<stop  offset="0" style="stop-color:#00DC00"/>
	<stop  offset="1" style="stop-color:#191919"/>
</radialGradient>
<path fill="url(#SVGID_1_)" d="M60,51.818C60,56.337,56.337,60,51.818,60H8.182C3.663,60,0,56.337,0,51.818V8.182
	C0,3.663,3.663,0,8.182,0h43.636C56.337,0,60,3.663,60,8.182V51.818z"/>
<g display="none">
	<g display="inline">
		<path fill="#EBEBEB" d="M28.247,48.652c-0.175-0.069-0.665-0.314-0.665-0.314v6.756h-2.765V37.102h4.166
			c5.145,0,7.037,2.73,7.037,5.604c0,2.693-1.437,5.041-4.377,5.881l5.252,5.563v0.945h-2.59L28.247,48.652z M27.582,39.271v6.791
			c0.035,0.035,0.98,0.522,1.925,0.522c2.38,0,3.745-1.715,3.745-3.921c0-1.96-1.365-3.396-4.27-3.396h-1.4V39.271z"/>
		<g opacity="0.35">
			<path d="M28.982,37.102c5.145,0,7.036,2.73,7.036,5.604c0,2.693-1.436,5.041-4.375,5.881l5.25,5.563v0.945h-2.59l-6.056-6.439
				c-0.175-0.068-0.665-0.313-0.665-0.313V55.1h-2.765V37.102H28.982 M29.507,46.588c2.38,0,3.745-1.715,3.745-3.921
				c0-1.96-1.365-3.396-4.27-3.396h-1.4v6.791C27.617,46.098,28.562,46.588,29.507,46.588 M28.982,36.102h-4.166h-1v1v17.992v1h1
				h2.765h1v-1v-4.623l4.993,5.309l0.296,0.314h0.433h2.59h1v-1v-0.945v-0.396l-0.271-0.289l-4.241-4.493
				c2.307-1.195,3.641-3.445,3.641-6.267C37.018,39.511,34.906,36.102,28.982,36.102L28.982,36.102z M28.582,40.271h0.4
				c1.492,0,3.27,0.416,3.27,2.396c0,1.412-0.721,2.921-2.745,2.921c-0.32,0-0.659-0.085-0.925-0.176V40.271L28.582,40.271z"/>
		</g>
	</g>
</g>
<g display="none">
	<g display="inline">
		<path fill="#EBEBEB" d="M4.193,18.276c4.992,0,8.684,1.56,12.272,5.304c3.016,3.172,5.512,8.424,5.512,15.756
			c0,9.568-4.108,15.757-13.521,15.757H4.193v-1.977c1.976-0.261,1.976-0.521,1.976-2.027V22.28c0-1.508,0-1.82-1.976-2.028V18.276z
			 M8.769,52.807h0.78c4.681,0,9.673-3.537,9.673-13.47c0-12.428-7.749-17.784-10.453-18.252V52.807z"/>
		<g opacity="0.35">
			<path d="M4.193,18.276c4.992,0,8.684,1.56,12.272,5.304c3.016,3.172,5.512,8.424,5.512,15.756
				c0,9.568-4.108,15.757-13.521,15.757H4.193v-1.977c1.976-0.261,1.976-0.521,1.976-2.027V22.28c0-1.508,0-1.82-1.976-2.028V18.276
				 M8.769,52.807h0.78c4.681,0,9.673-3.537,9.673-13.47c0-12.428-7.749-17.784-10.453-18.252V52.807 M4.193,17.276h-1v1v1.976v0.9
				l0.896,0.094c0.672,0.071,0.943,0.142,1.051,0.185c0.029,0.165,0.029,0.525,0.029,0.848v28.81c0,0.313,0,0.661-0.027,0.824
				c-0.117,0.048-0.398,0.122-1.08,0.212l-0.87,0.114v0.877v1.977v1h1h4.264c9.364,0,14.521-5.95,14.521-16.757
				c0-9.012-3.626-14.172-5.788-16.445C13.417,18.955,9.531,17.276,4.193,17.276L4.193,17.276z M9.769,51.803V22.475
				c3.032,1.452,8.453,6.627,8.453,16.862C18.222,48.369,13.897,51.689,9.769,51.803L9.769,51.803z"/>
		</g>
	</g>
</g>
<g>
	<g>
		<path display="none" d="M41.917,16.341c-1.616,1.187-3.892-0.884-5.759-1.751c-2.109-0.983-4.301-2.142-6.256-2.754
			c-0.301-0.33-0.097-0.394,0-0.751C33.961,11.79,37.979,14.683,41.917,16.341z"/>
		<path display="none" d="M40.666,17.593c-1.547,1.209-3.912-0.892-5.756-1.751c-2.163-1.009-4.396-1.891-6.011-3.004
			c-0.638,0.01-0.305-0.187-0.248-0.501C32.708,13.041,36.693,15.968,40.666,17.593z"/>
		<path display="none" fill="#FFFFFF" d="M50.682,17.842c-0.043,0.292,0.053,0.446,0.248,0.502
			c-2.398,3.694-5.076,6.577-8.513,10.014c-1.258,1.258-2.806,3-4.505,4.757c-0.977,1.004-3.525,4.328-4.76,4.506
			c-2.44,0.348-8.387-4.041-10.263-5.007c-3.904-2.007-6.966-3.149-10.263-5.007c-0.747-1.246-0.76-3.868,0.5-4.507
			c6.525,3.072,12.429,6.767,19.276,9.514c0.961-0.046,0.09,0.204,0.252,0.751C38.669,29.199,44.42,22.6,50.682,17.842z"/>
		<g>
			<g opacity="0.35">
				<path d="M31.686,3.543c3,0,17.297,7.627,19.994,9.043c-0.41,1.816-1.197,4.458,0.365,6.013
					c-1.531,2.327-2.938,3.966-4.475,5.668c-3.387,3.747-5.623,5.939-9.411,10.096c-1.541,1.693-4.177,4.853-4.755,5.01
					c-0.024,0.007-0.055,0.01-0.09,0.01c-0.791,0-4.205-1.666-5.917-2.513c-2.175-1.077-3.972-2.021-5.506-2.753
					c-2.646-1.264-8.013-3.323-10.717-4.995c-1.194-1.671-0.945-2.809-0.799-5.02c0.048-0.707,0.735-1.651,4.181-5.15
					c0.134-0.137-0.031-1.347,0.105-1.485c0.025-0.025,0.092-0.034,0.186-0.034c0.254,0,0.696,0.068,0.952,0.068
					c0.093,0,0.162-0.009,0.187-0.034c1.356-1.361,2.598-2.769,4.031-4.137c0.122-0.116,0.011-1.688,0.131-1.804
					c0.013-0.012,0.038-0.018,0.074-0.018c0.257,0,1.059,0.3,1.314,0.3c0.035,0,0.061-0.006,0.073-0.017
					c1.801-1.704,2.253-2.228,3.74-3.527c0.081-0.073,0.104-1.442,0.186-1.512c0.019-0.016,0.058-0.022,0.117-0.022
					c0.279,0,0.938,0.148,1.206,0.148c0.054,0,0.09-0.005,0.109-0.021c1.724-1.479,3.965-3.159,4.436-3.284
					C31.48,3.553,31.576,3.545,31.686,3.543 M40.805,16.7c0.396,0,0.768-0.105,1.112-0.358c-3.938-1.659-7.956-4.551-12.015-5.257
					c-0.097,0.357-0.301,0.422,0,0.751c1.958,0.612,4.147,1.771,6.256,2.754C37.629,15.272,39.35,16.7,40.805,16.7 M28.853,12.838
					c0.015,0,0.028,0,0.046,0c1.613,1.113,3.845,1.995,6.008,3.004c1.45,0.677,3.221,2.119,4.666,2.119
					c0.393,0,0.762-0.106,1.091-0.367c-3.973-1.624-7.959-4.551-12.016-5.257C28.594,12.642,28.276,12.838,28.853,12.838
					 M32.591,31.865c-1.098,0-3.292-1.676-4.442-2.255c-4.793-2.411-9.758-4.806-13.769-6.51c2.982,1.666,5.755,2.704,9.265,4.507
					c2.229,1.148,6.286,4.523,8.949,4.523c0.105,0,0.209-0.006,0.313-0.017c1.665-0.182,3.495-3.13,4.755-4.506
					c4.677-5.107,9.417-9.699,13.768-14.27c0.03-0.231-0.057-0.396-0.136-0.396c-0.065,0-0.128,0.113-0.114,0.396
					c-4.41,4.524-9.293,9.172-13.768,14.02c-1.249,1.354-3.148,4.402-4.755,4.507C32.634,31.864,32.613,31.865,32.591,31.865
					 M50.682,17.842c-6.262,4.756-12.013,11.354-18.024,15.522c-0.148-0.505,0.579-0.759-0.063-0.759
					c-0.053,0-0.115,0.002-0.189,0.006c-6.848-2.746-12.75-6.441-19.275-9.513c-1.26,0.637-1.246,3.26-0.5,4.506
					c3.297,1.857,6.359,2.998,10.263,5.007c1.804,0.929,7.373,5.024,9.971,5.024c0.101,0,0.199-0.003,0.291-0.019
					c1.236-0.178,3.787-3.501,4.759-4.506c1.7-1.756,3.247-3.5,4.505-4.756c3.436-3.437,6.113-6.32,8.514-10.015
					C50.732,18.289,50.639,18.135,50.682,17.842 M31.686,2.271L31.686,2.271c-0.224,0-0.424,0.024-0.609,0.074
					c-0.917,0.242-3.261,2.242-4.264,3.077c-0.024-0.003-0.242,0.102-0.266,0.099c-0.294-0.047-0.524-0.162-0.765-0.162
					c-0.376,0-0.828,0.21-1.08,0.432c-0.44,0.378-0.472,0.82-0.529,1.622C24.165,7.48,24.16,7.55,24.155,7.617
					c-0.76,0.672-1.247,1.148-1.889,1.776c-0.306,0.297-0.648,0.628-1.071,1.032c-0.36-0.102-0.677-0.189-0.976-0.189
					c-0.465,0-0.773,0.201-0.95,0.369c-0.452,0.429-0.456,0.95-0.461,1.814c0,0.086-0.001,0.2-0.002,0.307
					c-0.742,0.726-1.437,1.459-2.113,2.171c-0.414,0.436-0.826,0.871-1.247,1.3l0,0c-0.221-0.021-0.439-0.04-0.601-0.04
					c-0.169,0-0.684,0-1.091,0.412c-0.449,0.452-0.437,1.017-0.422,1.671c0,0.045,0.002,0.09,0.003,0.132
					c-3.393,3.46-4.157,4.492-4.234,5.645l-0.05,0.676c-0.138,1.846-0.248,3.304,1.083,5.167l0.149,0.209l0.218,0.134
					c1.887,1.167,4.895,2.461,7.548,3.604c1.251,0.539,2.434,1.047,3.289,1.457c0.854,0.407,1.789,0.883,2.833,1.409
					c0.82,0.415,1.703,0.862,2.66,1.336c4.455,2.202,5.782,2.646,6.483,2.646c0.148,0,0.291-0.02,0.422-0.057
					c0.678-0.184,1.32-0.804,4.065-3.916c0.466-0.529,0.919-1.039,1.3-1.457c1.848-2.029,3.324-3.589,4.756-5.098
					c1.502-1.585,2.92-3.083,4.652-5.004c1.422-1.571,2.945-3.315,4.594-5.823l0.569-0.87l-0.735-0.733
					c-0.933-0.928-0.487-2.833-0.129-4.365l0.105-0.465l0.216-0.953l-0.864-0.454l-0.56-0.293
					C36.584,3.193,33.037,2.271,31.686,2.271L31.686,2.271z M13.595,26.688c-0.201-0.531-0.29-1.371-0.114-2.01
					c2.252,1.088,4.469,2.26,6.621,3.397c3.592,1.9,7.304,3.862,11.294,5.501c0.01,0.047,0.022,0.095,0.035,0.143l0.498,1.693
					l1.45-1.004c2.306-1.596,4.591-3.559,6.829-5.597c-0.313,0.334-0.639,0.684-0.973,1.041c-0.705,0.755-1.457,1.564-2.242,2.375
					c-0.237,0.246-0.569,0.629-0.956,1.071c-0.675,0.782-2.472,2.854-3.111,3.068c0.007-0.003-0.006-0.003-0.021-0.003
					c-0.014,0-0.029,0-0.049,0c-1.543,0-5.224-2.321-7.199-3.567c-0.929-0.585-1.662-1.048-2.188-1.317
					c-1.744-0.896-3.302-1.613-4.809-2.309C16.924,28.373,15.275,27.615,13.595,26.688L13.595,26.688z"/>
			</g>
			<path fill="#EBEBEB" d="M51.967,18.6c-1.531,2.327-2.938,3.966-4.475,5.668c-3.387,3.748-5.623,5.94-9.411,10.099
				c-1.541,1.691-4.177,4.849-4.755,5.009c-0.578,0.156-4.217-1.62-6.01-2.503c-2.175-1.08-3.972-2.021-5.505-2.755
				c-2.646-1.265-8.013-3.323-10.718-4.995c-1.194-1.671-0.945-2.809-0.799-5.02c0.047-0.707,0.734-1.65,4.18-5.149
				c0.135-0.137-0.03-1.347,0.106-1.486c0.118-0.119,1.205,0.121,1.327,0c1.355-1.36,2.598-2.768,4.031-4.137
				c0.123-0.116,0.012-1.688,0.133-1.804c0.12-0.112,1.341,0.378,1.458,0.265c1.801-1.705,2.253-2.228,3.74-3.526
				c0.081-0.073,0.15-1.758,0.231-1.829c0.124-0.105,1.49,0.335,1.606,0.234c1.725-1.48,3.745-2.973,4.216-3.098
				c2.23-0.591,17.479,7.545,20.279,9.013C51.191,14.403,50.402,17.044,51.967,18.6z M32.578,33.365
				c-0.161-0.547,0.707-0.797-0.252-0.752c-6.849-2.746-12.751-6.442-19.276-9.514c-1.26,0.638-1.246,3.26-0.5,4.506
				c3.297,1.858,6.359,2.999,10.263,5.008c1.877,0.965,7.821,5.354,10.261,5.008c1.238-0.178,3.789-3.503,4.76-4.507
				c1.699-1.757,3.247-3.499,4.505-4.757c3.437-3.437,6.112-6.32,8.513-10.014c-0.195-0.055-0.291-0.21-0.248-0.502
				C44.342,22.6,38.591,29.199,32.578,33.365z M29.824,11.084c-0.097,0.357-0.301,0.422,0,0.751
				c1.958,0.612,4.147,1.771,6.256,2.754c1.867,0.867,4.143,2.939,5.759,1.751C37.9,14.683,33.883,11.79,29.824,11.084z
				 M28.57,12.336c-0.054,0.314-0.39,0.512,0.251,0.501c1.613,1.113,3.845,1.995,6.008,3.004c1.847,0.861,4.212,2.96,5.757,1.751
				C36.615,15.968,32.63,13.041,28.57,12.336z M37.333,27.356c-1.249,1.354-3.147,4.402-4.755,4.505
				c-1.078,0.07-3.333-1.665-4.507-2.252c-4.793-2.411-9.758-4.806-13.769-6.51c2.982,1.665,5.755,2.704,9.265,4.506
				c2.319,1.194,6.613,4.797,9.262,4.506c1.665-0.182,3.495-3.129,4.755-4.506c4.677-5.108,9.417-9.699,13.768-14.269
				c0.057-0.425-0.283-0.618-0.25,0C46.691,17.861,41.807,22.508,37.333,27.356z"/>
		</g>
	</g>
	<polygon fill="#EBEBEB" points="24.818,28.764 28,30.474 31.021,31.945 32.534,32.305 33.729,32.225 36.811,29.499 39.755,26.556 
		43.672,22.535 45.795,20.648 50.037,17.201 51.438,18.229 50.93,18.952 49.507,20.913 41.34,30.09 37.839,33.749 35.109,37.092 
		32.004,38.148 18.321,31.467 11.585,27.384 11.319,24.85 12.751,22.535 19.25,25.8 	"/>
	<polygon fill="#EBEBEB" points="15.245,22.08 13.229,23.618 30.625,33.113 36.406,30.566 50.771,15.637 51.68,12.587 47.861,14.92 
		39.271,21.126 36.248,26.271 30.838,28.339 26.276,25.953 	"/>
	<path d="M51.667,17.625c0.013-0.033,0.015,0.543,0.199,0.438c-4.353,4.57-9.206,10.326-13.884,15.433
		c-1.258,1.374-3.539,4.537-4.732,4.695c-2.572-0.373-7.228-3.221-9.546-4.416c-3.508-1.805-10.582-5.015-10.582-5.015l0.557-0.318
		c0,0,7.638,3.422,14.426,7.093c1.155,0.622,3.672,1.925,4.747,1.854c1.609-0.103,3.629-2.888,4.879-4.24
		C42.206,28.304,47.257,22.149,51.667,17.625z"/>
	<path d="M51.311,15.597c0.012-0.034-0.065,0.503,0.117,0.398c-4.349,4.57-9.006,9.927-13.683,15.037
		c-1.259,1.374-3.343,4.429-5.013,4.694c-2.572-0.373-7.105-3.145-9.426-4.338c-3.508-1.803-10.82-5.091-10.82-5.091l0.558-0.239
		c0,0,11.12,5.153,14.824,7.015c1.172,0.591,3.71,2.08,4.788,2.014c1.609-0.104,3.588-3.048,4.839-4.4
		C41.967,25.838,46.898,20.121,51.311,15.597z"/>
	<path d="M51.667,12.614c0.013-0.034-0.065,0.504,0.119,0.398c-4.349,4.57-9.007,9.927-13.683,15.037
		c-1.258,1.375-3.74,4.549-5.41,4.813c-2.574-0.371-7.385-2.784-9.706-3.978c-3.508-1.804-9.971-4.575-9.971-4.575l0.637-0.477
		c0,0,10.444,4.82,14.147,6.682c1.173,0.592,3.736,1.778,4.813,1.713c1.609-0.105,3.986-3.167,5.236-4.522
		C42.325,22.854,47.257,17.138,51.667,12.614z"/>
	<path d="M40.579,21.41c-4.368,4.584-12.031,6.737-16.097,3.965c-3.875-2.643-3.362-7.735,1.359-11.955
		c4.835-4.322,10.741-5.663,14.729-3.196C44.521,12.667,44.818,16.956,40.579,21.41z"/>
	<path fill="#EBEBEB" d="M40.249,20.518c-4.276,4.493-11.792,6.603-15.773,3.886c-3.797-2.591-3.295-7.581,1.331-11.716
		c4.742-4.234,10.529-5.55,14.436-3.13C44.111,11.95,44.406,16.152,40.249,20.518z"/>
	<polygon points="30.359,13.101 31.752,12.054 41.832,16.826 41.43,17.465 	"/>
	<polygon points="30.734,19.713 29.027,19.7 28.385,20.824 30.107,21.625 31.375,20.81 	"/>
	<polygon points="33.475,3.743 18.758,18.699 15.695,22.32 33.835,4.022 	"/>
</g>
<g>
	<g>
		<path fill="#EBEBEB" d="M17.971,47.874c0,3.541-1.426,7.22-5.519,7.22H8.497V40.607h4.186
			C16.821,40.607,17.971,44.379,17.971,47.874z M10.313,42.079v11.544h2.139c3.081,0,3.656-3.266,3.656-5.703
			c0-2.369-0.437-5.841-3.519-5.841H10.313z"/>
		<g opacity="0.35">
			<path d="M12.682,40.607c4.139,0,5.289,3.771,5.289,7.267c0,3.541-1.426,7.22-5.519,7.22H8.497V40.607H12.682 M10.313,53.623
				h2.139c3.081,0,3.656-3.266,3.656-5.703c0-2.369-0.437-5.841-3.519-5.841h-2.276V53.623 M12.682,39.607H8.497h-1v1v14.485v1h1
				h3.956c4.021,0,6.519-3.149,6.519-8.22C18.971,42.62,16.679,39.607,12.682,39.607L12.682,39.607z M11.313,43.079h1.276
				c0.623,0,2.519,0,2.519,4.841c0,3.121-0.894,4.703-2.656,4.703h-1.139V43.079L11.313,43.079z"/>
		</g>
	</g>
	<g>
		<path fill="#EBEBEB" d="M22.412,50.863c-0.115-0.047-0.437-0.207-0.437-0.207v4.438h-1.817V43.275h2.737
			c3.38,0,4.622,1.793,4.622,3.679c0,1.771-0.942,3.312-2.874,3.862l3.449,3.656v0.62H26.39L22.412,50.863z M21.975,44.701v4.461
			c0.023,0.021,0.644,0.344,1.265,0.344c1.563,0,2.46-1.126,2.46-2.574c0-1.289-0.897-2.229-2.805-2.229L21.975,44.701
			L21.975,44.701z"/>
		<g opacity="0.35">
			<path d="M22.895,43.275c3.38,0,4.622,1.793,4.622,3.679c0,1.771-0.942,3.312-2.874,3.862l3.449,3.656v0.62H26.39l-3.978-4.229
				c-0.115-0.047-0.437-0.207-0.437-0.207v4.438h-1.817V43.275H22.895 M23.239,49.506c1.563,0,2.46-1.126,2.46-2.574
				c0-1.289-0.897-2.229-2.805-2.229h-0.92v4.461C21.998,49.186,22.618,49.506,23.239,49.506 M22.895,42.275h-2.737h-1v1v11.817v1h1
				h1.817h1v-1v-2.172l2.687,2.856l0.296,0.314h0.432h1.702h1v-1v-0.621v-0.396l-0.272-0.289l-2.492-2.641
				c1.379-0.892,2.189-2.396,2.189-4.191C28.516,44.691,27.04,42.275,22.895,42.275L22.895,42.275z M22.975,48.475v-2.771
				c1.725,0.025,1.725,0.93,1.725,1.229c0,0.369-0.105,1.574-1.46,1.574C23.153,48.506,23.063,48.493,22.975,48.475L22.975,48.475z"
				/>
		</g>
	</g>
	<g>
		<path fill="#EBEBEB" d="M35.016,51.369h-3.381l-1.219,3.725h-1.909l3.886-11.818h1.863l3.908,11.818h-1.908L35.016,51.369z
			 M31.979,49.896h2.691l-1.334-4.438L31.979,49.896z"/>
		<g opacity="0.35">
			<path d="M34.256,43.275l3.908,11.817h-1.908l-1.24-3.725h-3.381l-1.219,3.725h-1.909l3.886-11.817H34.256 M31.979,49.896h2.691
				l-1.334-4.438L31.979,49.896 M34.979,42.275h-0.723h-1.863h-0.724l-0.228,0.688l-3.885,11.818l-0.431,1.313h1.381h1.909h0.726
				l0.226-0.688l0.993-3.036h1.935l1.015,3.041l0.228,0.685h0.721h1.908h1.384l-0.435-1.314l-3.908-11.818L34.979,42.275
				L34.979,42.275z"/>
		</g>
	</g>
	<g>
		<path fill="#EBEBEB" d="M46.859,55.094c-0.621-2.621-1.357-5.588-2.047-8.807l-0.14,0.645l-1.907,8.162h-1.841l-2.874-11.818
			h1.909l1.886,8.484l2.092-8.484h1.748l2.069,8.484l1.908-8.484h1.84l-2.875,11.818H46.859z"/>
		<g opacity="0.35">
			<path d="M51.504,43.275l-2.875,11.817h-1.77c-0.621-2.62-1.357-5.588-2.047-8.807l-0.14,0.646l-1.907,8.161h-1.841l-2.874-11.817
				h1.909l1.886,8.483l2.092-8.483h1.748l2.069,8.483l1.908-8.483H51.504 M52.775,42.275h-1.271h-1.84h-0.801l-0.176,0.779
				l-0.973,4.323l-1.059-4.341l-0.188-0.764h-0.785h-1.746h-0.783l-0.188,0.762l-1.071,4.342l-0.959-4.318l-0.174-0.783h-0.803
				H38.05h-1.272l0.302,1.235l2.874,11.818l0.186,0.764h0.786h1.841h0.793l0.181-0.772l1.063-4.543
				c0.22,0.93,0.435,1.824,0.638,2.675c0.153,0.642,0.305,1.266,0.447,1.872l0.182,0.77h0.791h1.771h0.786l0.186-0.764l2.875-11.818
				L52.775,42.275L52.775,42.275z"/>
		</g>
	</g>
</g>
</svg>
