<?xml version="1.0" encoding="utf-8"?>
<!-- Generator: Adobe Illustrator 15.1.0, SVG Export Plug-In . SVG Version: 6.00 Build 0)  -->
<!DOCTYPE svg PUBLIC "-//W3C//DTD SVG 1.1//EN" "http://www.w3.org/Graphics/SVG/1.1/DTD/svg11.dtd">
<svg version="1.1" id="Layer_1" xmlns="http://www.w3.org/2000/svg" xmlns:xlink="http://www.w3.org/1999/xlink" x="0px" y="0px"
	 width="60px" height="60px" viewBox="0 0 60 60" enable-background="new 0 0 60 60" xml:space="preserve">
<radialGradient id="SVGID_1_" cx="286" cy="-315" r="30" gradientTransform="matrix(1 0 0 -1 -256 -285)" gradientUnits="userSpaceOnUse">
	<stop  offset="0" style="stop-color:#D20000"/>
	<stop  offset="1" style="stop-color:#3C0000"/>
</radialGradient>
<path fill="url(#SVGID_1_)" d="M60,51.818C60,56.337,56.337,60,51.818,60H8.182C3.663,60,0,56.337,0,51.818V8.182
	C0,3.663,3.663,0,8.182,0h43.636C56.337,0,60,3.663,60,8.182V51.818z"/>
<g>
	<g>
		<path fill="#DCDCDC" d="M13.013,55.917l-1.273-3.856H8.169l-1.273,3.856H5.338l3.799-11.968h1.634l3.799,11.968H13.013z
			 M8.53,50.807h2.85l-1.425-5.281L8.53,50.807z"/>
		<g opacity="0.35">
			<path d="M10.771,43.949l3.799,11.968h-1.558l-1.273-3.856h-3.57l-1.273,3.856H5.338l3.799-11.968H10.771 M8.53,50.807h2.85
				l-1.425-5.281L8.53,50.807 M11.503,42.949h-0.732H9.138H8.406l-0.221,0.697l-3.8,11.968l-0.414,1.303h1.367h1.558h0.723
				l0.227-0.687l1.046-3.17h2.125l1.046,3.17l0.227,0.687h0.723h1.558h1.367l-0.414-1.304l-3.799-11.967L11.503,42.949
				L11.503,42.949z"/>
		</g>
	</g>
	<g>
		<path fill="#DCDCDC" d="M19.208,55.917h-1.463v-8.491h-2.413v-1.273h6.307v1.273h-2.432L19.208,55.917L19.208,55.917z"/>
		<g opacity="0.35">
			<path d="M21.639,46.152v1.272h-2.432v8.491h-1.463v-8.491h-2.413v-1.272H21.639 M22.639,45.152h-1h-6.307h-1v1v1.272v1h1h1.413
				v7.491v1h1h1.463h1v-1v-7.491h1.432h1v-1v-1.272L22.639,45.152L22.639,45.152z"/>
		</g>
	</g>
	<g>
		<path fill="#DCDCDC" d="M26.579,55.917h-1.463v-8.491h-2.413v-1.273h6.307v1.273h-2.432L26.579,55.917L26.579,55.917z"/>
		<g opacity="0.35">
			<path d="M29.011,46.152v1.272h-2.432v8.491h-1.463v-8.491h-2.413v-1.272H29.011 M30.011,45.152h-1h-6.307h-1v1v1.272v1h1h1.413
				v7.491v1h1h1.463h1v-1v-7.491h1.432h1v-1v-1.272L30.011,45.152L30.011,45.152z"/>
		</g>
	</g>
	<g>
		<path fill="#DCDCDC" d="M34.577,52.84h-2.792l-1.008,3.077h-1.576l3.21-9.765h1.539l3.229,9.765h-1.578L34.577,52.84z
			 M32.07,51.623h2.223l-1.104-3.666L32.07,51.623z"/>
		<g opacity="0.35">
			<path d="M33.951,46.152l3.229,9.765h-1.576l-1.026-3.077h-2.792l-1.008,3.077h-1.576l3.21-9.765H33.951 M32.07,51.623h2.223
				l-1.104-3.666L32.07,51.623 M34.674,45.152h-0.723h-1.539h-0.725l-0.227,0.688l-3.21,9.766l-0.431,1.313h1.381h1.576h0.726
				l0.226-0.689l0.781-2.388h1.348l0.799,2.394l0.228,0.685h0.722h1.576h1.385l-0.436-1.313l-3.23-9.768L34.674,45.152
				L34.674,45.152z"/>
		</g>
	</g>
	<g>
		<path fill="#DCDCDC" d="M38.854,51.035c0-1.368,0.36-2.66,1.008-3.572c0.684-1.006,1.729-1.613,2.981-1.613
			c1.235,0,2.185,0.398,2.697,0.721l-0.552,0.988c-0.739-0.381-1.348-0.551-2.146-0.551c-0.684,0-1.52,0.569-1.956,1.463
			c-0.343,0.684-0.531,1.652-0.531,2.621c0,0.893,0.112,1.824,0.455,2.488c0.438,0.874,1.082,1.443,2.053,1.443
			c1.025,0,1.918-0.551,2.164-0.722l0.666,0.97c-0.285,0.209-1.35,0.949-2.889,0.949C39.859,56.221,38.854,53.428,38.854,51.035z"/>
		<g opacity="0.35">
			<path d="M42.843,45.85c1.235,0,2.185,0.398,2.697,0.721l-0.552,0.988c-0.739-0.381-1.348-0.551-2.146-0.551
				c-0.684,0-1.52,0.569-1.956,1.463c-0.343,0.684-0.531,1.652-0.531,2.621c0,0.893,0.112,1.824,0.455,2.488
				c0.438,0.874,1.082,1.443,2.053,1.443c1.025,0,1.918-0.551,2.164-0.722l0.666,0.97c-0.285,0.209-1.35,0.949-2.889,0.949
				c-2.943,0-3.951-2.794-3.951-5.187c0-1.368,0.36-2.66,1.008-3.572C40.544,46.457,41.589,45.85,42.843,45.85 M42.843,44.85
				c-1.558,0-2.909,0.729-3.81,2.051c-0.758,1.067-1.18,2.543-1.18,4.136c0,2.854,1.297,6.187,4.951,6.187
				c1.67,0,2.896-0.717,3.479-1.144l0.781-0.573l-0.549-0.8l-0.664-0.97l-0.566-0.823l-0.824,0.565
				c-0.081,0.057-0.814,0.545-1.6,0.545c-0.353,0-0.766-0.104-1.156-0.891c-0.229-0.441-0.352-1.162-0.352-2.041
				c0-0.828,0.16-1.641,0.426-2.174c0.293-0.598,0.805-0.91,1.063-0.91c0.607,0,1.065,0.119,1.689,0.44l0.858,0.442l0.471-0.847
				l0.552-0.987l0.462-0.828l-0.803-0.506C45.652,45.461,44.501,44.85,42.843,44.85L42.843,44.85z"/>
		</g>
	</g>
	<g>
		<path fill="#DCDCDC" d="M49.665,52.1v3.817h-1.501v-9.765h1.501v4.142l3.286-4.142h1.634l-3.896,5.016l3.972,4.16v0.589h-1.425
			L49.665,52.1z"/>
		<g opacity="0.35">
			<path d="M54.585,46.152l-3.896,5.016l3.972,4.16v0.589h-1.425L49.665,52.1v3.817h-1.501v-9.765h1.501v4.142l3.286-4.142H54.585
				 M56.628,45.152h-2.043h-1.634h-0.483l-0.3,0.379l-1.503,1.894v-1.272v-1h-1h-1.501h-1v1v9.766v1h1h1.501h1v-1v-1.285
				l1.841,1.969l0.297,0.316h0.434h1.426h1v-1v-0.589V54.93l-0.275-0.291l-3.377-3.537l3.366-4.334L56.628,45.152L56.628,45.152z"/>
		</g>
	</g>
</g>
<path opacity="0.52" fill="none" stroke="#000000" stroke-width="1.5" stroke-miterlimit="10" d="M13.514,41.477l-0.892-2.5
	l5.899-5.408l-1.333-5.443l0.28-2.118l1.47,1.743l0.825,3.064l2.172-0.075l3.287-3.102l4.891-1.708l-1.844,4.936l-3.287,3.102
	l-0.316,2.042l1.71,0.679l1.158-0.016l1.684,1.783c0,0-2.263,0.975-7.49-1.49l-5.658,5.658L13.514,41.477z"/>
<polygon opacity="0.44" fill="none" stroke="#000000" stroke-width="1.5" stroke-miterlimit="10" points="21.714,30.163 
	20.221,30.09 45.4,6.502 53.719,3.672 50.75,11.875 25.443,35.623 25.188,34.25 28.5,31.313 30.887,26.302 45.938,11.125 
	29.841,25.196 25.157,27.089 "/>
<g>
	<g>
		<g>
			<path fill="#E1E1E1" d="M13.542,41.506l-0.92-2.529l5.899-5.408c0,0-2.058-5.334-1.053-7.562l1.682,1.782
				c0,0-0.424,1.563,0.612,3.025l2.172-0.075l3.287-3.102l4.891-1.709L13.542,41.506z"/>
		</g>
		<g>
			<path fill="#E1E1E1" d="M13.514,41.477l2.473,1.064l5.74-5.576c0,0,5.208,2.364,7.49,1.49l-1.684-1.783
				c0,0-1.468,0.457-2.868-0.663l0.316-2.042l3.287-3.102l1.845-4.937L13.514,41.477z"/>
		</g>
		<polygon fill="#E1E1E1" points="14.417,41.813 13.514,41.477 13.333,40.896 28.604,26.438 30.112,25.929 29.688,26.958 		"/>
	</g>
	<g>
		<g>
			<polygon fill="#E1E1E1" points="20.221,30.09 21.714,30.163 25.157,27.089 29.841,25.196 53.416,3.818 45.4,6.502 			"/>
		</g>
		<g>
			<polygon fill="#E1E1E1" points="25.443,35.623 25.457,34.128 28.724,30.87 30.887,26.302 53.591,4.002 50.448,11.85 			"/>
		</g>
		<polygon fill="#E1E1E1" points="52.719,6.172 53.719,3.672 50.875,4.672 48.938,6.672 44.891,9.656 46.75,11.922 50.953,7.563 		
			"/>
	</g>
</g>
</svg>
