<?xml version="1.0" encoding="utf-8"?>
<!-- Generator: Adobe Illustrator 15.1.0, SVG Export Plug-In . SVG Version: 6.00 Build 0)  -->
<!DOCTYPE svg PUBLIC "-//W3C//DTD SVG 1.1//EN" "http://www.w3.org/Graphics/SVG/1.1/DTD/svg11.dtd">
<svg version="1.1" id="Layer_1" xmlns="http://www.w3.org/2000/svg" xmlns:xlink="http://www.w3.org/1999/xlink" x="0px" y="0px"
	 width="60px" height="60px" viewBox="0 0 60 60" enable-background="new 0 0 60 60" xml:space="preserve">
<radialGradient id="SVGID_1_" cx="542" cy="761" r="30" gradientTransform="matrix(1 0 0 1 -512 -731)" gradientUnits="userSpaceOnUse">
	<stop  offset="0" style="stop-color:#00DC00"/>
	<stop  offset="1" style="stop-color:#191919"/>
</radialGradient>
<path fill="url(#SVGID_1_)" d="M60,51.818C60,56.337,56.337,60,51.818,60H8.182C3.663,60,0,56.337,0,51.818V8.182
	C0,3.663,3.663,0,8.182,0h43.636C56.337,0,60,3.663,60,8.182V51.818z"/>
<g display="none">
	<g display="inline">
		<path fill="#EBEBEB" d="M3.934,54.5v-1.977c2.34-0.26,2.34-0.521,2.34-2.027v-28.81c0-1.508,0-1.82-2.34-2.028v-1.976h6.292
			c1.248,0,3.276,0,5.148-0.78l1.871,3.536l-1.56,0.884c-0.832-0.676-1.248-1.352-2.964-1.352H8.874v4.472h4.889
			c1.716,0,1.872-0.572,1.924-1.456h1.56v5.2h-1.56c-0.156-0.78-0.364-1.456-1.82-1.456H8.874v25.481h5.356
			c2.393,0,2.756-1.092,3.641-2.186l1.56,1.041l-1.872,4.057c-0.988-0.26-2.236-0.416-3.536-0.521
			C12.774,54.5,11.526,54.5,10.59,54.5H3.934z"/>
		<g opacity="0.35">
			<path d="M15.375,16.902l1.871,3.536l-1.56,0.884c-0.832-0.676-1.248-1.352-2.964-1.352H8.874v4.472h4.889
				c1.716,0,1.872-0.572,1.924-1.456h1.56v5.2h-1.56c-0.156-0.78-0.364-1.456-1.82-1.456H8.874v25.481h5.356
				c2.393,0,2.756-1.092,3.641-2.186l1.56,1.041l-1.872,4.057c-0.988-0.26-2.236-0.416-3.536-0.521
				C12.774,54.5,11.526,54.5,10.59,54.5H3.934v-1.977c2.34-0.26,2.34-0.521,2.34-2.027v-28.81c0-1.508,0-1.82-2.34-2.028v-1.976
				h6.292C11.475,17.683,13.502,17.683,15.375,16.902 M16.061,14.992l-1.263,0.526c-1.595,0.665-3.386,0.665-4.571,0.665H3.934h-1.5
				v1.5v1.976v1.373l1.367,0.122c0.482,0.043,0.783,0.085,0.971,0.12c0.002,0.13,0.002,0.28,0.002,0.414v28.81
				c0,0.127,0,0.27-0.002,0.395c-0.194,0.039-0.505,0.088-1.003,0.144l-1.334,0.147v1.342V54.5V56h1.5h6.656
				c0.896,0,2.122,0,3.308,0.1c1.423,0.113,2.494,0.271,3.279,0.478l1.216,0.317l0.527-1.142l1.872-4.056l0.538-1.164l-1.066-0.713
				l-1.56-1.041l-1.138-0.76l-0.861,1.063c-0.152,0.188-0.291,0.377-0.426,0.563c-0.588,0.799-0.786,1.066-2.048,1.066h-3.856
				v-22.48h3.492c0.136,0,0.233,0.009,0.298,0.019c0.014,0.053,0.031,0.128,0.052,0.232l0.241,1.205h1.229h1.56h1.5v-1.5v-5.2v-1.5
				H18.44l0.815-0.462l-0.682-1.288l-1.871-3.536L16.061,14.992L16.061,14.992z M10.374,21.471h2.349
				c0.825,0,1.024,0.148,1.516,0.583l-0.05,0.845c0,0.009-0.001,0.017-0.001,0.025c-0.102,0.011-0.24,0.019-0.425,0.019h-3.389
				V21.471L10.374,21.471z"/>
		</g>
	</g>
</g>
<g display="none">
	<g display="inline">
		<path fill="#EBEBEB" d="M27.701,41.652c0.035,0.91,0.07,1.119,0.07,1.295v12.146h-2.766V37.066h3.431l5.74,12.496
			c-0.035-0.91-0.035-1.119-0.035-1.262V37.066h2.768v18.025h-2.73L27.701,41.652z"/>
		<g opacity="0.35">
			<path d="M36.907,37.066v18.025h-2.73l-6.476-13.439c0.035,0.91,0.07,1.119,0.07,1.295v12.146h-2.766V37.066h3.431l5.74,12.496
				c-0.035-0.91-0.035-1.119-0.035-1.262V37.066H36.907 M38.407,35.566h-1.5h-2.767h-1.5v1.5v5.561L29.8,36.439l-0.402-0.873h-0.961
				h-3.431h-1.5v1.5v18.025v1.5h1.5h2.766h1.5v-1.5v-6.726l3.554,7.377l0.408,0.849h0.941h2.73h1.5v-1.5V37.066L38.407,35.566
				L38.407,35.566z"/>
		</g>
	</g>
	<g display="inline">
		<path fill="#EBEBEB" d="M43.311,55.094V37.102h5.496c4.48,0,6.896,3.291,6.896,9.031c0,6.16-3.186,8.961-7.176,8.961H43.311z
			 M46.041,39.271v13.65h2.484c3.047,0,4.41-2.591,4.41-6.756c0-4.307-1.261-6.896-4.234-6.896h-2.66V39.271z"/>
		<g opacity="0.35">
			<path d="M48.807,37.102c4.48,0,6.896,3.291,6.896,9.031c0,6.16-3.186,8.961-7.176,8.961h-5.217V37.102H48.807 M46.041,52.924
				h2.484c3.047,0,4.41-2.591,4.41-6.756c0-4.307-1.261-6.896-4.234-6.896h-2.66V52.924 M48.807,35.602h-5.496h-1.5v1.5v17.992v1.5
				h1.5h5.217c4.193,0,8.677-2.748,8.677-10.461C57.202,39.538,54.063,35.602,48.807,35.602L48.807,35.602z M47.541,40.771h1.16
				c0.748,0,2.734,0,2.734,5.396c0,5.256-2.189,5.256-2.91,5.256h-0.984V40.771L47.541,40.771z"/>
		</g>
	</g>
</g>
<polygon points="22.406,36.813 23.031,35.656 19.063,35.344 19.938,33.594 16.083,32.906 17.313,30.844 11.625,27.781 
	13.958,26.531 11.5,23.406 20.125,23.865 25.5,21.365 32.25,23.344 29.917,28.365 24.031,36.469 "/>
<g>
	<g>
		<polygon fill="#EBEBEB" points="34.059,13.917 42.991,1.3 44.986,3.601 36.111,14.875 		"/>
		<g opacity="0.35">
			<path d="M42.991,1.3l1.995,2.3l-8.875,11.274l-2.053-0.957L42.991,1.3 M42.9-0.542l-0.838,1.185l-8.934,12.617l-0.787,1.113
				l1.236,0.576l2.054,0.957l0.818,0.381l0.558-0.709l8.875-11.274l0.584-0.739l-0.618-0.711l-1.996-2.3L42.9-0.542L42.9-0.542z"/>
		</g>
	</g>
	<g>
		<polygon fill="#EBEBEB" points="31.104,13.639 37.289,17.026 34.803,18.709 30.726,16.322 		"/>
		<g opacity="0.35">
			<path d="M31.104,13.639l6.188,3.388l-2.488,1.684l-4.077-2.388L31.104,13.639 M30.204,11.85l-0.229,1.631L29.6,16.164
				l-0.108,0.756l0.658,0.384l4.077,2.388l0.617,0.363l0.595-0.403l2.486-1.684l1.544-1.044l-1.635-0.896l-6.188-3.388L30.204,11.85
				L30.204,11.85z"/>
		</g>
	</g>
	<g>
		<polygon fill="#EBEBEB" points="30.624,17.489 29.201,18.674 32.736,20.73 33.714,19.263 		"/>
		<g opacity="0.35">
			<path d="M30.624,17.489l3.092,1.773l-0.977,1.468l-3.536-2.056L30.624,17.489 M30.503,16.108l-0.607,0.507L28.472,17.8
				l-1.251,1.041l1.405,0.818l3.537,2.057l0.925,0.539l0.594-0.892l0.976-1.468l0.676-1.012l-1.056-0.606l-3.092-1.773
				L30.503,16.108L30.503,16.108z"/>
		</g>
	</g>
	<g>
		<path fill="#EBEBEB" d="M28.954,22.551c0,0-4.399,3.818-5.264,4.452c-0.868,0.639-5.392,3.055-6.209,3.167
			c-1.04,0.141-3.126,0.304-4.411-0.662c-1.526-1.146-2.39-2.858-2.39-2.858c1.484,0.48,5.009,0.942,8.747-0.177
			c3.74-1.121,7.703-4.421,7.703-4.421s-7.401,4.332-11.064,4.015c-4.831-0.415-6.563-4.722-6.563-4.722s7.217,2.213,10.647,1.822
			c3.433-0.394,4.019-2.158,5.771-3.318c1.305-0.866,1.916-0.52,1.916-0.52l5.175,2.455c0.614,0.982,0.815,2.737,0.815,2.737
			c0.259,3.197-5.085,9.414-5.085,9.414c-0.671,0.943-1.349,1.45-2.417,2.121c-1.336,1.247-3.963,1.165-4.692,0.925
			c0.334-0.16,3.632-2.116,5.199-4.316c0.734-1.033,1.656-2.385,2.341-3.711c0.913-1.766,2.045-4.606,2.045-4.606
			c-0.283,0.111-1.727,2.982-2.501,4.126c-0.606,0.898-2.138,2.911-2.471,3.402c-0.605,0.9-1.949,2.23-2.301,2.505
			c-3.27,2.58-6.015,1.069-6.015,1.069c1.009-0.289,4.569-2.568,7.424-5.449c2.808-2.836,5.084-6.895,5.084-6.895
			s-5.506,7.041-8.6,8.917c-3.91,2.377-6.384,1.24-7.33,0.746c1.18-0.222,6.504-2.905,9.776-5.394
			C25.346,26.58,28.954,22.551,28.954,22.551z"/>
		<g opacity="0.4">
			<path d="M27.465,19.262c0.249,0,0.369,0.068,0.369,0.068l5.175,2.455c0.613,0.982,0.813,2.737,0.813,2.737
				c0.258,3.197-5.083,9.414-5.083,9.414c-0.671,0.943-1.351,1.45-2.419,2.121c-0.881,0.827-2.332,1.069-3.423,1.069
				c-0.558,0-1.02-0.066-1.267-0.146c0.333-0.16,3.632-2.119,5.197-4.316c0.735-1.033,1.656-2.386,2.343-3.711
				c0.911-1.766,2.044-4.606,2.044-4.606c-0.283,0.11-1.726,2.982-2.502,4.125c-0.604,0.898-2.137,2.912-2.471,3.403
				c-0.605,0.899-1.949,2.229-2.3,2.505c-1.507,1.188-2.901,1.509-3.967,1.509c-1.25,0-2.049-0.44-2.049-0.44
				c1.008-0.289,4.568-2.567,7.424-5.449c2.807-2.836,5.083-6.895,5.083-6.895s-5.505,7.04-8.599,8.917
				c-1.828,1.11-3.343,1.455-4.533,1.455c-1.356,0-2.293-0.446-2.797-0.709c1.18-0.222,6.504-2.905,9.776-5.395
				c1.066-0.795,4.671-4.825,4.671-4.825s-4.398,3.818-5.264,4.453c-0.868,0.639-5.391,3.055-6.209,3.166
				c-0.384,0.053-0.912,0.107-1.489,0.107c-0.983,0-2.112-0.161-2.922-0.768c-1.526-1.146-2.39-2.858-2.39-2.858
				c0.806,0.261,2.211,0.517,3.927,0.517c1.445,0,3.11-0.183,4.82-0.694c3.74-1.12,7.704-4.421,7.704-4.421
				s-6.89,4.032-10.667,4.032c-0.137,0-0.271-0.005-0.4-0.017c-4.831-0.415-6.563-4.722-6.563-4.722s6.093,1.868,9.744,1.868
				c0.322,0,0.625-0.015,0.903-0.047c3.433-0.394,4.019-2.158,5.771-3.318C26.645,19.368,27.155,19.262,27.465,19.262
				 M27.465,18.124c-0.667,0-1.399,0.26-2.175,0.777c-0.601,0.398-1.062,0.837-1.507,1.261c-0.926,0.88-1.727,1.64-3.764,1.875
				c-0.225,0.026-0.486,0.039-0.773,0.039c-3.439,0-9.352-1.799-9.411-1.817l-2.278-0.699l0.889,2.211
				c0.056,0.139,1.003,2.424,3.356,3.996c-0.306-0.063-0.567-0.131-0.772-0.197l-2.595-0.841l1.229,2.436
				c0.041,0.08,1.003,1.966,2.724,3.255c0.698,0.524,1.605,0.843,2.706,0.952c-0.369,0.154-0.646,0.251-0.799,0.28l-3.229,0.606
				l2.913,1.521c0.605,0.314,1.525,0.724,2.787,0.817l-1.807,0.515l2.419,1.334c0.086,0.047,0.728,0.385,1.737,0.522l-0.431,0.218
				l2.587,0.874c0.389,0.129,0.982,0.204,1.627,0.204c0.805,0,2.785-0.127,4.114-1.296c1.127-0.716,1.89-1.312,2.624-2.329
				c0.714-0.836,5.604-6.702,5.322-10.209c-0.025-0.242-0.253-2.081-0.981-3.248L33.8,20.896l-0.302-0.142l-5.16-2.448
				C28.176,18.229,27.885,18.124,27.465,18.124L27.465,18.124z"/>
		</g>
	</g>
	<g>
		<path fill="#EBEBEB" d="M28.267,37.468c0,0,7.661,1.668,10.493,1.299c0,0,2.188-0.111,2.968-0.42c0,0,1.516-0.372,2-0.609
			c0.487-0.24,0.268-0.153,0.268-0.153s-0.624,0.007-1.685-0.098c-1.062-0.109-1.22-0.476-1.22-0.476
			c2.239,0.286,5.465-0.676,6.621-1.299c1.153-0.622,3.2-1.662,3.485-4.08c0.28-2.399,0.041-3.644-0.594-4.445
			c-0.259-0.329-0.829-0.499-0.829-0.499s-0.058-1.017-0.87-2.775c0,0-0.297-0.461-0.826-1.039c-0.541-0.587-1.331-1.214-2.78-1.45
			c0,0-3.297-0.703-4.721,0.28c-1.044,0.723-1.546,1.545-1.984,2.979c-0.634,2.067,1.096,4.791,1.712,5.326
			c0.575,0.498,2.396,0.994,3.177,0.066c0,0,1.18-1.276-0.218-2.247c1.281-0.082,1.825,1.352,1.507,2.191
			c-0.638,1.525-2.992,1.923-3.924,1.468c-1.442-0.541-2.403-2.019-3.182-3.953c-1.441-0.283-2.522,0.754-2.906,1.399
			c-0.834,1.1-0.89,1.771-0.826,2.416c0.067,0.644,0.437,1.321,1.114,1.921c0.681,0.599,1.552,0.23,1.752-0.086
			c0.261-0.42,0.222-1.064-0.114-1.421c-0.072-0.075-0.995,0.371-0.995,0.371s0.338-0.83,0.707-1.041
			c0.37-0.209,1.123,0.087,1.514,0.569c0.212,0.486-0.075,2.08-0.517,2.412c-0.414,0.313-1.73,0.612-2.085,0.477
			c-0.63-0.24-2.097-1.759-2.483-2.402c0,0-2.206,3.042-2.866,3.745C29.286,36.612,28.267,37.468,28.267,37.468z"/>
		<g opacity="0.4">
			<path d="M42.928,21.178c1.229,0,2.372,0.244,2.372,0.244c1.449,0.235,2.241,0.864,2.78,1.45c0.529,0.578,0.826,1.04,0.826,1.04
				c0.813,1.758,0.87,2.775,0.87,2.775s0.571,0.17,0.829,0.498c0.636,0.801,0.875,2.046,0.594,4.446
				c-0.284,2.418-2.332,3.458-3.485,4.08c-1.012,0.545-3.61,1.35-5.744,1.35c-0.306,0-0.598-0.016-0.878-0.052
				c0,0,0.16,0.367,1.22,0.476c0.94,0.092,1.536,0.099,1.66,0.099c0.016,0,0.023,0,0.023,0s0.038-0.016,0.049-0.016
				s-0.031,0.028-0.313,0.166c-0.486,0.24-2.002,0.609-2.002,0.609c-0.782,0.309-2.968,0.42-2.968,0.42
				c-0.282,0.036-0.611,0.054-0.976,0.054c-3.304,0-9.514-1.352-9.514-1.352s1.018-0.855,1.698-1.581
				c0.658-0.697,2.864-3.742,2.864-3.742c0.387,0.644,1.854,2.163,2.484,2.402c0.061,0.022,0.146,0.034,0.254,0.034
				c0.52,0,1.487-0.252,1.831-0.511c0.44-0.332,0.728-1.924,0.516-2.412c-0.304-0.375-0.826-0.639-1.218-0.639
				c-0.112,0-0.213,0.022-0.296,0.068c-0.369,0.211-0.707,1.041-0.707,1.041s0.785-0.38,0.965-0.38c0.016,0,0.024,0.002,0.031,0.009
				c0.336,0.355,0.372,1.002,0.111,1.421c-0.119,0.192-0.493,0.406-0.92,0.406c-0.271,0-0.565-0.087-0.829-0.32
				c-0.681-0.598-1.05-1.277-1.116-1.921c-0.065-0.645-0.01-1.316,0.824-2.416c0.344-0.57,1.226-1.447,2.422-1.447
				c0.157,0,0.317,0.015,0.486,0.048c0.78,1.934,1.74,3.412,3.182,3.953c0.239,0.117,0.571,0.178,0.945,0.178
				c1.082,0,2.506-0.511,2.979-1.646c0.31-0.815-0.197-2.195-1.403-2.195c-0.032,0-0.069,0.001-0.104,0.003
				c1.399,0.972,0.219,2.247,0.219,2.247c-0.319,0.38-0.816,0.521-1.327,0.521c-0.734,0-1.509-0.293-1.85-0.587
				c-0.618-0.535-2.347-3.258-1.712-5.325c0.439-1.435,0.94-2.256,1.983-2.979C41.165,21.297,42.067,21.178,42.928,21.178
				 M42.928,20.04v1.138V20.04c-1.31,0-2.29,0.237-2.996,0.727c-1.401,0.971-1.982,2.134-2.426,3.582
				c-0.198,0.646-0.224,1.33-0.138,2.002c-0.065-0.003-0.126-0.004-0.189-0.004c-1.59,0-2.794,1.034-3.36,1.943
				c-0.54,0.718-0.816,1.324-0.944,1.855l-0.966,1.333c-0.871,1.199-2.325,3.157-2.774,3.633c-0.627,0.665-1.589,1.479-1.601,1.487
				l-1.771,1.492l2.261,0.493c0.26,0.058,6.371,1.376,9.756,1.376c0.41,0,0.765-0.018,1.077-0.056
				c0.468-0.024,2.291-0.143,3.202-0.467c0.448-0.109,1.641-0.416,2.165-0.676c0.296-0.146,0.84-0.416,0.941-0.972
				c1.309-0.309,2.455-0.735,3.08-1.071l0.09-0.049c1.271-0.685,3.638-1.956,3.987-4.9c0.304-2.586,0.053-4.167-0.829-5.285
				c-0.199-0.253-0.455-0.444-0.698-0.583c-0.119-0.549-0.362-1.388-0.86-2.464l-0.032-0.072l-0.044-0.067
				c-0.035-0.056-0.364-0.56-0.942-1.19c-0.579-0.631-1.563-1.501-3.438-1.807C45.484,20.298,44.263,20.041,42.928,20.04
				L42.928,20.04z"/>
		</g>
	</g>
</g>
<g>
	<g>
		<path fill="#EBEBEB" d="M22.585,42.177h-5.61v4.599h4.3v1.587h-4.3v5.175h5.84v1.586h-7.68V40.637h7.45V42.177z"/>
		<g opacity="0.35">
			<path d="M22.585,40.637v1.54h-5.61v4.599h4.3v1.587h-4.3v5.175h5.84v1.586h-7.68V40.637H22.585 M23.585,39.637h-1h-7.45h-1v1
				v14.486v1h1h7.68h1v-1v-1.586v-1h-1h-4.84v-3.175h3.3h1v-1v-1.587v-1h-1h-3.3v-2.599h4.61h1v-1v-1.54V39.637L23.585,39.637z"/>
		</g>
	</g>
	<g>
		<path fill="#EBEBEB" d="M27.616,46.293c0.022,0.598,0.046,0.736,0.046,0.851v7.979h-1.817V43.281h2.254l3.771,8.209
			c-0.023-0.598-0.023-0.736-0.023-0.828v-7.381h1.816v11.842H31.87L27.616,46.293z"/>
		<g opacity="0.35">
			<path d="M33.663,43.281v11.842H31.87l-4.254-8.83c0.022,0.598,0.046,0.736,0.046,0.851v7.979h-1.817V43.281h2.254l3.771,8.209
				c-0.023-0.598-0.023-0.736-0.023-0.828v-7.381H33.663 M34.663,42.281h-1h-1.816h-1v1v3.586l-1.839-4.003l-0.268-0.583h-0.641
				h-2.254h-1v1v11.842v1h1h1.817h1v-1v-4.354l2.307,4.788l0.272,0.566h0.629h1.793h1v-1V43.281V42.281L34.663,42.281z"/>
		</g>
	</g>
	<g>
		<path fill="#EBEBEB" d="M36.724,55.123V43.304h3.611c2.943,0,4.529,2.161,4.529,5.933c0,4.047-2.092,5.887-4.713,5.887H36.724z
			 M38.519,44.729v8.968h1.633c2,0,2.896-1.701,2.896-4.438c0-2.828-0.828-4.53-2.783-4.53H38.519z"/>
		<g opacity="0.35">
			<path d="M40.335,43.304c2.943,0,4.529,2.161,4.529,5.933c0,4.047-2.092,5.887-4.713,5.887h-3.428V43.304H40.335 M38.519,53.697
				h1.633c2,0,2.896-1.701,2.896-4.438c0-2.828-0.828-4.53-2.783-4.53h-1.746V53.697 M40.335,42.304h-3.611h-1v1v11.819v1h1h3.428
				c2.762,0,5.713-1.81,5.713-6.887C45.864,44.896,43.796,42.304,40.335,42.304L40.335,42.304z M39.519,45.729h0.746
				c0.486,0,1.783,0,1.783,3.53c0,3.438-1.428,3.438-1.896,3.438h-0.633V45.729L39.519,45.729z"/>
		</g>
	</g>
</g>
</svg>
