<?xml version="1.0" encoding="utf-8"?>
<!-- Generator: Adobe Illustrator 15.1.0, SVG Export Plug-In . SVG Version: 6.00 Build 0)  -->
<!DOCTYPE svg PUBLIC "-//W3C//DTD SVG 1.1//EN" "http://www.w3.org/Graphics/SVG/1.1/DTD/svg11.dtd">
<svg version="1.1" id="Layer_1" xmlns="http://www.w3.org/2000/svg" xmlns:xlink="http://www.w3.org/1999/xlink" x="0px" y="0px"
	 width="60px" height="60px" viewBox="0 0 60 60" enable-background="new 0 0 60 60" xml:space="preserve">
<radialGradient id="SVGID_1_" cx="30" cy="30" r="30" gradientUnits="userSpaceOnUse">
	<stop  offset="0" style="stop-color:#0087FF"/>
	<stop  offset="1" style="stop-color:#191919"/>
</radialGradient>
<path fill="url(#SVGID_1_)" d="M60,51.818C60,56.337,56.337,60,51.818,60H8.182C3.663,60,0,56.337,0,51.818V8.182
	C0,3.663,3.663,0,8.182,0h43.637C56.337,0,60,3.663,60,8.182V51.818z"/>
<g>
	<g>
		<path fill="#FFFFFF" d="M36.672,50.172h-3.938l-1.42,4.341h-2.225l4.528-13.772h2.171l4.555,13.772h-2.224L36.672,50.172z
			 M33.135,48.457h3.135l-1.554-5.171L33.135,48.457z"/>
		<g opacity="0.35">
			<path d="M35.788,40.74l4.555,13.772h-2.224l-1.447-4.341h-3.938l-1.42,4.341h-2.225l4.528-13.772H35.788 M33.135,48.457h3.135
				l-1.554-5.171L33.135,48.457 M36.872,39.24h-1.084h-2.171h-1.086l-0.339,1.031l-4.528,13.772l-0.647,1.969h2.072h2.225h1.088
				l0.338-1.033l1.082-3.308h1.77l1.105,3.315l0.342,1.025h1.081h2.224h2.076l-0.652-1.971L37.212,40.27L36.872,39.24L36.872,39.24z
				"/>
		</g>
	</g>
	<g>
		<path fill="#FFFFFF" d="M42.445,40.74h2.197v13.772h-2.197V40.74z"/>
		<g opacity="0.35">
			<path d="M44.643,40.74v13.772h-2.197V40.74H44.643 M46.143,39.24h-1.5h-2.197h-1.5v1.5v13.772v1.5h1.5h2.197h1.5v-1.5V40.74
				V39.24L46.143,39.24z"/>
		</g>
	</g>
	<g>
		<path fill="#FFFFFF" d="M50.27,44.224c0.026,0.696,0.054,0.857,0.054,0.991v9.298h-2.117V40.714h2.626l4.395,9.565
			c-0.027-0.697-0.027-0.857-0.027-0.965v-8.601h2.117v13.799h-2.09L50.27,44.224z"/>
		<g opacity="0.35">
			<path d="M57.316,40.714v13.799h-2.09L50.27,44.224c0.026,0.696,0.054,0.857,0.054,0.991v9.298h-2.117V40.714h2.626l4.395,9.565
				c-0.027-0.697-0.027-0.857-0.027-0.965v-8.601H57.316 M58.816,39.214h-1.5h-2.117h-1.5v1.5v2.647l-1.504-3.273l-0.401-0.874
				h-0.962h-2.626h-1.5v1.5v13.799v1.5h1.5h2.117h1.5v-1.5v-3.608l2.052,4.26l0.409,0.849h0.942h2.09h1.5v-1.5V40.714V39.214
				L58.816,39.214z"/>
		</g>
	</g>
</g>
<g display="none">
	<g display="inline">
		<path fill="#FFFFFF" d="M29.857,48.793c-1.015,0-2.135-0.525-2.275-0.595v6.896h-2.765V37.102h4.166
			c5.18,0,7.036,2.73,7.036,5.601c0,1.855-0.665,3.536-1.96,4.656C33.007,48.268,31.572,48.793,29.857,48.793z M27.582,39.272v6.79
			c0,0,1.085,0.525,1.925,0.525c2.38,0,3.745-1.715,3.745-3.921c0-1.96-1.365-3.395-4.27-3.395H27.582z"/>
		<g opacity="0.35">
			<path d="M28.982,37.102c5.18,0,7.036,2.73,7.036,5.601c0,1.855-0.665,3.536-1.96,4.656c-1.051,0.909-2.485,1.435-4.201,1.435
				c-1.015,0-2.135-0.525-2.275-0.595v6.896h-2.765V37.102H28.982 M29.507,46.588c2.38,0,3.745-1.715,3.745-3.921
				c0-1.96-1.365-3.395-4.27-3.395h-1.4v6.79C27.582,46.063,28.667,46.588,29.507,46.588 M28.982,35.602h-4.166h-1.5v1.5v17.992v1.5
				h1.5h2.765h1.5v-1.5v-4.862c0.252,0.038,0.514,0.062,0.775,0.062c2.029,0,3.821-0.622,5.182-1.8
				c1.599-1.383,2.479-3.439,2.479-5.791C37.518,39.27,35.275,35.602,28.982,35.602L28.982,35.602z M29.082,45.019v-4.245
				c1.772,0.022,2.67,0.659,2.67,1.894c0,0.568-0.162,2.421-2.245,2.421C29.395,45.088,29.244,45.061,29.082,45.019L29.082,45.019z"
				/>
		</g>
	</g>
</g>
<g display="none">
	<g display="inline">
		<path fill="#FFFFFF" d="M19.689,45.317c0,6.136-1.352,9.776-7.488,9.776c-5.876,0-7.176-3.641-7.176-9.776V21.656
			c0-1.508,0-1.82-1.977-2.028v-1.976h6.604v1.976c-2.028,0.208-2.028,0.52-2.028,2.028v23.869c0,4.68,0.937,7.072,4.681,7.072
			c3.848,0,4.784-2.393,4.784-7.072V21.656c0-1.508,0-1.82-2.028-2.028v-1.976h6.604v1.976c-1.977,0.208-1.977,0.52-1.977,2.028
			V45.317z"/>
		<g opacity="0.35">
			<path d="M21.666,17.652v1.976c-1.977,0.208-1.977,0.52-1.977,2.028v23.661c0,6.136-1.352,9.776-7.488,9.776
				c-5.876,0-7.176-3.641-7.176-9.776V21.656c0-1.508,0-1.82-1.977-2.028v-1.976h6.604v1.976c-2.028,0.208-2.028,0.52-2.028,2.028
				v23.869c0,4.68,0.937,7.072,4.681,7.072c3.848,0,4.784-2.393,4.784-7.072V21.656c0-1.508,0-1.82-2.028-2.028v-1.976H21.666
				 M23.166,16.152h-1.5h-6.604h-1.5v1.5v1.976v1.354l1.347,0.138c0.314,0.032,0.531,0.063,0.678,0.09
				c0.003,0.14,0.003,0.301,0.003,0.446v23.869c0,5.197-1.241,5.572-3.284,5.572c-1.921,0-3.181-0.388-3.181-5.572V21.656
				c0-0.145,0-0.306,0.003-0.446c0.147-0.026,0.364-0.058,0.678-0.09l1.347-0.138v-1.354v-1.976v-1.5h-1.5H3.049h-1.5v1.5v1.976
				v1.351l1.343,0.141c0.289,0.03,0.491,0.06,0.631,0.084c0.003,0.142,0.003,0.306,0.003,0.452v23.661
				c0,5.576,1.031,11.276,8.676,11.276c7.92,0,8.988-5.7,8.988-11.276V21.656c0-0.146,0-0.31,0.003-0.452
				c0.14-0.025,0.342-0.054,0.631-0.084l1.343-0.141v-1.351v-1.976V16.152L23.166,16.152z"/>
		</g>
	</g>
</g>
<g display="none">
	<g display="inline">
		<path d="M24.317,48.141c0.015,0.403,0.03,0.496,0.03,0.574v5.379h-1.225v-7.984h1.52l2.543,5.535
			c-0.016-0.403-0.016-0.496-0.016-0.559v-4.977h1.225v7.984h-1.209L24.317,48.141z"/>
		<g opacity="0.35">
			<path fill="#FFFFFF" d="M28.395,46.109v7.984h-1.209l-2.868-5.953c0.015,0.403,0.03,0.496,0.03,0.574v5.379h-1.225v-7.984h1.52
				l2.543,5.535c-0.016-0.403-0.016-0.496-0.016-0.559v-4.977H28.395 M29.395,45.109h-1H27.17h-1v1v0.929l-0.619-1.346l-0.268-0.583
				h-0.641h-1.52h-1v1v7.984v1h1h1.225h1v-1v-1.511l0.937,1.944l0.272,0.566h0.628h1.209h1v-1v-7.984V45.109L29.395,45.109z"/>
		</g>
	</g>
	<g display="inline">
		<path d="M33.431,54.094h-1.193v-6.93h-1.97v-1.039h5.147v1.039h-1.984V54.094z"/>
		<g opacity="0.35">
			<path fill="#FFFFFF" d="M35.415,46.125v1.039h-1.984v6.93h-1.193v-6.93h-1.97v-1.039H35.415 M36.415,45.125h-1h-5.147h-1v1v1.039
				v1h1h0.97v5.93v1h1h1.193h1v-1v-5.93h0.984h1v-1v-1.039V45.125L36.415,45.125z"/>
		</g>
	</g>
	<g display="inline">
		<path d="M40.332,51.582h-2.279l-0.821,2.512h-1.287l2.62-7.969h1.256l2.636,7.969h-1.287L40.332,51.582z M38.285,50.59H40.1
			L39.2,47.598L38.285,50.59z"/>
		<g opacity="0.35">
			<path fill="#FFFFFF" d="M39.82,46.125l2.636,7.969h-1.287l-0.837-2.512h-2.279l-0.821,2.512h-1.287l2.62-7.969H39.82
				 M38.285,50.59H40.1L39.2,47.598L38.285,50.59 M40.543,45.125H39.82h-1.256h-0.724l-0.227,0.688l-2.62,7.969l-0.432,1.313h1.382
				h1.287h0.726l0.225-0.689l0.597-1.822h0.833l0.609,1.828l0.228,0.684h0.721h1.287h1.384l-0.435-1.314l-2.636-7.969L40.543,45.125
				L40.543,45.125z"/>
		</g>
	</g>
	<g display="inline">
		<path d="M46.438,51.303c-0.45,0-0.946-0.232-1.008-0.264v3.055h-1.225v-7.969h1.845c2.294,0,3.116,1.209,3.116,2.48
			c0,0.822-0.295,1.566-0.868,2.063C47.834,51.07,47.198,51.303,46.438,51.303z M45.431,47.086v3.008c0,0,0.48,0.232,0.853,0.232
			c1.055,0,1.659-0.76,1.659-1.736c0-0.867-0.604-1.504-1.892-1.504H45.431z"/>
		<g opacity="0.35">
			<path fill="#FFFFFF" d="M46.051,46.125c2.294,0,3.116,1.209,3.116,2.48c0,0.822-0.295,1.566-0.868,2.063
				c-0.465,0.402-1.101,0.635-1.86,0.635c-0.45,0-0.946-0.232-1.008-0.264v3.055h-1.225v-7.969H46.051 M46.283,50.326
				c1.055,0,1.659-0.76,1.659-1.736c0-0.867-0.604-1.504-1.892-1.504h-0.62v3.008C45.431,50.094,45.911,50.326,46.283,50.326
				 M46.051,45.125h-1.845h-1v1v7.969v1h1h1.225h1v-1v-1.791c0.003,0,0.005,0,0.008,0c0.981,0,1.851-0.304,2.515-0.879
				c0.783-0.677,1.214-1.678,1.214-2.818C50.167,47,49.089,45.125,46.051,45.125L46.051,45.125z M46.431,49.315v-1.202
				c0.512,0.086,0.512,0.352,0.512,0.477C46.942,49.021,46.771,49.264,46.431,49.315L46.431,49.315z"/>
		</g>
	</g>
</g>
<g display="none">
	<path display="inline" d="M31.88,13.991l-5.19,5.191c0,0,0.6,3.174,1.794,5.382c0.378,0.618,1.558,2.401,2.274,3.162
		c0.779,0.83,1.675,1.615,2.481,2.247c1.7,1.333,4.077,2.482,6.011,3.109c3.442,1.118,7.89,0.522,9.301,0
		c1.411-0.521,2.979-1.984,3.763-3.5c0.783-1.516,1.203-2.561,1.203-5.591c0-3.031-0.549-4.727-1.151-6.428
		c-0.627-1.774-1.986-4.023-1.986-4.023l3.424-3.423L38.778,4.603l2.299,16.67l4.547-3.344c0,0,1.062,1.533,1.62,3.693
		c0.273,1.061,0.288,1.652,0.295,2.211c0.009,0.587-0.036,1.064-0.243,1.83c-0.144,0.535-1.071,1.45-1.686,1.685
		c-0.695,0.266-2.469,0.378-4.377,0.091c-2.493-0.375-4.29-1.652-5.033-2.299c-1.358-1.184-1.881-1.637-3.432-4.65
		C31.207,17.451,31.88,13.991,31.88,13.991z"/>
	<g display="inline" opacity="0.25">
		<path fill="#FFFFFF" d="M38.778,4.603l15.023,5.513l-3.424,3.423c0,0,1.359,2.249,1.986,4.023
			c0.603,1.702,1.151,3.397,1.151,6.428c0,3.03-0.42,4.075-1.203,5.591c-0.784,1.516-2.352,2.979-3.763,3.5
			c-0.823,0.305-2.679,0.635-4.766,0.635c-1.491,0-3.101-0.169-4.535-0.635c-1.934-0.627-4.311-1.776-6.011-3.109
			c-0.806-0.632-1.702-1.417-2.481-2.247c-0.716-0.761-1.896-2.543-2.274-3.162c-1.194-2.208-1.794-5.382-1.794-5.382l5.19-5.191
			c0,0-0.673,3.46,0.889,6.498c1.551,3.013,2.073,3.466,3.432,4.65c0.743,0.647,2.54,1.924,5.033,2.299
			c0.785,0.118,1.548,0.169,2.222,0.169c0.964,0,1.746-0.104,2.155-0.26c0.614-0.235,1.542-1.15,1.686-1.685
			c0.207-0.766,0.252-1.243,0.243-1.83c-0.007-0.56-0.021-1.15-0.295-2.211c-0.559-2.16-1.62-3.693-1.62-3.693l-4.547,3.344
			L38.778,4.603 M37.561,3.09l0.228,1.649l2.299,16.67l0.229,1.665l1.354-0.996l3.649-2.685c0.312,0.602,0.695,1.469,0.957,2.478
			c0.251,0.974,0.257,1.482,0.263,1.973c0.007,0.484-0.023,0.874-0.209,1.557c-0.096,0.246-0.737,0.882-1.077,1.012
			c-0.188,0.072-0.779,0.194-1.798,0.194c-0.672,0-1.388-0.055-2.072-0.158c-2.418-0.364-4.075-1.672-4.525-2.064
			c-1.302-1.134-1.738-1.515-3.2-4.354c-1.387-2.698-0.802-5.818-0.796-5.85l0.625-3.211l-2.313,2.313l-5.19,5.191l-0.374,0.374
			l0.098,0.519c0.025,0.136,0.643,3.354,1.896,5.672l0.013,0.023l0.014,0.023c0.27,0.441,1.545,2.418,2.399,3.325
			c0.929,0.989,1.922,1.823,2.592,2.349c1.965,1.54,4.553,2.7,6.319,3.273c1.396,0.453,3.025,0.684,4.844,0.684
			c2.232,0,4.177-0.351,5.113-0.697c1.634-0.604,3.404-2.24,4.304-3.979c0.817-1.584,1.314-2.781,1.314-6.051
			c0-3.097-0.548-4.895-1.209-6.762c-0.442-1.253-1.211-2.696-1.678-3.526l2.88-2.879l1.107-1.106l-1.47-0.54L39.123,3.664
			L37.561,3.09L37.561,3.09z"/>
	</g>
</g>
<g display="none">
	<g display="inline">
		<path fill="#FFFFFF" d="M52.748,26.513l-0.918,7.07H32.553v-1.074c0.625-0.469,1.263-0.94,1.914-1.416
			c0.651-0.475,1.302-0.97,1.953-1.484c0.651-0.514,1.445-1.194,2.383-2.041c0.938-0.846,1.731-1.602,2.383-2.266
			c1.94-1.914,3.486-3.802,4.639-5.664c1.152-1.862,1.729-3.626,1.729-5.293c0-1.237-0.303-2.36-0.908-3.369
			c-0.605-1.009-1.394-1.807-2.363-2.393s-1.937-0.879-2.9-0.879c-1.706,0-3.093,0.541-4.16,1.621
			c-1.067,1.081-1.667,2.324-1.797,3.73h-0.352c0-0.039-0.01-0.241-0.029-0.605c-0.02-0.364-0.036-0.625-0.049-0.781
			c0-1.497,0.332-2.78,0.996-3.848c0.664-1.067,1.56-1.862,2.686-2.383c1.126-0.521,2.393-0.781,3.799-0.781
			c1.224,0,2.383,0.212,3.477,0.635c1.094,0.423,2.044,1.009,2.852,1.758c0.808,0.749,1.438,1.615,1.895,2.598
			c0.456,0.983,0.684,2.041,0.684,3.174c0,1.25-0.247,2.503-0.742,3.76c-0.495,1.257-1.162,2.461-2.002,3.613
			s-1.826,2.295-2.959,3.428c-1.094,1.094-2.497,2.321-4.209,3.682c-1.712,1.361-3.577,2.777-5.596,4.248
			c0.352,0.078,0.769,0.169,1.25,0.273s1.077,0.202,1.787,0.293s1.526,0.166,2.451,0.225s1.999,0.088,3.223,0.088
			c2.578,0,4.538-0.176,5.879-0.527l2.051-5.391H52.748z M38.861,28.017l0.176,0.293c1.94-1.575,3.545-2.981,4.814-4.219
			c1.27-1.237,2.321-2.425,3.154-3.564c0.833-1.139,1.458-2.266,1.875-3.379s0.625-2.197,0.625-3.252c0-1.588-0.4-2.969-1.201-4.141
			s-1.794-2.061-2.979-2.666s-2.312-0.908-3.379-0.908c-2.734,0-4.785,1.322-6.152,3.965h0.195c0.56-0.911,1.279-1.641,2.158-2.188
			s1.943-0.82,3.193-0.82s2.396,0.322,3.438,0.967s1.865,1.521,2.471,2.627c0.605,1.107,0.908,2.312,0.908,3.613
			c0,1.341-0.352,2.738-1.055,4.189c-0.703,1.452-1.738,2.966-3.105,4.541C42.631,24.651,40.919,26.298,38.861,28.017z"/>
		<g opacity="0.35">
			<path d="M42.475,4.657c1.224,0,2.383,0.212,3.477,0.635c1.094,0.423,2.044,1.009,2.852,1.758
				c0.808,0.749,1.438,1.615,1.895,2.598c0.456,0.983,0.684,2.041,0.684,3.174c0,1.25-0.247,2.503-0.742,3.76
				c-0.495,1.257-1.162,2.461-2.002,3.613s-1.826,2.295-2.959,3.428c-1.094,1.094-2.497,2.321-4.209,3.682
				c-1.712,1.361-3.577,2.777-5.596,4.248c0.352,0.078,0.769,0.169,1.25,0.273s1.077,0.202,1.787,0.293s1.526,0.166,2.451,0.225
				s1.999,0.088,3.223,0.088c2.578,0,4.538-0.176,5.879-0.527l2.051-5.391h0.234l-0.918,7.07H32.553v-1.074
				c0.625-0.469,1.263-0.94,1.914-1.416c0.651-0.475,1.302-0.97,1.953-1.484c0.651-0.514,1.445-1.194,2.383-2.041
				c0.938-0.846,1.731-1.602,2.383-2.266c1.94-1.914,3.486-3.802,4.639-5.664c1.152-1.862,1.729-3.626,1.729-5.293
				c0-1.237-0.303-2.36-0.908-3.369c-0.605-1.009-1.394-1.807-2.363-2.393s-1.937-0.879-2.9-0.879c-1.706,0-3.093,0.541-4.16,1.621
				c-1.067,1.081-1.667,2.324-1.797,3.73h-0.352c0-0.039-0.01-0.241-0.029-0.605c-0.02-0.364-0.036-0.625-0.049-0.781
				c0-1.497,0.332-2.78,0.996-3.848c0.664-1.067,1.56-1.862,2.686-2.383C39.802,4.918,41.068,4.657,42.475,4.657 M35.795,10.146
				h0.195c0.56-0.911,1.279-1.641,2.158-2.188s1.943-0.82,3.193-0.82s2.396,0.322,3.438,0.967s1.865,1.521,2.471,2.627
				c0.605,1.107,0.908,2.312,0.908,3.613c0,1.341-0.352,2.738-1.055,4.189c-0.703,1.452-1.738,2.966-3.105,4.541
				c-1.367,1.576-3.079,3.223-5.137,4.941l0.176,0.293c1.94-1.575,3.545-2.981,4.814-4.219c1.27-1.237,2.321-2.425,3.154-3.564
				c0.833-1.139,1.458-2.266,1.875-3.379s0.625-2.197,0.625-3.252c0-1.588-0.4-2.969-1.201-4.141s-1.794-2.061-2.979-2.666
				s-2.312-0.908-3.379-0.908C39.213,6.181,37.162,7.502,35.795,10.146 M42.475,3.657c-1.545,0-2.965,0.294-4.219,0.874
				c-1.301,0.602-2.349,1.531-3.114,2.762c-0.762,1.224-1.147,2.696-1.147,4.376v0.041l0.003,0.041
				c0.013,0.151,0.028,0.402,0.047,0.754c0.018,0.32,0.027,0.508,0.028,0.563l0.022,0.977l0.978,0.011h0.352h0.912l0.084-0.908
				c0.108-1.179,0.604-2.199,1.513-3.12c0.88-0.891,2.008-1.324,3.448-1.324c0.774,0,1.576,0.247,2.383,0.735
				c0.825,0.498,1.506,1.188,2.023,2.051c0.516,0.859,0.766,1.792,0.766,2.854c0,1.47-0.531,3.074-1.579,4.767
				c-1.105,1.786-2.616,3.629-4.49,5.479c-0.649,0.662-1.437,1.41-2.351,2.235c-0.918,0.829-1.702,1.501-2.332,1.998
				c-0.645,0.509-1.291,1-1.923,1.461c-0.655,0.479-1.297,0.953-1.925,1.424l-0.4,0.3v0.5v1.074v1h1H51.83h0.879l0.112-0.871
				l0.918-7.07l0.147-1.129h-1.139h-0.234h-0.689l-0.245,0.645l-1.861,4.893c-1.235,0.253-2.958,0.381-5.134,0.381
				c-1.197,0-2.26-0.029-3.159-0.086c-0.894-0.057-1.696-0.13-2.388-0.219c-0.27-0.034-0.522-0.07-0.758-0.106
				c1.345-1.005,2.621-1.987,3.812-2.933c1.733-1.377,3.179-2.642,4.294-3.757c1.164-1.164,2.193-2.357,3.061-3.546
				c0.885-1.215,1.6-2.505,2.124-3.835c0.538-1.367,0.812-2.755,0.812-4.126c0-1.274-0.261-2.483-0.776-3.595
				c-0.51-1.098-1.224-2.077-2.122-2.91c-0.897-0.832-1.964-1.49-3.17-1.957C45.106,3.894,43.815,3.657,42.475,3.657L42.475,3.657z"
				/>
		</g>
	</g>
</g>
<g>
	<g>
		<path fill="#FFFFFF" d="M3.311,54.5v-1.977c2.288-0.26,2.288-0.52,2.288-2.027V21.687c0-1.508,0-1.82-2.288-2.028v-1.976h5.096
			l6.344,5.46l6.344-5.46h5.096v1.976c-2.288,0.208-2.288,0.52-2.288,2.028v28.809c0,1.508,0,1.768,2.288,2.027V54.5h-7.02v-1.977
			c2.132-0.26,2.132-0.623,2.132-2.027V20.439l-6.552,5.824l-6.552-5.824v30.057c0,1.404,0,1.768,2.132,2.027V54.5H3.311z"/>
		<g opacity="0.35">
			<path d="M26.191,17.683v1.976c-2.288,0.208-2.288,0.52-2.288,2.028v28.809c0,1.508,0,1.768,2.288,2.027V54.5h-7.02v-1.977
				c2.132-0.26,2.132-0.623,2.132-2.027V20.439l-6.552,5.824l-6.552-5.824v30.057c0,1.404,0,1.768,2.132,2.027V54.5h-7.02v-1.977
				c2.288-0.26,2.288-0.52,2.288-2.027V21.687c0-1.508,0-1.82-2.288-2.028v-1.976h5.096l6.344,5.46l6.344-5.46H26.191
				 M27.691,16.183h-1.5h-5.096h-0.557l-0.422,0.363l-5.366,4.618l-5.366-4.618l-0.422-0.363H8.407H3.311h-1.5v1.5v1.976v1.37
				l1.364,0.124c0.453,0.042,0.74,0.082,0.921,0.115c0.003,0.132,0.003,0.284,0.003,0.419v28.809c0,0.129,0,0.272-0.002,0.399
				c-0.188,0.037-0.485,0.084-0.955,0.138l-1.331,0.151v1.339V54.5V56h1.5h7.02h1.5v-1.5v-1.977v-1.328l-1.318-0.161
				c-0.398-0.048-0.651-0.094-0.811-0.13c-0.003-0.127-0.003-0.276-0.003-0.408V23.779l4.056,3.605l0.997,0.886l0.997-0.886
				l4.056-3.605v26.717c0,0.132,0,0.281-0.003,0.408c-0.16,0.036-0.413,0.082-0.811,0.13l-1.318,0.161v1.328V54.5V56h1.5h7.02h1.5
				v-1.5v-1.977v-1.339l-1.331-0.151c-0.47-0.054-0.768-0.101-0.955-0.138c-0.002-0.127-0.002-0.271-0.002-0.399V21.687
				c0-0.136,0-0.288,0.003-0.419c0.181-0.034,0.468-0.074,0.921-0.115l1.364-0.124v-1.37v-1.976V16.183L27.691,16.183z"/>
		</g>
	</g>
</g>
<g>
	<g>
		<path fill="#FFFFFF" d="M53.012,28.07l-2.021,5.513H34.086v-0.788c4.987-4.532,8.491-8.233,10.513-11.103s3.032-5.495,3.032-7.875
			c0-1.82-0.556-3.316-1.667-4.489s-2.438-1.759-3.977-1.759c-1.418,0-2.687,0.411-3.807,1.234s-1.942,2.03-2.468,3.622h-0.787
			c0.35-2.607,1.256-4.606,2.717-5.998c1.461-1.391,3.276-2.087,5.447-2.087c2.327,0,4.27,0.749,5.827,2.245
			s2.336,3.251,2.336,5.263c0,1.453-0.341,2.905-1.023,4.357c-1.033,2.292-2.722,4.708-5.066,7.245
			c-3.5,3.833-5.688,6.142-6.563,6.93h7.481c1.522,0,2.59-0.052,3.202-0.157s1.164-0.333,1.654-0.683
			c0.489-0.35,0.919-0.84,1.286-1.47H53.012z"/>
		<g opacity="0.35">
			<path d="M43.09,4.34c2.327,0,4.27,0.749,5.827,2.245s2.336,3.251,2.336,5.263c0,1.453-0.341,2.905-1.023,4.357
				c-1.033,2.292-2.722,4.708-5.066,7.245c-3.5,3.833-5.688,6.142-6.563,6.93h7.481c1.522,0,2.59-0.052,3.202-0.157
				s1.164-0.333,1.654-0.683c0.489-0.35,0.919-0.84,1.286-1.47h0.787l-2.021,5.513H34.086v-0.788
				c4.987-4.532,8.491-8.233,10.513-11.103s3.032-5.495,3.032-7.875c0-1.82-0.556-3.316-1.667-4.489s-2.438-1.759-3.977-1.759
				c-1.418,0-2.687,0.411-3.807,1.234s-1.942,2.03-2.468,3.622h-0.787c0.35-2.607,1.256-4.606,2.717-5.998
				C39.104,5.036,40.919,4.34,43.09,4.34 M43.09,3.34c-2.426,0-4.49,0.795-6.137,2.363c-1.624,1.547-2.64,3.764-3.019,6.589
				l-0.151,1.133h1.143h0.787h0.723l0.227-0.687c0.457-1.384,1.167-2.437,2.11-3.129c0.953-0.7,2.004-1.04,3.215-1.04
				c1.265,0,2.328,0.473,3.251,1.447c0.937,0.989,1.393,2.232,1.393,3.801c0,2.159-0.959,4.614-2.85,7.299
				c-1.971,2.798-5.459,6.479-10.368,10.938l-0.327,0.298v0.442v0.788v1h1h16.905h0.698l0.24-0.656l2.021-5.512l0.493-1.344h-1.432
				h-0.787h-0.575l-0.289,0.497c-0.293,0.503-0.631,0.893-1.004,1.16c-0.368,0.263-0.774,0.431-1.241,0.51
				c-0.38,0.065-1.215,0.143-3.033,0.143h-5.063c1.159-1.208,2.778-2.951,4.883-5.255c2.402-2.6,4.167-5.128,5.24-7.508
				c0.735-1.565,1.111-3.174,1.111-4.769c0-2.286-0.89-4.3-2.644-5.984C47.866,4.189,45.673,3.34,43.09,3.34L43.09,3.34z"/>
		</g>
	</g>
</g>
</svg>
