<?xml version="1.0" encoding="utf-8"?>
<!-- Generator: Adobe Illustrator 15.1.0, SVG Export Plug-In . SVG Version: 6.00 Build 0)  -->
<!DOCTYPE svg PUBLIC "-//W3C//DTD SVG 1.1//EN" "http://www.w3.org/Graphics/SVG/1.1/DTD/svg11.dtd">
<svg version="1.1" id="Layer_1" xmlns="http://www.w3.org/2000/svg" xmlns:xlink="http://www.w3.org/1999/xlink" x="0px" y="0px"
	 width="60px" height="60px" viewBox="0 0 60 60" enable-background="new 0 0 60 60" xml:space="preserve">
<radialGradient id="SVGID_1_" cx="30" cy="30" r="30" gradientUnits="userSpaceOnUse">
	<stop  offset="0" style="stop-color:#0087FF"/>
	<stop  offset="1" style="stop-color:#191919"/>
</radialGradient>
<path fill="url(#SVGID_1_)" d="M60,51.818C60,56.337,56.337,60,51.818,60H8.182C3.663,60,0,56.337,0,51.818V8.182
	C0,3.663,3.663,0,8.182,0h43.637C56.337,0,60,3.663,60,8.182V51.818z"/>
<g>
	<g>
		<path fill="#FFFFFF" d="M36.672,50.172h-3.938l-1.42,4.341h-2.225l4.528-13.772h2.171l4.555,13.772h-2.224L36.672,50.172z
			 M33.135,48.457h3.135l-1.554-5.171L33.135,48.457z"/>
		<g opacity="0.35">
			<path d="M35.788,40.74l4.555,13.772h-2.224l-1.447-4.341h-3.938l-1.42,4.341h-2.225l4.528-13.772H35.788 M33.135,48.457h3.135
				l-1.554-5.171L33.135,48.457 M36.872,39.24h-1.084h-2.171h-1.086l-0.339,1.031l-4.528,13.772l-0.647,1.969h2.072h2.225h1.088
				l0.338-1.033l1.082-3.308h1.77l1.105,3.315l0.342,1.025h1.081h2.224h2.076l-0.652-1.971L37.212,40.27L36.872,39.24L36.872,39.24z
				"/>
		</g>
	</g>
	<g>
		<path fill="#FFFFFF" d="M42.445,40.74h2.197v13.772h-2.197V40.74z"/>
		<g opacity="0.35">
			<path d="M44.643,40.74v13.772h-2.197V40.74H44.643 M46.143,39.24h-1.5h-2.197h-1.5v1.5v13.772v1.5h1.5h2.197h1.5v-1.5V40.74
				V39.24L46.143,39.24z"/>
		</g>
	</g>
	<g>
		<path fill="#FFFFFF" d="M50.27,44.224c0.026,0.696,0.054,0.857,0.054,0.991v9.298h-2.117V40.714h2.626l4.395,9.565
			c-0.027-0.697-0.027-0.857-0.027-0.965v-8.601h2.117v13.799h-2.09L50.27,44.224z"/>
		<g opacity="0.35">
			<path d="M57.316,40.714v13.799h-2.09L50.27,44.224c0.026,0.696,0.054,0.857,0.054,0.991v9.298h-2.117V40.714h2.626l4.395,9.565
				c-0.027-0.697-0.027-0.857-0.027-0.965v-8.601H57.316 M58.816,39.214h-1.5h-2.117h-1.5v1.5v2.647l-1.504-3.273l-0.401-0.874
				h-0.962h-2.626h-1.5v1.5v13.799v1.5h1.5h2.117h1.5v-1.5v-3.608l2.052,4.26l0.409,0.849h0.942h2.09h1.5v-1.5V40.714V39.214
				L58.816,39.214z"/>
		</g>
	</g>
</g>
<g>
	<g>
		<path fill="#FFFFFF" d="M3.311,54.5v-1.977c2.288-0.26,2.288-0.52,2.288-2.027V21.687c0-1.508,0-1.82-2.288-2.028v-1.976h5.096
			l6.344,5.46l6.344-5.46h5.096v1.976c-2.288,0.208-2.288,0.52-2.288,2.028v28.809c0,1.508,0,1.768,2.288,2.027V54.5h-7.02v-1.977
			c2.132-0.26,2.132-0.623,2.132-2.027V20.439l-6.552,5.824l-6.552-5.824v30.057c0,1.404,0,1.768,2.132,2.027V54.5H3.311z"/>
		<g opacity="0.35">
			<path d="M26.191,17.683v1.976c-2.288,0.208-2.288,0.52-2.288,2.028v28.809c0,1.508,0,1.768,2.288,2.027V54.5h-7.02v-1.977
				c2.132-0.26,2.132-0.623,2.132-2.027V20.439l-6.552,5.824l-6.552-5.824v30.057c0,1.404,0,1.768,2.132,2.027V54.5h-7.02v-1.977
				c2.288-0.26,2.288-0.52,2.288-2.027V21.687c0-1.508,0-1.82-2.288-2.028v-1.976h5.096l6.344,5.46l6.344-5.46H26.191
				 M27.691,16.183h-1.5h-5.096h-0.557l-0.422,0.363l-5.366,4.618l-5.366-4.618l-0.422-0.363H8.407H3.311h-1.5v1.5v1.976v1.37
				l1.364,0.124c0.453,0.042,0.74,0.082,0.921,0.115c0.003,0.132,0.003,0.284,0.003,0.419v28.809c0,0.129,0,0.272-0.002,0.399
				c-0.188,0.037-0.485,0.084-0.955,0.138l-1.331,0.151v1.339V54.5V56h1.5h7.02h1.5v-1.5v-1.977v-1.328l-1.318-0.161
				c-0.398-0.048-0.651-0.094-0.811-0.13c-0.003-0.127-0.003-0.276-0.003-0.408V23.779l4.056,3.605l0.997,0.886l0.997-0.886
				l4.056-3.605v26.717c0,0.132,0,0.281-0.003,0.408c-0.16,0.036-0.413,0.082-0.811,0.13l-1.318,0.161v1.328V54.5V56h1.5h7.02h1.5
				v-1.5v-1.977v-1.339l-1.331-0.151c-0.47-0.054-0.768-0.101-0.955-0.138c-0.002-0.127-0.002-0.271-0.002-0.399V21.687
				c0-0.136,0-0.288,0.003-0.419c0.181-0.034,0.468-0.074,0.921-0.115l1.364-0.124v-1.37v-1.976V16.183L27.691,16.183z"/>
		</g>
	</g>
</g>
<g>
	<g>
		<path fill="#FFFFFF" d="M37.323,7.689l6.981-3.386h0.683v24.202c0,1.592,0.07,2.585,0.21,2.979s0.42,0.7,0.84,0.919
			s1.277,0.337,2.572,0.354v0.787H37.848v-0.787c1.348-0.018,2.218-0.132,2.612-0.342c0.394-0.21,0.669-0.485,0.826-0.826
			c0.158-0.342,0.236-1.37,0.236-3.084V13.018c0-2.083-0.07-3.421-0.21-4.016c-0.104-0.438-0.289-0.765-0.551-0.984
			c-0.263-0.219-0.578-0.328-0.945-0.328c-0.525,0-1.251,0.219-2.179,0.656L37.323,7.689z"/>
		<g opacity="0.35">
			<path d="M44.987,4.303v24.202c0,1.592,0.07,2.585,0.21,2.979s0.42,0.7,0.84,0.919s1.277,0.337,2.572,0.354v0.787H37.848v-0.787
				c1.348-0.018,2.218-0.132,2.612-0.342c0.394-0.21,0.669-0.485,0.826-0.826c0.158-0.342,0.236-1.37,0.236-3.084V13.018
				c0-2.083-0.07-3.421-0.21-4.016c-0.104-0.438-0.289-0.765-0.551-0.984c-0.263-0.219-0.578-0.328-0.945-0.328
				c-0.525,0-1.251,0.219-2.179,0.656l-0.314-0.656l6.981-3.386H44.987 M45.987,3.303h-1h-0.683h-0.229l-0.207,0.1l-6.981,3.386
				l-0.896,0.435l0.431,0.897l0.314,0.656l0.429,0.896l0.898-0.423c1.036-0.488,1.543-0.561,1.753-0.561
				c0.167,0,0.248,0.049,0.306,0.097c0.09,0.075,0.166,0.231,0.218,0.448c0.067,0.288,0.183,1.168,0.183,3.784v15.487
				c0,2.142-0.127,2.612-0.152,2.685c-0.016,0.031-0.087,0.187-0.381,0.344c-0.038,0.02-0.435,0.201-2.154,0.224l-0.987,0.013v0.987
				v0.787v1h1h10.762h1v-1v-0.787v-0.986l-0.986-0.014c-1.623-0.021-2.054-0.205-2.124-0.241c-0.249-0.13-0.323-0.265-0.359-0.366
				c-0.025-0.072-0.152-0.54-0.152-2.645V4.303V3.303L45.987,3.303z"/>
		</g>
	</g>
</g>
</svg>
