<?xml version="1.0" encoding="utf-8"?>
<!-- Generator: Adobe Illustrator 15.1.0, SVG Export Plug-In . SVG Version: 6.00 Build 0)  -->
<!DOCTYPE svg PUBLIC "-//W3C//DTD SVG 1.1//EN" "http://www.w3.org/Graphics/SVG/1.1/DTD/svg11.dtd">
<svg version="1.1" id="Layer_1" xmlns="http://www.w3.org/2000/svg" xmlns:xlink="http://www.w3.org/1999/xlink" x="0px" y="0px"
	 width="60px" height="60px" viewBox="0 0 60 60" enable-background="new 0 0 60 60" xml:space="preserve">
<radialGradient id="SVGID_1_" cx="30" cy="30" r="30" gradientUnits="userSpaceOnUse">
	<stop  offset="0" style="stop-color:#D20000"/>
	<stop  offset="1" style="stop-color:#3C0000"/>
</radialGradient>
<path fill="url(#SVGID_1_)" d="M60,51.818C60,56.337,56.337,60,51.818,60H8.182C3.663,60,0,56.337,0,51.818V8.182
	C0,3.663,3.663,0,8.182,0h43.637C56.337,0,60,3.663,60,8.182V51.818z"/>
<g>
	<g>
		<path fill="#FFFFFF" d="M11.725,50.506c0,2.618-1.054,5.338-4.08,5.338H4.721V45.135h3.094
			C10.875,45.135,11.725,47.922,11.725,50.506z M6.065,46.223v8.533h1.58c2.278,0,2.703-2.414,2.703-4.216
			c0-1.751-0.323-4.317-2.601-4.317H6.065z"/>
		<g opacity="0.35">
			<path d="M7.815,45.135c3.061,0,3.91,2.787,3.91,5.371c0,2.618-1.054,5.338-4.08,5.338H4.721V45.135H7.815 M6.065,54.756h1.58
				c2.278,0,2.703-2.414,2.703-4.216c0-1.751-0.323-4.317-2.601-4.317H6.065V54.756 M7.815,44.135H4.721h-1v1v10.709v1h1h2.924
				c3.133,0,5.08-2.429,5.08-6.338C12.725,46.517,10.89,44.135,7.815,44.135L7.815,44.135z M7.065,47.223h0.683
				c0.396,0,1.601,0,1.601,3.317c0,2.134-0.573,3.216-1.703,3.216h-0.58V47.223L7.065,47.223z"/>
		</g>
	</g>
	<g>
		<path fill="#FFFFFF" d="M17.845,53.09h-2.499l-0.9,2.754h-1.411l2.873-8.737h1.376l2.891,8.737h-1.411L17.845,53.09z
			 M15.601,52.002h1.989l-0.986-3.28L15.601,52.002z"/>
		<g opacity="0.35">
			<path d="M17.284,47.106l2.891,8.737h-1.411l-0.918-2.754h-2.499l-0.9,2.754h-1.411l2.873-8.737H17.284 M15.601,52.002h1.989
				l-0.986-3.28L15.601,52.002 M18.006,46.106h-0.723h-1.376h-0.724l-0.227,0.688l-2.873,8.737l-0.431,1.313h1.381h1.411h0.725
				l0.226-0.689l0.675-2.064h1.053l0.69,2.07l0.228,0.684h0.721h1.411h1.384l-0.435-1.314l-2.891-8.737L18.006,46.106L18.006,46.106
				z"/>
		</g>
	</g>
	<g>
		<path fill="#FFFFFF" d="M29.15,49.571l-2.158,6.272H25.87l-2.448-6.375v0.442v5.933h-1.325v-8.737h1.665l2.278,5.882
			c0.017,0.051,0.152,0.357,0.356,1.037c0.204-0.715,0.307-1.021,0.307-1.021l2.107-5.898h1.666v8.737H29.15V49.571z"/>
		<g opacity="0.35">
			<path d="M30.476,47.106v8.737H29.15v-6.272l-2.158,6.272H25.87l-2.448-6.375v0.442v5.933h-1.325v-8.737h1.665l2.278,5.882
				c0.017,0.051,0.152,0.357,0.356,1.037c0.204-0.715,0.307-1.021,0.307-1.021l2.107-5.898H30.476 M31.476,46.106h-1H28.81h-0.705
				l-0.237,0.663l-1.519,4.251l-1.656-4.275l-0.248-0.639h-0.685h-1.665h-1v1v8.737v1h1h1.325h1v-1v-0.981l0.515,1.34l0.247,0.642
				h0.687h1.122h0.713l0.232-0.675l0.212-0.618v0.293v1h1h1.326h1v-1v-8.737V46.106L31.476,46.106z"/>
		</g>
	</g>
	<g>
		<path fill="#FFFFFF" d="M37.191,53.09h-2.5l-0.9,2.754h-1.41l2.873-8.737h1.375l2.891,8.737h-1.41L37.191,53.09z M34.947,52.002
			h1.988l-0.986-3.28L34.947,52.002z"/>
		<g opacity="0.35">
			<path d="M36.629,47.106l2.891,8.737h-1.41l-0.918-2.754h-2.5l-0.9,2.754h-1.41l2.873-8.737H36.629 M34.947,52.002h1.988
				l-0.986-3.28L34.947,52.002 M37.352,46.106h-0.723h-1.375H34.53l-0.227,0.688l-2.873,8.737L31,56.844h1.381h1.41h0.726
				l0.225-0.689l0.676-2.064h1.054l0.69,2.07l0.228,0.684h0.721h1.41h1.384l-0.435-1.314l-2.891-8.737L37.352,46.106L37.352,46.106z
				"/>
		</g>
	</g>
	<g>
		<path fill="#FFFFFF" d="M44.586,47.871c-0.611,0-1.342,0.51-1.75,1.31c-0.307,0.612-0.477,1.479-0.477,2.346
			c0,0.799,0.102,1.632,0.408,2.227c0.391,0.782,0.969,1.292,1.836,1.292c0.527,0,0.918-0.102,1.139-0.17v-2.873H47v3.706
			c-0.221,0.085-1.088,0.391-2.414,0.391c-2.668,0-3.57-2.465-3.57-4.624c0-1.223,0.324-2.379,0.902-3.195
			c0.611-0.884,1.547-1.445,2.668-1.445c1.02,0,1.564,0.222,2.432,0.646l-0.545,0.884C46.473,48.364,45.691,47.871,44.586,47.871z"
			/>
		<g opacity="0.35">
			<path d="M44.586,46.834c1.02,0,1.564,0.222,2.432,0.646l-0.545,0.884c0,0-0.781-0.493-1.887-0.493c-0.611,0-1.342,0.51-1.75,1.31
				c-0.307,0.612-0.477,1.479-0.477,2.346c0,0.799,0.102,1.632,0.408,2.227c0.391,0.782,0.969,1.292,1.836,1.292
				c0.527,0,0.918-0.102,1.139-0.17v-2.873H47v3.706c-0.221,0.085-1.088,0.391-2.414,0.391c-2.668,0-3.57-2.465-3.57-4.624
				c0-1.223,0.324-2.379,0.902-3.195C42.529,47.396,43.465,46.834,44.586,46.834 M44.586,45.834c-1.394,0-2.665,0.684-3.49,1.876
				c-0.694,0.98-1.08,2.32-1.08,3.765c0,3.416,1.794,5.624,4.57,5.624c1.431,0,2.416-0.32,2.773-0.457L48,56.395v-0.687v-3.706v-1
				h-1h-1.258h-1v1v2.04c-0.046,0.002-0.092,0.003-0.139,0.003c-0.186,0-0.572,0-0.941-0.738c-0.197-0.384-0.303-1.012-0.303-1.78
				c0-0.725,0.139-1.435,0.371-1.897c0.269-0.527,0.697-0.758,0.855-0.758c0.781,0,1.348,0.335,1.353,0.339l0.854,0.539l0.531-0.86
				l0.545-0.884l0.578-0.938l-0.99-0.485C46.534,46.13,45.836,45.834,44.586,45.834L44.586,45.834z"/>
		</g>
	</g>
	<g>
		<path fill="#FFFFFF" d="M49.908,47.106h4.793v1.088H51.25v2.532h2.652v1.123H51.25v2.872h3.604v1.122h-4.945V47.106z"/>
		<g opacity="0.35">
			<path d="M54.701,47.106v1.088H51.25v2.532h2.652v1.123H51.25v2.872h3.604v1.122h-4.945v-8.737H54.701 M55.701,46.106h-1h-4.793
				h-1v1v8.737v1h1h4.945h1v-1v-1.122v-1h-1H52.25V52.85h1.652h1v-1v-1.123v-1h-1H52.25v-0.532h2.451h1v-1v-1.088V46.106
				L55.701,46.106z"/>
		</g>
	</g>
</g>
<rect x="22" y="16" width="16" height="15"/>
<polygon points="40.095,38.651 40.453,39.292 41.292,39.292 41.709,11.083 34.25,7.25 28.958,7.75 30.511,13.657 "/>
<g>
	<path fill-opacity="0.4" d="M30.781,6.75c0,0,5.708-0.25,6.703-0.031s1.808,0.698,1.808,0.698l1.735,1.419l1.049,1.051L43,11.333
		l0.896,1.542l1.021,1.917l-0.063,23.146l-3.417,2.313l-0.146-24.719l-1.063-3.927l-4.104-3.729l-0.75-0.396L30.781,6.75z"/>
	<g>
		<path fill="#E1E1E1" d="M29.843,7.706c1.172-0.013,2.508,0.197,3.067,0.316s1.996,0.665,2.48,0.947s1.355,1.026,1.803,1.443
			s1.265,1.26,1.572,1.792c0.636,0.97,1.677,2.318,1.677,4.928c0,1.587,0,22.15,0,22.15H20.509v-4.844c0,0,0-14.53,0-16.179
			s0.188-2.294,0.316-2.886s0.605-1.737,0.992-2.391s1.026-1.52,1.355-1.888s1.477-1.379,1.813-1.594s1.698-1.007,2.172-1.172
			S28.625,7.719,29.843,7.706z M27.25,26.42l-0.021,1.31h6.208v-1.31H27.25z M24.297,17.357v1.353h1.58h11.137l0.09-1.398
			l-1.668,0.046H24.297z M27.229,22.136v1.444h6.176v-1.444H27.229z"/>
		<g opacity="0.4">
			<path d="M29.946,7.705c1.146,0,2.422,0.201,2.964,0.316c0.559,0.119,1.996,0.665,2.48,0.947s1.355,1.026,1.803,1.443
				s1.265,1.26,1.572,1.792c0.636,0.97,1.677,2.318,1.677,4.928c0,1.587,0,22.15,0,22.15H20.509v-4.844c0,0,0-14.53,0-16.179
				s0.188-2.294,0.316-2.886s0.605-1.737,0.992-2.391s1.026-1.52,1.355-1.888s1.477-1.379,1.813-1.594s1.698-1.007,2.172-1.172
				s1.469-0.609,2.687-0.623C29.877,7.705,29.912,7.705,29.946,7.705 M37.104,17.311l-1.668,0.046H24.297v1.353h1.58h11.137
				L37.104,17.311 M27.229,23.58h6.176v-1.444h-6.176V23.58 M27.229,27.729h6.208v-1.31H27.25L27.229,27.729 M29.946,6.705l-0.114,0
				c-1.221,0.013-2.244,0.396-2.794,0.601c-0.08,0.03-0.15,0.056-0.211,0.078c-0.623,0.217-2.123,1.108-2.382,1.274
				c-0.444,0.284-1.652,1.357-2.021,1.771c-0.374,0.42-1.054,1.342-1.469,2.045c-0.451,0.763-0.958,1.994-1.108,2.688l-0.04,0.18
				c-0.133,0.592-0.299,1.33-0.299,2.917v16.179v4.844v1h1h19.934h1v-1v-22.15c0-2.718-1.021-4.247-1.695-5.258l-0.133-0.2
				c-0.489-0.824-1.688-1.946-1.739-1.994c-0.335-0.313-1.346-1.206-1.981-1.576c-0.57-0.332-2.101-0.917-2.774-1.061
				C32.57,6.926,31.2,6.705,29.946,6.705L29.946,6.705z"/>
		</g>
	</g>
</g>
<path fill="#E1E1E1" d="M41.292,15.531c-0.186-0.5-0.591-1.607-1.245-2.815c-0.465-0.857-1.734-2.669-2.609-3.372
	c-1.999-1.606-3.563-2.078-3.563-2.078s2.423-0.097,3.844,0.359c1.594,0.594,2.673,1.254,3.823,2.792C42.656,11.906,44,15,44,15
	v22.417l-2.719,1.864L41.292,15.531z"/>
</svg>
