<?xml version="1.0" encoding="UTF-8" standalone="no"?>
<!-- Created with Inkscape (http://www.inkscape.org/) -->
<svg
   xmlns:dc="http://purl.org/dc/elements/1.1/"
   xmlns:cc="http://creativecommons.org/ns#"
   xmlns:rdf="http://www.w3.org/1999/02/22-rdf-syntax-ns#"
   xmlns:svg="http://www.w3.org/2000/svg"
   xmlns="http://www.w3.org/2000/svg"
   xmlns:xlink="http://www.w3.org/1999/xlink"
   xmlns:sodipodi="http://sodipodi.sourceforge.net/DTD/sodipodi-0.dtd"
   xmlns:inkscape="http://www.inkscape.org/namespaces/inkscape"
   width="64px"
   height="64px"
   id="svg7521"
   sodipodi:version="0.32"
   inkscape:version="0.46"
   sodipodi:docname="icon_untap.svg"
   inkscape:output_extension="org.inkscape.output.svg.inkscape">
  <defs
     id="defs7523">
    <linearGradient
       id="linearGradient3169">
      <stop
         style="stop-color:#0000ff;stop-opacity:1;"
         offset="0"
         id="stop3171" />
      <stop
         style="stop-color:#000067;stop-opacity:1;"
         offset="1"
         id="stop3173" />
    </linearGradient>
    <radialGradient
       inkscape:collect="always"
       xlink:href="#linearGradient3169"
       id="radialGradient7511"
       gradientUnits="userSpaceOnUse"
       gradientTransform="matrix(1,0,0,0.2116376,377.50982,779.82916)"
       cx="120.07376"
       cy="56.138123"
       fx="120.07376"
       fy="56.138123"
       r="82.790039" />
    <filter
       inkscape:collect="always"
       id="filter3287">
      <feGaussianBlur
         inkscape:collect="always"
         stdDeviation="0.88403668"
         id="feGaussianBlur3289" />
    </filter>
    <linearGradient
       id="linearGradient4766">
      <stop
         style="stop-color:#784421;stop-opacity:1;"
         offset="0"
         id="stop4768" />
      <stop
         style="stop-color:#3d2210;stop-opacity:0;"
         offset="1"
         id="stop4770" />
    </linearGradient>
    <linearGradient
       inkscape:collect="always"
       xlink:href="#linearGradient4766"
       id="linearGradient7509"
       gradientUnits="userSpaceOnUse"
       gradientTransform="matrix(0.9650128,0,0,0.9948433,-72.195835,422.76271)"
       x1="661.24402"
       y1="602.90814"
       x2="431.5"
       y2="201.5482" />
    <linearGradient
       id="linearGradient4758">
      <stop
         style="stop-color:#a05a2c;stop-opacity:1;"
         offset="0"
         id="stop4760" />
      <stop
         style="stop-color:#3d2210;stop-opacity:1;"
         offset="1"
         id="stop4762" />
    </linearGradient>
    <linearGradient
       inkscape:collect="always"
       xlink:href="#linearGradient4758"
       id="linearGradient7507"
       gradientUnits="userSpaceOnUse"
       gradientTransform="matrix(0.9650128,0,0,0.9948433,-72.195835,422.76271)"
       x1="590.62201"
       y1="434.7522"
       x2="698.54004"
       y2="517.79218" />
    <linearGradient
       inkscape:collect="always"
       id="linearGradient7401">
      <stop
         style="stop-color:#000000;stop-opacity:1;"
         offset="0"
         id="stop7403" />
      <stop
         style="stop-color:#ff3f3f;stop-opacity:1"
         offset="1"
         id="stop7405" />
    </linearGradient>
    <linearGradient
       inkscape:collect="always"
       xlink:href="#linearGradient7401"
       id="linearGradient7407"
       x1="264.88599"
       y1="408.34131"
       x2="408.83002"
       y2="272.52307"
       gradientUnits="userSpaceOnUse"
       gradientTransform="translate(143.25126,-5.7879299)" />
    <inkscape:perspective
       sodipodi:type="inkscape:persp3d"
       inkscape:vp_x="0 : 32 : 1"
       inkscape:vp_y="0 : 1000 : 0"
       inkscape:vp_z="64 : 32 : 1"
       inkscape:persp3d-origin="32 : 21.333333 : 1"
       id="perspective7529" />
  </defs>
  <sodipodi:namedview
     id="base"
     pagecolor="#ffffff"
     bordercolor="#666666"
     borderopacity="1.0"
     inkscape:pageopacity="0.0"
     inkscape:pageshadow="2"
     inkscape:zoom="1.87333"
     inkscape:cx="27.090905"
     inkscape:cy="-37.993355"
     inkscape:current-layer="layer1"
     showgrid="true"
     inkscape:document-units="px"
     inkscape:grid-bbox="true"
     inkscape:window-width="1280"
     inkscape:window-height="949"
     inkscape:window-x="0"
     inkscape:window-y="25" />
  <metadata
     id="metadata7526">
    <rdf:RDF>
      <cc:Work
         rdf:about="">
        <dc:format>image/svg+xml</dc:format>
        <dc:type
           rdf:resource="http://purl.org/dc/dcmitype/StillImage" />
      </cc:Work>
    </rdf:RDF>
  </metadata>
  <g
     id="layer1"
     inkscape:label="Layer 1"
     inkscape:groupmode="layer">
    <g
       id="g7513"
       transform="matrix(0.1662273,0,0,0.1662273,-42.819956,-44.670706)">
      <path
         sodipodi:nodetypes="ccccssssccscc"
         id="rect5741"
         d="M 446.42202,266.73514 L 393.66741,308.49875 L 446.42202,350.25018 L 446.42202,314.09242 C 451.12326,313.61769 457.34708,313.37536 464.40399,314.10461 C 479.81683,315.69734 487.89742,312.56963 515.23846,322.96429 C 528.90898,328.16162 536.41095,334.51125 537.59958,342.0928 C 538.78823,349.67433 541.00581,358.49638 540.4027,367.84316 C 539.19648,386.53678 534.07539,410.12313 534.07538,410.12313 L 560.76103,411.03713 C 560.76103,411.03713 561.43858,329.87393 538.6314,316.18823 C 514.62342,301.78197 467.2178,296.72907 446.42202,298.21324 L 446.42202,266.73514 z"
         style="fill:url(#linearGradient7407);fill-opacity:1;stroke:none;stroke-width:3.0999999;stroke-linecap:round;stroke-linejoin:round;stroke-miterlimit:4;stroke-dashoffset:60.01653385;stroke-opacity:1" />
      <g
         transform="matrix(0,1,-1,0,1357.6755,35.13352)"
         id="g7501">
        <rect
           style="fill:url(#linearGradient7507);fill-opacity:1;fill-rule:nonzero;stroke:#000000;stroke-width:19.59629059;stroke-linejoin:round;stroke-miterlimit:4;stroke-dasharray:none;stroke-opacity:1"
           id="rect2490"
           width="221.03812"
           height="321.49753"
           x="387.24292"
           y="745.4682" />
        <rect
           style="fill:url(#linearGradient7509);fill-opacity:1;stroke:#000000;stroke-width:1.95962906;stroke-linejoin:miter;stroke-miterlimit:4;stroke-dasharray:none;stroke-opacity:1"
           id="rect3302"
           width="178.29964"
           height="277.43793"
           x="407.94437"
           y="766.80951" />
        <path
           sodipodi:type="arc"
           style="opacity:0.39208954;fill:#a05a2c;stroke:#000000;stroke-width:2.00029755;stroke-linejoin:round;stroke-miterlimit:4;stroke-dasharray:none;stroke-dashoffset:0;stroke-opacity:1;filter:url(#filter3287)"
           id="path3304"
           sodipodi:cx="589.58398"
           sodipodi:cy="489.76617"
           sodipodi:rx="71.968002"
           sodipodi:ry="128.71201"
           d="M 661.55199,489.76617 A 71.968002,128.71201 0 1 1 517.61598,489.76617 A 71.968002,128.71201 0 1 1 661.55199,489.76617 z"
           transform="matrix(1.1399786,0,0,1.0181427,-174.68505,406.18818)" />
        <path
           style="font-size:40px;font-style:normal;font-variant:normal;font-weight:normal;font-stretch:normal;text-align:start;line-height:125%;writing-mode:lr-tb;text-anchor:start;fill:url(#radialGradient7511);fill-opacity:1;stroke:#000000;stroke-width:1px;stroke-linecap:butt;stroke-linejoin:miter;stroke-opacity:1;font-family:'Magic:the Gathering';-inkscape-font-specification:'Magic:the Gathering'"
           d="M 415.3326,788.25307 C 415.30655,787.82339 415.29353,787.40998 415.29353,787.01283 C 415.29353,784.34358 415.9576,782.13004 417.28572,780.37221 C 418.8352,778.34749 420.63532,776.89242 422.68611,776.00697 C 424.74339,775.1281 426.31891,774.68864 427.41267,774.68861 C 428.79938,774.68864 429.93219,774.92953 430.81111,775.41127 C 431.66396,775.91911 432.52984,776.56039 433.40877,777.3351 C 434.28765,778.10335 434.94195,778.48747 435.37166,778.48744 C 435.44976,778.48747 435.80784,778.26286 436.44588,777.81361 C 437.09039,777.38395 437.61122,777.02262 438.00838,776.72963 C 438.35341,776.72966 438.62033,776.99658 438.80916,777.53041 L 433.29158,782.20815 C 433.21344,782.15608 432.81305,781.75569 432.09041,781.00697 C 431.36774,780.29085 430.6874,779.65283 430.04939,779.09291 C 429.41136,778.55908 428.63662,778.05127 427.72517,777.56947 C 426.82021,777.08773 425.94131,776.84684 425.08846,776.84682 C 424.02074,776.84684 423.00837,777.55648 422.05135,778.97572 C 421.06176,780.41455 420.30004,782.05192 419.76619,783.88783 C 419.31697,785.38525 419.09236,786.59944 419.09236,787.53041 C 419.09236,787.74527 419.10538,787.94709 419.13142,788.13588 C 419.66527,791.81428 421.03897,794.8937 423.25252,797.37416 C 425.44001,799.85463 427.98558,801.09487 430.88924,801.09486 C 431.29287,801.09487 432.58518,800.47963 434.76619,799.24916 C 436.82346,798.12937 438.02463,797.56948 438.36971,797.56947 C 438.39572,797.56948 438.42177,797.56948 438.44783,797.56947 C 438.44781,798.3963 438.46083,799.58445 438.48689,801.13393 C 438.48687,802.6769 438.46083,804.33054 438.40877,806.09486 C 438.33062,807.85267 438.19716,808.73158 438.00838,808.73158 L 436.97322,808.73158 C 436.99924,807.53366 437.01226,806.0265 437.01228,804.2101 C 437.01226,802.42624 436.9439,801.53432 436.80721,801.53432 C 436.7551,801.53432 436.26031,801.64174 435.32283,801.85658 C 434.39182,802.06492 433.39573,802.23744 432.33455,802.37416 C 431.24078,802.50437 429.90615,802.56947 428.33064,802.56947 C 424.70433,802.56947 421.75837,801.66453 419.49275,799.85463 C 418.50317,799.02781 417.621,797.62807 416.84627,795.65541 C 416.052,793.70881 415.54744,791.24136 415.3326,788.25307 M 440.28377,792.56947 C 440.41398,790.8898 441.15942,789.63654 442.5201,788.80971 C 443.88077,788.00894 445.7753,787.25048 448.20369,786.53432 C 448.47061,786.4497 448.73754,786.40738 449.00447,786.40736 C 449.56436,786.40738 450.17634,786.55386 450.84041,786.84682 C 451.82998,787.30256 452.72191,787.9829 453.51619,788.88783 C 454.29092,789.82535 454.79873,791.02652 455.03963,792.49135 C 455.11774,792.92105 455.1568,793.34748 455.15681,793.77065 C 455.1568,794.89045 454.93219,796.06557 454.48299,797.29604 C 454.21605,798.06427 453.61383,798.88784 452.67635,799.76674 C 451.74535,800.6782 450.746,801.41388 449.6783,801.97377 C 448.69522,802.48158 447.81631,802.73549 447.04158,802.73549 C 446.96345,802.73549 446.88207,802.73549 446.79744,802.73549 C 443.84171,802.52065 441.77465,801.21205 440.59627,798.80971 C 440.27726,798.22378 440.11775,797.15607 440.11775,795.60658 C 440.11775,794.75373 440.17309,793.74136 440.28377,792.56947 M 445.87947,788.44838 C 444.54483,788.95621 443.62686,790.08902 443.12556,791.84682 C 443.01489,792.22443 442.95955,792.65412 442.95955,793.13588 C 442.95955,793.61115 443.01489,794.15477 443.12556,794.76674 C 443.3339,795.97117 443.90681,797.13328 444.84431,798.25307 C 445.74926,799.37286 447.09366,800.17364 448.87752,800.65541 C 450.16006,800.65541 450.92178,800.20294 451.16267,799.29799 C 451.40355,798.38654 451.52399,796.78497 451.524,794.4933 C 451.52399,793.21076 451.18871,792.06493 450.51814,791.0558 C 449.85407,790.06623 449.06957,789.31753 448.16463,788.80971 C 447.54613,788.49071 447.01228,788.33121 446.56306,788.33119 C 446.32217,788.33121 446.09431,788.37027 445.87947,788.44838 M 456.14314,796.0558 C 456.14314,793.5493 456.79744,791.34878 458.10603,789.45424 C 459.38858,787.58577 461.29613,786.65152 463.82869,786.65151 C 464.62946,786.65152 465.72321,786.90543 467.10994,787.41322 C 468.46409,787.92105 469.14118,788.57535 469.14119,789.37611 C 469.14118,789.6105 468.90355,789.92951 468.4283,790.33315 C 467.92047,790.75633 467.50706,791.07534 467.18806,791.29018 C 467.18805,791.29019 467.18805,791.29019 467.18806,791.29018 C 467.18805,791.23811 466.88206,790.9191 466.2701,790.33315 C 465.59951,789.69514 464.92894,789.14826 464.25838,788.69252 C 463.59431,788.23681 462.94327,788.00894 462.30525,788.00893 C 461.47842,788.00894 460.81111,788.62418 460.3033,789.85463 C 459.76944,791.10464 459.50251,792.43602 459.50252,793.84877 C 459.50251,795.76935 460.01033,797.38393 461.02596,798.69252 C 462.01553,800.02716 463.49665,800.69448 465.46931,800.69447 C 466.10733,800.69448 466.85277,800.26804 467.70564,799.41518 C 468.5585,798.56232 468.99795,798.13588 469.024,798.13588 C 469.16071,798.13588 469.30719,798.21401 469.46346,798.37026 C 469.60016,798.55906 469.66852,798.69252 469.66853,798.77065 C 469.66852,798.84877 469.30719,799.23614 468.58455,799.93276 C 467.86839,800.6489 467.02855,801.28692 466.06502,801.84682 C 465.08194,802.40671 464.08259,802.68666 463.06697,802.68666 C 460.61254,802.68666 458.85147,802.06166 457.78377,800.81166 C 456.69002,799.55515 456.14314,797.96987 456.14314,796.0558 M 477.32478,775.52846 C 477.35082,775.74333 477.36384,777.27653 477.36385,780.12807 C 477.3378,783.0122 477.31176,785.90608 477.28572,788.80971 C 477.25967,790.75633 477.24665,792.10399 477.24666,792.85268 C 477.24665,793.22378 477.24665,793.43537 477.24666,793.48744 C 479.48624,792.07469 481.17895,790.9842 482.32479,790.21596 C 483.44457,789.46727 484.19327,788.9855 484.57088,788.77065 C 485.60602,788.1066 486.33845,787.65412 486.76815,787.41322 C 487.11318,787.1984 487.41917,787.09097 487.68612,787.09096 C 487.71214,787.09097 487.73818,787.09097 487.76424,787.09096 C 488.00511,787.14306 488.28506,787.39696 488.60408,787.85268 C 487.45824,788.60139 486.03246,789.54865 484.32674,790.69447 C 482.621,791.84032 481.76814,792.49136 481.76815,792.6476 C 481.76814,792.64761 481.76814,792.64761 481.76815,792.6476 C 482.00902,792.86245 482.34105,793.22378 482.76424,793.73158 C 483.19392,794.26545 483.51618,794.90672 483.73104,795.65541 C 483.88728,796.13068 484.32673,796.97052 485.0494,798.17494 C 485.73949,799.37286 486.27334,800.07924 486.65096,800.29408 C 486.91787,800.45034 487.12946,800.52846 487.28573,800.52846 C 487.33779,800.52846 487.39313,800.51544 487.45174,800.4894 C 487.60798,800.41127 487.84561,800.18666 488.16463,799.81557 C 488.45758,799.43797 488.76357,799.2101 489.0826,799.13197 C 489.11514,799.13198 489.14443,799.13198 489.17049,799.13197 C 489.30068,799.13198 489.44717,799.18406 489.60994,799.28822 C 489.74013,799.42495 489.80524,799.54539 489.80526,799.64955 C 489.80524,799.6756 489.80524,799.70164 489.80526,799.72768 C 489.72711,800.37221 488.99469,801.05255 487.60799,801.76869 C 486.67699,802.25046 485.87621,802.49135 485.20565,802.49135 C 484.86058,802.49135 484.54157,802.42624 484.24862,802.29604 C 483.98168,802.18536 483.12881,800.8377 481.69002,798.25307 C 480.25121,795.69448 479.46345,794.40216 479.32674,794.37611 C 479.13793,794.31753 478.96541,794.28823 478.80916,794.28822 C 478.19718,794.28823 477.79679,794.62352 477.60799,795.29408 C 477.39314,796.09487 477.28572,797.1463 477.28572,798.44838 C 477.28572,798.5851 477.28572,798.73159 477.28572,798.88783 C 477.28572,799.39565 477.28572,799.83836 477.28572,800.21596 C 477.28572,800.93211 477.27269,801.34552 477.24666,801.45619 C 476.92764,801.69057 476.44913,801.97052 475.81111,802.29604 C 475.21866,802.61505 474.69783,802.77455 474.24861,802.77455 C 474.22257,802.77455 474.19653,802.77455 474.17049,802.77455 C 474.17048,793.65347 474.17048,788.27912 474.17049,786.65151 C 474.17048,785.85074 474.17048,785.1704 474.17049,784.61049 C 474.14444,784.02457 474.14444,783.55908 474.17049,783.21401 C 474.19653,782.56949 474.20955,782.0096 474.20955,781.53432 C 474.20955,781.29345 474.20955,781.06559 474.20955,780.85072 C 474.18351,780.26481 474.15746,779.74398 474.13142,779.28822 C 474.13142,778.89111 473.95564,778.5721 473.60408,778.33119 C 473.25903,778.09033 472.76749,777.79736 472.12947,777.45229 C 471.67374,777.21143 471.44588,777.0389 471.44588,776.93471 C 471.44588,776.90869 471.48494,776.89567 471.56306,776.89565 C 471.69978,776.86312 472.35408,776.67432 473.52596,776.32924 C 474.69783,775.98421 475.61905,775.71729 476.28963,775.52846 C 476.60863,775.45036 476.84626,775.4113 477.00252,775.41127 C 477.19131,775.4113 477.29874,775.45036 477.32478,775.52846 M 491.34823,790.41127 C 491.24406,790.19644 491.19198,789.9816 491.19198,789.76674 C 491.19198,789.31753 491.47192,788.8911 492.03182,788.48744 C 492.8326,787.92756 493.92635,787.46207 495.31307,787.09096 C 496.67374,786.74592 497.81957,786.5734 498.75057,786.57338 C 499.81827,786.5734 501.13988,786.91845 502.71541,787.60854 C 504.28441,788.33121 505.06891,789.17105 505.06893,790.12807 L 505.06893,797.85268 C 505.09496,798.11961 505.18936,798.47768 505.35213,798.9269 C 505.51488,799.40867 505.79483,799.75698 506.19198,799.97182 C 506.91462,800.29083 507.50055,800.50242 507.94979,800.60658 C 508.37946,800.7433 508.62034,800.8377 508.67244,800.88979 C 508.72451,800.94187 508.75055,801.06231 508.75057,801.25111 C 508.75055,801.46596 508.43154,801.75893 507.79354,802.13002 C 507.14899,802.53367 506.66722,802.73549 506.34823,802.73549 C 505.12425,802.73549 504.20629,802.58901 503.59432,802.29604 C 502.94978,802.02911 502.37686,801.66778 501.87557,801.21205 C 501.3417,800.75632 500.94131,800.52846 500.6744,800.52846 C 500.35538,800.52846 499.92895,800.75632 499.3951,801.21205 C 498.8352,801.66778 498.26228,802.04213 497.67635,802.3351 C 497.05785,802.65411 496.17569,802.81361 495.02987,802.81361 C 493.56502,802.81361 492.52661,802.61179 491.91463,802.20815 C 491.2701,801.83705 490.94783,801.21205 490.94783,800.33315 C 490.94783,799.21336 491.50773,798.22703 492.62752,797.37416 C 493.74731,796.54734 494.81502,795.97443 495.83065,795.65541 C 496.60538,795.36245 497.41918,795.05321 498.27205,794.72768 C 499.09887,794.40867 499.74991,794.07664 500.22518,793.73158 C 500.70694,793.38654 500.94782,792.98615 500.94783,792.53041 C 500.94782,791.28042 500.50837,790.31037 499.62948,789.62026 C 498.75056,788.92365 497.81632,788.57535 496.82674,788.57533 C 496.64444,788.57535 496.24731,788.69253 495.63533,788.9269 C 494.9908,789.19384 494.66853,789.40868 494.66854,789.57143 C 494.66853,789.78628 494.87036,789.95881 495.27401,790.08901 C 495.6451,790.22574 495.83064,790.39826 495.83065,790.60658 C 495.83064,790.76936 495.52465,790.99722 494.91268,791.29018 C 494.45695,791.50503 493.99145,791.61245 493.51619,791.61244 C 493.35343,791.61245 493.17765,791.59943 492.98885,791.57338 C 492.32479,791.49527 491.77791,791.1079 491.34823,790.41127 M 500.6744,795.01088 C 499.33975,795.5187 498.07348,796.14695 496.87557,796.89565 C 495.6451,797.66388 495.02986,798.32794 495.02987,798.88783 C 495.02986,799.87742 495.43025,800.50567 496.23104,800.7726 C 496.47192,800.85073 496.72582,800.88979 496.99276,800.88979 C 497.57869,800.88979 498.23298,800.6489 498.95565,800.16713 C 499.88663,799.52911 500.47256,798.66323 500.71346,797.56947 C 500.81762,797.06167 500.8697,796.59617 500.86971,796.17299 C 500.8697,795.71727 500.8046,795.3299 500.6744,795.01088 M 509.04354,787.96986 L 515.44002,783.80971 C 515.62882,784.07665 515.73624,784.42496 515.76229,784.85463 C 515.78832,785.30387 515.80134,785.71728 515.80135,786.09486 C 515.80134,786.14696 515.80134,786.18603 515.80135,786.21205 C 515.80134,786.50504 515.87947,786.69058 516.03573,786.76869 C 516.25056,786.82079 516.58585,786.84683 517.04158,786.84682 C 517.49731,786.84683 518.07022,786.82079 518.76033,786.76869 C 519.34626,786.74267 519.9322,786.72965 520.51815,786.72963 C 521.31892,786.72965 522.1197,786.75569 522.92049,786.80776 C 522.92048,786.86636 523.00186,787.09423 523.16463,787.49135 C 523.2167,787.68017 523.24274,787.85269 523.24276,788.00893 C 523.26878,788.1717 523.24274,788.31819 523.16463,788.44838 C 523.0279,788.71532 522.64053,788.86181 522.00252,788.88783 C 519.54808,788.94644 518.01488,788.97574 517.40291,788.97572 C 516.75837,788.97574 516.22452,788.97574 515.80135,788.97572 C 515.61254,789.18407 515.51814,789.89045 515.51815,791.09486 C 515.51814,792.29279 515.51814,793.62417 515.51815,795.08901 C 515.51814,796.47573 515.54418,797.46206 515.59627,798.04799 C 515.65486,798.66648 515.88272,799.2687 516.27987,799.85463 C 516.65095,800.44057 517.30525,800.88002 518.24276,801.17299 C 518.75056,801.32924 519.22907,801.40737 519.6783,801.40736 C 520.02334,801.40737 520.35863,801.35528 520.68416,801.25111 C 521.37425,801.06231 521.93415,800.88979 522.36385,800.73354 C 522.49405,800.68146 522.61449,800.65541 522.72518,800.65541 C 522.95954,800.65541 523.11904,800.75958 523.20369,800.96791 C 523.20368,800.99395 523.20368,801.02325 523.20369,801.0558 C 523.20368,801.29018 522.72191,801.62221 521.75838,802.0519 C 520.69066,802.53367 519.71736,802.87872 518.83846,803.08705 C 518.22647,803.22377 517.64053,803.29213 517.08065,803.29213 C 516.20173,803.29213 515.37491,803.13262 514.60018,802.81361 C 513.31762,802.3058 512.40942,801.42364 511.87557,800.16713 C 511.87557,798.59812 511.86255,796.58641 511.83651,794.13197 C 511.81046,791.7036 511.7714,790.39826 511.71932,790.21596 C 511.64119,789.86441 511.26684,789.5161 510.59627,789.17104 C 509.90617,788.826 509.38859,788.42561 509.04354,787.96986 M 530.79158,789.41518 C 530.89574,789.41519 531.61515,788.96272 532.94979,788.05776 C 534.28441,787.14631 535.11124,786.69058 535.43026,786.69057 C 535.45629,786.69058 535.48233,786.69058 535.50838,786.69057 C 535.72321,786.69058 536.17894,786.79801 536.87557,787.01283 C 537.61774,787.25373 538.03115,787.49462 538.1158,787.73549 C 537.90095,788.15868 537.63402,788.68928 537.31502,789.32729 C 536.96345,789.97183 536.69652,790.30712 536.51424,790.33315 C 536.45564,790.33316 536.4003,790.33316 536.34823,790.33315 C 536.08129,790.33316 535.73623,790.14436 535.31307,789.76674 C 534.80525,789.34358 534.28441,789.10595 533.75057,789.05385 C 533.75056,789.05386 533.75056,789.05386 533.75057,789.05385 C 533.53572,789.05386 532.94978,789.39891 531.99276,790.08901 C 530.97713,790.83771 530.46931,791.26415 530.46932,791.3683 L 530.46932,800.92885 C 530.41723,801.16974 529.92569,801.58315 528.99471,802.16908 C 528.19392,802.6769 527.56567,802.9308 527.10994,802.9308 C 527.03182,802.9308 526.96671,802.91778 526.91463,802.89174 C 526.67374,802.83966 526.54028,802.15932 526.51424,800.85072 C 526.51424,800.42755 526.51424,799.93601 526.51424,799.37611 C 526.51424,798.24982 526.52726,796.8631 526.5533,795.21596 C 526.57934,794.22638 526.59236,793.39956 526.59237,792.73549 C 526.59236,791.74592 526.56632,791.13068 526.51424,790.88979 C 526.37752,790.11506 526.14966,789.62352 525.83065,789.41518 C 525.51164,789.22639 525.0852,789.03759 524.55135,788.84877 C 524.09562,788.71858 523.86776,788.52001 523.86776,788.25307 C 523.86776,788.22704 523.86776,788.201 523.86776,788.17494 C 523.8938,788.09032 523.97518,788.02196 524.1119,787.96986 C 524.24211,787.9178 524.45369,787.87873 524.74666,787.85268 C 525.03963,787.82665 525.41398,787.78759 525.86971,787.73549 C 526.77466,787.57274 527.6145,787.37092 528.38924,787.13002 C 529.00122,786.94123 529.44067,786.84683 529.7076,786.84682 C 529.76619,786.84683 529.82153,786.84683 529.87362,786.84682 C 530.21866,786.90543 530.39119,787.13329 530.39119,787.53041 C 530.36515,787.93407 530.3391,788.33446 530.31307,788.73158 C 530.31306,788.75764 530.31306,788.78368 530.31307,788.80971 C 530.31306,789.15477 530.47257,789.3566 530.79158,789.41518 M 543.86776,780.01088 C 544.16072,779.28825 544.37231,778.75439 544.50252,778.40932 C 544.61319,778.06429 544.73364,777.81038 544.86385,777.6476 C 545.00056,777.51742 545.26749,777.40023 545.66463,777.29604 C 546.03572,777.21143 546.47517,777.15609 546.98299,777.13002 C 547.09366,777.13005 547.20108,777.13005 547.30526,777.13002 C 547.81306,777.13005 548.10603,777.30257 548.18416,777.6476 C 548.18415,777.70622 548.18415,777.76156 548.18416,777.81361 C 548.18415,778.21077 547.98559,778.68929 547.58846,779.24916 C 547.13272,779.91976 546.55981,780.52197 545.86971,781.0558 C 545.17309,781.58317 544.50577,781.88916 543.86776,781.97377 C 543.49015,781.81103 543.27531,781.65153 543.22323,781.49526 C 543.22322,781.46923 543.22322,781.43994 543.22323,781.40736 C 543.22322,781.27718 543.29158,781.10465 543.4283,780.88979 C 543.58455,780.62288 543.73103,780.32991 543.86776,780.01088 M 539.22908,786.53432 C 540.02336,786.31949 541.07479,786.03954 542.38338,785.69447 C 543.66593,785.34293 544.60017,785.15413 545.18612,785.12807 C 545.21215,785.12809 545.23819,785.12809 545.26424,785.12807 C 545.58325,785.12809 545.81111,785.23551 545.94783,785.45033 C 546.02595,785.63915 546.06502,785.90608 546.06502,786.25111 C 546.06502,786.32926 546.06502,786.41064 546.06502,786.49526 C 546.01293,786.97053 545.98689,787.3286 545.9869,787.56947 L 545.9869,799.41518 C 546.35798,799.41518 546.87882,799.21336 547.5494,798.80971 C 548.05069,798.51674 548.40876,798.37026 548.62362,798.37026 C 548.67569,798.37026 548.71475,798.38328 548.7408,798.40932 C 548.90355,798.52 548.98493,798.64044 548.98494,798.77065 C 548.98493,799.1157 548.42504,799.56817 547.30526,800.12807 C 546.93416,800.34291 546.38728,800.70424 545.66463,801.21205 C 544.91593,801.74591 544.23559,802.17234 543.62362,802.49135 C 543.51945,802.59552 543.34692,802.68992 543.10604,802.77455 C 543.02791,802.80059 542.94653,802.81361 542.8619,802.81361 C 542.70564,802.81361 542.55916,802.73223 542.42244,802.56947 C 542.37036,802.49135 542.34432,799.63979 542.34432,794.01479 C 542.34432,793.42886 542.34432,792.81362 542.34432,792.16908 C 542.34432,791.53107 542.31827,790.93212 542.26619,790.37221 C 542.18807,789.83837 542.0546,789.41194 541.8658,789.09291 C 541.65096,788.68928 541.38403,788.38329 541.06502,788.17494 C 540.71997,787.98616 540.35864,787.79735 539.98104,787.60854 C 539.5839,787.4523 539.33325,787.2928 539.22908,787.13002 C 539.17049,787.07795 539.14119,786.99983 539.14119,786.89565 C 539.11515,786.78498 539.14445,786.66454 539.22908,786.53432 M 550.12752,796.0558 C 550.12752,793.5493 550.78182,791.34878 552.09041,789.45424 C 553.37296,787.58577 555.28051,786.65152 557.81307,786.65151 C 558.61384,786.65152 559.70759,786.90543 561.09432,787.41322 C 562.44847,787.92105 563.12556,788.57535 563.12557,789.37611 C 563.12556,789.6105 562.88793,789.92951 562.41268,790.33315 C 561.90485,790.75633 561.49144,791.07534 561.17244,791.29018 C 561.17243,791.29019 561.17243,791.29019 561.17244,791.29018 C 561.17243,791.23811 560.86644,790.9191 560.25448,790.33315 C 559.58389,789.69514 558.91332,789.14826 558.24276,788.69252 C 557.57869,788.23681 556.92765,788.00894 556.28963,788.00893 C 555.4628,788.00894 554.79549,788.62418 554.28768,789.85463 C 553.75382,791.10464 553.48689,792.43602 553.4869,793.84877 C 553.48689,795.76935 553.99471,797.38393 555.01033,798.69252 C 555.99991,800.02716 557.48103,800.69448 559.45369,800.69447 C 560.09171,800.69448 560.83715,800.26804 561.69002,799.41518 C 562.54287,798.56232 562.98233,798.13588 563.00838,798.13588 C 563.14509,798.13588 563.29157,798.21401 563.44783,798.37026 C 563.58454,798.55906 563.6529,798.69252 563.65291,798.77065 C 563.6529,798.84877 563.29157,799.23614 562.56893,799.93276 C 561.85277,800.6489 561.01293,801.28692 560.0494,801.84682 C 559.06632,802.40671 558.06697,802.68666 557.05135,802.68666 C 554.59692,802.68666 552.83585,802.06166 551.76815,800.81166 C 550.6744,799.55515 550.12752,797.96987 550.12752,796.0558 M 566.30916,794.81557 C 566.49796,791.85334 567.25968,789.81233 568.59432,788.69252 C 569.8964,787.57274 571.61515,787.01285 573.75057,787.01283 C 574.47322,787.01285 575.05915,787.12027 575.50838,787.3351 C 575.9641,787.56949 576.45889,787.91454 576.99276,788.37026 C 577.5266,788.826 577.88467,789.05386 578.06698,789.05385 C 578.09952,789.05386 578.30134,788.95946 578.67244,788.77065 C 579.01748,788.58186 579.28441,788.48746 579.47323,788.48744 C 579.74014,788.48746 579.8736,788.67626 579.87362,789.05385 C 579.8736,789.10595 579.20629,789.51936 577.87166,790.29408 C 577.3378,790.58706 576.29939,791.10464 574.75643,791.84682 C 573.20694,792.62157 571.97973,793.30191 571.07479,793.88783 C 570.16333,794.50633 569.7076,795.02716 569.7076,795.45033 C 569.7076,796.94122 570.16333,798.2075 571.07479,799.24916 C 571.95369,800.31687 573.19392,800.85073 574.79549,800.85072 C 575.51163,800.85073 576.32217,800.50567 577.22713,799.81557 C 578.11254,799.145 578.64639,798.80971 578.82869,798.80971 C 578.99144,798.80971 579.11188,798.87807 579.19002,799.01479 C 579.26813,799.145 579.32347,799.26544 579.35604,799.37611 C 579.14118,799.61049 578.9003,799.87416 578.63338,800.16713 C 578.36644,800.4601 577.92699,800.91583 577.31502,801.53432 C 576.8072,801.80125 576.03246,802.12026 574.9908,802.49135 C 573.94913,802.88848 573.07022,803.08705 572.35408,803.08705 C 571.3645,803.08705 570.37817,802.78106 569.3951,802.16908 C 568.40551,801.58315 567.61776,800.65216 567.03182,799.37611 C 566.52401,798.30841 566.2701,797.0519 566.2701,795.60658 C 566.2701,795.34617 566.28312,795.0825 566.30916,794.81557 M 572.35408,788.40932 C 571.5533,788.40933 570.95109,788.99527 570.54744,790.16713 C 570.1503,791.37157 569.89965,792.37417 569.79549,793.17494 C 570.16658,793.09032 571.05851,792.68993 572.47127,791.97377 C 573.88402,791.25113 574.5904,790.83771 574.59041,790.73354 C 574.5904,790.5187 574.25837,790.07925 573.59432,789.41518 C 572.92374,788.74462 572.51033,788.40933 572.35408,788.40932"
           id="text2395" />
      </g>
    </g>
  </g>
</svg>
