<?xml version="1.0" encoding="utf-8"?>
<!-- Generator: Adobe Illustrator 15.1.0, SVG Export Plug-In . SVG Version: 6.00 Build 0)  -->
<!DOCTYPE svg PUBLIC "-//W3C//DTD SVG 1.1//EN" "http://www.w3.org/Graphics/SVG/1.1/DTD/svg11.dtd">
<svg version="1.1" id="Layer_1" xmlns="http://www.w3.org/2000/svg" xmlns:xlink="http://www.w3.org/1999/xlink" x="0px" y="0px"
	 width="60px" height="60px" viewBox="0 0 60 60" enable-background="new 0 0 60 60" xml:space="preserve">
<radialGradient id="SVGID_1_" cx="542" cy="761" r="30" gradientTransform="matrix(1 0 0 1 -512 -731)" gradientUnits="userSpaceOnUse">
	<stop  offset="0" style="stop-color:#00DC00"/>
	<stop  offset="1" style="stop-color:#191919"/>
</radialGradient>
<path fill="url(#SVGID_1_)" d="M60,51.818C60,56.337,56.337,60,51.818,60H8.182C3.663,60,0,56.337,0,51.818V8.182
	C0,3.663,3.663,0,8.182,0h43.636C56.337,0,60,3.663,60,8.182V51.818z"/>
<g display="none">
	<g display="inline">
		<path fill="#EBEBEB" d="M29.857,48.793c-1.015,0-2.135-0.525-2.275-0.595v6.896h-2.765V37.102h4.166
			c5.18,0,7.037,2.73,7.037,5.603c0,1.854-0.666,3.536-1.961,4.655C33.007,48.268,31.572,48.793,29.857,48.793z M27.582,39.271
			v6.791c0,0,1.085,0.523,1.925,0.523c2.38,0,3.745-1.715,3.745-3.921c0-1.96-1.365-3.396-4.27-3.396h-1.4V39.271z"/>
		<g opacity="0.35">
			<path d="M28.982,37.102c5.18,0,7.036,2.73,7.036,5.603c0,1.854-0.664,3.536-1.959,4.655c-1.052,0.908-2.484,1.436-4.202,1.436
				c-1.015,0-2.135-0.523-2.275-0.595v6.896h-2.765V37.102H28.982 M29.507,46.588c2.38,0,3.745-1.715,3.745-3.921
				c0-1.96-1.365-3.396-4.27-3.396h-1.4v6.791C27.582,46.063,28.667,46.588,29.507,46.588 M28.982,35.602h-4.166h-1.5v1.5v17.992
				v1.5h1.5h2.765h1.5v-1.5v-4.861c0.252,0.037,0.514,0.063,0.775,0.063c2.029,0,3.821-0.622,5.182-1.8
				c1.599-1.384,2.479-3.438,2.479-5.791C37.518,39.27,35.275,35.602,28.982,35.602L28.982,35.602z M29.082,45.02v-4.246
				c1.771,0.022,2.67,0.66,2.67,1.896c0,0.567-0.162,2.421-2.245,2.421C29.395,45.088,29.244,45.061,29.082,45.02L29.082,45.02z"/>
		</g>
	</g>
</g>
<g display="none">
	<g display="inline">
		<path fill="#EBEBEB" d="M19.689,45.316c0,6.137-1.352,9.775-7.488,9.775c-5.876,0-7.176-3.641-7.176-9.775v-23.66
			c0-1.508,0-1.82-1.977-2.028v-1.976h6.604v1.976c-2.028,0.208-2.028,0.52-2.028,2.028v23.869c0,4.68,0.937,7.072,4.681,7.072
			c3.848,0,4.784-2.395,4.784-7.072V21.656c0-1.508,0-1.82-2.028-2.028v-1.976h6.604v1.976c-1.977,0.208-1.977,0.52-1.977,2.028
			L19.689,45.316L19.689,45.316z"/>
		<g opacity="0.35">
			<path d="M21.666,17.652v1.976c-1.977,0.208-1.977,0.52-1.977,2.028v23.66c0,6.137-1.352,9.775-7.488,9.775
				c-5.876,0-7.176-3.641-7.176-9.775v-23.66c0-1.508,0-1.82-1.977-2.028v-1.976h6.604v1.976c-2.028,0.208-2.028,0.52-2.028,2.028
				v23.869c0,4.68,0.937,7.072,4.681,7.072c3.848,0,4.784-2.395,4.784-7.072V21.656c0-1.508,0-1.82-2.028-2.028v-1.976H21.666
				 M23.166,16.152h-1.5h-6.604h-1.5v1.5v1.976v1.354l1.347,0.138c0.314,0.032,0.531,0.063,0.678,0.09
				c0.003,0.14,0.003,0.301,0.003,0.446v23.869c0,5.197-1.241,5.572-3.284,5.572c-1.921,0-3.181-0.39-3.181-5.572V21.656
				c0-0.146,0-0.306,0.003-0.446c0.147-0.026,0.364-0.058,0.678-0.09l1.347-0.138v-1.354v-1.976v-1.5h-1.5H3.049h-1.5v1.5v1.976
				v1.351l1.343,0.141c0.289,0.03,0.491,0.06,0.631,0.084c0.003,0.142,0.003,0.306,0.003,0.452v23.66
				c0,5.576,1.031,11.275,8.676,11.275c7.92,0,8.988-5.699,8.988-11.275v-23.66c0-0.146,0-0.31,0.003-0.452
				c0.14-0.025,0.342-0.054,0.631-0.084l1.343-0.141v-1.351v-1.976L23.166,16.152L23.166,16.152z"/>
		</g>
	</g>
</g>
<g>
	<g>
		<path fill="#EBEBEB" d="M26.306,4.625c0.692,1.026,1.137,2.3,1.6,3.555c0.849-0.32,2.879-0.179,3.744,0.066
			c0.565-0.948,1.329-3.181,1.941-3.62c2.123,0.543,4.129,1.28,5.577,2.497c-0.175,1.365-0.975,2.508-1.377,3.645
			c0.948,0.637,1.856,1.56,2.568,2.626c1.178-0.335,3.447-1.214,3.749-1.26c0.347,0,1.843,3.461,2.359,5.611
			c-1.018,0.708-2.347,1.205-3.637,1.632c0.121,2.126,0.11,1.991,0,3.908c1.065,0.593,2.367,0.949,3.375,1.599
			c-0.34,2.033-1.218,4.186-2.31,5.686c-0.702-0.076-2.286-0.793-3.376-1.242c-0.357,0.483-1.85,1.938-3.021,2.666
			c0.663,1.22,1.471,3.739,1.471,3.739s-3.789,1.961-5.689,2.385c-0.574-0.989-1.33-2.695-1.644-3.637
			c-0.865,0.062-2.938,0.154-3.76,0.004c-0.653,0.97-1.458,2.673-1.927,3.371c-2.259-0.346-4.094-1.164-5.57-2.296
			c0.092-0.649,0.873-2.456,1.306-3.568c-0.854-0.839-1.87-1.804-2.667-2.843c-1.162,0.408-2.225,0.87-3.377,1.245
			c-1.517-1.195-2.492-3.723-2.488-5.864c1.326-0.637,2.205-0.885,3.376-1.422c-0.166-1.406-0.224-2.124,0-3.73
			c-0.95-0.708-2.335-0.981-3.376-1.599c0.072-2.272,0.983-4.255,2.488-5.864c1.298,0.301,2.284,1.031,3.519,1.335
			c0.8-0.942,1.604-1.914,2.7-2.58c-0.431-1.228-1.181-2.135-1.245-3.731C22.085,5.734,23.95,4.936,26.306,4.625z M21.687,23.281
			c1.895,8.187,14.204,7.626,15.99,0c1.388-5.915-3.487-10.71-9.062-9.951C23.943,13.967,20.494,18.146,21.687,23.281z"/>
		<g opacity="0.35">
			<path d="M33.591,4.625c2.123,0.543,4.129,1.28,5.577,2.497c-0.175,1.365-0.975,2.508-1.377,3.645
				c0.948,0.637,1.856,1.56,2.568,2.626c1.178-0.335,3.447-1.214,3.749-1.26c0.347,0,1.843,3.461,2.359,5.61
				c-1.018,0.708-2.347,1.206-3.637,1.632c0.121,2.126,0.11,1.992,0,3.909c1.065,0.593,2.367,0.949,3.375,1.599
				c-0.34,2.033-1.218,4.186-2.31,5.686c-0.702-0.076-2.286-0.793-3.376-1.242c-0.357,0.483-1.85,1.938-3.021,2.665
				c0.663,1.22,1.471,3.741,1.471,3.741s-3.789,1.959-5.689,2.385c-0.574-0.989-1.33-2.695-1.644-3.637
				c-0.521,0.037-1.476,0.085-2.331,0.085c-0.57,0-1.099-0.023-1.429-0.081c-0.653,0.97-1.458,2.672-1.927,3.371
				c-2.259-0.346-4.094-1.166-5.57-2.296c0.092-0.649,0.873-2.456,1.306-3.568c-0.854-0.839-1.87-1.804-2.667-2.843
				c-1.162,0.408-2.225,0.87-3.377,1.245c-1.517-1.195-2.492-3.723-2.488-5.864c1.326-0.637,2.205-0.885,3.376-1.422
				c-0.166-1.406-0.224-2.124,0-3.73c-0.95-0.708-2.335-0.981-3.376-1.599c0.072-2.272,0.983-4.255,2.488-5.864
				c1.298,0.301,2.284,1.031,3.519,1.335c0.8-0.942,1.604-1.914,2.7-2.58c-0.431-1.228-1.181-2.135-1.245-3.731
				c1.466-1.2,3.331-1.999,5.687-2.311c0.693,1.026,1.137,2.3,1.6,3.555c0.351-0.133,0.903-0.185,1.492-0.185
				c0.836,0,1.745,0.107,2.252,0.251C32.215,7.296,32.979,5.063,33.591,4.625 M29.535,29.214c3.601,0,7.232-2.051,8.142-5.932
				c1.292-5.499-2.832-10.03-7.896-10.03c-0.385,0-0.773,0.025-1.165,0.079c-4.675,0.637-8.122,4.814-6.928,9.951
				C22.618,27.302,26.062,29.214,29.535,29.214 M33.368,3.437l-0.415,0.297c-0.586,0.42-1.003,1.282-1.621,2.653
				c-0.096,0.21-0.191,0.426-0.284,0.624c-0.515-0.072-1.098-0.114-1.652-0.114c-0.285,0-0.545,0.011-0.788,0.033
				c-0.379-1.015-0.799-2.032-1.396-2.919l-0.381-0.562l-0.669,0.088c-2.473,0.326-4.57,1.184-6.237,2.549l-0.422,0.345l0.021,0.546
				c0.053,1.313,0.488,2.238,0.875,3.054c0.038,0.082,0.076,0.164,0.115,0.244c-0.653,0.518-1.198,1.109-1.713,1.706
				c-0.287-0.111-0.574-0.242-0.872-0.379c-0.621-0.285-1.263-0.58-2.038-0.76L15.274,10.7l-0.432,0.462
				c-1.744,1.866-2.705,4.14-2.783,6.577l-0.021,0.647l0.556,0.331c0.537,0.319,1.117,0.544,1.676,0.763
				c0.387,0.151,0.76,0.297,1.085,0.46c-0.102,0.988-0.083,1.675-0.004,2.479c-0.23,0.094-0.457,0.183-0.691,0.274
				c-0.597,0.233-1.214,0.476-1.981,0.844l-0.619,0.297l-0.001,0.687c-0.007,2.608,1.188,5.374,2.905,6.728l0.46,0.363l0.558-0.182
				c0.68-0.222,1.331-0.473,1.962-0.715c0.239-0.091,0.477-0.184,0.72-0.275c0.559,0.651,1.166,1.259,1.735,1.818
				c-0.023,0.059-0.047,0.117-0.071,0.177c-0.569,1.411-0.948,2.379-1.032,2.966l-0.088,0.633l0.507,0.389
				c1.703,1.31,3.746,2.153,6.072,2.51l0.689,0.106l0.389-0.579c0.244-0.364,0.528-0.893,0.858-1.509
				c0.233-0.434,0.486-0.906,0.726-1.314c0.25,0.015,0.534,0.021,0.857,0.021c0.527,0,1.095-0.02,1.583-0.04
				c0.387,0.971,0.955,2.21,1.441,3.046l0.404,0.692l0.782-0.174c2.018-0.448,5.797-2.398,5.956-2.479l0.824-0.427l-0.282-0.884
				c-0.027-0.086-0.558-1.726-1.128-3.039c0.717-0.549,1.431-1.202,1.932-1.718c1.309,0.553,2.294,0.946,2.959,1.02l0.632,0.069
				l0.375-0.515c1.199-1.649,2.134-3.949,2.502-6.148l0.119-0.711l-0.606-0.39c-0.64-0.413-1.345-0.707-2.028-0.99
				c-0.278-0.116-0.548-0.228-0.805-0.345c0.061-1.045,0.064-1.365,0.006-2.483c1.073-0.382,2.199-0.859,3.122-1.5l0.615-0.428
				l-0.175-0.728c-0.25-1.043-0.736-2.458-1.301-3.785c-0.891-2.093-1.347-2.667-2.124-2.667h-0.085l-0.082,0.013
				c-0.216,0.034-0.507,0.132-1.562,0.507c-0.502,0.179-1.082,0.386-1.594,0.556c-0.497-0.638-1.061-1.218-1.653-1.709
				c0.057-0.122,0.114-0.245,0.174-0.371c0.384-0.801,0.812-1.71,0.946-2.77l0.077-0.595l-0.458-0.384
				c-1.382-1.161-3.291-2.025-6.011-2.72L33.368,3.437L33.368,3.437z M29.535,28.118c-2.71,0-5.913-1.335-6.78-5.083
				c-0.474-2.029-0.131-4.019,0.963-5.604c1.123-1.632,2.962-2.73,5.044-3.014c0.339-0.046,0.68-0.069,1.018-0.069
				c2.2,0,4.23,0.97,5.571,2.66c1.33,1.677,1.775,3.815,1.257,6.022C35.786,26.545,32.463,28.118,29.535,28.118L29.535,28.118z"/>
		</g>
	</g>
</g>
<g>
	<g>
		<path fill="#EBEBEB" d="M6.816,54.741c-3.426,0-4.599-2.897-4.599-5.979v-8.854h1.84v8.877c0,1.862,0.368,4.438,2.759,4.438
			c2.438,0,2.759-2.575,2.759-4.461v-8.854h1.84v8.945C11.415,51.867,10.265,54.741,6.816,54.741z"/>
		<g opacity="0.35">
			<path d="M11.415,39.909v8.945c0,3.013-1.15,5.887-4.599,5.887c-3.426,0-4.599-2.897-4.599-5.979v-8.854h1.84v8.877
				c0,1.862,0.368,4.438,2.759,4.438c2.438,0,2.759-2.575,2.759-4.461v-8.854H11.415 M12.415,38.909h-1h-1.84h-1v1v8.854
				c0,3.461-1.233,3.461-1.759,3.461c-0.435,0-1.759,0-1.759-3.438v-8.877v-1h-1h-1.84h-1v1v8.854c0,4.37,2.093,6.979,5.599,6.979
				s5.599-2.574,5.599-6.887v-8.945V38.909L12.415,38.909z"/>
		</g>
	</g>
	<g>
		<path fill="#EBEBEB" d="M17.465,50.258c-0.667,0-1.403-0.346-1.495-0.392v4.53h-1.817V42.577h2.737
			c3.403,0,4.622,1.794,4.622,3.679c0,1.219-0.437,2.323-1.288,3.059C19.535,49.912,18.592,50.258,17.465,50.258z M15.971,44.003
			v4.461c0,0,0.713,0.345,1.265,0.345c1.563,0,2.46-1.127,2.46-2.575c0-1.288-0.897-2.23-2.805-2.23H15.971z"/>
		<g opacity="0.35">
			<path d="M16.891,42.577c3.403,0,4.622,1.794,4.622,3.679c0,1.219-0.437,2.323-1.288,3.059c-0.69,0.598-1.632,0.943-2.759,0.943
				c-0.667,0-1.403-0.346-1.495-0.392v4.53h-1.817V42.577H16.891 M17.235,48.809c1.563,0,2.46-1.127,2.46-2.575
				c0-1.288-0.897-2.23-2.805-2.23h-0.92v4.461C15.971,48.464,16.684,48.809,17.235,48.809 M16.891,41.577h-2.737h-1v1v11.819v1h1
				h1.817h1v-1v-3.178c0.162,0.024,0.328,0.039,0.495,0.039c1.336,0,2.517-0.41,3.414-1.188c1.053-0.909,1.633-2.265,1.633-3.814
				C22.512,43.994,21.036,41.577,16.891,41.577L16.891,41.577z M16.971,47.767v-2.763c1.145,0.018,1.725,0.432,1.725,1.229
				c0,0.369-0.105,1.575-1.46,1.575C17.166,47.809,17.072,47.792,16.971,47.767L16.971,47.767z"/>
		</g>
	</g>
	<g>
		<path fill="#EBEBEB" d="M25.285,49.774v4.622h-1.817V42.577h1.817v5.013l3.978-5.013h1.977l-4.713,6.07l4.805,5.036v0.713h-1.725
			L25.285,49.774z"/>
		<g opacity="0.35">
			<path d="M31.24,42.577l-4.713,6.07l4.805,5.036v0.713h-1.725l-4.322-4.622v4.622h-1.817V42.577h1.817v5.013l3.978-5.013H31.24
				 M33.283,41.577H31.24h-1.977H28.78l-0.3,0.378l-2.195,2.766v-2.144v-1h-1h-1.817h-1v1v11.819v1h1h1.817h1v-1v-2.089l2.592,2.771
				l0.296,0.317h0.434h1.725h1v-1v-0.713v-0.4l-0.276-0.29l-4.21-4.413l4.185-5.39L33.283,41.577L33.283,41.577z"/>
		</g>
	</g>
	<g>
		<path fill="#EBEBEB" d="M32.83,42.577h6.484v1.472h-4.668v3.426h3.586v1.518h-3.586v3.887h4.875v1.518H32.83V42.577z"/>
		<g opacity="0.35">
			<path d="M39.314,42.577v1.472h-4.668v3.426h3.586v1.518h-3.586v3.887h4.875v1.518H32.83V42.577H39.314 M40.314,41.577h-1H32.83
				h-1v1v11.819v1h1h6.691h1v-1v-1.518v-1h-1h-3.875v-1.887h2.586h1v-1v-1.518v-1h-1h-2.586v-1.426h3.668h1v-1v-1.472V41.577
				L40.314,41.577z"/>
		</g>
	</g>
	<g>
		<path fill="#EBEBEB" d="M41.73,42.577h6.484v1.472h-4.668v3.426h3.588v1.518h-3.588v3.887h4.875v1.518H41.73V42.577z"/>
		<g opacity="0.35">
			<path d="M48.215,42.577v1.472h-4.668v3.426h3.588v1.518h-3.588v3.887h4.875v1.518H41.73V42.577H48.215 M49.215,41.577h-1H41.73
				h-1v1v11.819v1h1h6.691h1v-1v-1.518v-1h-1h-3.875v-1.887h2.588h1v-1v-1.518v-1h-1h-2.588v-1.426h3.668h1v-1v-1.472V41.577
				L49.215,41.577z"/>
		</g>
	</g>
	<g>
		<path fill="#EBEBEB" d="M53.943,50.258c-0.668,0-1.404-0.346-1.496-0.392v4.53h-1.816V42.577h2.736
			c3.404,0,4.623,1.794,4.623,3.679c0,1.219-0.438,2.323-1.289,3.059C56.012,49.912,55.07,50.258,53.943,50.258z M52.447,44.003
			v4.461c0,0,0.713,0.345,1.266,0.345c1.563,0,2.461-1.127,2.461-2.575c0-1.288-0.898-2.23-2.807-2.23H52.447z"/>
		<g opacity="0.35">
			<path d="M53.367,42.577c3.404,0,4.623,1.794,4.623,3.679c0,1.219-0.438,2.323-1.289,3.059c-0.689,0.598-1.631,0.943-2.758,0.943
				c-0.668,0-1.404-0.346-1.496-0.392v4.53h-1.816V42.577H53.367 M53.713,48.809c1.563,0,2.461-1.127,2.461-2.575
				c0-1.288-0.898-2.23-2.807-2.23h-0.92v4.461C52.447,48.464,53.16,48.809,53.713,48.809 M53.367,41.577h-2.736h-1v1v11.819v1h1
				h1.816h1v-1v-3.178c0.162,0.024,0.329,0.039,0.496,0.039c1.336,0,2.517-0.411,3.413-1.188c1.053-0.91,1.634-2.265,1.634-3.814
				C58.99,43.994,57.513,41.577,53.367,41.577L53.367,41.577z M53.447,47.767v-2.763c1.146,0.018,1.727,0.432,1.727,1.229
				c0,0.369-0.105,1.575-1.461,1.575C53.643,47.809,53.549,47.792,53.447,47.767L53.447,47.767z"/>
		</g>
	</g>
</g>
</svg>
