<?xml version="1.0" encoding="utf-8"?>
<!-- Generator: Adobe Illustrator 15.1.0, SVG Export Plug-In . SVG Version: 6.00 Build 0)  -->
<!DOCTYPE svg PUBLIC "-//W3C//DTD SVG 1.1//EN" "http://www.w3.org/Graphics/SVG/1.1/DTD/svg11.dtd">
<svg version="1.1" id="Layer_1" xmlns="http://www.w3.org/2000/svg" xmlns:xlink="http://www.w3.org/1999/xlink" x="0px" y="0px"
	 width="60px" height="60px" viewBox="0 0 60 60" enable-background="new 0 0 60 60" xml:space="preserve">
<radialGradient id="SVGID_1_" cx="30" cy="30" r="30" gradientUnits="userSpaceOnUse">
	<stop  offset="0" style="stop-color:#E6E6E6"/>
	<stop  offset="1" style="stop-color:#191919"/>
</radialGradient>
<path fill="url(#SVGID_1_)" d="M60,51.818C60,56.337,56.337,60,51.818,60H8.182C3.663,60,0,56.337,0,51.818V8.182
	C0,3.663,3.663,0,8.182,0h43.637C56.337,0,60,3.663,60,8.182V51.818z"/>
<g>
	<path fill="#FFFFFF" d="M36.803,32.291l-6.082,6.082c0,0-3.719-0.705-6.307-2.103c-0.725-0.444-2.813-1.825-3.705-2.665
		c-0.972-0.912-1.893-1.963-2.632-2.906c-1.562-1.992-2.909-4.777-3.644-7.043c-1.31-4.034-0.612-9.245,0-10.898
		c0.611-1.653,2.325-3.49,4.101-4.409c1.777-0.918,3.001-1.41,6.552-1.41c3.552,0,5.539,0.643,7.532,1.349
		c2.08,0.734,4.714,2.327,4.714,2.327l4.012-4.012l6.46,17.604l-19.533-2.693l3.919-5.328c0,0-1.797-1.244-4.328-1.898
		c-1.243-0.32-1.936-0.337-2.591-0.345c-0.688-0.01-1.247,0.042-2.144,0.285c-0.627,0.168-1.701,1.255-1.975,1.975
		c-0.312,0.815-0.444,2.893-0.106,5.129c0.439,2.921,1.935,5.026,2.695,5.897c1.387,1.592,1.917,2.204,5.448,4.021
		C32.748,33.079,36.803,32.291,36.803,32.291z"/>
	<g opacity="0.25">
		<path d="M41.344,6.604l6.46,17.604l-19.533-2.693l3.919-5.328c0,0-1.797-1.215-4.328-1.87C26.62,13.996,25.926,14,25.271,14
			c-0.052,0-0.104,0-0.155,0c-0.62,0-1.16,0.032-1.989,0.256c-0.627,0.168-1.701,1.241-1.975,1.96
			c-0.312,0.815-0.444,2.885-0.106,5.122c0.439,2.921,1.935,5.023,2.695,5.894c1.387,1.592,1.917,2.202,5.448,4.02
			c1.912,0.982,3.967,1.209,5.459,1.209c1.287,0,2.155-0.17,2.155-0.17l-6.082,6.082c0,0-3.719-0.705-6.307-2.103
			c-0.725-0.444-2.813-1.825-3.705-2.665c-0.972-0.912-1.893-1.963-2.632-2.906c-1.562-1.992-2.909-4.777-3.644-7.043
			c-1.31-4.034-0.612-9.245,0-10.898c0.611-1.653,2.325-3.49,4.101-4.409c1.777-0.918,3.001-1.41,6.552-1.41
			c3.552,0,5.539,0.643,7.532,1.349c2.08,0.734,4.714,2.327,4.714,2.327L41.344,6.604 M41.743,4.79l-1.106,1.107L37.17,9.364
			c-0.944-0.536-2.701-1.483-4.219-2.019c-2.171-0.769-4.263-1.406-7.865-1.406c-3.793,0-5.179,0.575-7.011,1.521
			c-2.003,1.037-3.886,3.072-4.58,4.951c-0.677,1.83-1.404,7.271-0.013,11.554c0.667,2.056,2.017,5.066,3.808,7.351
			c0.609,0.777,1.578,1.933,2.734,3.019c1.045,0.983,3.352,2.473,3.867,2.788l0.023,0.015l0.024,0.013
			c2.694,1.454,6.438,2.175,6.596,2.205l0.52,0.099l0.374-0.374l6.082-6.082l2.313-2.313l-3.21,0.625
			c-0.007,0.001-0.804,0.15-1.965,0.15c-1.306,0-3.233-0.19-5.002-1.1c-3.355-1.728-3.807-2.246-5.146-3.783
			c-0.473-0.542-2.031-2.514-2.465-5.395c-0.331-2.195-0.165-4.056,0.052-4.623c0.183-0.48,1.009-1.239,1.306-1.338
			C24.165,15.012,24.61,15,25.116,15h0.141c0.588,0,1.194-0.015,2.356,0.285c1.3,0.336,2.4,0.831,3.117,1.213l-3.265,4.431
			l-0.996,1.35l1.665,0.228l19.533,2.692l1.648,0.227l-0.573-1.563l-6.46-17.604L41.743,4.79L41.743,4.79z"/>
	</g>
</g>
<g>
	<g>
		<path fill="#FFFFFF" d="M20.223,45.629c0,2.805-1.816,4.852-4.691,4.852c-0.621,0-1.426-0.161-1.978-0.46v5.634h-1.839V41.168
			h3.127C17.739,41.168,20.223,42.432,20.223,45.629z M13.554,42.639v5.864c0.529,0.229,1.311,0.483,1.863,0.483
			c1.885,0,2.966-1.633,2.966-3.381c0-2.093-1.633-2.967-3.542-2.967H13.554z"/>
		<g opacity="0.35">
			<path d="M14.842,41.168c2.897,0,5.381,1.264,5.381,4.461c0,2.805-1.816,4.852-4.691,4.852c-0.621,0-1.426-0.161-1.978-0.46v5.634
				h-1.839V41.168H14.842 M15.417,48.986c1.885,0,2.966-1.633,2.966-3.381c0-2.093-1.633-2.967-3.542-2.967h-1.288v5.864
				C14.083,48.732,14.865,48.986,15.417,48.986 M14.842,40.168h-3.127h-1v1v14.486v1h1h1.839h1v-1v-4.264
				c0.357,0.063,0.696,0.09,0.978,0.09c3.351,0,5.691-2.406,5.691-5.852C21.223,42.261,18.778,40.168,14.842,40.168L14.842,40.168z
				 M14.554,43.639h0.288c1.159,0,2.542,0.341,2.542,1.967c0,1.146-0.615,2.381-1.966,2.381c-0.203,0-0.519-0.066-0.863-0.176
				V43.639L14.554,43.639z"/>
		</g>
	</g>
	<g>
		<path fill="#FFFFFF" d="M27.676,51.93h-3.38l-1.219,3.725h-1.909l3.886-11.819h1.863l3.909,11.819h-1.908L27.676,51.93z
			 M24.64,50.457h2.69l-1.333-4.438L24.64,50.457z"/>
		<g opacity="0.35">
			<path d="M26.917,43.835l3.909,11.819h-1.908l-1.242-3.725h-3.38l-1.219,3.725h-1.909l3.886-11.819H26.917 M24.64,50.457h2.69
				l-1.333-4.438L24.64,50.457 M27.64,42.835h-0.723h-1.863h-0.724l-0.227,0.688l-3.886,11.819l-0.431,1.313h1.381h1.909h0.725
				l0.225-0.689l0.994-3.035h1.935l1.014,3.041l0.228,0.684h0.721h1.908h1.384l-0.435-1.314l-3.909-11.819L27.64,42.835
				L27.64,42.835z"/>
		</g>
	</g>
	<g>
		<path fill="#FFFFFF" d="M32.806,54.826l0.805-1.265c0.161,0.115,0.46,0.322,0.851,0.552c0.438,0.23,0.943,0.461,1.426,0.461
			c1.081,0,1.932-0.713,1.932-1.863c0-0.645-0.506-1.311-1.195-1.748l-2.185-1.311c-0.966-0.598-1.817-1.609-1.817-3.035
			c0-2.023,1.403-3.15,3.496-3.15c1.771,0,2.782,1.195,3.012,1.518l-1.08,0.874c-0.207-0.229-0.92-0.966-1.932-0.966
			c-0.967,0-1.725,0.529-1.725,1.518c0,0.874,0.574,1.518,1.287,1.932l1.979,1.219c1.241,0.736,1.908,1.771,1.908,3.174
			c0,2-1.656,3.288-3.703,3.288C34.484,56.022,33.127,55.057,32.806,54.826z"/>
		<g opacity="0.35">
			<path d="M36.117,43.467c1.771,0,2.782,1.195,3.012,1.518l-1.08,0.874c-0.207-0.229-0.92-0.966-1.932-0.966
				c-0.967,0-1.725,0.529-1.725,1.518c0,0.874,0.574,1.518,1.287,1.932l1.979,1.219c1.241,0.736,1.908,1.771,1.908,3.174
				c0,2-1.656,3.288-3.703,3.288c-1.379,0-2.736-0.966-3.058-1.196l0.805-1.265c0.161,0.115,0.46,0.322,0.851,0.552
				c0.438,0.23,0.943,0.461,1.426,0.461c1.081,0,1.932-0.713,1.932-1.863c0-0.645-0.506-1.311-1.195-1.748l-2.185-1.311
				c-0.966-0.598-1.817-1.609-1.817-3.035C32.621,44.594,34.024,43.467,36.117,43.467 M36.117,42.467
				c-2.731,0-4.496,1.629-4.496,4.15c0,1.568,0.835,2.984,2.291,3.886l2.196,1.317c0.454,0.288,0.71,0.678,0.71,0.891
				c0,0.801-0.713,0.863-0.932,0.863c-0.304,0-0.78-0.251-0.96-0.346c-0.228-0.135-0.488-0.305-0.734-0.48l-0.859-0.614
				l-0.566,0.891l-0.805,1.265l-0.508,0.798l0.769,0.552c1.262,0.905,2.521,1.384,3.641,1.384c2.726,0,4.703-1.804,4.703-4.288
				c0-1.708-0.829-3.104-2.398-4.034l-1.964-1.21c-0.382-0.223-0.812-0.577-0.812-1.08c0-0.128,0-0.518,0.725-0.518
				c0.556,0,1.017,0.444,1.189,0.636l0.635,0.704l0.736-0.597l1.08-0.874l0.731-0.592l-0.546-0.766
				C39.713,44.081,38.445,42.467,36.117,42.467L36.117,42.467z"/>
		</g>
	</g>
	<g>
		<path fill="#FFFFFF" d="M42.189,54.826l0.805-1.265c0.161,0.115,0.46,0.322,0.852,0.552c0.436,0.23,0.942,0.461,1.425,0.461
			c1.081,0,1.932-0.713,1.932-1.863c0-0.645-0.506-1.311-1.196-1.748l-2.184-1.311c-0.966-0.598-1.816-1.609-1.816-3.035
			c0-2.023,1.402-3.15,3.494-3.15c1.771,0,2.783,1.195,3.014,1.518l-1.082,0.874c-0.207-0.229-0.919-0.966-1.932-0.966
			c-0.965,0-1.725,0.529-1.725,1.518c0,0.874,0.576,1.518,1.289,1.932l1.977,1.219c1.242,0.736,1.908,1.771,1.908,3.174
			c0,2-1.654,3.288-3.701,3.288C43.868,56.022,42.512,55.057,42.189,54.826z"/>
		<g opacity="0.35">
			<path d="M45.5,43.467c1.771,0,2.783,1.195,3.014,1.518l-1.082,0.874c-0.207-0.229-0.919-0.966-1.932-0.966
				c-0.965,0-1.725,0.529-1.725,1.518c0,0.874,0.576,1.518,1.289,1.932l1.977,1.219c1.242,0.736,1.908,1.771,1.908,3.174
				c0,2-1.654,3.288-3.701,3.288c-1.38,0-2.736-0.966-3.059-1.196l0.805-1.265c0.161,0.115,0.46,0.322,0.852,0.552
				c0.436,0.23,0.942,0.461,1.425,0.461c1.081,0,1.932-0.713,1.932-1.863c0-0.645-0.506-1.311-1.196-1.748l-2.184-1.311
				c-0.966-0.598-1.816-1.609-1.816-3.035C42.006,44.594,43.408,43.467,45.5,43.467 M45.5,42.467c-2.73,0-4.494,1.629-4.494,4.15
				c0,1.568,0.835,2.985,2.29,3.886l2.195,1.317c0.454,0.288,0.711,0.678,0.711,0.891c0,0.801-0.713,0.863-0.932,0.863
				c-0.306,0-0.779-0.251-0.957-0.345c-0.23-0.136-0.491-0.306-0.737-0.481l-0.859-0.614l-0.566,0.891l-0.805,1.265l-0.509,0.8
				l0.771,0.551c1.266,0.904,2.524,1.383,3.641,1.383c2.724,0,4.701-1.804,4.701-4.288c0-1.733-0.807-3.091-2.398-4.034l-1.962-1.21
				c-0.383-0.223-0.813-0.578-0.813-1.08c0-0.128,0-0.518,0.725-0.518c0.556,0,1.017,0.444,1.189,0.636l0.634,0.703l0.736-0.595
				l1.082-0.874l0.734-0.593l-0.549-0.768C49.096,44.079,47.825,42.467,45.5,42.467L45.5,42.467z"/>
		</g>
	</g>
</g>
</svg>
