<?xml version="1.0" encoding="utf-8"?>
<!-- Generator: Adobe Illustrator 15.1.0, SVG Export Plug-In . SVG Version: 6.00 Build 0)  -->
<!DOCTYPE svg PUBLIC "-//W3C//DTD SVG 1.1//EN" "http://www.w3.org/Graphics/SVG/1.1/DTD/svg11.dtd">
<svg version="1.1" id="Layer_1" xmlns="http://www.w3.org/2000/svg" xmlns:xlink="http://www.w3.org/1999/xlink" x="0px" y="0px"
	 width="60px" height="60px" viewBox="0 0 60 60" enable-background="new 0 0 60 60" xml:space="preserve">
<radialGradient id="SVGID_1_" cx="542" cy="761" r="30" gradientTransform="matrix(1 0 0 1 -512 -731)" gradientUnits="userSpaceOnUse">
	<stop  offset="0" style="stop-color:#00DC00"/>
	<stop  offset="1" style="stop-color:#191919"/>
</radialGradient>
<path fill="url(#SVGID_1_)" d="M60,51.818C60,56.337,56.337,60,51.818,60H8.182C3.663,60,0,56.337,0,51.818V8.182
	C0,3.663,3.663,0,8.182,0h43.636C56.337,0,60,3.663,60,8.182V51.818z"/>
<g display="none">
	<g display="inline">
		<path fill="#EBEBE1" d="M27.652,41.652c0.035,0.91,0.07,1.119,0.07,1.295v12.146h-2.765V37.066h3.43l5.74,12.496
			c-0.034-0.91-0.034-1.119-0.034-1.262V37.066h2.765v18.025h-2.729L27.652,41.652z"/>
		<g opacity="0.35">
			<path d="M36.857,37.066v18.025h-2.73l-6.475-13.439c0.035,0.91,0.07,1.119,0.07,1.295v12.146h-2.765V37.066h3.43l5.74,12.496
				c-0.034-0.91-0.034-1.119-0.034-1.262V37.066H36.857 M38.357,35.566h-1.5h-2.767h-1.5v1.5v5.563l-2.842-6.189l-0.401-0.873
				h-0.962h-3.43h-1.5v1.5v18.026v1.5h1.5h2.765h1.5v-1.5v-6.727l3.552,7.378l0.41,0.849h0.941h2.73h1.5v-1.5V37.066v-1.5H38.357z"
				/>
		</g>
	</g>
</g>
<g display="none">
	<g display="inline">
		<path fill="#EBEBEB" d="M19.689,45.316c0,6.137-1.352,9.775-7.488,9.775c-5.876,0-7.176-3.641-7.176-9.775v-23.66
			c0-1.508,0-1.82-1.977-2.028v-1.976h6.604v1.976c-2.028,0.208-2.028,0.52-2.028,2.028v23.869c0,4.68,0.937,7.072,4.681,7.072
			c3.848,0,4.784-2.395,4.784-7.072V21.656c0-1.508,0-1.82-2.028-2.028v-1.976h6.604v1.976c-1.977,0.208-1.977,0.52-1.977,2.028
			L19.689,45.316L19.689,45.316z"/>
		<g opacity="0.35">
			<path d="M21.666,17.652v1.976c-1.977,0.208-1.977,0.52-1.977,2.028v23.66c0,6.137-1.352,9.775-7.488,9.775
				c-5.876,0-7.176-3.641-7.176-9.775v-23.66c0-1.508,0-1.82-1.977-2.028v-1.976h6.604v1.976c-2.028,0.208-2.028,0.52-2.028,2.028
				v23.869c0,4.68,0.937,7.072,4.681,7.072c3.848,0,4.784-2.395,4.784-7.072V21.656c0-1.508,0-1.82-2.028-2.028v-1.976H21.666
				 M23.166,16.152h-1.5h-6.604h-1.5v1.5v1.976v1.354l1.347,0.138c0.314,0.032,0.531,0.063,0.678,0.09
				c0.003,0.14,0.003,0.301,0.003,0.446v23.869c0,5.197-1.241,5.572-3.284,5.572c-1.921,0-3.181-0.39-3.181-5.572V21.656
				c0-0.146,0-0.306,0.003-0.446c0.147-0.026,0.364-0.058,0.678-0.09l1.347-0.138v-1.354v-1.976v-1.5h-1.5H3.049h-1.5v1.5v1.976
				v1.351l1.343,0.141c0.289,0.03,0.491,0.06,0.631,0.084c0.003,0.142,0.003,0.306,0.003,0.452v23.66
				c0,5.576,1.031,11.275,8.676,11.275c7.92,0,8.988-5.699,8.988-11.275v-23.66c0-0.146,0-0.31,0.003-0.452
				c0.14-0.025,0.342-0.054,0.631-0.084l1.343-0.141v-1.351v-1.976L23.166,16.152L23.166,16.152z"/>
		</g>
	</g>
</g>
<g>
	<path fill="#EBEBEB" d="M20.166,15.745l-5.843,5.844c0,0,0.675,3.573,2.02,6.059c0.425,0.696,1.754,2.703,2.56,3.561
		c0.877,0.934,1.887,1.816,2.792,2.529c1.915,1.502,4.591,2.795,6.768,3.5c3.875,1.26,8.884,0.588,10.472,0s3.353-2.234,4.236-3.939
		c0.882-1.707,1.355-2.884,1.355-6.295c0-3.413-0.619-5.322-1.296-7.237c-0.708-1.997-2.236-4.529-2.236-4.529l3.857-3.854
		L27.931,5.176l2.59,18.768l5.118-3.765c0,0,1.195,1.726,1.824,4.158c0.308,1.194,0.324,1.859,0.332,2.489
		c0.01,0.661-0.04,1.198-0.273,2.06c-0.162,0.603-1.206,1.632-1.898,1.897c-0.782,0.299-2.78,0.426-4.928,0.102
		c-2.807-0.422-4.829-1.859-5.666-2.588c-1.529-1.333-2.119-1.843-3.864-5.235C19.408,19.641,20.166,15.745,20.166,15.745z"/>
	<g opacity="0.25">
		<path d="M27.931,5.176l16.913,6.207l-3.854,3.854c0,0,1.529,2.532,2.235,4.529c0.679,1.917,1.295,3.825,1.295,7.237
			c0,3.411-0.473,4.587-1.354,6.294s-2.647,3.354-4.236,3.939c-0.927,0.344-3.016,0.715-5.366,0.715
			c-1.678,0-3.49-0.189-5.104-0.715c-2.178-0.705-4.854-2-6.768-3.5c-0.909-0.711-1.917-1.594-2.793-2.529
			c-0.806-0.857-2.135-2.863-2.56-3.56c-1.344-2.486-2.02-6.059-2.02-6.059l5.843-5.844c0,0-0.758,3.896,1,7.315
			c1.746,3.393,2.334,3.903,3.866,5.236c0.835,0.729,2.858,2.166,5.664,2.588c0.884,0.133,1.744,0.189,2.504,0.189
			c1.085,0,1.966-0.115,2.424-0.291c0.692-0.266,1.737-1.296,1.899-1.897c0.233-0.863,0.284-1.4,0.274-2.061
			c-0.01-0.63-0.023-1.294-0.332-2.489c-0.63-2.432-1.824-4.158-1.824-4.158l-5.119,3.765L27.931,5.176 M26.561,3.472l0.258,1.857
			l2.588,18.768l0.259,1.875l1.523-1.122l4.107-3.023c0.353,0.678,0.783,1.654,1.078,2.79c0.281,1.097,0.29,1.668,0.297,2.221
			c0.007,0.545-0.024,0.984-0.235,1.753c-0.11,0.277-0.829,0.993-1.213,1.139c-0.212,0.081-0.876,0.218-2.024,0.218
			c-0.756,0-1.563-0.062-2.333-0.177c-2.722-0.41-4.586-1.883-5.092-2.324c-1.467-1.276-1.957-1.706-3.603-4.901
			c-1.563-3.038-0.903-6.551-0.896-6.586l0.704-3.615l-2.604,2.604l-5.843,5.844l-0.421,0.421l0.11,0.584
			c0.028,0.153,0.724,3.776,2.135,6.385l0.015,0.026l0.016,0.026c0.304,0.497,1.74,2.722,2.701,3.744
			c1.045,1.113,2.164,2.053,2.918,2.645c2.212,1.734,5.125,3.039,7.114,3.686c1.57,0.508,3.404,0.77,5.454,0.77
			c2.512,0,4.702-0.395,5.756-0.785c1.84-0.678,3.832-2.521,4.846-4.479c0.919-1.783,1.48-3.131,1.48-6.812
			c0-3.487-0.618-5.511-1.361-7.613c-0.498-1.41-1.363-3.035-1.892-3.969l3.244-3.241l1.245-1.246l-1.656-0.608L28.32,4.119
			L26.561,3.472L26.561,3.472z"/>
	</g>
</g>
<g>
	<g>
		<path fill="#EBEBEB" d="M11.267,55.436c-3.426,0-4.599-2.896-4.599-5.979v-8.853h1.84v8.876c0,1.863,0.368,4.438,2.759,4.438
			c2.438,0,2.759-2.574,2.759-4.461v-8.853h1.84v8.944C15.866,52.563,14.716,55.436,11.267,55.436z"/>
		<g opacity="0.35">
			<path d="M15.866,40.604v8.944c0,3.014-1.15,5.887-4.599,5.887c-3.426,0-4.599-2.896-4.599-5.979v-8.853h1.84v8.876
				c0,1.863,0.368,4.438,2.759,4.438c2.438,0,2.759-2.574,2.759-4.461v-8.853H15.866 M16.866,39.604h-1h-1.84h-1v1v8.853
				c0,3.461-1.233,3.461-1.759,3.461c-0.435,0-1.759,0-1.759-3.438v-8.876v-1h-1h-1.84h-1v1v8.853c0,4.37,2.093,6.979,5.599,6.979
				s5.599-2.574,5.599-6.887v-8.944V39.604L16.866,39.604z"/>
		</g>
	</g>
	<g>
		<path fill="#EBEBEB" d="M20.467,46.262c0.023,0.598,0.046,0.735,0.046,0.85v7.98h-1.816V43.249h2.253l3.771,8.209
			c-0.023-0.598-0.023-0.735-0.023-0.827v-7.382h1.817v11.843h-1.794L20.467,46.262z"/>
		<g opacity="0.35">
			<path d="M26.516,43.249v11.843h-1.794l-4.254-8.83c0.023,0.598,0.046,0.735,0.046,0.85v7.98h-1.816V43.249h2.253l3.771,8.209
				c-0.023-0.598-0.023-0.735-0.023-0.827v-7.382H26.516 M27.516,42.249h-1h-1.817h-1v1v3.587l-1.839-4.004l-0.268-0.583H20.95
				h-2.253h-1v1v11.843v1h1h1.816h1v-1v-4.354l2.307,4.788l0.272,0.566h0.628h1.794h1v-1V43.249V42.249L27.516,42.249z"/>
		</g>
	</g>
	<g>
		<path fill="#EBEBEB" d="M32.841,55.092H31.07V44.813h-2.92v-1.541h7.634v1.541h-2.943V55.092z"/>
		<g opacity="0.35">
			<path d="M35.784,43.271v1.541h-2.943v10.279H31.07V44.813h-2.92v-1.541H35.784 M36.784,42.271h-1H28.15h-1v1v1.541v1h1h1.92
				v9.279v1h1h1.771h1v-1v-9.279h1.943h1v-1v-1.541V42.271L36.784,42.271z"/>
		</g>
	</g>
	<g>
		<path fill="#EBEBEB" d="M41.373,51.366h-3.38l-1.219,3.726h-1.909l3.887-11.82h1.862l3.909,11.82h-1.908L41.373,51.366z
			 M38.338,49.895h2.69l-1.334-4.438L38.338,49.895z"/>
		<g opacity="0.35">
			<path d="M40.614,43.271l3.909,11.82h-1.908l-1.242-3.726h-3.38l-1.219,3.726h-1.909l3.887-11.82H40.614 M38.338,49.895h2.69
				l-1.334-4.438L38.338,49.895 M41.337,42.271h-0.723h-1.862h-0.724l-0.227,0.688l-3.887,11.82l-0.432,1.313h1.382h1.909h0.725
				l0.226-0.689l0.993-3.036h1.935l1.015,3.042l0.228,0.684h0.721h1.908h1.384l-0.435-1.314l-3.909-11.82L41.337,42.271
				L41.337,42.271z"/>
		</g>
	</g>
	<g>
		<path fill="#EBEBEB" d="M49.285,50.952c-0.667,0-1.402-0.345-1.495-0.391v4.53h-1.816v-11.82h2.736
			c3.403,0,4.622,1.794,4.622,3.68c0,1.219-0.437,2.322-1.287,3.059C51.354,50.607,50.412,50.952,49.285,50.952z M47.79,44.697
			v4.461c0,0,0.713,0.346,1.266,0.346c1.563,0,2.46-1.127,2.46-2.576c0-1.287-0.896-2.23-2.806-2.23H47.79z"/>
		<g opacity="0.35">
			<path d="M48.71,43.271c3.403,0,4.622,1.794,4.622,3.68c0,1.219-0.437,2.322-1.287,3.059c-0.69,0.598-1.633,0.942-2.76,0.942
				c-0.667,0-1.402-0.345-1.495-0.391v4.53h-1.816v-11.82H48.71 M49.056,49.504c1.563,0,2.46-1.127,2.46-2.576
				c0-1.287-0.896-2.23-2.806-2.23h-0.92v4.461C47.79,49.158,48.503,49.504,49.056,49.504 M48.71,42.271h-2.736h-1v1v11.82v1h1
				h1.816h1v-1v-3.178c0.161,0.023,0.328,0.038,0.495,0.038c1.337,0,2.518-0.41,3.414-1.187c1.053-0.911,1.633-2.266,1.633-3.814
				C54.332,44.688,52.855,42.271,48.71,42.271L48.71,42.271z M48.79,48.462v-2.764c1.146,0.018,1.726,0.432,1.726,1.229
				c0,0.37-0.105,1.576-1.46,1.576C48.985,48.504,48.892,48.487,48.79,48.462L48.79,48.462z"/>
		</g>
	</g>
</g>
</svg>
