<?xml version="1.0" encoding="utf-8"?><!-- Uploaded to: SVG Repo, www.svgrepo.com, Generator: SVG Repo Mixer Tools -->
<svg width="800px" height="800px" viewBox="0 0 24 24" fill="none" xmlns="http://www.w3.org/2000/svg">
  <rect width="24" height="24"/>
  <path fill-rule="evenodd" clip-rule="evenodd"
        d="M2 5C2 3.34315 3.34315 2 5 2H19C20.6569 2 22 3.34315 22 5V6.17157C22 6.96722 21.6839 7.73028 21.1213 8.29289L15.2929 14.1213C15.1054 14.3089 15 14.5632 15 14.8284V17.1716C15 17.9672 14.6839 18.7303 14.1213 19.2929L11.9193 21.4949C10.842 22.5722 9 21.8092 9 20.2857V14.8284C9 14.5632 8.89464 14.3089 8.70711 14.1213L2.87868 8.29289C2.31607 7.73028 2 6.96722 2 6.17157V5Z"
        fill="#222326"/>
</svg>