<?xml version="1.0" encoding="UTF-8"?>
<svg xmlns="http://www.w3.org/2000/svg" xmlns:xlink="http://www.w3.org/1999/xlink" width="48pt" height="48pt" viewBox="0 0 48 48" version="1.1">
<g id="surface1">
<path style=" stroke:none;fill-rule:nonzero;fill:#000000;fill-opacity:1;" d="M 24 2 C 17.398438 2 12 7.398438 12 14 L 12 16 C 9.789063 16 8 17.789063 8 20 L 8 40 C 8 42.210938 9.789063 44 12 44 L 36 44 C 38.210938 44 40 42.210938 40 40 L 40 20 C 40 17.789063 38.210938 16 36 16 L 36 14 C 36 7.398438 30.601563 2 24 2 Z M 24 6 C 28.4375 6 32 9.5625 32 14 L 32 16 L 16 16 L 16 14 C 16 9.5625 19.554688 6 24 6 Z M 23.9375 19.9375 C 29.929688 19.9375 30 24.398438 30 25.25 C 30 29.71875 25.125 29.96875 25.375 33.875 L 21.875 33.875 C 21.578125 28.632813 26.0625 28.398438 26.0625 25.4375 C 26.0625 23.3125 24.632813 23.125 23.9375 23.125 C 21.859375 23.125 21.757813 25.09375 21.75 25.5 L 17.8125 25.5 C 17.820313 24.554688 18.015625 19.9375 23.9375 19.9375 Z M 23.6875 35.9375 C 25.671875 35.9375 25.875 37.765625 25.875 38.0625 C 25.875 38.351563 25.671875 40.125 23.6875 40.125 C 21.632813 40.125 21.5 38.351563 21.5 38.0625 C 21.5 37.765625 21.671875 35.9375 23.6875 35.9375 Z "/>
</g>
</svg>
