<?xml version="1.0" encoding="UTF-8"?>
<svg xmlns="http://www.w3.org/2000/svg" xmlns:xlink="http://www.w3.org/1999/xlink" width="50pt" height="50pt" viewBox="0 0 50 50" version="1.1">
<g id="surface1">
<path style=" stroke:none;fill-rule:nonzero;fill:#000000;fill-opacity:1;" d="M 26.285156 3.277344 C 25.851563 3.28125 25.449219 3.464844 25.152344 3.769531 L 15.285156 13.640625 C 14.855469 14.050781 14.679688 14.667969 14.835938 15.238281 C 14.984375 15.816406 15.433594 16.265625 16.011719 16.414063 C 16.582031 16.570313 17.199219 16.394531 17.609375 15.964844 L 27.480469 6.097656 C 27.96875 5.621094 28.109375 4.902344 27.84375 4.277344 C 27.582031 3.648438 26.964844 3.25 26.285156 3.277344 Z M 29.605469 8.222656 C 29.160156 8.222656 28.746094 8.402344 28.429688 8.710938 L 20.277344 16.878906 C 19.9375 17.1875 19.738281 17.628906 19.738281 18.09375 C 19.738281 18.582031 19.949219 19.035156 20.320313 19.351563 L 30.074219 29.109375 C 30.382813 29.425781 30.808594 29.605469 31.25 29.605469 C 31.6875 29.605469 32.105469 29.433594 32.414063 29.117188 L 40.625 20.917969 C 40.9375 20.605469 41.117188 20.179688 41.117188 19.738281 C 41.117188 19.292969 40.9375 18.875 40.628906 18.5625 L 30.789063 8.726563 C 30.78125 8.710938 30.773438 8.707031 30.761719 8.699219 C 30.460938 8.398438 30.042969 8.222656 29.605469 8.222656 Z M 44.375 21.363281 C 43.945313 21.375 43.539063 21.554688 43.246094 21.863281 L 33.375 31.730469 C 32.945313 32.144531 32.773438 32.761719 32.925781 33.332031 C 33.074219 33.910156 33.523438 34.359375 34.101563 34.507813 C 34.675781 34.660156 35.292969 34.488281 35.703125 34.058594 L 45.570313 24.1875 C 46.058594 23.714844 46.199219 22.996094 45.9375 22.371094 C 45.671875 21.742188 45.058594 21.34375 44.375 21.363281 Z M 21.863281 25.152344 L 6.207031 38.523438 C 5.402344 39.144531 4.933594 40.101563 4.933594 41.117188 C 4.933594 42.9375 6.40625 44.40625 8.222656 44.40625 C 9.21875 44.40625 10.15625 43.957031 10.78125 43.1875 C 10.789063 43.179688 10.792969 43.175781 10.792969 43.167969 L 10.800781 43.167969 L 24.1875 27.480469 Z "/>
</g>
</svg>
