<?xml version="1.0" encoding="UTF-8"?>
<!DOCTYPE svg PUBLIC "-//W3C//DTD SVG 1.1//EN" "http://www.w3.org/Graphics/SVG/1.1/DTD/svg11.dtd">
<svg version="1.1" xmlns="http://www.w3.org/2000/svg" x="0px" y="0px"
     viewBox="0 0 1000 1000" enable-background="new 0 0 1000 1000" xml:space="preserve">
<metadata> Svg Vector Icons : http://www.onlinewebfonts.com/icon </metadata>
    <g><path d="M586.9,373.6l95.6-84.4c-49.6-39.2-129.4-79.1-198.2-79.1c-134.9,0-248.2,90.5-280.2,212.8L10.6,374.5C64.4,168.3,255.2,15.8,482.5,15.8c126.7,0,258.8,63.7,345.4,141.4l90.8-80.1L990,479.6L586.9,373.6z M317.5,710.8c49.6,39.2,129.4,79.1,198.2,79.1c134.9,0,248.2-90.5,280.2-212.8l193.5,48.5c-53.7,206.2-244.6,358.7-471.9,358.7c-126.7,0-258.8-63.7-345.4-141.4l-90.8,80.1L10,520.4l403.1,106L317.5,710.8z"/></g>
</svg>