<?xml version="1.0" encoding="UTF-8"?>
<svg xmlns="http://www.w3.org/2000/svg" xmlns:xlink="http://www.w3.org/1999/xlink" width="52pt" height="52pt" viewBox="0 0 52 52" version="1.1">
<g id="surface1">
<path style=" stroke:none;fill-rule:nonzero;fill:#000000;fill-opacity:1;" d="M 25.605469 0.125 C 25.605469 0.125 23.265625 3.140625 23.265625 4.433594 C 23.265625 5.316406 23.765625 6.070313 24.5 6.464844 C 23.898438 6.65625 23.375 6.992188 22.960938 7.449219 C 22.011719 6.640625 20.628906 5.910156 18.710938 5.910156 C 16.640625 5.910156 14.863281 6.753906 13.355469 7.507813 C 12.601563 7.886719 11.925781 8.25 11.324219 8.496094 C 10.964844 8.09375 10.425781 7.878906 9.847656 7.878906 C 8.75 7.878906 7.878906 8.75 7.878906 9.847656 C 7.878906 10.949219 8.75 11.816406 9.847656 11.816406 C 10.757813 11.816406 11.519531 11.234375 11.757813 10.402344 C 12.578125 10.078125 13.386719 9.648438 14.21875 9.234375 C 15.671875 8.507813 17.179688 7.878906 18.710938 7.878906 C 20.496094 7.878906 21.519531 8.679688 22.097656 9.355469 C 22.074219 9.519531 22.035156 9.6875 22.035156 9.847656 C 22.035156 11.816406 23.636719 13.417969 25.605469 13.417969 C 27.574219 13.417969 29.175781 11.816406 29.175781 9.847656 C 29.175781 9.6875 29.136719 9.519531 29.113281 9.355469 C 29.691406 8.679688 30.714844 7.878906 32.5 7.878906 C 34.03125 7.878906 35.539063 8.507813 36.992188 9.234375 C 37.824219 9.648438 38.632813 10.078125 39.457031 10.402344 C 39.695313 11.234375 40.457031 11.816406 41.363281 11.816406 C 42.464844 11.816406 43.332031 10.949219 43.332031 9.847656 C 43.332031 8.75 42.464844 7.878906 41.363281 7.878906 C 40.785156 7.878906 40.246094 8.09375 39.886719 8.496094 C 39.285156 8.25 38.609375 7.886719 37.855469 7.507813 C 36.347656 6.753906 34.570313 5.910156 32.5 5.910156 C 30.585938 5.910156 29.199219 6.640625 28.253906 7.449219 C 27.835938 6.992188 27.3125 6.65625 26.714844 6.464844 C 27.445313 6.070313 27.945313 5.316406 27.945313 4.433594 C 27.945313 3.140625 25.605469 0.125 25.605469 0.125 Z M 9.539063 13.234375 C 9.25 13.332031 9.023438 13.558594 8.925781 13.847656 L 2.277344 31.515625 L 0 31.515625 C 1.445313 35.578125 5.285156 38.53125 9.847656 38.53125 C 14.410156 38.53125 18.25 35.578125 19.695313 31.515625 L 17.417969 31.515625 L 10.773438 13.847656 C 10.601563 13.402344 10.132813 13.140625 9.664063 13.234375 C 9.625 13.234375 9.578125 13.234375 9.539063 13.234375 Z M 41.054688 13.234375 C 40.761719 13.332031 40.539063 13.558594 40.441406 13.847656 L 33.792969 31.515625 L 31.515625 31.515625 C 32.960938 35.578125 36.800781 38.53125 41.363281 38.53125 C 45.925781 38.53125 49.765625 35.578125 51.210938 31.515625 L 48.933594 31.515625 L 42.285156 13.847656 C 42.117188 13.402344 41.648438 13.140625 41.179688 13.234375 C 41.140625 13.234375 41.09375 13.234375 41.054688 13.234375 Z M 21.914063 15.757813 C 21.914063 17.082031 22.589844 18.242188 23.636719 18.898438 L 23.636719 41.980469 C 21.429688 42.773438 19.796875 44.816406 19.695313 47.273438 L 15.757813 47.273438 C 14.671875 47.273438 13.789063 48.15625 13.789063 49.242188 L 13.789063 51.210938 L 37.425781 51.210938 L 37.425781 49.242188 C 37.425781 48.15625 36.539063 47.273438 35.453125 47.273438 L 31.515625 47.273438 C 31.414063 44.816406 29.785156 42.773438 27.574219 41.980469 L 27.574219 18.898438 C 28.621094 18.242188 29.300781 17.082031 29.300781 15.757813 Z M 9.847656 17.050781 L 15.328125 31.515625 L 4.371094 31.515625 Z M 41.363281 17.050781 L 46.84375 31.515625 L 35.886719 31.515625 Z "/>
</g>
</svg>
