<?xml version="1.0" encoding="UTF-8"?>
<svg xmlns="http://www.w3.org/2000/svg" xmlns:xlink="http://www.w3.org/1999/xlink" width="520pt" height="520pt" viewBox="0 0 520 520" version="1.1">
<g id="surface1">
<path style=" stroke:none;fill-rule:nonzero;fill:#000000;fill-opacity:1;" d="M 240 0 L 240 45 C 130.078125 55.234375 43.75 147.421875 43.75 260 C 43.75 318.671875 67.03125 371.640625 105 410.625 L 159.375 361.875 C 133.203125 335.859375 116.875 299.765625 116.875 260 C 116.875 187.8125 170.46875 127.96875 240 118.125 L 240 160 L 368.125 80 Z M 415 109.375 L 361.25 158.125 C 387.421875 184.140625 403.125 220.3125 403.125 260 C 403.125 332.265625 349.609375 391.484375 280 401.25 L 280 360 L 151.875 440 L 280 520 L 280 475 C 389.921875 464.765625 476.25 372.578125 476.25 260 C 476.25 201.328125 452.96875 148.359375 415 109.375 Z "/>
</g>
</svg>
