<?xml version="1.0" encoding="UTF-8" standalone="no"?>
<!-- Created with Inkscape (http://www.inkscape.org/) -->
<svg
   xmlns:dc="http://purl.org/dc/elements/1.1/"
   xmlns:cc="http://creativecommons.org/ns#"
   xmlns:rdf="http://www.w3.org/1999/02/22-rdf-syntax-ns#"
   xmlns:svg="http://www.w3.org/2000/svg"
   xmlns="http://www.w3.org/2000/svg"
   xmlns:xlink="http://www.w3.org/1999/xlink"
   xmlns:sodipodi="http://sodipodi.sourceforge.net/DTD/sodipodi-0.dtd"
   xmlns:inkscape="http://www.inkscape.org/namespaces/inkscape"
   width="240"
   height="340"
   id="svg2"
   sodipodi:version="0.32"
   inkscape:version="0.46"
   sodipodi:docname="hintergrund.svg"
   inkscape:output_extension="org.inkscape.output.svg.inkscape"
   version="1.0">
  <defs
     id="defs4">
    <linearGradient
       id="linearGradient3169">
      <stop
         style="stop-color:#0000ff;stop-opacity:1;"
         offset="0"
         id="stop3171" />
      <stop
         style="stop-color:#000067;stop-opacity:1;"
         offset="1"
         id="stop3173" />
    </linearGradient>
    <linearGradient
       id="linearGradient4766">
      <stop
         style="stop-color:#784421;stop-opacity:1;"
         offset="0"
         id="stop4768" />
      <stop
         style="stop-color:#3d2210;stop-opacity:0;"
         offset="1"
         id="stop4770" />
    </linearGradient>
    <linearGradient
       id="linearGradient4758">
      <stop
         style="stop-color:#a05a2c;stop-opacity:1;"
         offset="0"
         id="stop4760" />
      <stop
         style="stop-color:#3d2210;stop-opacity:1;"
         offset="1"
         id="stop4762" />
    </linearGradient>
    <inkscape:perspective
       sodipodi:type="inkscape:persp3d"
       inkscape:vp_x="0 : 526.18109 : 1"
       inkscape:vp_y="0 : 1000 : 0"
       inkscape:vp_z="744.09448 : 526.18109 : 1"
       inkscape:persp3d-origin="372.04724 : 350.78739 : 1"
       id="perspective10" />
    <inkscape:perspective
       id="perspective2484"
       inkscape:persp3d-origin="372.04724 : 350.78739 : 1"
       inkscape:vp_z="744.09448 : 526.18109 : 1"
       inkscape:vp_y="0 : 1000 : 0"
       inkscape:vp_x="0 : 526.18109 : 1"
       sodipodi:type="inkscape:persp3d" />
    <linearGradient
       inkscape:collect="always"
       xlink:href="#linearGradient4758"
       id="linearGradient4764"
       x1="466.09601"
       y1="485.96021"
       x2="715.14801"
       y2="485.96021"
       gradientUnits="userSpaceOnUse" />
    <linearGradient
       inkscape:collect="always"
       xlink:href="#linearGradient4766"
       id="linearGradient4772"
       x1="496.548"
       y1="485.26816"
       x2="683.31201"
       y2="485.26816"
       gradientUnits="userSpaceOnUse" />
    <linearGradient
       inkscape:collect="always"
       xlink:href="#linearGradient4766"
       id="linearGradient2396"
       gradientUnits="userSpaceOnUse"
       x1="661.24402"
       y1="602.90814"
       x2="431.5"
       y2="201.5482"
       gradientTransform="matrix(0.9650128,0,0,0.9948433,-449.70565,-312.80927)" />
    <linearGradient
       inkscape:collect="always"
       xlink:href="#linearGradient4758"
       id="linearGradient2399"
       gradientUnits="userSpaceOnUse"
       x1="590.62201"
       y1="434.7522"
       x2="698.54004"
       y2="517.79218"
       gradientTransform="matrix(0.9650128,0,0,0.9948433,-449.70565,-312.80927)" />
    <filter
       inkscape:collect="always"
       id="filter3287">
      <feGaussianBlur
         inkscape:collect="always"
         stdDeviation="0.88403668"
         id="feGaussianBlur3289" />
    </filter>
    <radialGradient
       inkscape:collect="always"
       xlink:href="#linearGradient3169"
       id="radialGradient3175"
       cx="120.07376"
       cy="56.138123"
       fx="120.07376"
       fy="56.138123"
       r="82.790039"
       gradientTransform="matrix(1,0,0,0.2116376,0,44.257186)"
       gradientUnits="userSpaceOnUse" />
  </defs>
  <sodipodi:namedview
     id="base"
     pagecolor="#ffffff"
     bordercolor="#666666"
     borderopacity="1.0"
     inkscape:pageopacity="0.0"
     inkscape:pageshadow="2"
     inkscape:zoom="1.0399859"
     inkscape:cx="50.250719"
     inkscape:cy="191.87768"
     inkscape:document-units="px"
     inkscape:current-layer="layer1"
     showgrid="false"
     inkscape:window-width="1280"
     inkscape:window-height="725"
     inkscape:window-x="0"
     inkscape:window-y="25" />
  <metadata
     id="metadata7">
    <rdf:RDF>
      <cc:Work
         rdf:about="">
        <dc:format>image/svg+xml</dc:format>
        <dc:type
           rdf:resource="http://purl.org/dc/dcmitype/StillImage" />
      </cc:Work>
    </rdf:RDF>
  </metadata>
  <g
     inkscape:label="Ebene 1"
     inkscape:groupmode="layer"
     id="layer1">
    <rect
       style="fill:url(#linearGradient2399);fill-opacity:1;fill-rule:nonzero;stroke:#000000;stroke-width:19.59629059;stroke-linejoin:round;stroke-miterlimit:4;stroke-dasharray:none;stroke-opacity:1"
       id="rect2490"
       width="221.03812"
       height="321.49753"
       x="9.7330923"
       y="9.8962135" />
    <rect
       style="fill:url(#linearGradient2396);fill-opacity:1;stroke:#000000;stroke-width:1.95962906;stroke-linejoin:miter;stroke-miterlimit:4;stroke-dasharray:none;stroke-opacity:1"
       id="rect3302"
       width="178.29964"
       height="277.43793"
       x="30.434542"
       y="31.237556" />
    <path
       sodipodi:type="arc"
       style="fill:#a05a2c;stroke:#000000;stroke-width:2.00029749999999984;stroke-linejoin:round;stroke-miterlimit:4;stroke-dasharray:none;stroke-opacity:1;stroke-dashoffset:0;opacity:0.39208955000000001;filter:url(#filter3287)"
       id="path3304"
       sodipodi:cx="589.58398"
       sodipodi:cy="489.76617"
       sodipodi:rx="71.968002"
       sodipodi:ry="128.71201"
       d="M 661.55199,489.76617 A 71.968002,128.71201 0 1 1 517.61598,489.76617 A 71.968002,128.71201 0 1 1 661.55199,489.76617 z"
       transform="matrix(1.1399786,0,0,1.0181427,-552.19487,-329.3838)" />
    <path
       style="font-size:40px;font-style:normal;font-variant:normal;font-weight:normal;font-stretch:normal;text-align:start;line-height:125%;writing-mode:lr-tb;text-anchor:start;fill:url(#radialGradient3175);fill-opacity:1;stroke:#000000;stroke-width:1px;stroke-linecap:butt;stroke-linejoin:miter;stroke-opacity:1;font-family:'Magic:the Gathering';-inkscape-font-specification:'Magic:the Gathering'"
       d="M 37.822781,52.681091 C 37.796739,52.251418 37.783718,51.838007 37.783718,51.440857 C 37.783718,48.771604 38.44778,46.558065 39.775906,44.800232 C 41.325381,42.775516 43.125509,41.32044 45.176296,40.434998 C 47.233578,39.556119 48.809097,39.116666 49.902859,39.116638 C 51.289564,39.116666 52.422375,39.357551 53.301296,39.839294 C 54.154144,40.347134 55.020029,40.988409 55.898952,41.763123 C 56.777839,42.531376 57.432136,42.91549 57.861843,42.915466 C 57.939948,42.91549 58.29802,42.690881 58.936062,42.241638 C 59.580571,41.811976 60.101404,41.450648 60.498562,41.157654 C 60.843591,41.15768 61.110517,41.424606 61.299343,41.958435 L 55.781765,46.636169 C 55.703622,46.584106 55.303232,46.183716 54.580593,45.434998 C 53.857921,44.718874 53.177583,44.080854 52.539577,43.520935 C 51.901542,42.987105 51.126803,42.479293 50.215359,41.997498 C 49.310399,41.515752 48.431494,41.274867 47.57864,41.274841 C 46.510923,41.274867 45.498554,41.984502 44.541531,43.403748 C 43.551941,44.842572 42.790223,46.47994 42.256374,48.315857 C 41.807151,49.81327 41.582542,51.027461 41.582546,51.958435 C 41.582542,52.173294 41.595563,52.375116 41.621609,52.563904 C 42.155458,56.2423 43.529155,59.321724 45.742702,61.802185 C 47.930192,64.282656 50.475762,65.52289 53.379421,65.522888 C 53.783051,65.52289 55.075367,64.907656 57.256374,63.677185 C 59.313644,62.557398 60.514815,61.997502 60.85989,61.997498 C 60.885908,61.997502 60.91195,61.997502 60.938015,61.997498 C 60.937992,62.824325 60.951012,64.012474 60.977077,65.561951 C 60.977054,67.104919 60.951012,68.758563 60.898952,70.522888 C 60.820804,72.280695 60.687341,73.159601 60.498562,73.159607 L 59.463406,73.159607 C 59.489425,71.961685 59.502446,70.454525 59.502468,68.638123 C 59.502446,66.854268 59.434087,65.962342 59.29739,65.962341 C 59.245285,65.962342 58.750494,66.069764 57.813015,66.284607 C 56.882006,66.492941 55.885913,66.665467 54.824734,66.802185 C 53.730968,66.932393 52.396333,66.997497 50.820827,66.997498 C 47.194516,66.997497 44.248555,66.09255 41.982937,64.282654 C 40.99335,63.455834 40.111189,62.056096 39.336452,60.083435 C 38.542181,58.136829 38.037624,55.669384 37.822781,52.681091 M 62.773952,56.997498 C 62.904161,55.317822 63.649603,54.064568 65.010281,53.237732 C 66.370954,52.436965 68.265484,51.678502 70.693874,50.962341 C 70.960793,50.877722 71.22772,50.835404 71.494656,50.835388 C 72.054542,50.835404 72.666521,50.981888 73.330593,51.274841 C 74.320165,51.730586 75.212091,52.410924 76.006374,53.315857 C 76.7811,54.25337 77.288912,55.45454 77.529812,56.919373 C 77.607922,57.34907 77.646985,57.775501 77.646999,58.198669 C 77.646985,59.318469 77.422375,60.493598 76.973171,61.72406 C 76.70623,62.492294 76.104017,63.315861 75.166531,64.194763 C 74.23553,65.106223 73.236182,65.8419 72.168484,66.401794 C 71.185403,66.909607 70.306497,67.163513 69.531765,67.163513 C 69.453633,67.163513 69.372253,67.163513 69.287624,67.163513 C 66.331892,66.948669 64.264837,65.640077 63.086452,63.237732 C 62.767442,62.651799 62.607937,61.584091 62.607937,60.034607 C 62.607937,59.18175 62.663276,58.169381 62.773952,56.997498 M 68.369656,52.876404 C 67.035016,53.38423 66.117048,54.517041 65.615749,56.274841 C 65.50507,56.652456 65.449731,57.082143 65.449734,57.563904 C 65.449731,58.039173 65.50507,58.582792 65.615749,59.194763 C 65.82408,60.399197 66.396996,61.561305 67.334499,62.681091 C 68.239442,63.800886 69.583842,64.601667 71.367702,65.083435 C 72.650245,65.083437 73.411963,64.630963 73.652859,63.726013 C 73.893733,62.814559 74.014176,61.212998 74.014187,58.921326 C 74.014176,57.638783 73.67889,56.492951 73.008327,55.483826 C 72.344256,54.494255 71.559751,53.745558 70.654812,53.237732 C 70.036315,52.918736 69.502461,52.75923 69.053249,52.759216 C 68.812358,52.75923 68.584494,52.798293 68.369656,52.876404 M 78.633327,60.483826 C 78.633327,57.977324 79.287624,55.776806 80.596218,53.882263 C 81.878767,52.013789 83.786317,51.079545 86.318874,51.079529 C 87.119647,51.079545 88.213396,51.333451 89.600124,51.841248 C 90.954279,52.349075 91.631361,53.003371 91.631374,53.804138 C 91.631361,54.038526 91.393731,54.357536 90.918484,54.761169 C 90.410659,55.184358 89.997248,55.503368 89.678249,55.718201 C 89.678238,55.718212 89.678238,55.718212 89.678249,55.718201 C 89.678238,55.666129 89.372249,55.347119 88.760281,54.761169 C 88.089698,54.123161 87.419126,53.576287 86.748562,53.120544 C 86.084492,52.66483 85.433451,52.436965 84.795437,52.436951 C 83.968608,52.436965 83.301291,53.052199 82.793484,54.282654 C 82.259626,55.532665 81.992699,56.864044 81.992702,58.276794 C 81.992699,60.197374 82.500511,61.811956 83.51614,63.120544 C 84.505717,64.455182 85.986836,65.122499 87.959499,65.122498 C 88.59751,65.122499 89.342952,64.696067 90.195827,63.843201 C 91.04868,62.99034 91.488132,62.563908 91.514187,62.563904 C 91.650892,62.563908 91.797377,62.642033 91.95364,62.798279 C 92.090345,62.987085 92.158704,63.120548 92.158718,63.198669 C 92.158704,63.276798 91.797377,63.664167 91.074734,64.360779 C 90.358576,65.076926 89.518733,65.714947 88.555202,66.274841 C 87.572121,66.834737 86.572773,67.114685 85.557156,67.114685 C 83.102724,67.114685 81.341658,66.489685 80.273952,65.239685 C 79.180202,63.983178 78.633327,62.397893 78.633327,60.483826 M 99.814968,39.956482 C 99.841004,40.171352 99.854025,41.704554 99.854031,44.556091 C 99.827983,47.440225 99.801942,50.334103 99.775906,53.237732 C 99.749858,55.184358 99.736838,56.532013 99.736843,57.280701 C 99.736838,57.651804 99.736838,57.863392 99.736843,57.915466 C 101.97642,56.502716 103.66913,55.412223 104.81497,54.643982 C 105.93475,53.895297 106.68345,53.413527 107.06106,53.198669 C 108.0962,52.534621 108.82863,52.082148 109.25833,51.841248 C 109.60336,51.626419 109.90935,51.518997 110.1763,51.518982 C 110.20232,51.518997 110.22836,51.518997 110.25442,51.518982 C 110.49529,51.571081 110.77524,51.824987 111.09426,52.280701 C 109.94842,53.029412 108.52264,53.976677 106.81692,55.122498 C 105.11118,56.268342 104.25832,56.919383 104.25833,57.075623 C 104.25832,57.075632 104.25832,57.075632 104.25833,57.075623 C 104.4992,57.290476 104.83123,57.651804 105.25442,58.159607 C 105.6841,58.693469 106.00636,59.334745 106.22122,60.083435 C 106.37746,60.558702 106.81691,61.398545 107.53958,62.602966 C 108.22967,63.800886 108.76352,64.507266 109.14114,64.722107 C 109.40805,64.878359 109.61964,64.956484 109.77591,64.956482 C 109.82797,64.956484 109.88331,64.943463 109.94192,64.917419 C 110.09816,64.839297 110.33579,64.614687 110.65481,64.243591 C 110.94776,63.86599 111.25375,63.638126 111.57278,63.559998 C 111.60532,63.560001 111.63461,63.560001 111.66067,63.559998 C 111.79086,63.560001 111.93735,63.612084 112.10012,63.716248 C 112.23031,63.852969 112.29542,63.973412 112.29544,64.077576 C 112.29542,64.10362 112.29542,64.129662 112.29544,64.155701 C 112.21729,64.800234 111.48487,65.480572 110.09817,66.196716 C 109.16717,66.678487 108.36639,66.919373 107.69583,66.919373 C 107.35076,66.919373 107.03175,66.854268 106.7388,66.72406 C 106.47186,66.613383 105.61899,65.265728 104.1802,62.681091 C 102.74139,60.122504 101.95363,58.830188 101.81692,58.804138 C 101.62811,58.745553 101.45559,58.716256 101.29934,58.716248 C 100.68736,58.716256 100.28697,59.051542 100.09817,59.722107 C 99.883322,60.522895 99.7759,61.574326 99.775906,62.876404 C 99.7759,63.013126 99.7759,63.159611 99.775906,63.315857 C 99.7759,63.823673 99.7759,64.26638 99.775906,64.643982 C 99.7759,65.360129 99.762879,65.77354 99.736843,65.884216 C 99.417828,66.118592 98.939312,66.39854 98.301296,66.72406 C 97.708845,67.04307 97.188012,67.202575 96.738796,67.202576 C 96.712752,67.202575 96.686711,67.202575 96.660671,67.202576 C 96.660669,58.081491 96.660669,52.707147 96.660671,51.079529 C 96.660669,50.278764 96.660669,49.598426 96.660671,49.038513 C 96.634627,48.452594 96.634627,47.9871 96.660671,47.642029 C 96.686711,46.997517 96.699731,46.437622 96.699734,45.962341 C 96.699731,45.721477 96.699731,45.493613 96.699734,45.278748 C 96.67369,44.692832 96.647648,44.171999 96.621609,43.716248 C 96.621606,43.319136 96.445825,43.000126 96.094265,42.759216 C 95.749211,42.518355 95.257675,42.225387 94.619656,41.88031 C 94.163927,41.63945 93.936062,41.466924 93.936062,41.362732 C 93.936062,41.336716 93.975125,41.323695 94.053249,41.323669 C 94.189968,41.291143 94.844264,41.102341 96.01614,40.757263 C 97.188012,40.412238 98.109235,40.145311 98.779812,39.956482 C 99.098817,39.878384 99.336447,39.839322 99.492702,39.839294 C 99.681499,39.839322 99.788921,39.878384 99.814968,39.956482 M 113.83841,54.839294 C 113.73424,54.624463 113.68216,54.409619 113.68216,54.194763 C 113.68216,53.745558 113.9621,53.319126 114.522,52.915466 C 115.32278,52.355585 116.41653,51.890091 117.80325,51.518982 C 119.16392,51.173946 120.30975,51.00142 121.24075,51.001404 C 122.30845,51.00142 123.63006,51.346471 125.20559,52.03656 C 126.77459,52.75923 127.55909,53.599073 127.55911,54.556091 L 127.55911,62.280701 C 127.58514,62.547632 127.67954,62.905705 127.84231,63.354919 C 128.00506,63.836693 128.28501,64.185 128.68216,64.399841 C 129.4048,64.718854 129.99073,64.930442 130.43997,65.034607 C 130.86964,65.171327 131.11052,65.265728 131.16262,65.31781 C 131.21469,65.369895 131.24073,65.490338 131.24075,65.679138 C 131.24073,65.893983 130.92172,66.186951 130.28372,66.558044 C 129.63917,66.96169 129.1574,67.163513 128.83841,67.163513 C 127.61443,67.163513 126.69647,67.017029 126.0845,66.72406 C 125.43996,66.457133 124.86704,66.095806 124.36575,65.640076 C 123.83188,65.184348 123.43149,64.956484 123.16458,64.956482 C 122.84556,64.956484 122.41913,65.184348 121.88528,65.640076 C 121.32538,66.095806 120.75246,66.470154 120.16653,66.763123 C 119.54803,67.082133 118.66587,67.241638 117.52005,67.241638 C 116.0552,67.241638 115.01679,67.039815 114.40481,66.636169 C 113.76028,66.265076 113.43801,65.640077 113.43801,64.761169 C 113.43801,63.641381 113.99791,62.655054 115.1177,61.802185 C 116.23749,60.975368 117.3052,60.402452 118.32083,60.083435 C 119.09556,59.790473 119.90936,59.481229 120.76223,59.155701 C 121.58905,58.836698 122.24009,58.504667 122.71536,58.159607 C 123.19712,57.814564 123.438,57.414174 123.43801,56.958435 C 123.438,55.708446 122.99855,54.738395 122.11966,54.048279 C 121.24074,53.351678 120.3065,53.003371 119.31692,53.003357 C 119.13462,53.003371 118.73749,53.120558 118.12551,53.354919 C 117.48098,53.62186 117.15871,53.836703 117.15872,53.999451 C 117.15871,54.214307 117.36054,54.386833 117.76419,54.517029 C 118.13528,54.65376 118.32082,54.826286 118.32083,55.034607 C 118.32082,55.197379 118.01483,55.425243 117.40286,55.718201 C 116.94713,55.933055 116.48163,56.040477 116.00637,56.040466 C 115.84361,56.040477 115.66783,56.027456 115.47903,56.001404 C 114.81497,55.92329 114.26809,55.53592 113.83841,54.839294 M 123.16458,59.438904 C 121.82993,59.946723 120.56366,60.574978 119.36575,61.323669 C 118.13528,62.091903 117.52004,62.755965 117.52005,63.315857 C 117.52004,64.305443 117.92043,64.933697 118.72122,65.200623 C 118.9621,65.278749 119.216,65.317812 119.48294,65.31781 C 120.06887,65.317812 120.72316,65.076926 121.44583,64.595154 C 122.37681,63.957136 122.96274,63.091251 123.20364,61.997498 C 123.3078,61.48969 123.35988,61.024196 123.35989,60.601013 C 123.35988,60.145291 123.29478,59.757921 123.16458,59.438904 M 131.53372,52.397888 L 137.9302,48.237732 C 138.119,48.504677 138.22642,48.852984 138.25247,49.282654 C 138.2785,49.73189 138.29152,50.145301 138.29153,50.522888 C 138.29152,50.574988 138.29152,50.61405 138.29153,50.640076 C 138.29152,50.93306 138.36965,51.118607 138.52591,51.196716 C 138.74074,51.248815 139.07603,51.274857 139.53176,51.274841 C 139.98749,51.274857 140.5604,51.248815 141.25051,51.196716 C 141.83644,51.17069 142.42238,51.15767 143.00833,51.157654 C 143.8091,51.15767 144.60988,51.183711 145.41067,51.235779 C 145.41066,51.294388 145.49204,51.522253 145.65481,51.919373 C 145.70688,52.108189 145.73292,52.280715 145.73294,52.436951 C 145.75896,52.599725 145.73292,52.74621 145.65481,52.876404 C 145.51808,53.143345 145.13071,53.289829 144.4927,53.315857 C 142.03826,53.374464 140.50506,53.403761 139.89309,53.403748 C 139.24855,53.403761 138.7147,53.403761 138.29153,53.403748 C 138.10272,53.612094 138.00832,54.318474 138.00833,55.522888 C 138.00832,56.720815 138.00832,58.052194 138.00833,59.517029 C 138.00832,60.903754 138.03436,61.890081 138.08645,62.476013 C 138.14504,63.094507 138.3729,63.69672 138.77005,64.282654 C 139.14113,64.868593 139.79543,65.308046 140.73294,65.601013 C 141.24074,65.757264 141.71925,65.835389 142.16848,65.835388 C 142.51352,65.835389 142.84881,65.783306 143.17434,65.679138 C 143.86443,65.490338 144.42433,65.317812 144.85403,65.16156 C 144.98423,65.109479 145.10467,65.083437 145.21536,65.083435 C 145.44972,65.083437 145.60922,65.187603 145.69387,65.395935 C 145.69386,65.421978 145.69386,65.451275 145.69387,65.483826 C 145.69386,65.718202 145.21209,66.050233 144.24856,66.479919 C 143.18084,66.96169 142.20754,67.306742 141.32864,67.515076 C 140.71665,67.651794 140.13071,67.720153 139.57083,67.720154 C 138.69191,67.720153 137.86509,67.560648 137.09036,67.241638 C 135.8078,66.733826 134.8996,65.851665 134.36575,64.595154 C 134.36575,63.026147 134.35273,61.014431 134.32669,58.559998 C 134.30064,56.131623 134.26158,54.826286 134.2095,54.643982 C 134.13137,54.292432 133.75702,53.944125 133.08645,53.59906 C 132.39635,53.254022 131.87877,52.853631 131.53372,52.397888 M 153.28176,53.843201 C 153.38592,53.843214 154.10533,53.39074 155.43997,52.485779 C 156.77459,51.574336 157.60142,51.118607 157.92044,51.118591 C 157.94647,51.118607 157.97251,51.118607 157.99856,51.118591 C 158.21339,51.118607 158.66912,51.226029 159.36575,51.440857 C 160.10792,51.681758 160.52133,51.922643 160.60598,52.163513 C 160.39113,52.586705 160.1242,53.117303 159.8052,53.75531 C 159.45363,54.399854 159.1867,54.73514 159.00442,54.761169 C 158.94582,54.761182 158.89048,54.761182 158.83841,54.761169 C 158.57147,54.761182 158.22641,54.57238 157.80325,54.194763 C 157.29543,53.771599 156.77459,53.533969 156.24075,53.481873 C 156.24074,53.481886 156.24074,53.481886 156.24075,53.481873 C 156.0259,53.481886 155.43996,53.826938 154.48294,54.517029 C 153.46731,55.265738 152.95949,55.69217 152.9595,55.796326 L 152.9595,65.356873 C 152.90741,65.597759 152.41587,66.01117 151.48489,66.597107 C 150.6841,67.104919 150.05585,67.358825 149.60012,67.358826 C 149.522,67.358825 149.45689,67.345804 149.40481,67.319763 C 149.16392,67.26768 149.03046,66.587342 149.00442,65.278748 C 149.00442,64.855573 149.00442,64.364037 149.00442,63.804138 C 149.00442,62.67784 149.01744,61.291123 149.04348,59.643982 C 149.06952,58.654407 149.08254,57.827585 149.08255,57.163513 C 149.08254,56.173941 149.0565,55.558707 149.00442,55.31781 C 148.8677,54.543083 148.63984,54.051547 148.32083,53.843201 C 148.00182,53.654412 147.57538,53.46561 147.04153,53.276794 C 146.5858,53.1466 146.35794,52.948032 146.35794,52.681091 C 146.35794,52.655064 146.35794,52.629022 146.35794,52.602966 C 146.38398,52.518345 146.46536,52.449986 146.60208,52.397888 C 146.73229,52.345819 146.94387,52.306757 147.23684,52.280701 C 147.52981,52.254674 147.90416,52.215611 148.35989,52.163513 C 149.26484,52.000768 150.10468,51.798945 150.87942,51.558044 C 151.4914,51.369258 151.93085,51.274857 152.19778,51.274841 C 152.25637,51.274857 152.31171,51.274857 152.3638,51.274841 C 152.70884,51.333451 152.88137,51.561315 152.88137,51.958435 C 152.85533,52.362095 152.82928,52.762486 152.80325,53.159607 C 152.80324,53.185662 152.80324,53.211704 152.80325,53.237732 C 152.80324,53.582797 152.96275,53.78462 153.28176,53.843201 M 166.35794,44.438904 C 166.6509,43.716271 166.86249,43.182417 166.9927,42.837341 C 167.10337,42.492314 167.22382,42.238408 167.35403,42.075623 C 167.49074,41.945439 167.75767,41.828252 168.15481,41.72406 C 168.5259,41.63945 168.96535,41.584111 169.47317,41.558044 C 169.58384,41.55807 169.69126,41.55807 169.79544,41.558044 C 170.30324,41.55807 170.59621,41.730596 170.67434,42.075623 C 170.67433,42.134241 170.67433,42.18958 170.67434,42.241638 C 170.67433,42.638798 170.47577,43.117313 170.07864,43.677185 C 169.6229,44.347781 169.04999,44.949993 168.35989,45.483826 C 167.66327,46.01119 166.99595,46.31718 166.35794,46.401794 C 165.98033,46.239055 165.76549,46.07955 165.71341,45.923279 C 165.7134,45.897258 165.7134,45.867961 165.71341,45.835388 C 165.7134,45.705201 165.78176,45.532675 165.91848,45.31781 C 166.07473,45.050905 166.22121,44.757936 166.35794,44.438904 M 161.71926,50.962341 C 162.51354,50.747514 163.56497,50.467566 164.87356,50.122498 C 166.15611,49.770952 167.09035,49.58215 167.6763,49.556091 C 167.70233,49.556109 167.72837,49.556109 167.75442,49.556091 C 168.07343,49.556109 168.30129,49.66353 168.43801,49.878357 C 168.51613,50.067176 168.5552,50.334103 168.5552,50.679138 C 168.5552,50.757279 168.5552,50.838659 168.5552,50.923279 C 168.50311,51.398555 168.47707,51.756627 168.47708,51.997498 L 168.47708,63.843201 C 168.84816,63.843204 169.369,63.641381 170.03958,63.237732 C 170.54087,62.944767 170.89894,62.798283 171.1138,62.798279 C 171.16587,62.798283 171.20493,62.811304 171.23098,62.837341 C 171.39373,62.948022 171.47511,63.068465 171.47512,63.198669 C 171.47511,63.543725 170.91522,63.996198 169.79544,64.556091 C 169.42434,64.770937 168.87746,65.132265 168.15481,65.640076 C 167.40611,66.173931 166.72577,66.600362 166.1138,66.919373 C 166.00963,67.023539 165.8371,67.11794 165.59622,67.202576 C 165.51809,67.228617 165.43671,67.241638 165.35208,67.241638 C 165.19582,67.241638 165.04934,67.160258 164.91262,66.997498 C 164.86054,66.919373 164.8345,64.067813 164.8345,58.44281 C 164.8345,57.856882 164.8345,57.241648 164.8345,56.597107 C 164.8345,55.959097 164.80845,55.360139 164.75637,54.800232 C 164.67825,54.26639 164.54478,53.839959 164.35598,53.520935 C 164.14114,53.117303 163.87421,52.811314 163.5552,52.602966 C 163.21015,52.414179 162.84882,52.225377 162.47122,52.03656 C 162.07408,51.880325 161.82343,51.72082 161.71926,51.558044 C 161.66067,51.505977 161.63137,51.427852 161.63137,51.323669 C 161.60533,51.213008 161.63463,51.092565 161.71926,50.962341 M 172.6177,60.483826 C 172.6177,57.977324 173.272,55.776806 174.58059,53.882263 C 175.86314,52.013789 177.77069,51.079545 180.30325,51.079529 C 181.10402,51.079545 182.19777,51.333451 183.5845,51.841248 C 184.93865,52.349075 185.61574,53.003371 185.61575,53.804138 C 185.61574,54.038526 185.37811,54.357536 184.90286,54.761169 C 184.39503,55.184358 183.98162,55.503368 183.66262,55.718201 C 183.66261,55.718212 183.66261,55.718212 183.66262,55.718201 C 183.66261,55.666129 183.35662,55.347119 182.74466,54.761169 C 182.07407,54.123161 181.4035,53.576287 180.73294,53.120544 C 180.06887,52.66483 179.41783,52.436965 178.77981,52.436951 C 177.95298,52.436965 177.28567,53.052199 176.77786,54.282654 C 176.244,55.532665 175.97707,56.864044 175.97708,58.276794 C 175.97707,60.197374 176.48489,61.811956 177.50051,63.120544 C 178.49009,64.455182 179.97121,65.122499 181.94387,65.122498 C 182.58189,65.122499 183.32733,64.696067 184.1802,63.843201 C 185.03305,62.99034 185.47251,62.563908 185.49856,62.563904 C 185.63527,62.563908 185.78175,62.642033 185.93801,62.798279 C 186.07472,62.987085 186.14308,63.120548 186.14309,63.198669 C 186.14308,63.276798 185.78175,63.664167 185.05911,64.360779 C 184.34295,65.076926 183.50311,65.714947 182.53958,66.274841 C 181.5565,66.834737 180.55715,67.114685 179.54153,67.114685 C 177.0871,67.114685 175.32603,66.489685 174.25833,65.239685 C 173.16458,63.983178 172.6177,62.397893 172.6177,60.483826 M 188.79934,59.243591 C 188.98814,56.281362 189.74986,54.240349 191.0845,53.120544 C 192.38658,52.000768 194.10533,51.440872 196.24075,51.440857 C 196.9634,51.440872 197.54933,51.548294 197.99856,51.763123 C 198.45428,51.997512 198.94907,52.342564 199.48294,52.798279 C 200.01678,53.254022 200.37485,53.481886 200.55716,53.481873 C 200.5897,53.481886 200.79152,53.387485 201.16262,53.198669 C 201.50766,53.009881 201.77459,52.91548 201.96341,52.915466 C 202.23032,52.91548 202.36378,53.104282 202.3638,53.481873 C 202.36378,53.533969 201.69647,53.94738 200.36184,54.722107 C 199.82798,55.015088 198.78957,55.532665 197.24661,56.274841 C 195.69712,57.049591 194.46991,57.729929 193.56497,58.315857 C 192.65351,58.934355 192.19778,59.455187 192.19778,59.878357 C 192.19778,61.369248 192.65351,62.635523 193.56497,63.677185 C 194.44387,64.744896 195.6841,65.278749 197.28567,65.278748 C 198.00181,65.278749 198.81235,64.933697 199.71731,64.243591 C 200.60272,63.573022 201.13657,63.237736 201.31887,63.237732 C 201.48162,63.237736 201.60206,63.306095 201.6802,63.44281 C 201.75831,63.573022 201.81365,63.693464 201.84622,63.804138 C 201.63136,64.038516 201.39048,64.302188 201.12356,64.595154 C 200.85662,64.888125 200.41717,65.343853 199.8052,65.962341 C 199.29738,66.229269 198.52264,66.548279 197.48098,66.919373 C 196.43931,67.316508 195.5604,67.515075 194.84426,67.515076 C 193.85468,67.515075 192.86835,67.209086 191.88528,66.597107 C 190.89569,66.01117 190.10794,65.080182 189.522,63.804138 C 189.01419,62.736434 188.76028,61.479925 188.76028,60.034607 C 188.76028,59.774197 188.7733,59.510526 188.79934,59.243591 M 194.84426,52.837341 C 194.04348,52.837355 193.44127,53.423292 193.03762,54.595154 C 192.64048,55.799592 192.38983,56.802195 192.28567,57.602966 C 192.65676,57.51834 193.54869,57.11795 194.96145,56.401794 C 196.3742,55.679149 197.08058,55.265738 197.08059,55.16156 C 197.08058,54.946728 196.74855,54.507276 196.0845,53.843201 C 195.41392,53.172642 195.00051,52.837355 194.84426,52.837341"
       id="text2395" />
  </g>
</svg>
