<?xml version="1.0" encoding="UTF-8" standalone="no"?>
<!-- Created with Inkscape (http://www.inkscape.org/) -->

<svg
   xmlns:dc="http://purl.org/dc/elements/1.1/"
   xmlns:cc="http://creativecommons.org/ns#"
   xmlns:rdf="http://www.w3.org/1999/02/22-rdf-syntax-ns#"
   xmlns:svg="http://www.w3.org/2000/svg"
   xmlns="http://www.w3.org/2000/svg"
   xmlns:xlink="http://www.w3.org/1999/xlink"
   xmlns:sodipodi="http://sodipodi.sourceforge.net/DTD/sodipodi-0.dtd"
   xmlns:inkscape="http://www.inkscape.org/namespaces/inkscape"
   width="300"
   height="300"
   id="svg2"
   sodipodi:version="0.32"
   inkscape:version="0.48.5 r10040"
   version="1.0"
   sodipodi:docname="cockatrice_new_square_white_large.svg"
   inkscape:output_extension="org.inkscape.output.svg.inkscape"
   inkscape:export-filename="C:\Users\Matt\Documents\GitHub\Cockatrice\cockatrice\resources\cockatrice_new_square_white_large.png"
   inkscape:export-xdpi="90"
   inkscape:export-ydpi="90">
  <defs
     id="defs4">
    <linearGradient
       id="linearGradient4265">
      <stop
         style="stop-color:#c9fd62;stop-opacity:1;"
         offset="0"
         id="stop4267" />
      <stop
         style="stop-color:#139740;stop-opacity:1;"
         offset="1"
         id="stop4269" />
    </linearGradient>
    <linearGradient
       id="linearGradient4009">
      <stop
         style="stop-color:#ffffff;stop-opacity:1;"
         offset="0"
         id="stop4011" />
      <stop
         style="stop-color:#ffffff;stop-opacity:0;"
         offset="1"
         id="stop4013" />
    </linearGradient>
    <linearGradient
       id="linearGradient3999">
      <stop
         style="stop-color:#0e5d0c;stop-opacity:1;"
         offset="0"
         id="stop4001" />
      <stop
         style="stop-color:#fbe432;stop-opacity:0;"
         offset="1"
         id="stop4003" />
    </linearGradient>
    <linearGradient
       inkscape:collect="always"
       xlink:href="#linearGradient3999"
       id="linearGradient4005"
       x1="151.90253"
       y1="22.857647"
       x2="149.76308"
       y2="362.14203"
       gradientUnits="userSpaceOnUse" />
    <linearGradient
       inkscape:collect="always"
       xlink:href="#linearGradient4009"
       id="linearGradient4015"
       x1="146.73463"
       y1="13.08154"
       x2="146.34395"
       y2="70.021851"
       gradientUnits="userSpaceOnUse" />
    <filter
       style="color-interpolation-filters:sRGB;"
       inkscape:label="Drop Shadow"
       id="filter4089">
      <feFlood
         flood-opacity="0.5"
         flood-color="rgb(0,0,0)"
         result="flood"
         id="feFlood4091" />
      <feComposite
         in="flood"
         in2="SourceGraphic"
         operator="in"
         result="composite1"
         id="feComposite4093" />
      <feGaussianBlur
         in="composite"
         stdDeviation="8"
         result="blur"
         id="feGaussianBlur4095" />
      <feOffset
         dx="-10"
         dy="10"
         result="offset"
         id="feOffset4097" />
      <feComposite
         in="SourceGraphic"
         in2="offset"
         operator="over"
         result="composite2"
         id="feComposite4099" />
    </filter>
    <linearGradient
       inkscape:collect="always"
       xlink:href="#linearGradient4265-7-8"
       id="linearGradient5515"
       x1="-11.132094"
       y1="-102.87244"
       x2="162.79993"
       y2="297.84183"
       gradientUnits="userSpaceOnUse" />
    <clipPath
       clipPathUnits="userSpaceOnUse"
       id="clipPath3022">
      <rect
         style="fill:#ff0000;fill-opacity:1;fill-rule:nonzero;stroke:#ffffff;stroke-width:1.06475067;stroke-opacity:0"
         id="rect3024"
         width="299.22098"
         height="299.93524"
         x="0.38951334"
         y="-0.32475936" />
    </clipPath>
    <linearGradient
       inkscape:collect="always"
       xlink:href="#linearGradient4265-7"
       id="linearGradient5515-1"
       x1="-11.132094"
       y1="-102.87244"
       x2="162.79993"
       y2="297.84183"
       gradientUnits="userSpaceOnUse" />
    <linearGradient
       id="linearGradient4265-7">
      <stop
         style="stop-color:#c9fd62;stop-opacity:1;"
         offset="0"
         id="stop4267-4" />
      <stop
         style="stop-color:#139740;stop-opacity:1;"
         offset="1"
         id="stop4269-0" />
    </linearGradient>
    <linearGradient
       gradientTransform="translate(397.38305,2.5330303)"
       y2="297.84183"
       x2="162.79993"
       y1="-102.87244"
       x1="-11.132094"
       gradientUnits="userSpaceOnUse"
       id="linearGradient3026-4"
       xlink:href="#linearGradient4265-7-8"
       inkscape:collect="always" />
    <linearGradient
       id="linearGradient4265-7-8">
      <stop
         style="stop-color:#c9fd62;stop-opacity:1;"
         offset="0"
         id="stop4267-4-8" />
      <stop
         style="stop-color:#139740;stop-opacity:1;"
         offset="1"
         id="stop4269-0-2" />
    </linearGradient>
    <clipPath
       clipPathUnits="userSpaceOnUse"
       id="clipPath3864">
      <path
         style="fill:#ffffff;fill-opacity:1;stroke:#000000;stroke-width:0.84560776;stroke-opacity:0"
         d="m 59.64507,382.98154 c -1.169795,-7.35231 -4.456654,-14.87105 -7.572259,-17.32181 -3.142017,-2.4715 -7.931525,-2.26067 -11.20432,0.4932 -3.363934,2.83053 -4.401884,4.77531 -5.555592,10.40919 l -0.938137,4.58114 -2.012305,-2.82605 c -2.970547,-4.17173 -2.737962,-9.41106 0.687113,-15.48 3.214349,-5.69548 3.393283,-7.34524 0.796831,-7.34659 -8.971765,-0.007 -44.962302,-1.99898 -54.753093,-3.03401 -62.19206,-6.57462 -92.358408,-26.49326 -93.218288,-61.55152 -0.23124,-9.42809 0.7269,-11.54923 9.50004,-21.03126 6.492684,-7.01725 10.087284,-9.20047 4.27323,-2.59534 -1.91622,2.17693 -4.67058,6.44424 -6.12079,9.48289 -2.60729,5.46308 -2.62651,5.60066 -1.72098,12.31984 1.20487,8.94034 3.60941,14.96245 8.675184,21.7268 10.43607,13.93535 30.355238,23.52865 56.734322,27.32398 8.573807,1.23355 35.4070043,1.84249 35.4070043,0.8035 0,-0.26925 -1.845373,-2.64751 -4.1008063,-5.28504 -23.782846,-27.81156 -26.942558,-64.54816 -7.668252,-89.15595 11.4755603,-14.65104 28.7588126,-23.42814 52.130731,-26.47408 2.43284,-0.31707 4.223611,-0.89966 3.979478,-1.29467 -0.24412,-0.39502 -3.887881,-2.49695 -8.097223,-4.67099 -25.9567737,-13.40615 -49.317212,-34.60835 -66.498273,-60.35458 -6.697673,-10.03667 -18.575957,-33.86874 -23.315978,-46.78027 -5.24991,-14.300351 -10.089289,-30.996729 -12.804763,-44.177572 -2.272298,-11.029774 -4.082902,-16.722117 -6.055544,-19.037775 -1.709961,-2.007311 -1.379727,-2.52057 1.031837,-1.603702 3.361818,1.278163 7.132624,1.038759 7.132624,-0.452827 0,-0.702645 -1.71235,-4.524191 -3.805257,-8.492327 -2.098001,-3.977884 -3.805213,-8.370411 -3.805213,-9.790548 l 0,-2.575748 2.638187,2.219892 c 1.450994,1.22094 3.697048,2.76744 4.991202,3.436678 3.711537,1.919315 3.721107,-0.205396 0.03511,-7.827343 -5.09995,-10.5460664 -7.088464,-19.1573744 -5.42485,-23.4926637 0.400059,-1.042589 0.873731,-0.431919 1.750091,2.2562483 3.952987,12.125713 20.708791,39.6733214 31.273539,51.4156104 6.055442,6.730419 42.6258983,37.297521 60.692601,50.7294 19.142154,14.231427 27.628058,28.423837 37.564525,62.825587 9.783386,33.87179 15.237761,45.08637 23.638722,48.60305 4.15248,1.73827 7.42044,0.63818 12.56886,-4.23098 7.42959,-7.0266 10.359102,-16.6886 8.68658,-28.64958 -1.16826,-8.35459 -2.52124,-12.81919 -9.43698,-31.14004 -3.24786,-8.60405 -6.85065,-18.87818 -8.0062,-22.83139 -2.61537,-8.94734 -3.43132,-19.8819 -2.03555,-27.279112 1.61721,-8.570798 1.53061,-15.156777 -0.23469,-17.850962 -1.77426,-2.70785 -1.39603,-4.337676 1.99767,-8.608078 2.89034,-3.637057 3.00961,-4.554809 1.11154,-8.554687 l -1.39184,-2.933089 3.08306,-2.541317 c 2.26477,-1.866843 3.08304,-3.197615 3.08304,-5.014137 0,-3.170127 3.65911,-7.245204 14.830922,-16.51694 8.67674,-7.201036 13.93039,-13.290028 13.90682,-16.11806 -0.0261,-3.111699 -1.2988,-3.929731 -5.39607,-3.467897 -2.14098,0.241312 -3.89266,0.09651 -3.89266,-0.321606 0,-1.116286 7.678,-5.7967574 9.50921,-5.7967574 2.51983,0 6.28062,2.309999 8.23944,5.0608864 3.49581,4.90946 6.78896,2.572536 6.75537,-4.7938934 -0.0235,-5.140521 -2.30362,-10.217398 -5.97723,-13.3085333 l -2.85398,-2.401491 5.51786,0.351363 c 9.53505,0.607138 14.45127,6.4050803 14.6491,17.2764073 0.0542,2.9768094 0.35682,5.4153784 0.67251,5.4190494 0.31571,0.0041 1.89514,-1.239317 3.5099,-2.762202 4.59163,-4.3304934 5.7917,-11.72938941 3.39114,-20.9081297 l -0.55288,-2.1140123 1.91054,1.6892163 c 3.78721,3.348476 4.66042,6.2234203 4.67929,15.4058713 0.014,6.9688824 0.3022,8.9714784 1.48926,10.3586894 0.80936,0.945821 2.03124,1.719671 2.71531,1.719671 3.4488,0 6.93236,-7.675375 7.96731,-17.55447241 l 0.5971,-5.69972699 1.9083,2.959634 c 2.35791,3.656881 2.02666,6.820628 -1.54856,14.7890824 -1.39748,3.114728 -2.54088,5.817923 -2.54088,6.007125 0,0.189205 1.43742,0.34398 3.19428,0.34398 4.13842,0 6.49576,-1.723686 9.04033,-6.610294 1.136,-2.181588 2.07963,-3.2801384 2.10134,-2.4463134 0.0625,2.3991224 -3.15927,8.0493704 -6.9092,12.1175854 -1.8953,2.056168 -3.23918,3.945283 -2.98641,4.198071 0.50146,0.501454 7.76611,-0.748833 10.14638,-1.746259 1.96172,-0.822027 1.87675,0.519378 -0.20025,3.159711 -1.22868,1.562013 -2.9891,2.368876 -6.55347,3.00367 -10.79105,1.921839 -11.73888,3.653571 -6.12098,11.183263 2.90246,3.890166 5.81918,10.710472 5.93009,13.866574 0.0573,1.630649 5.31628,6.839569 14.34358,14.207064 10.53866,8.600953 16.49109,14.581578 17.6887,17.772551 0.48006,1.27898 0.73471,2.325411 0.56587,2.325411 -0.16874,0 -2.77778,-1.156239 -5.79768,-2.569411 -7.98569,-3.736957 -14.19314,-4.691707 -22.69074,-3.489988 -3.82716,0.541228 -7.08304,1.108641 -7.23532,1.260907 -0.56148,0.561494 3.26172,10.661073 6.40237,16.912756 2.89281,5.75827 3.07927,6.49483 1.75082,6.91646 -1.18885,0.37733 -1.36907,1.01711 -0.89939,3.19327 0.73876,3.42307 0.15068,10.75472 -0.86268,10.75472 -0.41825,0 -0.76047,-0.88324 -0.76047,-1.96274 0,-1.07949 -2.1724,-6.31168 -4.82755,-11.62709 -4.08479,-8.17738 -5.88599,-10.73778 -11.70631,-16.640647 -3.78329,-3.836938 -7.37367,-6.976266 -7.97862,-6.976266 -1.10001,0 -0.98015,3.807824 0.52291,16.612323 0.46319,3.94588 0.34019,4.40513 -1.32097,4.93237 -2.15481,0.68391 -5.42274,-1.13726 -8.51375,-4.74453 -2.67642,-3.123439 -7.49798,-4.092733 -10.51743,-2.11428 -1.1957,0.78344 -2.74001,3.19071 -3.59969,5.61118 -1.64779,4.63946 -3.07507,5.56584 -6.54362,4.24708 -8.45613,-3.21502 -8.56333,1.28946 -0.40598,17.05817 0.88977,1.7199 1.61776,4.06714 1.61776,5.21607 0,1.48091 0.87397,2.6291 3.00279,3.94474 4.09733,2.53231 5.74457,5.26285 5.21169,8.63919 -0.38154,2.41765 0.0771,3.27447 3.79607,7.09259 4.5302,4.65091 5.98039,8.45153 4.69197,12.29665 -0.66525,1.98535 -0.34444,2.67832 2.60587,5.62863 l 3.3645,3.3645 0.29066,8.87788 c 0.27501,8.40017 0.43397,9.07555 2.95429,12.55196 1.465,2.02074 3.02283,3.67408 3.46184,3.67408 0.43903,0 3.79102,-3.99549 7.44884,-8.87886 12.24744,-16.35093 31.07226,-33.346 51.44762,-46.44699 12.40406,-7.97564 35.70355,-19.62975 65.20161,-32.61307 44.52508,-19.597245 66.6966,-32.012685 81.38975,-45.575971 6.90038,-6.369728 -0.69305,5.114618 -9.86394,14.918354 -6.45263,6.897875 -19.26358,16.798287 -31.21499,24.123217 -9.34037,5.72466 -16.36104,9.34086 -54.26333,27.94999 -40.50053,19.88488 -58.95744,31.87616 -76.9503,49.9938 -9.73607,9.80365 -15.97195,17.87709 -23.26112,30.11564 -3.02855,5.08493 -6.6442,10.47171 -8.0348,11.97066 -3.42683,3.69381 -3.696,9.00583 -0.74907,14.78234 1.97147,3.86439 1.97388,3.99393 0.0642,3.49454 -4.21212,-1.10148 -5.15404,7.56882 -1.58697,14.60805 4.017,7.9272 6.50828,8.09133 6.50828,0.42878 0,-6.83182 2.01483,-12.11646 5.98809,-15.70606 3.90631,-3.52912 6.19348,-3.74609 9.65565,-0.91594 l 2.53683,2.07377 -3.96092,-0.14526 c -7.11384,-0.26114 -9.72799,4.37701 -8.85412,15.70932 0.28598,3.70815 0.69197,6.91419 0.90228,7.12448 0.21029,0.21028 3.44009,-0.79684 7.17731,-2.23805 9.15537,-3.53068 14.48116,-3.57489 17.90742,-0.14868 1.35948,1.35949 2.47177,2.88159 2.47177,3.38245 0,1.15028 0.0608,1.15541 -4.22803,-0.35777 -10.62675,-3.74933 -18.57742,0.36729 -24.11302,12.48503 -2.19384,4.80232 -4.33521,15.74445 -3.50475,17.90861 0.72551,1.89065 4.47938,3.12769 9.49267,3.12822 3.12793,3.2e-4 8.14657,-1.39985 18.60336,-5.19018 7.87591,-2.85485 17.78919,-6.09256 22.02949,-7.19485 23.60597,-6.13667 44.42201,-1.51723 47.67969,10.58087 2.42995,9.02421 -9.97346,27.72235 -23.70819,35.74004 -9.59289,5.59993 -25.72741,9.84575 -42.25122,11.11853 -3.48813,0.26865 -16.61617,0.87627 -29.17346,1.35024 -34.0606,1.28557 -48.36137,3.17344 -63.32521,8.3596 -7.740562,2.68277 -17.430292,7.3593 -17.430292,8.41241 0,0.38372 0.93119,1.12198 2.06931,1.64053 1.13812,0.51856 2.69123,1.89202 3.45135,3.05213 1.1851,1.8087 1.24319,2.77824 0.40759,6.80338 -0.53598,2.58172 -1.23542,4.69407 -1.55427,4.69407 -0.31885,0 -1.07681,-1.59262 -1.68431,-3.53915 C 82.531878,365.1821 72.475009,360.61978 61.7356,364.71612 l -2.341103,0.89297 2.55249,4.52279 c 3.153496,5.58764 3.4997,12.12383 0.870562,16.43592 -0.921581,1.51152 -1.785708,2.74821 -1.920211,2.74821 -0.13463,0 -0.698151,-2.85044 -1.252465,-6.33437 l 0,0 z m 81.50343,-77.28266 c 4.89388,-2.37938 9.81768,-4.32617 10.94178,-4.32617 2.08757,0 2.73394,-1.16488 1.17945,-2.12558 -0.47538,-0.29382 -2.40438,-2.61885 -4.28664,-5.16677 -4.9313,-6.67527 -5.71156,-6.79643 -16.10482,-2.50055 -4.81976,1.99216 -10.47559,4.48166 -12.56848,5.53215 -3.65866,1.83645 -8.45605,5.6944 -8.45605,6.80021 0,0.29248 2.18801,1.42511 4.86225,2.51699 2.67424,1.09187 5.62326,2.51978 6.55344,3.1731 2.78182,1.95395 8.31756,0.74538 17.87907,-3.90338 l 0,0 z m -13.65106,-19.11844 c 4.18578,-1.20941 11.12314,-3.89847 15.41637,-5.97571 8.95805,-4.33422 10.37467,-6.15198 10.37467,-13.31208 0,-5.37077 -2.20346,-9.28405 -6.70942,-11.91568 l -2.89846,-1.69278 -1.7495,2.41902 c -5.48534,7.58445 -7.37045,9.69811 -11.91362,13.35816 -2.75749,2.22149 -7.49675,5.51442 -10.53166,7.3176 -3.03495,1.8032 -7.97999,5.09108 -10.98903,7.30641 -4.80677,3.53886 -5.26872,4.11399 -3.80523,4.7372 2.88035,1.22648 14.88616,0.0461 22.80588,-2.24214 l 0,0 z"
         id="path3866"
         inkscape:connector-curvature="0"
         clip-path="url(#clipPath3022)"
         inkscape:export-xdpi="90"
         inkscape:export-ydpi="90"
         inkscape:export-filename="C:\Users\Matt\Documents\GitHub\Cockatrice\cockatrice\resources\cockatrice_new_square_white_large.png"
         transform="translate(512.14734,15.192898)" />
    </clipPath>
  </defs>
  <sodipodi:namedview
     id="base"
     pagecolor="#ffffff"
     bordercolor="#666666"
     borderopacity="1.0"
     inkscape:pageopacity="0.0"
     inkscape:pageshadow="2"
     inkscape:zoom="1.979899"
     inkscape:cx="153.11143"
     inkscape:cy="128.10578"
     inkscape:document-units="px"
     inkscape:current-layer="layer4"
     width="765px"
     height="1260px"
     inkscape:window-width="1920"
     inkscape:window-height="1028"
     inkscape:window-x="-8"
     inkscape:window-y="-8"
     showgrid="false"
     inkscape:window-maximized="1" />
  <metadata
     id="metadata7">
    <rdf:RDF>
      <cc:Work
         rdf:about="">
        <dc:format>image/svg+xml</dc:format>
        <dc:type
           rdf:resource="http://purl.org/dc/dcmitype/StillImage" />
        <dc:title></dc:title>
      </cc:Work>
    </rdf:RDF>
  </metadata>
  <g
     inkscape:groupmode="layer"
     id="layer4"
     inkscape:label="box2"
     style="display:inline">
    <rect
       style="fill:url(#linearGradient5515);fill-opacity:1.0;fill-rule:nonzero;stroke:#552200;stroke-width:1.00012469000000000;stroke-opacity:0"
       id="rect3179"
       width="300.07477"
       height="300"
       x="0.082253754"
       y="-0.015305815"
       rx="50.012463"
       ry="50" />
  </g>
  <g
     inkscape:groupmode="layer"
     id="layer5"
     inkscape:label="box3"
     style="display:inline">
    <rect
       style="fill:#ffffff;fill-opacity:1;fill-rule:nonzero;stroke:#552200;stroke-width:1.00012469;stroke-opacity:0;display:inline"
       id="rect3179-9-4"
       width="300.07477"
       height="300"
       x="512.6474"
       y="13.66238"
       rx="50.012463"
       ry="50"
       clip-path="url(#clipPath3864)"
       transform="matrix(1.0003117,0,0,0.99967536,-512.79464,-13.58311)"
       inkscape:export-filename="C:\Users\Matt\Documents\GitHub\Cockatrice\cockatrice\resources\cockatrice_new_square_white_large.png"
       inkscape:export-xdpi="90"
       inkscape:export-ydpi="90" />
  </g>
  <g
     inkscape:label="Button"
     inkscape:groupmode="layer"
     id="layer1"
     style="display:none"
     sodipodi:insensitive="true">
    <path
       sodipodi:type="arc"
       style="fill:url(#linearGradient4005);fill-opacity:1;fill-rule:evenodd;stroke:#000000;stroke-width:1px;stroke-linecap:butt;stroke-linejoin:miter;stroke-opacity:0;filter:url(#filter4089)"
       id="path3221"
       sodipodi:cx="150.35715"
       sodipodi:cy="149.64285"
       sodipodi:rx="149.64285"
       sodipodi:ry="149.64285"
       d="m 300,149.64285 a 149.64285,149.64285 0 1 1 -299.28570557,0 149.64285,149.64285 0 1 1 299.28570557,0 z"
       transform="matrix(1.0015936,0,0,1.0000039,-0.00173336,0.71369073)" />
    <path
       sodipodi:type="arc"
       style="fill:url(#linearGradient4015);fill-opacity:1;stroke:#000000;stroke-opacity:0"
       id="path4007"
       sodipodi:cx="149.28572"
       sodipodi:cy="63.57143"
       sodipodi:rx="63.57143"
       sodipodi:ry="37.142857"
       d="m 212.85715,63.57143 a 63.57143,37.142857 0 1 1 -127.142859,0 63.57143,37.142857 0 1 1 127.142859,0 z"
       transform="matrix(1.7575395,0,0,2.3083681,-112.20297,-59.060263)" />
  </g>
  <g
     inkscape:groupmode="layer"
     id="layer3"
     inkscape:label="c"
     style="display:none"
     sodipodi:insensitive="true">
    <g
       id="layer1-2"
       inkscape:label="Ebene 1"
       transform="matrix(7.6581652,0,0,7.6581652,1681.0722,-1177.5586)">
      <path
         style="font-size:40px;font-style:normal;font-variant:normal;font-weight:normal;font-stretch:normal;text-align:start;line-height:125%;writing-mode:lr-tb;text-anchor:start;fill:#ffffff;fill-opacity:1;stroke:#ffffff;stroke-width:1px;stroke-linecap:butt;stroke-linejoin:miter;stroke-opacity:1;font-family:'Magic:the Gathering';-inkscape-font-specification:'Magic:the Gathering'"
         d="m -148.03125,80.96875 c -6.0579,-0.03504 -11.91131,4.711237 -11.8125,12.84375 l 0.0631,1.151808 c 0.62231,7.603432 4.13029,13.291242 12.93687,13.160692 2.52613,-0.004 5.68576,-0.29706 8.46875,-1.03125 0.35724,2.42974 0.1825,4.6184 0.1875,7.21875 l 1.28125,0 c 0.24505,-3.68777 0.0109,-7.26047 0.1875,-11.1875 l -0.0937,0 c -2.97137,1.06406 -5.15714,3.00998 -9.375,2.90625 -10.48573,-0.17175 -15.74858,-17.5421 -3.84375,-22.28125 4.78342,-1.58919 6.63867,1.44949 8.40625,4.34375 l 7.15625,-6.8125 c -6.03654,5.13181 -3.71384,4.85286 -5.71875,2.84375 -2.29826,-2.126353 -5.09016,-3.140321 -7.84375,-3.15625 z"
         transform="translate(-53.051416,77.162831)"
         id="text2395"
         inkscape:connector-curvature="0"
         sodipodi:nodetypes="scccccccccccccs" />
    </g>
  </g>
  <g
     inkscape:groupmode="layer"
     id="layer2"
     inkscape:label="cock"
     style="display:inline" />
</svg>
