<?xml version="1.0" encoding="UTF-8" standalone="no"?>
<!-- Created with Inkscape (http://www.inkscape.org/) -->

<svg
   xmlns:dc="http://purl.org/dc/elements/1.1/"
   xmlns:cc="http://creativecommons.org/ns#"
   xmlns:rdf="http://www.w3.org/1999/02/22-rdf-syntax-ns#"
   xmlns:svg="http://www.w3.org/2000/svg"
   xmlns="http://www.w3.org/2000/svg"
   xmlns:xlink="http://www.w3.org/1999/xlink"
   xmlns:sodipodi="http://sodipodi.sourceforge.net/DTD/sodipodi-0.dtd"
   xmlns:inkscape="http://www.inkscape.org/namespaces/inkscape"
   version="1.0"
   width="300"
   height="300"
   id="svg2"
   inkscape:version="0.91 r13725"
   sodipodi:docname="cockatrice.svg">
  <sodipodi:namedview
     pagecolor="#ffffff"
     bordercolor="#666666"
     borderopacity="1"
     objecttolerance="10"
     gridtolerance="10"
     guidetolerance="10"
     inkscape:pageopacity="0"
     inkscape:pageshadow="2"
     inkscape:window-width="1280"
     inkscape:window-height="961"
     id="namedview40"
     showgrid="false"
     inkscape:zoom="1.5733333"
     inkscape:cx="126.08352"
     inkscape:cy="197.97347"
     inkscape:window-x="-8"
     inkscape:window-y="-8"
     inkscape:window-maximized="1"
     inkscape:current-layer="g3026" />
  <defs
     id="defs4">
    <linearGradient
       id="linearGradient4009">
      <stop
         id="stop4011"
         style="stop-color:#ffffff;stop-opacity:1"
         offset="0" />
      <stop
         id="stop4013"
         style="stop-color:#ffffff;stop-opacity:0"
         offset="1" />
    </linearGradient>
    <linearGradient
       id="linearGradient3999">
      <stop
         id="stop4001"
         style="stop-color:#0e5d0c;stop-opacity:1"
         offset="0" />
      <stop
         id="stop4003"
         style="stop-color:#fbe432;stop-opacity:0"
         offset="1" />
    </linearGradient>
    <linearGradient
       x1="151.90253"
       y1="22.857647"
       x2="149.76308"
       y2="362.14203"
       id="linearGradient4005"
       xlink:href="#linearGradient3999"
       gradientUnits="userSpaceOnUse" />
    <linearGradient
       x1="146.73463"
       y1="13.08154"
       x2="146.34395"
       y2="70.021851"
       id="linearGradient4015"
       xlink:href="#linearGradient4009"
       gradientUnits="userSpaceOnUse" />
    <filter
       color-interpolation-filters="sRGB"
       id="filter4089">
      <feFlood
         flood-opacity="0.5"
         flood-color="rgb(0,0,0)"
         result="flood"
         id="feFlood4091" />
      <feComposite
         in2="SourceGraphic"
         operator="in"
         in="flood"
         result="composite1"
         id="feComposite4093" />
      <feGaussianBlur
         stdDeviation="8"
         result="blur"
         id="feGaussianBlur4095" />
      <feOffset
         dx="-10"
         dy="10"
         result="offset"
         id="feOffset4097" />
      <feComposite
         in2="offset"
         operator="over"
         in="SourceGraphic"
         result="composite2"
         id="feComposite4099" />
    </filter>
    <linearGradient
       id="linearGradient4265-7-8">
      <stop
         id="stop4267-4-8"
         style="stop-color:#c9fd62;stop-opacity:1"
         offset="0" />
      <stop
         id="stop4269-0-2"
         style="stop-color:#139740;stop-opacity:1"
         offset="1" />
    </linearGradient>
    <linearGradient
       x1="-11.132094"
       y1="-102.87244"
       x2="162.79993"
       y2="297.84183"
       id="linearGradient3020"
       xlink:href="#linearGradient4265-7-8"
       gradientUnits="userSpaceOnUse"
       gradientTransform="matrix(0.98056945,0,0,0.98063364,2.8185026,3.1345497)" />
    <filter
       id="filter4089-5"
       inkscape:label="Drop Shadow"
       style="color-interpolation-filters:sRGB;">
      <feFlood
         id="feFlood4091-5"
         result="flood"
         flood-color="rgb(0,0,0)"
         flood-opacity="0.5" />
      <feComposite
         id="feComposite4093-1"
         result="composite1"
         operator="in"
         in2="SourceGraphic"
         in="flood" />
      <feGaussianBlur
         id="feGaussianBlur4095-7"
         result="blur"
         stdDeviation="8"
         in="composite" />
      <feOffset
         id="feOffset4097-1"
         result="offset"
         dy="10"
         dx="-10" />
      <feComposite
         id="feComposite4099-1"
         result="composite2"
         operator="over"
         in2="offset"
         in="SourceGraphic" />
    </filter>
    <filter
       id="filter4089-4"
       inkscape:label="Drop Shadow"
       style="color-interpolation-filters:sRGB;">
      <feFlood
         id="feFlood4091-3"
         result="flood"
         flood-color="rgb(0,0,0)"
         flood-opacity="0.5" />
      <feComposite
         id="feComposite4093-12"
         result="composite1"
         operator="in"
         in2="SourceGraphic"
         in="flood" />
      <feGaussianBlur
         id="feGaussianBlur4095-3"
         result="blur"
         stdDeviation="8"
         in="composite" />
      <feOffset
         id="feOffset4097-3"
         result="offset"
         dy="10"
         dx="-10" />
      <feComposite
         id="feComposite4099-4"
         result="composite2"
         operator="over"
         in2="offset"
         in="SourceGraphic" />
    </filter>
  </defs>
  <metadata
     id="metadata7">
    <rdf:RDF>
      <cc:Work
         rdf:about="">
        <dc:format>image/svg+xml</dc:format>
        <dc:type
           rdf:resource="http://purl.org/dc/dcmitype/StillImage" />
        <dc:title></dc:title>
      </cc:Work>
    </rdf:RDF>
  </metadata>
  <g
     id="g3026">
    <g
       transform="matrix(0.99103064,0,0,0.98943856,1.2668213,1.9022887)"
       id="layer4"
       style="display:inline"
       clip-path="none"
       inkscape:export-xdpi="91.459999"
       inkscape:export-ydpi="91.459999">
      <path
         style="fill:url(#linearGradient3020);fill-opacity:1;fill-rule:nonzero;stroke:#552200;stroke-width:0.9807238;stroke-opacity:0"
         d="M 145.9375 270.70508 C 144.96853 270.55463 143.84316 270.71753 142.36328 271.16602 C 140.8834 271.6145 139.04978 272.34788 136.66406 273.33398 C 132.23863 275.16314 127.0447 277.44952 125.12305 278.41406 C 123.44338 279.25716 121.5016 280.56385 119.98047 281.78711 C 119.2199 282.39874 118.56505 282.98902 118.09961 283.49023 C 117.63416 283.99145 117.35938 284.40241 117.35938 284.65625 C 117.35938 284.92479 119.36878 285.9662 121.82422 286.96875 C 124.27966 287.97128 126.98578 289.28099 127.83984 289.88086 C 128.4784 290.32938 129.27517 290.59812 130.24805 290.67969 C 131.22092 290.76125 132.37115 290.65664 133.71484 290.36328 C 135.05853 290.06992 136.59666 289.5864 138.34766 288.91016 C 140.09865 288.23391 142.06106 287.36398 144.25586 286.29688 C 146.5026 285.20452 148.75719 284.21215 150.57812 283.49219 C 152.39906 282.77222 153.78666 282.32617 154.30273 282.32617 C 155.26112 282.32617 155.89006 282.05734 156.09961 281.67969 C 156.20439 281.49086 156.20302 281.2751 156.08789 281.05078 C 155.97276 280.82646 155.74354 280.59357 155.38672 280.37305 C 154.95023 280.10327 153.17942 277.96836 151.45117 275.62891 C 150.31921 274.09663 149.42526 272.94156 148.57227 272.13086 C 147.71927 271.32016 146.90647 270.85553 145.9375 270.70508 z "
         id="path17078"
         transform="matrix(1.0090505,0,0,1.0106742,-1.2782867,-1.9225941)" />
      <path
         style="fill:url(#linearGradient3020);fill-opacity:1;fill-rule:nonzero;stroke:#552200;stroke-width:0.9807238;stroke-opacity:0"
         d="M 145.9375 270.70508 C 146.90647 270.85553 147.71927 271.32016 148.57227 272.13086 C 149.42526 272.94156 150.31921 274.09663 151.45117 275.62891 C 153.17942 277.96836 154.95023 280.10327 155.38672 280.37305 C 155.74354 280.59357 155.97276 280.82646 156.08789 281.05078 C 156.20302 281.2751 156.20439 281.49086 156.09961 281.67969 C 155.89006 282.05734 155.26112 282.32617 154.30273 282.32617 C 153.78666 282.32617 152.39906 282.77222 150.57812 283.49219 C 148.75719 284.21215 146.5026 285.20452 144.25586 286.29688 C 142.06106 287.36398 140.09865 288.23391 138.34766 288.91016 C 136.59666 289.5864 135.05853 290.06992 133.71484 290.36328 C 132.37115 290.65664 131.22092 290.76125 130.24805 290.67969 C 129.27517 290.59812 128.4784 290.32938 127.83984 289.88086 C 126.98578 289.28099 124.27966 287.97128 121.82422 286.96875 C 119.36878 285.9662 117.35938 284.92479 117.35938 284.65625 C 117.35938 284.40241 117.63416 283.99145 118.09961 283.49023 C 118.56505 282.98902 119.2199 282.39874 119.98047 281.78711 C 121.5016 280.56385 123.44338 279.25716 125.12305 278.41406 C 127.0447 277.44952 132.23863 275.16314 136.66406 273.33398 C 139.04978 272.34788 140.8834 271.6145 142.36328 271.16602 C 143.84316 270.71753 144.96853 270.55463 145.9375 270.70508 z "
         id="path17076"
         transform="matrix(1.0090505,0,0,1.0106742,-1.2782867,-1.9225941)" />
      <path
         style="fill:url(#linearGradient3020);fill-opacity:1;fill-rule:nonzero;stroke:#552200;stroke-width:0.9807238;stroke-opacity:0"
         d="M 146.58203 238.53906 L 144.97461 240.75977 C 142.45634 244.24172 140.76536 246.4684 139.18164 248.24414 C 137.59793 250.01988 136.12283 251.3451 134.03711 253.02539 C 131.50523 255.06511 127.15381 258.08849 124.36719 259.74414 C 121.58057 261.3998 117.04019 264.41906 114.27734 266.45312 C 112.07061 268.07779 110.86085 269.02115 110.37109 269.63086 C 110.12622 269.93571 110.06039 270.15715 110.14062 270.33789 C 110.22086 270.51863 110.44727 270.65968 110.7832 270.80273 C 111.44438 271.08427 112.62945 271.22802 114.14844 271.25195 C 115.66742 271.27589 117.51986 271.17882 119.51758 270.98242 C 121.5153 270.78602 123.65849 270.48884 125.75586 270.10938 C 127.85323 269.72991 129.90472 269.26941 131.72266 268.74414 C 133.64431 268.18892 136.19808 267.29331 138.76367 266.29883 C 141.32927 265.30435 143.90597 264.2095 145.87695 263.25586 C 147.93323 262.26096 149.55734 261.41062 150.83594 260.5918 C 152.11453 259.77297 153.04795 258.98739 153.72461 258.11914 C 154.40127 257.25089 154.82181 256.30136 155.07227 255.1582 C 155.32272 254.01504 155.4043 252.67677 155.4043 251.0332 C 155.4043 249.80037 155.27775 248.65206 155.02344 247.58398 C 154.76912 246.51591 154.38648 245.52946 153.875 244.62109 C 153.36352 243.71273 152.72265 242.88261 151.95117 242.12891 C 151.17969 241.37521 150.27651 240.69783 149.24219 240.09375 L 146.58203 238.53906 z "
         id="path17074"
         transform="matrix(1.0090505,0,0,1.0106742,-1.2782867,-1.9225941)" />
      <path
         style="fill:url(#linearGradient3020);fill-opacity:1;fill-rule:nonzero;stroke:#552200;stroke-width:0.9807238;stroke-opacity:0"
         d="M 169.59375 3.1191406 L 157.44141 3.1191406 C 157.62702 3.9434004 157.81968 4.739295 157.91406 5.7988281 C 158.046 7.2799717 158.10114 9.0269776 158.10547 11.134766 C 158.11192 14.334109 158.18077 16.393762 158.38477 17.8125 C 158.58876 19.231238 158.92769 20.009626 159.47266 20.646484 C 159.84423 21.080702 160.30984 21.473577 160.76172 21.759766 C 161.2136 22.045955 161.6508 22.224609 161.96484 22.224609 C 162.36067 22.224609 162.75802 22.114716 163.15039 21.904297 C 163.54276 21.693878 163.93054 21.383634 164.31055 20.982422 C 165.07056 20.179997 165.796 19.014256 166.45312 17.566406 C 167.11025 16.118556 167.69867 14.387447 168.18164 12.451172 C 168.66461 10.514897 169.04368 8.3731689 169.28125 6.1054688 L 169.59375 3.1191406 z "
         id="path17072"
         transform="matrix(1.0090505,0,0,1.0106742,-1.2782867,-1.9225941)" />
      <path
         style="fill:url(#linearGradient3020);fill-opacity:1;fill-rule:nonzero;stroke:#552200;stroke-width:0.9807238;stroke-opacity:0"
         d="M 297.14258 94.369141 L 297.14258 52.150391 C 297.14258 24.986839 275.27206 3.1191406 248.10352 3.1191406 L 171.27734 3.1191406 L 171.58008 3.5898438 C 172.12133 4.4292645 172.50973 5.2407817 172.73438 6.0996094 C 172.95902 6.9584371 173.01998 7.8642843 172.91211 8.8945312 C 172.80423 9.9247782 172.52663 11.079915 172.07031 12.433594 C 171.614 13.787272 170.97888 15.3408 170.1582 17.169922 C 168.87505 20.029806 167.82617 22.511836 167.82617 22.685547 C 167.82617 22.859252 169.14664 23 170.75977 23 C 171.70972 23 172.5563 22.902073 173.33008 22.683594 C 174.10385 22.465114 174.80492 22.126693 175.45898 21.648438 C 176.11305 21.170182 176.7197 20.552766 177.31055 19.773438 C 177.90139 18.994109 178.47645 18.053338 179.06055 16.931641 C 179.58208 15.930089 180.05872 15.176384 180.4082 14.769531 C 180.58294 14.566105 180.72584 14.449837 180.82617 14.431641 C 180.9265 14.413444 180.9833 14.494143 180.98828 14.685547 C 181.00266 15.236251 180.82891 15.973617 180.50586 16.828125 C 180.18281 17.682633 179.71225 18.654197 179.13086 19.673828 C 177.96809 21.713091 176.36609 23.942867 174.64453 25.810547 C 172.9043 27.698464 171.67025 29.43393 171.90234 29.666016 C 172.13256 29.896232 173.91575 29.724777 175.91406 29.380859 C 177.91237 29.036942 180.12599 28.520409 181.21875 28.0625 C 181.66905 27.873808 182.00257 27.810216 182.21875 27.857422 C 182.43493 27.904628 182.53395 28.062012 182.51758 28.320312 C 182.48484 28.836913 181.98869 29.750738 181.03516 30.962891 C 180.47108 31.680004 179.78624 32.224765 178.83203 32.662109 C 177.87782 33.099454 176.65395 33.431231 175.01758 33.722656 C 172.54055 34.16381 170.6287 34.592417 169.23438 35.097656 C 168.53721 35.350276 167.96951 35.622971 167.52539 35.923828 C 167.08127 36.224685 166.76142 36.555209 166.55859 36.925781 C 166.35577 37.296353 166.27017 37.706205 166.29688 38.167969 C 166.32358 38.629733 166.46254 39.142363 166.70703 39.716797 C 167.19601 40.865664 168.10888 42.261825 169.39844 43.990234 C 170.73093 45.776173 172.06666 48.235092 173.08203 50.609375 C 173.58972 51.796517 174.01719 52.961308 174.32422 54.011719 C 174.63125 55.062129 174.81829 55.998188 174.84375 56.722656 C 174.85692 57.096964 175.16821 57.676779 175.75781 58.441406 C 176.34742 59.206034 177.21493 60.15532 178.33984 61.269531 C 180.58967 63.497954 183.86933 66.385231 188.01367 69.767578 C 192.85188 73.716195 196.63626 77.062853 199.34961 79.789062 C 200.70629 81.152167 201.79507 82.359939 202.61328 83.410156 C 203.43149 84.460374 203.979 85.353465 204.25391 86.085938 C 204.69468 87.260278 204.92846 88.220703 204.77344 88.220703 C 204.6185 88.220703 202.22399 87.158878 199.45117 85.861328 C 197.61809 85.003527 195.88657 84.305269 194.19922 83.757812 C 192.51187 83.210356 190.86734 82.813661 189.20898 82.558594 C 187.55062 82.303527 185.87892 82.189616 184.13281 82.208984 C 182.38671 82.228352 180.56777 82.380401 178.61719 82.65625 C 175.10316 83.153196 172.11249 83.674645 171.97266 83.814453 C 171.71489 84.07223 172.4631 86.518865 173.63672 89.619141 C 174.81034 92.719416 176.40972 96.473667 177.85156 99.34375 C 179.17962 101.98733 179.88703 103.47711 180.10938 104.35547 C 180.22055 104.79465 180.20968 105.0808 180.0957 105.28125 C 179.98173 105.4817 179.76392 105.59658 179.45898 105.69336 C 178.91319 105.86659 178.59852 106.10108 178.47461 106.54102 C 178.3507 106.98095 178.41719 107.62594 178.63281 108.625 C 178.97197 110.1965 179.00635 112.66637 178.83984 114.74219 C 178.75659 115.7801 178.62399 116.72018 178.45312 117.40039 C 178.28226 118.0806 178.07441 118.5 177.8418 118.5 C 177.64978 118.5 177.47421 118.29734 177.34766 117.9707 C 177.2211 117.64406 177.14258 117.1948 177.14258 116.69922 C 177.14258 116.20364 176.6452 114.75334 175.8418 112.81836 C 175.03839 110.88337 173.9299 108.4637 172.71094 106.02344 C 170.83565 102.26928 169.48389 99.803365 167.93359 97.599609 C 166.3833 95.395854 164.63495 93.454095 161.96289 90.744141 C 160.22602 88.98264 158.53288 87.381696 157.20508 86.220703 C 155.87728 85.05971 154.91444 84.337891 154.63672 84.337891 C 154.38422 84.337891 154.20195 84.556883 154.0918 85.068359 C 153.98165 85.579836 153.94358 86.384804 153.98047 87.556641 C 154.05424 89.900315 154.42715 93.713371 155.11719 99.591797 C 155.32983 101.40331 155.40791 102.41439 155.24219 103.0332 C 155.15932 103.34261 155.0153 103.55258 154.79688 103.7168 C 154.57845 103.88102 154.28561 103.99811 153.9043 104.11914 C 153.40967 104.27613 152.84997 104.29013 152.24609 104.16992 C 151.64222 104.04971 150.99251 103.7967 150.31641 103.41992 C 148.96419 102.66636 147.50499 101.41974 146.08594 99.763672 C 145.47158 99.046702 144.73362 98.452489 143.92969 97.994141 C 143.12575 97.535792 142.25525 97.214065 141.375 97.037109 C 140.49475 96.860154 139.60502 96.829824 138.76172 96.957031 C 137.91841 97.084239 137.12279 97.368124 136.42969 97.822266 C 135.88075 98.181937 135.25055 98.913681 134.66016 99.833984 C 134.06977 100.75429 133.51967 101.86339 133.125 102.97461 C 132.74676 104.03958 132.37952 104.89092 131.99414 105.55078 C 131.60876 106.21065 131.20351 106.67968 130.74609 106.97656 C 130.28867 107.27345 129.7799 107.39897 129.18555 107.375 C 128.59119 107.35103 127.91142 107.17771 127.11523 106.875 C 126.1447 106.506 125.29558 106.24661 124.56445 106.10547 C 123.83332 105.96433 123.22054 105.93964 122.72852 106.03906 C 122.23649 106.13849 121.86455 106.36214 121.61133 106.71484 C 121.3581 107.06755 121.22371 107.54927 121.20898 108.16797 C 121.17954 109.40537 121.6261 111.18875 122.54883 113.56641 C 123.47156 115.94407 124.87165 118.91748 126.74414 122.53711 C 127.5611 124.1163 128.22852 126.27124 128.22852 127.32617 C 128.22852 128.00604 128.43005 128.60883 128.875 129.19336 C 129.31995 129.77789 130.00901 130.34327 130.98633 130.94727 C 131.92685 131.52855 132.72548 132.12197 133.38867 132.73242 C 134.05186 133.34288 134.57905 133.97058 134.97266 134.62305 C 135.36626 135.27552 135.62604 135.95283 135.75781 136.66016 C 135.88958 137.36748 135.8938 138.10584 135.77148 138.88086 C 135.6839 139.43582 135.64394 139.9011 135.6875 140.3418 C 135.73106 140.78249 135.85741 141.19811 136.10156 141.6543 C 136.58987 142.56667 137.54847 143.63972 139.25586 145.39258 C 140.29575 146.46017 141.16028 147.4781 141.85156 148.46094 C 142.54284 149.44378 143.06159 150.39069 143.41406 151.31445 C 143.76654 152.23822 143.95115 153.13894 143.97461 154.0293 C 143.99807 154.91966 143.8602 155.80096 143.56445 156.68359 C 143.41175 157.13932 143.31478 157.52058 143.29883 157.87891 C 143.28287 158.23723 143.34767 158.57277 143.51562 158.93555 C 143.85153 159.66109 144.60257 160.49711 145.95703 161.85156 L 149.04688 164.93945 L 149.3125 173.0918 C 149.43875 176.94824 149.53917 179.03069 149.89648 180.54883 C 150.07514 181.3079 150.31906 181.92717 150.66211 182.55469 C 151.00516 183.18221 151.44687 183.81919 152.02539 184.61719 C 153.37053 186.47259 154.80197 187.99023 155.20508 187.99023 C 155.60818 187.99023 158.68443 184.32171 162.04297 179.83789 C 164.85431 176.08462 168.04298 172.2953 171.53711 168.5332 C 175.03124 164.77111 178.83256 161.03719 182.86523 157.39648 C 186.89791 153.75578 191.16285 150.20746 195.58984 146.81836 C 200.01683 143.42926 204.60418 140.19868 209.28125 137.19141 C 212.12854 135.36064 215.60241 133.31886 219.63281 131.09961 C 223.66322 128.88036 228.25133 126.48369 233.33008 123.94336 C 243.48758 118.8627 255.60616 113.20661 269.14844 107.24609 C 279.36896 102.74764 288.30743 98.66087 296.17578 94.867188 C 296.54486 94.689238 296.77818 94.545814 297.14258 94.369141 z "
         id="path17070"
         transform="matrix(1.0090505,0,0,1.0106742,-1.2782867,-1.9225941)" />
      <path
         style="fill:url(#linearGradient3020);fill-opacity:1;fill-rule:nonzero;stroke:#552200;stroke-width:0.9807238;stroke-opacity:0"
         d="M 246.15234 297.31055 L 248.10352 297.31055 C 275.27206 297.31055 297.14258 275.4409 297.14258 248.27734 L 297.14258 106.26953 C 295.12773 107.37505 293.91008 108.18691 291.08398 109.64258 C 284.05026 113.26552 273.73846 118.36689 256.33789 126.91016 C 247.04118 131.47464 239.00989 135.58566 231.93359 139.44531 C 224.8573 143.30496 218.73679 146.91361 213.26172 150.4707 C 207.78665 154.0278 202.95592 157.53263 198.46289 161.18945 C 193.96986 164.84627 189.81377 168.65368 185.68359 172.8125 C 183.44872 175.06288 181.4141 177.21518 179.51562 179.35156 C 177.61715 181.48794 175.85483 183.60925 174.16211 185.80078 C 172.46939 187.99231 170.84615 190.25408 169.22852 192.66992 C 167.61088 195.08576 165.99936 197.65554 164.32617 200.46484 C 161.54541 205.13372 158.22605 210.08072 156.94922 211.45703 C 156.16261 212.30493 155.55617 213.24465 155.13281 214.26172 C 154.70945 215.27879 154.46859 216.37225 154.41016 217.52539 C 154.35173 218.67853 154.47503 219.89233 154.7832 221.14844 C 155.09138 222.40454 155.58331 223.70333 156.25977 225.0293 C 157.16484 226.8034 157.61931 227.72077 157.62695 228.13672 C 157.63077 228.34469 157.52278 228.42562 157.30469 228.42773 C 157.0866 228.42985 156.75868 228.35291 156.32031 228.23828 C 155.83688 228.11186 155.3991 228.1243 155.01172 228.25781 C 154.62434 228.39133 154.28689 228.6455 154 228.99805 C 153.42623 229.70315 153.05723 230.80477 152.91211 232.14062 C 152.76699 233.47648 152.84499 235.04611 153.16406 236.68555 C 153.48313 238.32498 154.04448 240.03457 154.86328 241.65039 C 155.78536 243.47004 156.61844 244.84373 157.35156 245.77148 C 158.08468 246.69923 158.71792 247.18082 159.23438 247.21484 C 159.4926 247.23186 159.72106 247.13645 159.91992 246.92969 C 160.11879 246.72293 160.28779 246.40537 160.42383 245.97461 C 160.69591 245.11308 160.83789 243.80382 160.83789 242.04492 C 160.83789 240.47671 160.95315 238.99594 161.18359 237.60742 C 161.41403 236.2189 161.75949 234.92138 162.21875 233.7168 C 162.67801 232.51222 163.25104 231.40116 163.9375 230.38477 C 164.62396 229.36837 165.42389 228.44702 166.33594 227.62305 C 167.23261 226.81295 168.03618 226.19352 168.78711 225.75977 C 169.53804 225.32601 170.23652 225.07869 170.92188 225.01367 C 171.60723 224.94866 172.28051 225.06521 172.98047 225.36133 C 173.68042 225.65745 174.40644 226.1316 175.20117 226.78125 L 177.53125 228.68555 L 173.89453 228.55273 C 173.07806 228.52276 172.3259 228.56391 171.63672 228.67773 C 170.94754 228.79156 170.32137 228.97813 169.75586 229.24219 C 169.19035 229.50624 168.68571 229.84685 168.24023 230.26758 C 167.79476 230.6883 167.40914 231.1896 167.08008 231.77344 C 166.42196 232.9411 165.99159 234.44011 165.77734 236.29883 C 165.56309 238.15755 165.56503 240.37529 165.76562 242.97656 C 166.02819 246.38131 166.40064 249.3245 166.59375 249.51758 C 166.78683 249.71065 169.75215 248.78618 173.18359 247.46289 C 175.28517 246.65244 177.16574 246.04334 178.85547 245.63281 C 180.5452 245.22228 182.04368 245.01107 183.37695 245 C 184.71022 244.98893 185.87992 245.17652 186.91211 245.56445 C 187.9443 245.95239 188.83852 246.5397 189.625 247.32617 C 190.87325 248.57442 191.89453 249.97371 191.89453 250.43359 C 191.89453 250.69763 191.8981 250.89423 191.8418 251.02148 C 191.7855 251.14874 191.67078 251.20578 191.43164 251.18555 C 190.95335 251.14507 189.98262 250.7982 188.01367 250.10352 C 186.79401 249.67319 185.61209 249.35672 184.46875 249.15234 C 183.32541 248.94796 182.22031 248.85686 181.15234 248.87891 C 180.08438 248.90095 179.05406 249.0362 178.06055 249.28516 C 177.06703 249.53411 176.10946 249.89669 175.18945 250.37305 C 174.26944 250.8494 173.3865 251.43834 172.53906 252.14258 C 171.69163 252.84681 170.87932 253.66506 170.10352 254.59766 C 169.32771 255.53026 168.58791 256.57878 167.88281 257.74023 C 167.17771 258.90168 166.50839 260.17757 165.87305 261.56836 C 165.36946 262.67071 164.86779 264.12378 164.41211 265.7168 C 163.95643 267.30981 163.54667 269.04163 163.22266 270.69727 C 162.89865 272.3529 162.66131 273.93243 162.55273 275.22266 C 162.44416 276.51288 162.46367 277.51495 162.6543 278.01172 C 162.82084 278.44571 163.16166 278.8408 163.65039 279.19141 C 164.13912 279.54202 164.77694 279.84715 165.53711 280.09766 C 167.05745 280.59867 169.06954 280.88256 171.37109 280.88281 C 172.8071 280.88296 174.67751 280.56303 177.38867 279.80664 C 180.09983 279.05025 183.65056 277.85729 188.45117 276.11719 C 195.68269 273.49591 204.78633 270.52383 208.67969 269.51172 C 211.38901 268.8074 214.05737 268.25704 216.66016 267.85547 C 219.26294 267.4539 221.79891 267.20042 224.24219 267.08984 C 226.68546 266.97927 229.03678 267.01103 231.26758 267.17969 C 233.49838 267.34835 235.60886 267.6537 237.57422 268.08984 C 239.53958 268.52599 241.35891 269.09328 243.00586 269.78516 C 244.65281 270.47703 246.12873 271.29462 247.4043 272.23047 C 248.67986 273.16632 249.75621 274.2206 250.60742 275.38867 C 251.45864 276.55674 252.08314 277.83803 252.45703 279.22656 C 252.73592 280.2623 252.8022 281.43608 252.67969 282.71289 C 252.55718 283.9897 252.24697 285.36958 251.77148 286.81445 C 251.296 288.25933 250.65503 289.77061 249.875 291.31055 C 249.09497 292.85049 248.17483 294.41846 247.13867 295.98047 C 246.84091 296.42934 246.46868 296.86373 246.15234 297.31055 z "
         id="path17068"
         transform="matrix(1.0090505,0,0,1.0106742,-1.2782867,-1.9225941)" />
      <path
         style="fill:url(#linearGradient3020);fill-opacity:1;fill-rule:nonzero;stroke:#552200;stroke-width:0.9807238;stroke-opacity:0"
         d="M 2.8984375 172.30469 L 2.8984375 223.83398 C 3.9098853 222.87927 4.9005021 221.90405 5.984375 221.02148 C 7.6367524 219.67601 9.3737748 218.41455 11.195312 217.23633 C 13.01685 216.05811 14.922357 214.96264 16.914062 213.95117 C 18.905768 212.9397 20.983603 212.01125 23.146484 211.16602 C 25.309366 210.32078 27.557513 209.55841 29.892578 208.87891 C 32.227644 208.1994 34.647993 207.60218 37.15625 207.08789 C 39.664507 206.5736 42.260903 206.14256 44.943359 205.79297 C 46.060249 205.64741 47.029139 205.44007 47.691406 205.22461 C 48.353674 205.00915 48.709736 204.78486 48.597656 204.60352 C 48.373506 204.24081 45.027049 202.31258 41.162109 200.31641 C 38.182984 198.77775 35.24 197.12566 32.341797 195.36914 C 29.443594 193.61262 26.589586 191.74983 23.785156 189.78711 C 20.980726 187.82439 18.227102 185.76272 15.529297 183.60547 C 12.831491 181.44822 10.189658 179.19559 7.6113281 176.85547 C 5.9994905 175.39255 4.4595018 173.83537 2.8984375 172.30469 z "
         id="path17066"
         transform="matrix(1.0090505,0,0,1.0106742,-1.2782867,-1.9225941)" />
      <path
         style="fill:url(#linearGradient3020);fill-opacity:1;fill-rule:nonzero;stroke:#552200;stroke-width:0.9807238;stroke-opacity:0"
         d="M 132.29102 3.1191406 L 51.939453 3.1191406 C 24.770911 3.1191406 2.8984375 24.986839 2.8984375 52.150391 L 2.8984375 73.580078 C 6.9764251 76.949409 11.100092 80.366564 15.068359 83.546875 C 20.635956 88.008946 25.845065 92.074977 29.992188 95.158203 C 32.189182 96.791583 34.233539 98.425179 36.146484 100.09375 C 38.059429 101.76232 39.841354 103.4658 41.513672 105.24219 C 43.18599 107.01857 44.749496 108.86739 46.224609 110.82422 C 47.699723 112.78104 49.086871 114.84675 50.408203 117.05664 C 51.729535 119.26653 52.984339 121.62067 54.195312 124.15625 C 55.406286 126.69183 56.572759 129.40791 57.716797 132.3418 C 58.860834 135.27568 59.982991 138.42721 61.103516 141.83203 C 62.22404 145.23685 63.343941 148.89537 64.484375 152.84375 C 66.730105 160.61886 68.726821 167.09313 70.580078 172.48242 C 72.433335 177.87172 74.142955 182.17666 75.8125 185.60938 C 76.647272 187.32573 77.470841 188.82317 78.298828 190.13086 C 79.126815 191.43855 79.959343 192.55513 80.806641 193.50781 C 81.653938 194.46049 82.517454 195.24907 83.410156 195.90039 C 84.302858 196.55171 85.223298 197.06708 86.1875 197.4707 C 87.14068 197.86971 88.044217 198.10612 88.935547 198.16602 C 89.826876 198.22591 90.706419 198.10867 91.615234 197.80273 C 92.52405 197.4968 93.461159 197.00119 94.466797 196.30273 C 95.472435 195.60427 96.546718 194.70363 97.728516 193.58594 C 99.433943 191.97302 100.88088 190.20744 102.06836 188.29688 C 103.25584 186.38631 104.18496 184.32942 104.85156 182.13086 C 105.51817 179.9323 105.9236 177.59213 106.06641 175.11523 C 106.20921 172.63833 106.089 170.02488 105.70508 167.2793 C 105.43691 165.36154 105.15754 163.6673 104.79102 161.94141 C 104.42449 160.21552 103.97076 158.45923 103.35156 156.41602 C 102.11317 152.32958 100.21402 147.09843 97.039062 138.6875 C 94.056923 130.78743 90.750453 121.35437 89.689453 117.72461 C 89.089106 115.67079 88.591031 113.50342 88.203125 111.30078 C 87.815219 109.09814 87.536682 106.85896 87.373047 104.66602 C 87.209411 102.47307 87.159959 100.32551 87.232422 98.300781 C 87.304885 96.276054 87.499923 94.375729 87.820312 92.677734 C 88.191535 90.710348 88.464593 88.856754 88.640625 87.144531 C 88.816657 85.432308 88.895391 83.861328 88.876953 82.458984 C 88.858516 81.056641 88.743437 79.822905 88.53125 78.785156 C 88.319063 77.747408 88.008733 76.905547 87.603516 76.287109 C 87.196246 75.665535 86.913469 75.105883 86.765625 74.554688 C 86.617781 74.003492 86.605844 73.460562 86.742188 72.873047 C 86.878531 72.285531 87.162128 71.652409 87.607422 70.921875 C 88.052715 70.191341 88.658495 69.363063 89.4375 68.382812 C 90.100965 67.547947 90.606656 66.869669 90.962891 66.263672 C 91.319125 65.657675 91.527024 65.123668 91.597656 64.580078 C 91.668288 64.036489 91.601547 63.483579 91.408203 62.835938 C 91.214859 62.188296 90.894677 61.445497 90.458984 60.527344 L 89.181641 57.835938 L 92.011719 55.501953 C 93.051454 54.644912 93.759265 53.909865 94.207031 53.181641 C 94.654797 52.453416 94.841797 51.732386 94.841797 50.898438 C 94.841797 50.170755 95.052093 49.391168 95.527344 48.498047 C 96.002595 47.604926 96.743614 46.597716 97.804688 45.416016 C 99.926835 43.052615 103.33207 39.988979 108.46094 35.732422 C 110.45264 34.079457 112.24613 32.490598 113.81836 30.996094 C 115.39059 29.50159 116.74029 28.100555 117.83984 26.826172 C 118.93939 25.551789 119.78961 24.402759 120.36328 23.410156 C 120.93695 22.417554 121.23393 21.582757 121.22852 20.933594 C 121.22252 20.219318 121.14632 19.635491 120.97461 19.169922 C 120.8029 18.704353 120.53699 18.357281 120.1543 18.111328 C 119.7716 17.865375 119.27177 17.721443 118.63281 17.666016 C 117.99385 17.610588 117.21395 17.642039 116.27344 17.748047 C 115.29054 17.858834 114.39782 17.881645 113.75 17.828125 C 113.10218 17.774605 112.70117 17.645117 112.70117 17.453125 C 112.70117 17.196887 113.14093 16.736479 113.82812 16.189453 C 114.51532 15.642427 115.44924 15.009453 116.43555 14.408203 C 117.42186 13.806954 118.46006 13.237267 119.35742 12.818359 C 120.25478 12.399452 121.0113 12.130859 121.43164 12.130859 C 122.01006 12.130859 122.65875 12.263644 123.33594 12.501953 C 124.01313 12.740262 124.71955 13.084825 125.4082 13.507812 C 126.7855 14.353788 128.09682 15.514437 128.99609 16.777344 C 129.79855 17.904289 130.58985 18.616298 131.32422 18.943359 C 131.6914 19.10689 132.04555 19.174904 132.37891 19.150391 C 132.71226 19.125877 133.02418 19.009293 133.3125 18.804688 C 133.88915 18.395476 134.36603 17.632657 134.69531 16.550781 C 135.0246 15.468906 135.20693 14.067882 135.19922 12.376953 C 135.19384 11.196972 135.05865 10.020102 134.80664 8.875 C 134.55464 7.7298976 134.18675 6.6156185 133.71289 5.5605469 C 133.32218 4.6906203 132.81719 3.8936572 132.29102 3.1191406 z "
         id="path17064"
         transform="matrix(1.0090505,0,0,1.0106742,-1.2782867,-1.9225941)" />
      <path
         style="fill:url(#linearGradient3020);fill-opacity:1;fill-rule:nonzero;stroke:#552200;stroke-width:0.9807238;stroke-opacity:0"
         d="M 153.55273 3.1191406 L 142.39844 3.1191406 C 142.82436 3.6707875 143.23944 4.2338187 143.58008 4.8789062 C 144.00733 5.6880274 144.36739 6.569645 144.66016 7.5253906 C 145.24568 9.4368819 145.56201 11.641256 145.60742 14.136719 C 145.65712 16.869966 145.93475 19.109906 146.22461 19.113281 C 146.51449 19.116581 147.96463 17.974463 149.44727 16.576172 C 150.50126 15.582128 151.36171 14.411711 152.02344 13.083984 C 152.68517 11.756258 153.14864 10.270919 153.41211 8.6464844 C 153.67558 7.0220493 153.73844 5.2591713 153.59766 3.375 C 153.59165 3.294561 153.55949 3.2000179 153.55273 3.1191406 z "
         id="path17062"
         transform="matrix(1.0090505,0,0,1.0106742,-1.2782867,-1.9225941)" />
      <path
         style="fill:none;fill-opacity:1;fill-rule:nonzero;stroke:none;stroke-width:0.9807238;stroke-opacity:0"
         d="M 153.55273 3.1191406 C 153.55949 3.2000179 153.59165 3.294561 153.59766 3.375 C 153.73844 5.2591713 153.67558 7.0220493 153.41211 8.6464844 C 153.14864 10.270919 152.68517 11.756258 152.02344 13.083984 C 151.36171 14.411711 150.50126 15.582128 149.44727 16.576172 C 147.96463 17.974463 146.51449 19.116581 146.22461 19.113281 C 145.93475 19.109906 145.65712 16.869966 145.60742 14.136719 C 145.56201 11.641256 145.24568 9.4368819 144.66016 7.5253906 C 144.36739 6.569645 144.00733 5.6880274 143.58008 4.8789062 C 143.23944 4.2338187 142.82436 3.6707875 142.39844 3.1191406 L 132.29102 3.1191406 C 132.81719 3.8936572 133.32218 4.6906203 133.71289 5.5605469 C 134.18675 6.6156185 134.55464 7.7298976 134.80664 8.875 C 135.05865 10.020102 135.19384 11.196972 135.19922 12.376953 C 135.20693 14.067882 135.0246 15.468906 134.69531 16.550781 C 134.36603 17.632657 133.88915 18.395476 133.3125 18.804688 C 133.02418 19.009293 132.71226 19.125877 132.37891 19.150391 C 132.04555 19.174904 131.6914 19.10689 131.32422 18.943359 C 130.58985 18.616298 129.79855 17.904289 128.99609 16.777344 C 128.09682 15.514437 126.7855 14.353788 125.4082 13.507812 C 124.71955 13.084825 124.01313 12.740262 123.33594 12.501953 C 122.65875 12.263644 122.01006 12.130859 121.43164 12.130859 C 121.0113 12.130859 120.25478 12.399452 119.35742 12.818359 C 118.46006 13.237267 117.42186 13.806954 116.43555 14.408203 C 115.44924 15.009453 114.51532 15.642427 113.82812 16.189453 C 113.14093 16.736479 112.70117 17.196887 112.70117 17.453125 C 112.70117 17.645117 113.10218 17.774605 113.75 17.828125 C 114.39782 17.881645 115.29054 17.858834 116.27344 17.748047 C 117.21395 17.642039 117.99385 17.610588 118.63281 17.666016 C 119.27177 17.721443 119.7716 17.865375 120.1543 18.111328 C 120.53699 18.357281 120.8029 18.704353 120.97461 19.169922 C 121.14632 19.635491 121.22252 20.219318 121.22852 20.933594 C 121.23393 21.582757 120.93695 22.417554 120.36328 23.410156 C 119.78961 24.402759 118.93939 25.551789 117.83984 26.826172 C 116.74029 28.100555 115.39059 29.50159 113.81836 30.996094 C 112.24613 32.490598 110.45264 34.079457 108.46094 35.732422 C 103.33207 39.988979 99.926835 43.052615 97.804688 45.416016 C 96.743614 46.597716 96.002595 47.604926 95.527344 48.498047 C 95.052093 49.391168 94.841797 50.170755 94.841797 50.898438 C 94.841797 51.732386 94.654797 52.453416 94.207031 53.181641 C 93.759265 53.909865 93.051454 54.644912 92.011719 55.501953 L 89.181641 57.835938 L 90.458984 60.527344 C 90.894677 61.445497 91.214859 62.188296 91.408203 62.835938 C 91.601547 63.483579 91.668288 64.036489 91.597656 64.580078 C 91.527024 65.123668 91.319125 65.657675 90.962891 66.263672 C 90.606656 66.869669 90.100965 67.547947 89.4375 68.382812 C 88.658495 69.363063 88.052715 70.191341 87.607422 70.921875 C 87.162128 71.652409 86.878531 72.285531 86.742188 72.873047 C 86.605844 73.460562 86.617781 74.003492 86.765625 74.554688 C 86.913469 75.105883 87.196246 75.665535 87.603516 76.287109 C 88.008733 76.905547 88.319063 77.747408 88.53125 78.785156 C 88.743437 79.822905 88.858516 81.056641 88.876953 82.458984 C 88.895391 83.861328 88.816657 85.432308 88.640625 87.144531 C 88.464593 88.856754 88.191535 90.710348 87.820312 92.677734 C 87.499923 94.375729 87.304885 96.276054 87.232422 98.300781 C 87.159959 100.32551 87.209411 102.47307 87.373047 104.66602 C 87.536682 106.85896 87.815219 109.09814 88.203125 111.30078 C 88.591031 113.50342 89.089106 115.67079 89.689453 117.72461 C 90.750453 121.35437 94.056923 130.78743 97.039062 138.6875 C 100.21402 147.09843 102.11317 152.32958 103.35156 156.41602 C 103.97076 158.45923 104.42449 160.21552 104.79102 161.94141 C 105.15754 163.6673 105.43691 165.36154 105.70508 167.2793 C 106.089 170.02488 106.20921 172.63833 106.06641 175.11523 C 105.9236 177.59213 105.51817 179.9323 104.85156 182.13086 C 104.18496 184.32942 103.25584 186.38631 102.06836 188.29688 C 100.88088 190.20744 99.433943 191.97302 97.728516 193.58594 C 96.546718 194.70363 95.472435 195.60427 94.466797 196.30273 C 93.461159 197.00119 92.52405 197.4968 91.615234 197.80273 C 90.706419 198.10867 89.826876 198.22591 88.935547 198.16602 C 88.044217 198.10612 87.14068 197.86971 86.1875 197.4707 C 85.223298 197.06708 84.302858 196.55171 83.410156 195.90039 C 82.517454 195.24907 81.653938 194.46049 80.806641 193.50781 C 79.959343 192.55513 79.126815 191.43855 78.298828 190.13086 C 77.470841 188.82317 76.647272 187.32573 75.8125 185.60938 C 74.142955 182.17666 72.433335 177.87172 70.580078 172.48242 C 68.726821 167.09313 66.730105 160.61886 64.484375 152.84375 C 63.343941 148.89537 62.22404 145.23685 61.103516 141.83203 C 59.982991 138.42721 58.860834 135.27568 57.716797 132.3418 C 56.572759 129.40791 55.406286 126.69183 54.195312 124.15625 C 52.984339 121.62067 51.729535 119.26653 50.408203 117.05664 C 49.086871 114.84675 47.699723 112.78104 46.224609 110.82422 C 44.749496 108.86739 43.18599 107.01857 41.513672 105.24219 C 39.841354 103.4658 38.059429 101.76232 36.146484 100.09375 C 34.233539 98.425179 32.189182 96.791583 29.992188 95.158203 C 25.845065 92.074977 20.635956 88.008946 15.068359 83.546875 C 11.100092 80.366564 6.9764251 76.949409 2.8984375 73.580078 L 2.8984375 172.30469 C 4.4595018 173.83537 5.9994905 175.39255 7.6113281 176.85547 C 10.189658 179.19559 12.831491 181.44822 15.529297 183.60547 C 18.227102 185.76272 20.980726 187.82439 23.785156 189.78711 C 26.589586 191.74983 29.443594 193.61262 32.341797 195.36914 C 35.24 197.12566 38.182984 198.77775 41.162109 200.31641 C 45.027049 202.31258 48.373506 204.24081 48.597656 204.60352 C 48.709736 204.78486 48.353674 205.00915 47.691406 205.22461 C 47.029139 205.44007 46.060249 205.64741 44.943359 205.79297 C 42.260903 206.14256 39.664507 206.5736 37.15625 207.08789 C 34.647993 207.60218 32.227644 208.1994 29.892578 208.87891 C 27.557513 209.55841 25.309366 210.32078 23.146484 211.16602 C 20.983603 212.01125 18.905768 212.9397 16.914062 213.95117 C 14.922357 214.96264 13.01685 216.05811 11.195312 217.23633 C 9.3737748 218.41455 7.6367524 219.67601 5.984375 221.02148 C 4.9005021 221.90405 3.9098853 222.87927 2.8984375 223.83398 L 2.8984375 248.27734 C 2.8984375 275.4409 24.770911 297.31055 51.939453 297.31055 L 246.15234 297.31055 C 246.46868 296.86373 246.84091 296.42934 247.13867 295.98047 C 248.17483 294.41846 249.09497 292.85049 249.875 291.31055 C 250.65503 289.77061 251.296 288.25933 251.77148 286.81445 C 252.24697 285.36958 252.55718 283.9897 252.67969 282.71289 C 252.8022 281.43608 252.73592 280.2623 252.45703 279.22656 C 252.08314 277.83803 251.45864 276.55674 250.60742 275.38867 C 249.75621 274.2206 248.67986 273.16632 247.4043 272.23047 C 246.12873 271.29462 244.65281 270.47703 243.00586 269.78516 C 241.35891 269.09328 239.53958 268.52599 237.57422 268.08984 C 235.60886 267.6537 233.49838 267.34835 231.26758 267.17969 C 229.03678 267.01103 226.68546 266.97927 224.24219 267.08984 C 221.79891 267.20042 219.26294 267.4539 216.66016 267.85547 C 214.05737 268.25704 211.38901 268.8074 208.67969 269.51172 C 204.78633 270.52383 195.68269 273.49591 188.45117 276.11719 C 183.65056 277.85729 180.09983 279.05025 177.38867 279.80664 C 174.67751 280.56303 172.8071 280.88296 171.37109 280.88281 C 169.06954 280.88256 167.05745 280.59867 165.53711 280.09766 C 164.77694 279.84715 164.13912 279.54202 163.65039 279.19141 C 163.16166 278.8408 162.82084 278.44571 162.6543 278.01172 C 162.46367 277.51495 162.44416 276.51288 162.55273 275.22266 C 162.66131 273.93243 162.89865 272.3529 163.22266 270.69727 C 163.54667 269.04163 163.95643 267.30981 164.41211 265.7168 C 164.86779 264.12378 165.36946 262.67071 165.87305 261.56836 C 166.50839 260.17757 167.17771 258.90168 167.88281 257.74023 C 168.58791 256.57878 169.32771 255.53026 170.10352 254.59766 C 170.87932 253.66506 171.69163 252.84681 172.53906 252.14258 C 173.3865 251.43834 174.26944 250.8494 175.18945 250.37305 C 176.10946 249.89669 177.06703 249.53411 178.06055 249.28516 C 179.05406 249.0362 180.08438 248.90095 181.15234 248.87891 C 182.22031 248.85686 183.32541 248.94796 184.46875 249.15234 C 185.61209 249.35672 186.79401 249.67319 188.01367 250.10352 C 189.98262 250.7982 190.95335 251.14507 191.43164 251.18555 C 191.67078 251.20578 191.7855 251.14874 191.8418 251.02148 C 191.8981 250.89423 191.89453 250.69763 191.89453 250.43359 C 191.89453 249.97371 190.87325 248.57442 189.625 247.32617 C 188.83852 246.5397 187.9443 245.95239 186.91211 245.56445 C 185.87992 245.17652 184.71022 244.98893 183.37695 245 C 182.04368 245.01107 180.5452 245.22228 178.85547 245.63281 C 177.16574 246.04334 175.28517 246.65244 173.18359 247.46289 C 169.75215 248.78618 166.78683 249.71065 166.59375 249.51758 C 166.40064 249.3245 166.02819 246.38131 165.76562 242.97656 C 165.56503 240.37529 165.56309 238.15755 165.77734 236.29883 C 165.99159 234.44011 166.42196 232.9411 167.08008 231.77344 C 167.40914 231.1896 167.79476 230.6883 168.24023 230.26758 C 168.68571 229.84685 169.19035 229.50624 169.75586 229.24219 C 170.32137 228.97813 170.94754 228.79156 171.63672 228.67773 C 172.3259 228.56391 173.07806 228.52276 173.89453 228.55273 L 177.53125 228.68555 L 175.20117 226.78125 C 174.40644 226.1316 173.68042 225.65745 172.98047 225.36133 C 172.28051 225.06521 171.60723 224.94866 170.92188 225.01367 C 170.23652 225.07869 169.53804 225.32601 168.78711 225.75977 C 168.03618 226.19352 167.23261 226.81295 166.33594 227.62305 C 165.42389 228.44702 164.62396 229.36837 163.9375 230.38477 C 163.25104 231.40116 162.67801 232.51222 162.21875 233.7168 C 161.75949 234.92138 161.41403 236.2189 161.18359 237.60742 C 160.95315 238.99594 160.83789 240.47671 160.83789 242.04492 C 160.83789 243.80382 160.69591 245.11308 160.42383 245.97461 C 160.28779 246.40537 160.11879 246.72293 159.91992 246.92969 C 159.72106 247.13645 159.4926 247.23186 159.23438 247.21484 C 158.71792 247.18082 158.08468 246.69923 157.35156 245.77148 C 156.61844 244.84373 155.78536 243.47004 154.86328 241.65039 C 154.04448 240.03457 153.48313 238.32498 153.16406 236.68555 C 152.84499 235.04611 152.76699 233.47648 152.91211 232.14062 C 153.05723 230.80477 153.42623 229.70315 154 228.99805 C 154.28689 228.6455 154.62434 228.39133 155.01172 228.25781 C 155.3991 228.1243 155.83688 228.11186 156.32031 228.23828 C 156.75868 228.35291 157.0866 228.42985 157.30469 228.42773 C 157.52278 228.42562 157.63077 228.34469 157.62695 228.13672 C 157.61931 227.72077 157.16484 226.8034 156.25977 225.0293 C 155.58331 223.70333 155.09138 222.40454 154.7832 221.14844 C 154.47503 219.89233 154.35173 218.67853 154.41016 217.52539 C 154.46859 216.37225 154.70945 215.27879 155.13281 214.26172 C 155.55617 213.24465 156.16261 212.30493 156.94922 211.45703 C 158.22605 210.08072 161.54541 205.13372 164.32617 200.46484 C 165.99936 197.65554 167.61088 195.08576 169.22852 192.66992 C 170.84615 190.25408 172.46939 187.99231 174.16211 185.80078 C 175.85483 183.60925 177.61715 181.48794 179.51562 179.35156 C 181.4141 177.21518 183.44872 175.06288 185.68359 172.8125 C 189.81377 168.65368 193.96986 164.84627 198.46289 161.18945 C 202.95592 157.53263 207.78665 154.0278 213.26172 150.4707 C 218.73679 146.91361 224.8573 143.30496 231.93359 139.44531 C 239.00989 135.58566 247.04118 131.47464 256.33789 126.91016 C 273.73846 118.36689 284.05026 113.26552 291.08398 109.64258 C 293.91008 108.18691 295.12773 107.37505 297.14258 106.26953 L 297.14258 94.369141 C 296.77818 94.545814 296.54486 94.689238 296.17578 94.867188 C 288.30743 98.66087 279.36896 102.74764 269.14844 107.24609 C 255.60616 113.20661 243.48758 118.8627 233.33008 123.94336 C 228.25133 126.48369 223.66322 128.88036 219.63281 131.09961 C 215.60241 133.31886 212.12854 135.36064 209.28125 137.19141 C 204.60418 140.19868 200.01683 143.42926 195.58984 146.81836 C 191.16285 150.20746 186.89791 153.75578 182.86523 157.39648 C 178.83256 161.03719 175.03124 164.77111 171.53711 168.5332 C 168.04298 172.2953 164.85431 176.08462 162.04297 179.83789 C 158.68443 184.32171 155.60818 187.99023 155.20508 187.99023 C 154.80197 187.99023 153.37053 186.47259 152.02539 184.61719 C 151.44687 183.81919 151.00516 183.18221 150.66211 182.55469 C 150.31906 181.92717 150.07514 181.3079 149.89648 180.54883 C 149.53917 179.03069 149.43875 176.94824 149.3125 173.0918 L 149.04688 164.93945 L 145.95703 161.85156 C 144.60257 160.49711 143.85153 159.66109 143.51562 158.93555 C 143.34767 158.57277 143.28287 158.23723 143.29883 157.87891 C 143.31478 157.52058 143.41175 157.13932 143.56445 156.68359 C 143.8602 155.80096 143.99807 154.91966 143.97461 154.0293 C 143.95115 153.13894 143.76654 152.23822 143.41406 151.31445 C 143.06159 150.39069 142.54284 149.44378 141.85156 148.46094 C 141.16028 147.4781 140.29575 146.46017 139.25586 145.39258 C 137.54847 143.63972 136.58987 142.56667 136.10156 141.6543 C 135.85741 141.19811 135.73106 140.78249 135.6875 140.3418 C 135.64394 139.9011 135.6839 139.43582 135.77148 138.88086 C 135.8938 138.10584 135.88958 137.36748 135.75781 136.66016 C 135.62604 135.95283 135.36626 135.27552 134.97266 134.62305 C 134.57905 133.97058 134.05186 133.34288 133.38867 132.73242 C 132.72548 132.12197 131.92685 131.52855 130.98633 130.94727 C 130.00901 130.34327 129.31995 129.77789 128.875 129.19336 C 128.43005 128.60883 128.22852 128.00604 128.22852 127.32617 C 128.22852 126.27124 127.5611 124.1163 126.74414 122.53711 C 124.87165 118.91748 123.47156 115.94407 122.54883 113.56641 C 121.6261 111.18875 121.17954 109.40537 121.20898 108.16797 C 121.22371 107.54927 121.3581 107.06755 121.61133 106.71484 C 121.86455 106.36214 122.23649 106.13849 122.72852 106.03906 C 123.22054 105.93964 123.83332 105.96433 124.56445 106.10547 C 125.29558 106.24661 126.1447 106.506 127.11523 106.875 C 127.91142 107.17771 128.59119 107.35103 129.18555 107.375 C 129.7799 107.39897 130.28867 107.27345 130.74609 106.97656 C 131.20351 106.67968 131.60876 106.21065 131.99414 105.55078 C 132.37952 104.89092 132.74676 104.03958 133.125 102.97461 C 133.51967 101.86339 134.06977 100.75429 134.66016 99.833984 C 135.25055 98.913681 135.88075 98.181937 136.42969 97.822266 C 137.12279 97.368124 137.91841 97.084239 138.76172 96.957031 C 139.60502 96.829824 140.49475 96.860154 141.375 97.037109 C 142.25525 97.214065 143.12575 97.535792 143.92969 97.994141 C 144.73362 98.452489 145.47158 99.046702 146.08594 99.763672 C 147.50499 101.41974 148.96419 102.66636 150.31641 103.41992 C 150.99251 103.7967 151.64222 104.04971 152.24609 104.16992 C 152.84997 104.29013 153.40967 104.27613 153.9043 104.11914 C 154.28561 103.99811 154.57845 103.88102 154.79688 103.7168 C 155.0153 103.55258 155.15932 103.34261 155.24219 103.0332 C 155.40791 102.41439 155.32983 101.40331 155.11719 99.591797 C 154.42715 93.713371 154.05424 89.900315 153.98047 87.556641 C 153.94358 86.384804 153.98165 85.579836 154.0918 85.068359 C 154.20195 84.556883 154.38422 84.337891 154.63672 84.337891 C 154.91444 84.337891 155.87728 85.05971 157.20508 86.220703 C 158.53288 87.381696 160.22602 88.98264 161.96289 90.744141 C 164.63495 93.454095 166.3833 95.395854 167.93359 97.599609 C 169.48389 99.803365 170.83565 102.26928 172.71094 106.02344 C 173.9299 108.4637 175.03839 110.88337 175.8418 112.81836 C 176.6452 114.75334 177.14258 116.20364 177.14258 116.69922 C 177.14258 117.1948 177.2211 117.64406 177.34766 117.9707 C 177.47421 118.29734 177.64978 118.5 177.8418 118.5 C 178.07441 118.5 178.28226 118.0806 178.45312 117.40039 C 178.62399 116.72018 178.75659 115.7801 178.83984 114.74219 C 179.00635 112.66637 178.97197 110.1965 178.63281 108.625 C 178.41719 107.62594 178.3507 106.98095 178.47461 106.54102 C 178.59852 106.10108 178.91319 105.86659 179.45898 105.69336 C 179.76392 105.59658 179.98173 105.4817 180.0957 105.28125 C 180.20968 105.0808 180.22055 104.79465 180.10938 104.35547 C 179.88703 103.47711 179.17962 101.98733 177.85156 99.34375 C 176.40972 96.473667 174.81034 92.719416 173.63672 89.619141 C 172.4631 86.518865 171.71489 84.07223 171.97266 83.814453 C 172.11249 83.674645 175.10316 83.153196 178.61719 82.65625 C 180.56777 82.380401 182.38671 82.228352 184.13281 82.208984 C 185.87892 82.189616 187.55062 82.303527 189.20898 82.558594 C 190.86734 82.813661 192.51187 83.210356 194.19922 83.757812 C 195.88657 84.305269 197.61809 85.003527 199.45117 85.861328 C 202.22399 87.158878 204.6185 88.220703 204.77344 88.220703 C 204.92846 88.220703 204.69468 87.260278 204.25391 86.085938 C 203.979 85.353465 203.43149 84.460374 202.61328 83.410156 C 201.79507 82.359939 200.70629 81.152167 199.34961 79.789062 C 196.63626 77.062853 192.85188 73.716195 188.01367 69.767578 C 183.86933 66.385231 180.58967 63.497954 178.33984 61.269531 C 177.21493 60.15532 176.34742 59.206034 175.75781 58.441406 C 175.16821 57.676779 174.85692 57.096964 174.84375 56.722656 C 174.81829 55.998188 174.63125 55.062129 174.32422 54.011719 C 174.01719 52.961308 173.58972 51.796517 173.08203 50.609375 C 172.06666 48.235092 170.73093 45.776173 169.39844 43.990234 C 168.10888 42.261825 167.19601 40.865664 166.70703 39.716797 C 166.46254 39.142363 166.32358 38.629733 166.29688 38.167969 C 166.27017 37.706205 166.35577 37.296353 166.55859 36.925781 C 166.76142 36.555209 167.08127 36.224685 167.52539 35.923828 C 167.96951 35.622971 168.53721 35.350276 169.23438 35.097656 C 170.6287 34.592417 172.54055 34.16381 175.01758 33.722656 C 176.65395 33.431231 177.87782 33.099454 178.83203 32.662109 C 179.78624 32.224765 180.47108 31.680004 181.03516 30.962891 C 181.98869 29.750738 182.48484 28.836913 182.51758 28.320312 C 182.53395 28.062012 182.43493 27.904628 182.21875 27.857422 C 182.00257 27.810216 181.66905 27.873808 181.21875 28.0625 C 180.12599 28.520409 177.91237 29.036942 175.91406 29.380859 C 173.91575 29.724777 172.13256 29.896232 171.90234 29.666016 C 171.67025 29.43393 172.9043 27.698464 174.64453 25.810547 C 176.36609 23.942867 177.96809 21.713091 179.13086 19.673828 C 179.71225 18.654197 180.18281 17.682633 180.50586 16.828125 C 180.82891 15.973617 181.00266 15.236251 180.98828 14.685547 C 180.9833 14.494143 180.9265 14.413444 180.82617 14.431641 C 180.72584 14.449837 180.58294 14.566105 180.4082 14.769531 C 180.05872 15.176384 179.58208 15.930089 179.06055 16.931641 C 178.47645 18.053338 177.90139 18.994109 177.31055 19.773438 C 176.7197 20.552766 176.11305 21.170182 175.45898 21.648438 C 174.80492 22.126693 174.10385 22.465114 173.33008 22.683594 C 172.5563 22.902073 171.70972 23 170.75977 23 C 169.14664 23 167.82617 22.859252 167.82617 22.685547 C 167.82617 22.511836 168.87505 20.029806 170.1582 17.169922 C 170.97888 15.3408 171.614 13.787272 172.07031 12.433594 C 172.52663 11.079915 172.80423 9.9247782 172.91211 8.8945312 C 173.01998 7.8642843 172.95902 6.9584371 172.73438 6.0996094 C 172.50973 5.2407817 172.12133 4.4292645 171.58008 3.5898438 L 171.27734 3.1191406 L 169.59375 3.1191406 L 169.28125 6.1054688 C 169.04368 8.3731689 168.66461 10.514897 168.18164 12.451172 C 167.69867 14.387447 167.11025 16.118556 166.45312 17.566406 C 165.796 19.014256 165.07056 20.179997 164.31055 20.982422 C 163.93054 21.383634 163.54276 21.693878 163.15039 21.904297 C 162.75802 22.114716 162.36067 22.224609 161.96484 22.224609 C 161.6508 22.224609 161.2136 22.045955 160.76172 21.759766 C 160.30984 21.473577 159.84423 21.080702 159.47266 20.646484 C 158.92769 20.009626 158.58876 19.231238 158.38477 17.8125 C 158.18077 16.393762 158.11192 14.334109 158.10547 11.134766 C 158.10114 9.0269776 158.046 7.2799717 157.91406 5.7988281 C 157.81968 4.739295 157.62702 3.9434004 157.44141 3.1191406 L 153.55273 3.1191406 z M 146.58203 238.53906 L 149.24219 240.09375 C 150.27651 240.69783 151.17969 241.37521 151.95117 242.12891 C 152.72265 242.88261 153.36352 243.71273 153.875 244.62109 C 154.38648 245.52946 154.76912 246.51591 155.02344 247.58398 C 155.27775 248.65206 155.4043 249.80037 155.4043 251.0332 C 155.4043 252.67677 155.32272 254.01504 155.07227 255.1582 C 154.82181 256.30136 154.40127 257.25089 153.72461 258.11914 C 153.04795 258.98739 152.11453 259.77297 150.83594 260.5918 C 149.55734 261.41062 147.93323 262.26096 145.87695 263.25586 C 143.90597 264.2095 141.32927 265.30435 138.76367 266.29883 C 136.19808 267.29331 133.64431 268.18892 131.72266 268.74414 C 129.90472 269.26941 127.85323 269.72991 125.75586 270.10938 C 123.65849 270.48884 121.5153 270.78602 119.51758 270.98242 C 117.51986 271.17882 115.66742 271.27589 114.14844 271.25195 C 112.62945 271.22802 111.44438 271.08427 110.7832 270.80273 C 110.44727 270.65968 110.22086 270.51863 110.14062 270.33789 C 110.06039 270.15715 110.12622 269.93571 110.37109 269.63086 C 110.86085 269.02115 112.07061 268.07779 114.27734 266.45312 C 117.04019 264.41906 121.58057 261.3998 124.36719 259.74414 C 127.15381 258.08849 131.50523 255.06511 134.03711 253.02539 C 136.12283 251.3451 137.59793 250.01988 139.18164 248.24414 C 140.76536 246.4684 142.45634 244.24172 144.97461 240.75977 L 146.58203 238.53906 z "
         id="rect3179"
         transform="matrix(1.0090505,0,0,1.0106742,-1.2782867,-1.9225941)" />
    </g>
    <g
       transform="matrix(0.99103064,0,0,0.98943856,1.2668213,1.9022887)"
       id="layer5"
       style="display:inline;fill:#ffffff;fill-opacity:1"
       clip-path="none">
      <g
         id="g3342"
         transform="matrix(1.0090505,0,0,1.0106742,411.46737,-30.548174)"
         style="fill:#ffffff;fill-opacity:1">
        <g
           style="display:none;fill:#ffffff;fill-opacity:1"
           id="layer1-27"
           inkscape:label="Button">
          <path
             transform="matrix(1.0015936,0,0,1.0000039,-0.00173336,0.71369073)"
             d="M 300,149.64285 A 149.64285,149.64285 0 0 1 150.35715,299.28571 149.64285,149.64285 0 0 1 0.71429443,149.64285 149.64285,149.64285 0 0 1 150.35715,0 149.64285,149.64285 0 0 1 300,149.64285 Z"
             sodipodi:ry="149.64285"
             sodipodi:rx="149.64285"
             sodipodi:cy="149.64285"
             sodipodi:cx="150.35715"
             id="path3221-6"
             style="fill:#ffffff;fill-opacity:1;fill-rule:evenodd;stroke:#000000;stroke-width:1px;stroke-linecap:butt;stroke-linejoin:miter;stroke-opacity:0;filter:url(#filter4089-5)"
             sodipodi:type="arc" />
          <path
             transform="matrix(1.7575395,0,0,2.3083681,-112.20297,-59.060263)"
             d="M 212.85715,63.57143 A 63.57143,37.142857 0 0 1 149.28572,100.71429 63.57143,37.142857 0 0 1 85.714291,63.57143 63.57143,37.142857 0 0 1 149.28572,26.428574 63.57143,37.142857 0 0 1 212.85715,63.57143 Z"
             sodipodi:ry="37.142857"
             sodipodi:rx="63.57143"
             sodipodi:cy="63.57143"
             sodipodi:cx="149.28572"
             id="path4007-1"
             style="fill:#ffffff;fill-opacity:1;stroke:#000000;stroke-opacity:0"
             sodipodi:type="arc" />
        </g>
        <g
           style="display:inline;fill:#ffffff;fill-opacity:1"
           inkscape:label="Schatten"
           id="layer2-2"
           transform="translate(-706.77969,-20.338983)">
          <g
             id="g3350"
             transform="translate(-6.9915273,131.5678)"
             style="fill:#ffffff">
            <g
               style="display:none;fill:#ffffff"
               id="layer1-1"
               inkscape:label="Button">
              <path
                 transform="matrix(1.0015936,0,0,1.0000039,-0.00173336,0.71369073)"
                 d="M 300,149.64285 A 149.64285,149.64285 0 0 1 150.35715,299.28571 149.64285,149.64285 0 0 1 0.71429443,149.64285 149.64285,149.64285 0 0 1 150.35715,0 149.64285,149.64285 0 0 1 300,149.64285 Z"
                 sodipodi:ry="149.64285"
                 sodipodi:rx="149.64285"
                 sodipodi:cy="149.64285"
                 sodipodi:cx="150.35715"
                 id="path3221-9"
                 style="fill:#ffffff;fill-opacity:1;fill-rule:evenodd;stroke:#000000;stroke-width:1px;stroke-linecap:butt;stroke-linejoin:miter;stroke-opacity:0;filter:url(#filter4089-4)"
                 sodipodi:type="arc" />
              <path
                 transform="matrix(1.7575395,0,0,2.3083681,-112.20297,-59.060263)"
                 d="M 212.85715,63.57143 A 63.57143,37.142857 0 0 1 149.28572,100.71429 63.57143,37.142857 0 0 1 85.714291,63.57143 63.57143,37.142857 0 0 1 149.28572,26.428574 63.57143,37.142857 0 0 1 212.85715,63.57143 Z"
                 sodipodi:ry="37.142857"
                 sodipodi:rx="63.57143"
                 sodipodi:cy="63.57143"
                 sodipodi:cx="149.28572"
                 id="path4007-8"
                 style="fill:#ffffff;fill-opacity:1;stroke:#000000;stroke-opacity:0"
                 sodipodi:type="arc" />
            </g>
            <g
               style="display:inline;fill:#ffffff"
               inkscape:label="Schatten"
               id="layer2-5"
               transform="translate(-3.8135597,-59.110169)"
               inkscape:transform-center-x="5.7203391"
               inkscape:transform-center-y="-59.745764" />
          </g>
        </g>
      </g>
    </g>
    <path
       inkscape:connector-curvature="0"
       style="display:inline;fill:#ffffff;fill-opacity:1;fill-rule:nonzero;stroke:#552200;stroke-width:0.9807238;stroke-opacity:0"
       d="m 132.41857,3.1290105 c 1.79445,2.64993 2.85399,5.93302 2.86914,9.2578095 0.0308,6.76372 -2.99332,8.90817 -6.20313,4.40039 -1.79855,-2.52581 -5.25079,-4.64648 -7.56445,-4.64648 -1.68137,0 -8.73047,4.29731 -8.73047,5.32226 0,0.38399 1.60648,0.5165 3.57227,0.29492 3.76205,-0.42403 4.93108,0.32845 4.95508,3.18555 0.0216,2.59665 -4.80076,8.18697 -12.76758,14.79883 -10.257708,8.51311 -13.619104,12.25528 -13.619104,15.16602 0,1.66789 -0.75061,2.88943 -2.83008,4.60351 l -2.83008,2.33399 1.27735,2.6914 c 1.74277,3.67261 1.63237,4.51601 -1.02149,7.85547 -3.11602,3.921 -3.46306,5.418 -1.83398,7.9043 1.62087,2.47375 1.70168,8.52108 0.21679,16.39062 -1.28155,6.79198 -0.53224,16.8316 1.86915,25.04688 1.061,3.62976 4.36747,13.06282 7.3496,20.96289 6.349874,16.82185 7.593314,20.92077 8.665984,28.5918 1.53568,10.98235 -1.15485,19.85496 -7.976524,26.30664 -4.72719,4.47078 -7.7283,5.48079 -11.54102,3.88476 -7.71362,-3.22896 -12.7202,-13.52653 -21.70312,-44.62695 C 55.449436,121.26658 47.656676,108.23511 30.080716,95.16807 22.976948,89.88669 12.787515,81.72847 2.9869649,73.63096 l 0,98.76953 c 11.5402171,11.30876 24.4995201,20.81688 38.2636711,27.92579 3.86494,1.99617 7.2114,3.9244 7.43555,4.28711 0.22416,0.36268 -1.42052,0.89834 -3.6543,1.18945 -17.828657,2.32353 -31.785751,8.2921 -42.0449211,17.95508 l 0,24.52929 c 0,27.16356 21.8724741,49.03321 49.0410211,49.03321 l 194.265584,0 c 4.71476,-6.66289 7.44701,-13.64585 6.25195,-18.08399 -2.99115,-11.10825 -22.10279,-15.34941 -43.77734,-9.71484 -3.89336,1.01211 -12.997,3.98419 -20.22852,6.60547 -9.60122,3.4802 -14.20807,4.76592 -17.08008,4.76562 -4.60311,-5e-4 -8.05063,-1.13512 -8.71679,-2.87109 -0.76252,-1.98709 1.20442,-12.03396 3.21875,-16.44336 5.08271,-11.12628 12.38334,-14.90741 22.14062,-11.46484 3.93789,1.38937 3.88086,1.38623 3.88086,0.33007 0,-0.45988 -1.02128,-1.85917 -2.26953,-3.10742 -3.14593,-3.1459 -8.03512,-3.10508 -16.44141,0.13672 -3.43144,1.32329 -6.39676,2.24776 -6.58984,2.05469 -0.19311,-0.19308 -0.56556,-3.13627 -0.82813,-6.54102 -0.80236,-10.4051 1.59711,-14.6636 8.12891,-14.42383 l 3.63672,0.13282 -2.33008,-1.9043 c -3.17891,-2.5986 -5.27854,-2.39857 -8.86523,0.8418 -3.64818,3.2959 -5.49805,8.14902 -5.49805,14.42187 0,7.0356 -2.28628,6.88407 -5.97461,-0.39453 -3.27522,-6.46329 -2.41046,-14.42347 1.45703,-13.41211 1.75346,0.45853 1.74961,0.33923 -0.0605,-3.20898 -2.70582,-5.30388 -2.457,-10.18068 0.68945,-13.57227 1.27683,-1.37631 4.59619,-6.32331 7.37695,-10.99219 6.69277,-11.23721 12.41794,-18.65081 21.35742,-27.65234 16.5207,-16.63529 33.46746,-27.64442 70.6543,-45.90234 23.2632,-11.42169 33.77603,-16.6595 40.80469,-20.46875 l 0,-12.04688 c -8.10769,3.9288 -17.34056,8.1625 -27.99414,12.85156 -27.08456,11.92104 -48.47801,22.62224 -59.86719,29.94532 -18.70827,12.0291 -35.99291,27.63339 -47.23828,42.64648 -3.35854,4.48382 -6.43479,8.15234 -6.83789,8.15234 -0.40311,0 -1.83455,-1.51764 -3.17969,-3.37304 -2.3141,-3.19197 -2.46039,-3.81251 -2.71289,-11.52539 l -0.26562,-8.15235 -3.08985,-3.08789 c -2.70892,-2.70891 -3.00339,-3.34507 -2.39258,-5.16797 1.183,-3.53052 -0.14904,-7.02063 -4.30859,-11.29101 -3.41478,-3.50572 -3.8347,-4.29188 -3.48438,-6.51172 0.48928,-3.10009 -1.02306,-5.60847 -4.78515,-7.93359 -1.95464,-1.20799 -2.75781,-2.26136 -2.75781,-3.6211 0,-1.05493 -0.66742,-3.20987 -1.48438,-4.78906 -7.48995,-14.47851 -7.39319,-18.61409 0.37109,-15.66211 3.18476,1.21085 4.4968,0.35947 6.00977,-3.90039 0.78935,-2.22243 2.20682,-4.433 3.30469,-5.15235 2.7724,-1.81656 7.19881,-0.92647 9.65625,1.94141 2.8381,3.31214 5.83985,4.98342 7.81836,4.35547 1.52524,-0.48411 1.63818,-0.90431 1.21289,-4.52735 -1.38008,-11.75685 -1.49048,-15.2539 -0.48047,-15.2539 0.55545,0 3.85243,2.88325 7.32617,6.40625 5.34412,5.41991 6.99747,7.77098 10.74805,15.2793 2.43792,4.88051 4.43164,9.68461 4.43164,10.67578 0,0.99116 0.31519,1.80078 0.69922,1.80078 0.93045,0 1.46933,-6.732 0.79101,-9.875 -0.43125,-1.99812 -0.26542,-2.58519 0.82617,-2.93164 1.21975,-0.38713 1.04869,-1.06245 -1.60742,-6.34961 -2.88369,-5.74017 -6.39443,-15.01375 -5.8789,-15.5293 0.13983,-0.13981 3.1305,-0.66126 6.64453,-1.1582 7.80234,-1.1034 13.50167,-0.22613 20.83398,3.20508 2.77282,1.29755 5.16733,2.35937 5.32227,2.35937 0.15502,0 -0.0788,-0.96042 -0.51953,-2.13476 -1.09964,-2.9299 -6.56383,-8.42113 -16.24024,-16.31836 -8.28869,-6.7647 -13.11722,-11.5477 -13.16992,-13.04493 -0.10184,-2.89787 -2.78033,-9.16054 -5.44531,-12.73242 -5.15825,-6.91364 -4.28899,-8.50296 5.61914,-10.26758 3.27274,-0.58285 4.88942,-1.32554 6.01758,-2.75976 1.90706,-2.42431 1.98481,-3.65516 0.18359,-2.90039 -2.18552,0.91581 -8.85598,2.06395 -9.31641,1.60351 -0.23209,-0.23208 1.00196,-1.96755 2.74219,-3.85547 3.44312,-3.73536 6.40125,-8.92218 6.34375,-11.125 -0.0199,-0.76561 -0.88467,0.243 -1.92773,2.2461 -2.33641,4.48679 -4.501,6.06836 -8.30082,6.06836 -1.61313,0 -2.9336,-0.14075 -2.9336,-0.31446 0,-0.17371 1.04888,-2.65574 2.33203,-5.51562 3.2827,-7.3164891 3.58687,-10.2223995 1.42188,-13.5800795 l -0.30274,-0.4707 -1.68359,0 -0.3125,2.98633 c -0.95027,9.0707995 -4.14979,16.1191395 -7.31641,16.1191395 -0.62809,0 -1.74903,-0.70969 -2.49218,-1.57813 -1.08993,-1.27372 -1.35429,-3.11303 -1.36719,-9.51172 -0.007,-3.5429495 -0.15737,-6.0560195 -0.58203,-8.0156195 l -3.95117,0 c 0.48387,5.76907 -0.91608,10.4306095 -4.125,13.4570295 -1.48264,1.39829 -2.93278,2.54041 -3.22266,2.53711 -0.28986,-0.003 -0.56749,-2.24332 -0.61719,-4.97656 -0.086,-4.7244095 -1.1546,-8.3916395 -3.17187,-11.0175795 l -10.10547,0 z m 14.25195,235.4199195 2.66016,1.55469 c 4.13728,2.41631 6.16211,6.00811 6.16211,10.93945 0,6.57427 -1.30225,8.24305 -9.52735,12.22266 -3.94197,1.90728 -10.31099,4.37783 -14.15429,5.48828 -7.27175,2.10107 -18.29477,3.18474 -20.93946,2.05859 -1.34373,-0.5722 -0.91933,-1.10028 3.49414,-4.34961 2.76285,-2.03406 7.30323,-5.05332 10.08985,-6.70898 2.78662,-1.65565 7.13804,-4.67903 9.66992,-6.71875 4.17145,-3.36059 5.90097,-5.30172 10.9375,-12.26562 l 1.60742,-2.22071 z m -1.4043,32.11133 c 2.38427,-0.0113 3.72654,1.53089 6.27344,4.97852 1.72825,2.33945 3.49906,4.47436 3.93555,4.74414 1.4273,0.8821 0.83278,1.95312 -1.08399,1.95312 -1.03214,0 -5.55339,1.786 -10.04687,3.97071 -8.77919,4.26841 -13.8618,5.37805 -16.41602,3.58398 -0.85406,-0.59987 -3.56018,-1.90958 -6.01562,-2.91211 -2.45544,-1.00255 -4.46484,-2.04396 -4.46484,-2.3125 0,-1.01534 4.40433,-4.556 7.76367,-6.24219 1.92165,-0.96454 7.11558,-3.25092 11.54101,-5.08008 4.17502,-1.72567 6.65924,-2.67478 8.51367,-2.68359 z"
       id="rect3179-7" />
  </g>
  <g
     id="layer1"
     style="display:none">
    <path
       d="m 300,149.64285 a 149.64285,149.64285 0 1 1 -299.28570557,0 149.64285,149.64285 0 1 1 299.28570557,0 z"
       transform="matrix(1.0015936,0,0,1.0000039,-0.00173336,0.71369073)"
       id="path3221"
       style="fill:url(#linearGradient4005);fill-opacity:1;fill-rule:evenodd;stroke:#000000;stroke-width:1px;stroke-linecap:butt;stroke-linejoin:miter;stroke-opacity:0;filter:url(#filter4089)" />
    <path
       d="m 212.85715,63.57143 a 63.57143,37.142857 0 1 1 -127.142859,0 63.57143,37.142857 0 1 1 127.142859,0 z"
       transform="matrix(1.7575395,0,0,2.3083681,-112.20297,-59.060263)"
       id="path4007"
       style="fill:url(#linearGradient4015);fill-opacity:1;stroke:#000000;stroke-opacity:0" />
  </g>
  <g
     id="layer3"
     style="display:none">
    <g
       transform="matrix(7.6581652,0,0,7.6581652,1681.0722,-1177.5586)"
       id="layer1-2">
      <path
         d="m -148.03125,80.96875 c -6.0579,-0.03504 -11.91131,4.711237 -11.8125,12.84375 l 0.0631,1.151808 c 0.62231,7.603432 4.13029,13.291242 12.93687,13.160692 2.52613,-0.004 5.68576,-0.29706 8.46875,-1.03125 0.35724,2.42974 0.1825,4.6184 0.1875,7.21875 l 1.28125,0 c 0.24505,-3.68777 0.0109,-7.26047 0.1875,-11.1875 l -0.0937,0 c -2.97137,1.06406 -5.15714,3.00998 -9.375,2.90625 -10.48573,-0.17175 -15.74858,-17.5421 -3.84375,-22.28125 4.78342,-1.58919 6.63867,1.44949 8.40625,4.34375 l 7.15625,-6.8125 c -6.03654,5.13181 -3.71384,4.85286 -5.71875,2.84375 -2.29826,-2.126353 -5.09016,-3.140321 -7.84375,-3.15625 z"
         transform="translate(-53.051416,77.162831)"
         id="text2395"
         style="font-size:40px;font-style:normal;font-variant:normal;font-weight:normal;font-stretch:normal;text-align:start;line-height:125%;writing-mode:lr-tb;text-anchor:start;fill:#ffffff;fill-opacity:1;stroke:#ffffff;stroke-width:1px;stroke-linecap:butt;stroke-linejoin:miter;stroke-opacity:1;font-family:'Magic:the Gathering';-inkscape-font-specification:'Magic:the Gathering'" />
    </g>
  </g>
  <g
     transform="matrix(0.99103064,0,0,0.98943856,1.2668213,1.9022887)"
     id="layer2"
     style="display:inline" />
</svg>
