<?xml version="1.0" encoding="UTF-8" standalone="no"?>
<!-- Created with Inkscape (http://www.inkscape.org/) -->

<svg
   xmlns:dc="http://purl.org/dc/elements/1.1/"
   xmlns:cc="http://creativecommons.org/ns#"
   xmlns:rdf="http://www.w3.org/1999/02/22-rdf-syntax-ns#"
   xmlns:svg="http://www.w3.org/2000/svg"
   xmlns="http://www.w3.org/2000/svg"
   xmlns:xlink="http://www.w3.org/1999/xlink"
   xmlns:sodipodi="http://sodipodi.sourceforge.net/DTD/sodipodi-0.dtd"
   xmlns:inkscape="http://www.inkscape.org/namespaces/inkscape"
   version="1.0"
   width="300"
   height="300"
   id="svg2"
   inkscape:version="0.91 r13725"
   sodipodi:docname="cockatrice-rounded.svg">
  <sodipodi:namedview
     pagecolor="#ffffff"
     bordercolor="#666666"
     borderopacity="1"
     objecttolerance="10"
     gridtolerance="10"
     guidetolerance="10"
     inkscape:pageopacity="0"
     inkscape:pageshadow="2"
     inkscape:window-width="1280"
     inkscape:window-height="961"
     id="namedview40"
     showgrid="false"
     inkscape:zoom="1.5733333"
     inkscape:cx="134.68704"
     inkscape:cy="189.33571"
     inkscape:window-x="-8"
     inkscape:window-y="-8"
     inkscape:window-maximized="1"
     inkscape:current-layer="g3026" />
  <defs
     id="defs4">
    <linearGradient
       id="linearGradient4009">
      <stop
         id="stop4011"
         style="stop-color:#ffffff;stop-opacity:1"
         offset="0" />
      <stop
         id="stop4013"
         style="stop-color:#ffffff;stop-opacity:0"
         offset="1" />
    </linearGradient>
    <linearGradient
       id="linearGradient3999">
      <stop
         id="stop4001"
         style="stop-color:#0e5d0c;stop-opacity:1"
         offset="0" />
      <stop
         id="stop4003"
         style="stop-color:#fbe432;stop-opacity:0"
         offset="1" />
    </linearGradient>
    <linearGradient
       x1="151.90253"
       y1="22.857647"
       x2="149.76308"
       y2="362.14203"
       id="linearGradient4005"
       xlink:href="#linearGradient3999"
       gradientUnits="userSpaceOnUse" />
    <linearGradient
       x1="146.73463"
       y1="13.08154"
       x2="146.34395"
       y2="70.021851"
       id="linearGradient4015"
       xlink:href="#linearGradient4009"
       gradientUnits="userSpaceOnUse" />
    <filter
       color-interpolation-filters="sRGB"
       id="filter4089">
      <feFlood
         flood-opacity="0.5"
         flood-color="rgb(0,0,0)"
         result="flood"
         id="feFlood4091" />
      <feComposite
         in2="SourceGraphic"
         operator="in"
         in="flood"
         result="composite1"
         id="feComposite4093" />
      <feGaussianBlur
         stdDeviation="8"
         result="blur"
         id="feGaussianBlur4095" />
      <feOffset
         dx="-10"
         dy="10"
         result="offset"
         id="feOffset4097" />
      <feComposite
         in2="offset"
         operator="over"
         in="SourceGraphic"
         result="composite2"
         id="feComposite4099" />
    </filter>
    <linearGradient
       x1="-11.132094"
       y1="-102.87244"
       x2="162.79993"
       y2="297.84183"
       id="linearGradient5515"
       xlink:href="#linearGradient4265-7-8"
       gradientUnits="userSpaceOnUse"
       gradientTransform="matrix(0.98944413,0,0,0.99110109,1.5657249,1.2454144)" />
    <clipPath
       id="clipPath3022">
      <rect
         width="299.22098"
         height="299.93524"
         x="0.38951334"
         y="-0.32475936"
         id="rect3024"
         style="fill:#ff0000;fill-opacity:1;fill-rule:nonzero;stroke:#ffffff;stroke-width:1.06475067;stroke-opacity:0" />
    </clipPath>
    <linearGradient
       id="linearGradient4265-7-8">
      <stop
         id="stop4267-4-8"
         style="stop-color:#c9fd62;stop-opacity:1"
         offset="0" />
      <stop
         id="stop4269-0-2"
         style="stop-color:#139740;stop-opacity:1"
         offset="1" />
    </linearGradient>
    <clipPath
       id="clipPath3864">
      <path
         d="m 59.64507,382.98154 c -1.169795,-7.35231 -4.456654,-14.87105 -7.572259,-17.32181 -3.142017,-2.4715 -7.931525,-2.26067 -11.20432,0.4932 -3.363934,2.83053 -4.401884,4.77531 -5.555592,10.40919 l -0.938137,4.58114 -2.012305,-2.82605 c -2.970547,-4.17173 -2.737962,-9.41106 0.687113,-15.48 3.214349,-5.69548 3.393283,-7.34524 0.796831,-7.34659 -8.971765,-0.007 -44.962302,-1.99898 -54.753093,-3.03401 -62.19206,-6.57462 -92.358408,-26.49326 -93.218288,-61.55152 -0.23124,-9.42809 0.7269,-11.54923 9.50004,-21.03126 6.492684,-7.01725 10.087284,-9.20047 4.27323,-2.59534 -1.91622,2.17693 -4.67058,6.44424 -6.12079,9.48289 -2.60729,5.46308 -2.62651,5.60066 -1.72098,12.31984 1.20487,8.94034 3.60941,14.96245 8.675184,21.7268 10.43607,13.93535 30.355238,23.52865 56.734322,27.32398 8.573807,1.23355 35.4070043,1.84249 35.4070043,0.8035 0,-0.26925 -1.845373,-2.64751 -4.1008063,-5.28504 -23.782846,-27.81156 -26.942558,-64.54816 -7.668252,-89.15595 11.4755603,-14.65104 28.7588126,-23.42814 52.130731,-26.47408 2.43284,-0.31707 4.223611,-0.89966 3.979478,-1.29467 -0.24412,-0.39502 -3.887881,-2.49695 -8.097223,-4.67099 -25.9567737,-13.40615 -49.317212,-34.60835 -66.498273,-60.35458 -6.697673,-10.03667 -18.575957,-33.86874 -23.315978,-46.78027 -5.24991,-14.300351 -10.089289,-30.996729 -12.804763,-44.177572 -2.272298,-11.029774 -4.082902,-16.722117 -6.055544,-19.037775 -1.709961,-2.007311 -1.379727,-2.52057 1.031837,-1.603702 3.361818,1.278163 7.132624,1.038759 7.132624,-0.452827 0,-0.702645 -1.71235,-4.524191 -3.805257,-8.492327 -2.098001,-3.977884 -3.805213,-8.370411 -3.805213,-9.790548 l 0,-2.575748 2.638187,2.219892 c 1.450994,1.22094 3.697048,2.76744 4.991202,3.436678 3.711537,1.919315 3.721107,-0.205396 0.03511,-7.827343 -5.09995,-10.5460664 -7.088464,-19.1573744 -5.42485,-23.4926637 0.400059,-1.042589 0.873731,-0.431919 1.750091,2.2562483 3.952987,12.125713 20.708791,39.6733214 31.273539,51.4156104 6.055442,6.730419 42.6258983,37.297521 60.692601,50.7294 19.142154,14.231427 27.628058,28.423837 37.564525,62.825587 9.783386,33.87179 15.237761,45.08637 23.638722,48.60305 4.15248,1.73827 7.42044,0.63818 12.56886,-4.23098 7.42959,-7.0266 10.359102,-16.6886 8.68658,-28.64958 -1.16826,-8.35459 -2.52124,-12.81919 -9.43698,-31.14004 -3.24786,-8.60405 -6.85065,-18.87818 -8.0062,-22.83139 -2.61537,-8.94734 -3.43132,-19.8819 -2.03555,-27.279112 1.61721,-8.570798 1.53061,-15.156777 -0.23469,-17.850962 -1.77426,-2.70785 -1.39603,-4.337676 1.99767,-8.608078 2.89034,-3.637057 3.00961,-4.554809 1.11154,-8.554687 l -1.39184,-2.933089 3.08306,-2.541317 c 2.26477,-1.866843 3.08304,-3.197615 3.08304,-5.014137 0,-3.170127 3.65911,-7.245204 14.830922,-16.51694 8.67674,-7.201036 13.93039,-13.290028 13.90682,-16.11806 -0.0261,-3.111699 -1.2988,-3.929731 -5.39607,-3.467897 -2.14098,0.241312 -3.89266,0.09651 -3.89266,-0.321606 0,-1.116286 7.678,-5.7967574 9.50921,-5.7967574 2.51983,0 6.28062,2.309999 8.23944,5.0608864 3.49581,4.90946 6.78896,2.572536 6.75537,-4.7938934 -0.0235,-5.140521 -2.30362,-10.217398 -5.97723,-13.3085333 l -2.85398,-2.401491 5.51786,0.351363 c 9.53505,0.607138 14.45127,6.4050803 14.6491,17.2764073 0.0542,2.9768094 0.35682,5.4153784 0.67251,5.4190494 0.31571,0.0041 1.89514,-1.239317 3.5099,-2.762202 4.59163,-4.3304934 5.7917,-11.72938941 3.39114,-20.9081297 l -0.55288,-2.1140123 1.91054,1.6892163 c 3.78721,3.348476 4.66042,6.2234203 4.67929,15.4058713 0.014,6.9688824 0.3022,8.9714784 1.48926,10.3586894 0.80936,0.945821 2.03124,1.719671 2.71531,1.719671 3.4488,0 6.93236,-7.675375 7.96731,-17.55447241 l 0.5971,-5.69972699 1.9083,2.959634 c 2.35791,3.656881 2.02666,6.820628 -1.54856,14.7890824 -1.39748,3.114728 -2.54088,5.817923 -2.54088,6.007125 0,0.189205 1.43742,0.34398 3.19428,0.34398 4.13842,0 6.49576,-1.723686 9.04033,-6.610294 1.136,-2.181588 2.07963,-3.2801384 2.10134,-2.4463134 0.0625,2.3991224 -3.15927,8.0493704 -6.9092,12.1175854 -1.8953,2.056168 -3.23918,3.945283 -2.98641,4.198071 0.50146,0.501454 7.76611,-0.748833 10.14638,-1.746259 1.96172,-0.822027 1.87675,0.519378 -0.20025,3.159711 -1.22868,1.562013 -2.9891,2.368876 -6.55347,3.00367 -10.79105,1.921839 -11.73888,3.653571 -6.12098,11.183263 2.90246,3.890166 5.81918,10.710472 5.93009,13.866574 0.0573,1.630649 5.31628,6.839569 14.34358,14.207064 10.53866,8.600953 16.49109,14.581578 17.6887,17.772551 0.48006,1.27898 0.73471,2.325411 0.56587,2.325411 -0.16874,0 -2.77778,-1.156239 -5.79768,-2.569411 -7.98569,-3.736957 -14.19314,-4.691707 -22.69074,-3.489988 -3.82716,0.541228 -7.08304,1.108641 -7.23532,1.260907 -0.56148,0.561494 3.26172,10.661073 6.40237,16.912756 2.89281,5.75827 3.07927,6.49483 1.75082,6.91646 -1.18885,0.37733 -1.36907,1.01711 -0.89939,3.19327 0.73876,3.42307 0.15068,10.75472 -0.86268,10.75472 -0.41825,0 -0.76047,-0.88324 -0.76047,-1.96274 0,-1.07949 -2.1724,-6.31168 -4.82755,-11.62709 -4.08479,-8.17738 -5.88599,-10.73778 -11.70631,-16.640647 -3.78329,-3.836938 -7.37367,-6.976266 -7.97862,-6.976266 -1.10001,0 -0.98015,3.807824 0.52291,16.612323 0.46319,3.94588 0.34019,4.40513 -1.32097,4.93237 -2.15481,0.68391 -5.42274,-1.13726 -8.51375,-4.74453 -2.67642,-3.123439 -7.49798,-4.092733 -10.51743,-2.11428 -1.1957,0.78344 -2.74001,3.19071 -3.59969,5.61118 -1.64779,4.63946 -3.07507,5.56584 -6.54362,4.24708 -8.45613,-3.21502 -8.56333,1.28946 -0.40598,17.05817 0.88977,1.7199 1.61776,4.06714 1.61776,5.21607 0,1.48091 0.87397,2.6291 3.00279,3.94474 4.09733,2.53231 5.74457,5.26285 5.21169,8.63919 -0.38154,2.41765 0.0771,3.27447 3.79607,7.09259 4.5302,4.65091 5.98039,8.45153 4.69197,12.29665 -0.66525,1.98535 -0.34444,2.67832 2.60587,5.62863 l 3.3645,3.3645 0.29066,8.87788 c 0.27501,8.40017 0.43397,9.07555 2.95429,12.55196 1.465,2.02074 3.02283,3.67408 3.46184,3.67408 0.43903,0 3.79102,-3.99549 7.44884,-8.87886 12.24744,-16.35093 31.07226,-33.346 51.44762,-46.44699 12.40406,-7.97564 35.70355,-19.62975 65.20161,-32.61307 44.52508,-19.597245 66.6966,-32.012685 81.38975,-45.575971 6.90038,-6.369728 -0.69305,5.114618 -9.86394,14.918354 -6.45263,6.897875 -19.26358,16.798287 -31.21499,24.123217 -9.34037,5.72466 -16.36104,9.34086 -54.26333,27.94999 -40.50053,19.88488 -58.95744,31.87616 -76.9503,49.9938 -9.73607,9.80365 -15.97195,17.87709 -23.26112,30.11564 -3.02855,5.08493 -6.6442,10.47171 -8.0348,11.97066 -3.42683,3.69381 -3.696,9.00583 -0.74907,14.78234 1.97147,3.86439 1.97388,3.99393 0.0642,3.49454 -4.21212,-1.10148 -5.15404,7.56882 -1.58697,14.60805 4.017,7.9272 6.50828,8.09133 6.50828,0.42878 0,-6.83182 2.01483,-12.11646 5.98809,-15.70606 3.90631,-3.52912 6.19348,-3.74609 9.65565,-0.91594 l 2.53683,2.07377 -3.96092,-0.14526 c -7.11384,-0.26114 -9.72799,4.37701 -8.85412,15.70932 0.28598,3.70815 0.69197,6.91419 0.90228,7.12448 0.21029,0.21028 3.44009,-0.79684 7.17731,-2.23805 9.15537,-3.53068 14.48116,-3.57489 17.90742,-0.14868 1.35948,1.35949 2.47177,2.88159 2.47177,3.38245 0,1.15028 0.0608,1.15541 -4.22803,-0.35777 -10.62675,-3.74933 -18.57742,0.36729 -24.11302,12.48503 -2.19384,4.80232 -4.33521,15.74445 -3.50475,17.90861 0.72551,1.89065 4.47938,3.12769 9.49267,3.12822 3.12793,3.2e-4 8.14657,-1.39985 18.60336,-5.19018 7.87591,-2.85485 17.78919,-6.09256 22.02949,-7.19485 23.60597,-6.13667 44.42201,-1.51723 47.67969,10.58087 2.42995,9.02421 -9.97346,27.72235 -23.70819,35.74004 -9.59289,5.59993 -25.72741,9.84575 -42.25122,11.11853 -3.48813,0.26865 -16.61617,0.87627 -29.17346,1.35024 -34.0606,1.28557 -48.36137,3.17344 -63.32521,8.3596 -7.740562,2.68277 -17.430292,7.3593 -17.430292,8.41241 0,0.38372 0.93119,1.12198 2.06931,1.64053 1.13812,0.51856 2.69123,1.89202 3.45135,3.05213 1.1851,1.8087 1.24319,2.77824 0.40759,6.80338 -0.53598,2.58172 -1.23542,4.69407 -1.55427,4.69407 -0.31885,0 -1.07681,-1.59262 -1.68431,-3.53915 C 82.531878,365.1821 72.475009,360.61978 61.7356,364.71612 l -2.341103,0.89297 2.55249,4.52279 c 3.153496,5.58764 3.4997,12.12383 0.870562,16.43592 -0.921581,1.51152 -1.785708,2.74821 -1.920211,2.74821 -0.13463,0 -0.698151,-2.85044 -1.252465,-6.33437 l 0,0 z m 81.50343,-77.28266 c 4.89388,-2.37938 9.81768,-4.32617 10.94178,-4.32617 2.08757,0 2.73394,-1.16488 1.17945,-2.12558 -0.47538,-0.29382 -2.40438,-2.61885 -4.28664,-5.16677 -4.9313,-6.67527 -5.71156,-6.79643 -16.10482,-2.50055 -4.81976,1.99216 -10.47559,4.48166 -12.56848,5.53215 -3.65866,1.83645 -8.45605,5.6944 -8.45605,6.80021 0,0.29248 2.18801,1.42511 4.86225,2.51699 2.67424,1.09187 5.62326,2.51978 6.55344,3.1731 2.78182,1.95395 8.31756,0.74538 17.87907,-3.90338 l 0,0 z m -13.65106,-19.11844 c 4.18578,-1.20941 11.12314,-3.89847 15.41637,-5.97571 8.95805,-4.33422 10.37467,-6.15198 10.37467,-13.31208 0,-5.37077 -2.20346,-9.28405 -6.70942,-11.91568 l -2.89846,-1.69278 -1.7495,2.41902 c -5.48534,7.58445 -7.37045,9.69811 -11.91362,13.35816 -2.75749,2.22149 -7.49675,5.51442 -10.53166,7.3176 -3.03495,1.8032 -7.97999,5.09108 -10.98903,7.30641 -4.80677,3.53886 -5.26872,4.11399 -3.80523,4.7372 2.88035,1.22648 14.88616,0.0461 22.80588,-2.24214 l 0,0 z"
         transform="translate(512.14734,15.192898)"
         clip-path="url(#clipPath3022)"
         id="path3866"
         style="fill:#ffffff;fill-opacity:1;stroke:#000000;stroke-width:0.84560776;stroke-opacity:0" />
    </clipPath>
    <linearGradient
       x1="-11.132094"
       y1="-102.87244"
       x2="162.79993"
       y2="297.84183"
       id="linearGradient3020"
       xlink:href="#linearGradient4265-7-8"
       gradientUnits="userSpaceOnUse"
       gradientTransform="matrix(0.98056945,0,0,0.98063364,2.8185026,3.1345497)" />
    <filter
       id="filter4089-6"
       inkscape:label="Drop Shadow"
       color-interpolation-filters="sRGB">
      <feFlood
         id="feFlood4091-0"
         result="flood"
         flood-color="rgb(0,0,0)"
         flood-opacity="0.5" />
      <feComposite
         id="feComposite4093-4"
         result="composite1"
         operator="in"
         in2="SourceGraphic"
         in="flood" />
      <feGaussianBlur
         id="feGaussianBlur4095-9"
         result="blur"
         stdDeviation="8" />
      <feOffset
         id="feOffset4097-4"
         result="offset"
         dy="10"
         dx="-10" />
      <feComposite
         id="feComposite4099-6"
         result="composite2"
         operator="over"
         in2="offset"
         in="SourceGraphic" />
    </filter>
    <linearGradient
       id="linearGradient3999-7">
      <stop
         id="stop4001-1"
         offset="0"
         style="stop-color:#0e5d0c;stop-opacity:1;" />
      <stop
         id="stop4003-2"
         offset="1"
         style="stop-color:#fbe432;stop-opacity:0;" />
    </linearGradient>
    <linearGradient
       gradientUnits="userSpaceOnUse"
       y2="362.14203"
       x2="149.76308"
       y1="22.857647"
       x1="151.90253"
       id="linearGradient4005-7"
       xlink:href="#linearGradient3999-7"
       inkscape:collect="always" />
    <filter
       id="filter4089-5"
       inkscape:label="Drop Shadow"
       style="color-interpolation-filters:sRGB;">
      <feFlood
         id="feFlood4091-5"
         result="flood"
         flood-color="rgb(0,0,0)"
         flood-opacity="0.5" />
      <feComposite
         id="feComposite4093-1"
         result="composite1"
         operator="in"
         in2="SourceGraphic"
         in="flood" />
      <feGaussianBlur
         id="feGaussianBlur4095-7"
         result="blur"
         stdDeviation="8"
         in="composite" />
      <feOffset
         id="feOffset4097-1"
         result="offset"
         dy="10"
         dx="-10" />
      <feComposite
         id="feComposite4099-1"
         result="composite2"
         operator="over"
         in2="offset"
         in="SourceGraphic" />
    </filter>
    <inkscape:perspective
       sodipodi:type="inkscape:persp3d"
       inkscape:vp_x="0 : 526.18109 : 1"
       inkscape:vp_y="0 : 1000 : 0"
       inkscape:vp_z="744.09448 : 526.18109 : 1"
       inkscape:persp3d-origin="372.04724 : 350.78739 : 1"
       id="perspective2621" />
    <inkscape:perspective
       sodipodi:type="inkscape:persp3d"
       inkscape:vp_x="0 : 526.18109 : 1"
       inkscape:vp_y="0 : 1000 : 0"
       inkscape:vp_z="744.09448 : 526.18109 : 1"
       inkscape:persp3d-origin="372.04724 : 350.78739 : 1"
       id="perspective2571" />
    <inkscape:perspective
       sodipodi:type="inkscape:persp3d"
       inkscape:vp_x="0 : 526.18109 : 1"
       inkscape:vp_y="0 : 1000 : 0"
       inkscape:vp_z="744.09448 : 526.18109 : 1"
       inkscape:persp3d-origin="372.04724 : 350.78739 : 1"
       id="perspective2519" />
    <inkscape:perspective
       sodipodi:type="inkscape:persp3d"
       inkscape:vp_x="0 : 526.18109 : 1"
       inkscape:vp_y="0 : 1000 : 0"
       inkscape:vp_z="744.09448 : 526.18109 : 1"
       inkscape:persp3d-origin="372.04724 : 350.78739 : 1"
       id="perspective2467" />
    <inkscape:perspective
       sodipodi:type="inkscape:persp3d"
       inkscape:vp_x="0 : 526.18109 : 1"
       inkscape:vp_y="0 : 1000 : 0"
       inkscape:vp_z="744.09448 : 526.18109 : 1"
       inkscape:persp3d-origin="372.04724 : 350.78739 : 1"
       id="perspective2650" />
    <inkscape:perspective
       sodipodi:type="inkscape:persp3d"
       inkscape:vp_x="0 : 526.18109 : 1"
       inkscape:vp_y="0 : 1000 : 0"
       inkscape:vp_z="744.09448 : 526.18109 : 1"
       inkscape:persp3d-origin="372.04724 : 350.78739 : 1"
       id="perspective2578" />
    <inkscape:perspective
       sodipodi:type="inkscape:persp3d"
       inkscape:vp_x="0 : 526.18109 : 1"
       inkscape:vp_y="0 : 1000 : 0"
       inkscape:vp_z="744.09448 : 526.18109 : 1"
       inkscape:persp3d-origin="372.04724 : 350.78739 : 1"
       id="perspective2511" />
    <inkscape:perspective
       sodipodi:type="inkscape:persp3d"
       inkscape:vp_x="0 : 526.18109 : 1"
       inkscape:vp_y="0 : 1000 : 0"
       inkscape:vp_z="744.09448 : 526.18109 : 1"
       inkscape:persp3d-origin="372.04724 : 350.78739 : 1"
       id="perspective2461" />
    <linearGradient
       id="linearGradient3779">
      <stop
         id="stop3781"
         offset="0"
         style="stop-color:#99ff00;stop-opacity:1;" />
      <stop
         id="stop3783"
         offset="1"
         style="stop-color:#0f620f;stop-opacity:1;" />
    </linearGradient>
    <linearGradient
       id="linearGradient3813">
      <stop
         style="stop-color:#007400;stop-opacity:0;"
         offset="0"
         id="stop3815" />
      <stop
         id="stop4577"
         offset="0.5"
         style="stop-color:#007400;stop-opacity:0.40000001;" />
      <stop
         style="stop-color:#007400;stop-opacity:0.60000002;"
         offset="0.75"
         id="stop4579" />
      <stop
         style="stop-color:black;stop-opacity:0.80000001;"
         offset="1"
         id="stop3817" />
    </linearGradient>
    <linearGradient
       id="linearGradient3841">
      <stop
         id="stop3843"
         offset="0"
         style="stop-color:white;stop-opacity:1;" />
      <stop
         id="stop3845"
         offset="1"
         style="stop-color:#fefce9;stop-opacity:0;" />
    </linearGradient>
    <inkscape:perspective
       id="perspective31"
       inkscape:persp3d-origin="150 : 100 : 1"
       inkscape:vp_z="300 : 150 : 1"
       inkscape:vp_y="0 : 1000 : 0"
       inkscape:vp_x="0 : 150 : 1"
       sodipodi:type="inkscape:persp3d" />
    <linearGradient
       id="linearGradient3991">
      <stop
         id="stop3993"
         offset="0"
         style="stop-color:#ff0000;stop-opacity:1;" />
      <stop
         id="stop3995"
         offset="1"
         style="stop-color:#ff0000;stop-opacity:0;" />
    </linearGradient>
    <linearGradient
       id="linearGradient3999-4">
      <stop
         id="stop4001-8"
         offset="0"
         style="stop-color:#0e5d0c;stop-opacity:1;" />
      <stop
         id="stop4003-8"
         offset="1"
         style="stop-color:#fbe432;stop-opacity:0;" />
    </linearGradient>
    <linearGradient
       id="linearGradient4009-4">
      <stop
         id="stop4011-0"
         offset="0"
         style="stop-color:#ffffff;stop-opacity:1;" />
      <stop
         id="stop4013-9"
         offset="1"
         style="stop-color:#ffffff;stop-opacity:0;" />
    </linearGradient>
    <linearGradient
       id="linearGradient4265">
      <stop
         id="stop4267"
         offset="0"
         style="stop-color:#d4fb82;stop-opacity:1;" />
      <stop
         id="stop4269"
         offset="1"
         style="stop-color:#008000;stop-opacity:0.39215687;" />
    </linearGradient>
    <linearGradient
       gradientTransform="translate(-0.35714286,1.0714286)"
       gradientUnits="userSpaceOnUse"
       y2="297.14285"
       x2="148.57143"
       y1="1.4285711"
       x1="147.85715"
       id="linearGradient4271"
       xlink:href="#linearGradient4265-4"
       inkscape:collect="always" />
    <filter
       id="filter4089-6-7"
       inkscape:label="Drop Shadow"
       color-interpolation-filters="sRGB">
      <feFlood
         id="feFlood4091-0-4"
         result="flood"
         flood-color="rgb(0,0,0)"
         flood-opacity="0.5" />
      <feComposite
         id="feComposite4093-4-2"
         result="composite1"
         operator="in"
         in2="SourceGraphic"
         in="flood" />
      <feGaussianBlur
         id="feGaussianBlur4095-9-7"
         result="blur"
         stdDeviation="8" />
      <feOffset
         id="feOffset4097-4-7"
         result="offset"
         dy="10"
         dx="-10" />
      <feComposite
         id="feComposite4099-6-9"
         result="composite2"
         operator="over"
         in2="offset"
         in="SourceGraphic" />
    </filter>
    <linearGradient
       id="linearGradient3999-7-1">
      <stop
         id="stop4001-1-3"
         offset="0"
         style="stop-color:#0e5d0c;stop-opacity:1;" />
      <stop
         id="stop4003-2-8"
         offset="1"
         style="stop-color:#fbe432;stop-opacity:0;" />
    </linearGradient>
    <linearGradient
       gradientUnits="userSpaceOnUse"
       y2="362.14203"
       x2="149.76308"
       y1="22.857647"
       x1="151.90253"
       id="linearGradient4005-7-1"
       xlink:href="#linearGradient3999-7-1"
       inkscape:collect="always" />
    <filter
       id="filter4089-4"
       inkscape:label="Drop Shadow"
       style="color-interpolation-filters:sRGB;">
      <feFlood
         id="feFlood4091-3"
         result="flood"
         flood-color="rgb(0,0,0)"
         flood-opacity="0.5" />
      <feComposite
         id="feComposite4093-12"
         result="composite1"
         operator="in"
         in2="SourceGraphic"
         in="flood" />
      <feGaussianBlur
         id="feGaussianBlur4095-3"
         result="blur"
         stdDeviation="8"
         in="composite" />
      <feOffset
         id="feOffset4097-3"
         result="offset"
         dy="10"
         dx="-10" />
      <feComposite
         id="feComposite4099-4"
         result="composite2"
         operator="over"
         in2="offset"
         in="SourceGraphic" />
    </filter>
    <inkscape:perspective
       sodipodi:type="inkscape:persp3d"
       inkscape:vp_x="0 : 526.18109 : 1"
       inkscape:vp_y="0 : 1000 : 0"
       inkscape:vp_z="744.09448 : 526.18109 : 1"
       inkscape:persp3d-origin="372.04724 : 350.78739 : 1"
       id="perspective2621-2" />
    <inkscape:perspective
       sodipodi:type="inkscape:persp3d"
       inkscape:vp_x="0 : 526.18109 : 1"
       inkscape:vp_y="0 : 1000 : 0"
       inkscape:vp_z="744.09448 : 526.18109 : 1"
       inkscape:persp3d-origin="372.04724 : 350.78739 : 1"
       id="perspective2571-9" />
    <inkscape:perspective
       sodipodi:type="inkscape:persp3d"
       inkscape:vp_x="0 : 526.18109 : 1"
       inkscape:vp_y="0 : 1000 : 0"
       inkscape:vp_z="744.09448 : 526.18109 : 1"
       inkscape:persp3d-origin="372.04724 : 350.78739 : 1"
       id="perspective2519-8" />
    <inkscape:perspective
       sodipodi:type="inkscape:persp3d"
       inkscape:vp_x="0 : 526.18109 : 1"
       inkscape:vp_y="0 : 1000 : 0"
       inkscape:vp_z="744.09448 : 526.18109 : 1"
       inkscape:persp3d-origin="372.04724 : 350.78739 : 1"
       id="perspective2467-1" />
    <inkscape:perspective
       sodipodi:type="inkscape:persp3d"
       inkscape:vp_x="0 : 526.18109 : 1"
       inkscape:vp_y="0 : 1000 : 0"
       inkscape:vp_z="744.09448 : 526.18109 : 1"
       inkscape:persp3d-origin="372.04724 : 350.78739 : 1"
       id="perspective2650-6" />
    <inkscape:perspective
       sodipodi:type="inkscape:persp3d"
       inkscape:vp_x="0 : 526.18109 : 1"
       inkscape:vp_y="0 : 1000 : 0"
       inkscape:vp_z="744.09448 : 526.18109 : 1"
       inkscape:persp3d-origin="372.04724 : 350.78739 : 1"
       id="perspective2578-7" />
    <inkscape:perspective
       sodipodi:type="inkscape:persp3d"
       inkscape:vp_x="0 : 526.18109 : 1"
       inkscape:vp_y="0 : 1000 : 0"
       inkscape:vp_z="744.09448 : 526.18109 : 1"
       inkscape:persp3d-origin="372.04724 : 350.78739 : 1"
       id="perspective2511-5" />
    <inkscape:perspective
       sodipodi:type="inkscape:persp3d"
       inkscape:vp_x="0 : 526.18109 : 1"
       inkscape:vp_y="0 : 1000 : 0"
       inkscape:vp_z="744.09448 : 526.18109 : 1"
       inkscape:persp3d-origin="372.04724 : 350.78739 : 1"
       id="perspective2461-8" />
    <linearGradient
       id="linearGradient3779-2">
      <stop
         id="stop3781-1"
         offset="0"
         style="stop-color:#99ff00;stop-opacity:1;" />
      <stop
         id="stop3783-6"
         offset="1"
         style="stop-color:#0f620f;stop-opacity:1;" />
    </linearGradient>
    <linearGradient
       id="linearGradient3813-1">
      <stop
         style="stop-color:#007400;stop-opacity:0;"
         offset="0"
         id="stop3815-4" />
      <stop
         id="stop4577-2"
         offset="0.5"
         style="stop-color:#007400;stop-opacity:0.40000001;" />
      <stop
         style="stop-color:#007400;stop-opacity:0.60000002;"
         offset="0.75"
         id="stop4579-3" />
      <stop
         style="stop-color:black;stop-opacity:0.80000001;"
         offset="1"
         id="stop3817-2" />
    </linearGradient>
    <linearGradient
       id="linearGradient3841-2">
      <stop
         id="stop3843-7"
         offset="0"
         style="stop-color:white;stop-opacity:1;" />
      <stop
         id="stop3845-6"
         offset="1"
         style="stop-color:#fefce9;stop-opacity:0;" />
    </linearGradient>
    <inkscape:perspective
       id="perspective31-5"
       inkscape:persp3d-origin="150 : 100 : 1"
       inkscape:vp_z="300 : 150 : 1"
       inkscape:vp_y="0 : 1000 : 0"
       inkscape:vp_x="0 : 150 : 1"
       sodipodi:type="inkscape:persp3d" />
    <linearGradient
       id="linearGradient3991-7">
      <stop
         id="stop3993-1"
         offset="0"
         style="stop-color:#ff0000;stop-opacity:1;" />
      <stop
         id="stop3995-1"
         offset="1"
         style="stop-color:#ff0000;stop-opacity:0;" />
    </linearGradient>
    <linearGradient
       id="linearGradient3999-45">
      <stop
         id="stop4001-5"
         offset="0"
         style="stop-color:#0e5d0c;stop-opacity:1;" />
      <stop
         id="stop4003-1"
         offset="1"
         style="stop-color:#fbe432;stop-opacity:0;" />
    </linearGradient>
    <linearGradient
       id="linearGradient4009-48">
      <stop
         id="stop4011-8"
         offset="0"
         style="stop-color:#ffffff;stop-opacity:1;" />
      <stop
         id="stop4013-2"
         offset="1"
         style="stop-color:#ffffff;stop-opacity:0;" />
    </linearGradient>
    <linearGradient
       id="linearGradient4265-4">
      <stop
         id="stop4267-0"
         offset="0"
         style="stop-color:#d4fb82;stop-opacity:1;" />
      <stop
         id="stop4269-9"
         offset="1"
         style="stop-color:#008000;stop-opacity:0.39215687;" />
    </linearGradient>
  </defs>
  <metadata
     id="metadata7">
    <rdf:RDF>
      <cc:Work
         rdf:about="">
        <dc:format>image/svg+xml</dc:format>
        <dc:type
           rdf:resource="http://purl.org/dc/dcmitype/StillImage" />
        <dc:title></dc:title>
      </cc:Work>
    </rdf:RDF>
  </metadata>
  <g
     id="g3026">
    <g
       transform="matrix(0.99103064,0,0,0.98943856,1.2668213,1.9022887)"
       id="layer4"
       style="display:inline"
       clip-path="none">
      <path
         style="fill:url(#linearGradient3020);fill-opacity:1;fill-rule:nonzero;stroke:#552200;stroke-width:0.9807238;stroke-opacity:0"
         d="M 145.9375 270.70508 C 144.96853 270.55463 143.84316 270.71753 142.36328 271.16602 C 140.8834 271.6145 139.04978 272.34788 136.66406 273.33398 C 132.23863 275.16314 127.0447 277.44952 125.12305 278.41406 C 123.44338 279.25716 121.5016 280.56385 119.98047 281.78711 C 119.2199 282.39874 118.56505 282.98902 118.09961 283.49023 C 117.63416 283.99145 117.35938 284.40241 117.35938 284.65625 C 117.35938 284.92479 119.36878 285.9662 121.82422 286.96875 C 124.27966 287.97128 126.98578 289.28099 127.83984 289.88086 C 128.4784 290.32938 129.27517 290.59812 130.24805 290.67969 C 131.22092 290.76125 132.37115 290.65664 133.71484 290.36328 C 135.05853 290.06992 136.59666 289.5864 138.34766 288.91016 C 140.09865 288.23391 142.06106 287.36398 144.25586 286.29688 C 146.5026 285.20452 148.75719 284.21215 150.57812 283.49219 C 152.39906 282.77222 153.78666 282.32617 154.30273 282.32617 C 155.26112 282.32617 155.89006 282.05734 156.09961 281.67969 C 156.20439 281.49086 156.20302 281.2751 156.08789 281.05078 C 155.97276 280.82646 155.74354 280.59357 155.38672 280.37305 C 154.95023 280.10327 153.17942 277.96836 151.45117 275.62891 C 150.31921 274.09663 149.42526 272.94156 148.57227 272.13086 C 147.71927 271.32016 146.90647 270.85553 145.9375 270.70508 z "
         id="path4291"
         transform="matrix(1.0090505,0,0,1.0106742,-1.2782867,-1.9225941)" />
      <path
         style="fill:url(#linearGradient3020);fill-opacity:1;fill-rule:nonzero;stroke:#552200;stroke-width:0.9807238;stroke-opacity:0"
         d="M 145.9375 270.70508 C 146.90647 270.85553 147.71927 271.32016 148.57227 272.13086 C 149.42526 272.94156 150.31921 274.09663 151.45117 275.62891 C 153.17942 277.96836 154.95023 280.10327 155.38672 280.37305 C 155.74354 280.59357 155.97276 280.82646 156.08789 281.05078 C 156.20302 281.2751 156.20439 281.49086 156.09961 281.67969 C 155.89006 282.05734 155.26112 282.32617 154.30273 282.32617 C 153.78666 282.32617 152.39906 282.77222 150.57812 283.49219 C 148.75719 284.21215 146.5026 285.20452 144.25586 286.29688 C 142.06106 287.36398 140.09865 288.23391 138.34766 288.91016 C 136.59666 289.5864 135.05853 290.06992 133.71484 290.36328 C 132.37115 290.65664 131.22092 290.76125 130.24805 290.67969 C 129.27517 290.59812 128.4784 290.32938 127.83984 289.88086 C 126.98578 289.28099 124.27966 287.97128 121.82422 286.96875 C 119.36878 285.9662 117.35938 284.92479 117.35938 284.65625 C 117.35938 284.40241 117.63416 283.99145 118.09961 283.49023 C 118.56505 282.98902 119.2199 282.39874 119.98047 281.78711 C 121.5016 280.56385 123.44338 279.25716 125.12305 278.41406 C 127.0447 277.44952 132.23863 275.16314 136.66406 273.33398 C 139.04978 272.34788 140.8834 271.6145 142.36328 271.16602 C 143.84316 270.71753 144.96853 270.55463 145.9375 270.70508 z "
         id="path4289"
         transform="matrix(1.0090505,0,0,1.0106742,-1.2782867,-1.9225941)" />
      <path
         style="fill:url(#linearGradient3020);fill-opacity:1;fill-rule:nonzero;stroke:#552200;stroke-width:0.9807238;stroke-opacity:0"
         d="M 146.58203 238.53906 L 144.97461 240.75977 C 142.45634 244.24172 140.76536 246.4684 139.18164 248.24414 C 137.59793 250.01988 136.12283 251.3451 134.03711 253.02539 C 131.50523 255.06511 127.15381 258.08849 124.36719 259.74414 C 121.58057 261.3998 117.04019 264.41906 114.27734 266.45312 C 112.07061 268.07779 110.86085 269.02115 110.37109 269.63086 C 110.12622 269.93571 110.06039 270.15715 110.14062 270.33789 C 110.22086 270.51863 110.44727 270.65968 110.7832 270.80273 C 111.44438 271.08427 112.62945 271.22802 114.14844 271.25195 C 115.66742 271.27589 117.51986 271.17882 119.51758 270.98242 C 121.5153 270.78602 123.65849 270.48884 125.75586 270.10938 C 127.85323 269.72991 129.90472 269.26941 131.72266 268.74414 C 133.64431 268.18892 136.19808 267.29331 138.76367 266.29883 C 141.32927 265.30435 143.90597 264.2095 145.87695 263.25586 C 147.93323 262.26096 149.55734 261.41062 150.83594 260.5918 C 152.11453 259.77297 153.04795 258.98739 153.72461 258.11914 C 154.40127 257.25089 154.82181 256.30136 155.07227 255.1582 C 155.32272 254.01504 155.4043 252.67677 155.4043 251.0332 C 155.4043 249.80037 155.27775 248.65206 155.02344 247.58398 C 154.76912 246.51591 154.38648 245.52946 153.875 244.62109 C 153.36352 243.71273 152.72265 242.88261 151.95117 242.12891 C 151.17969 241.37521 150.27651 240.69783 149.24219 240.09375 L 146.58203 238.53906 z "
         id="path4287"
         transform="matrix(1.0090505,0,0,1.0106742,-1.2782867,-1.9225941)" />
      <path
         style="fill:url(#linearGradient3020);fill-opacity:1;fill-rule:nonzero;stroke:#552200;stroke-width:0.9807238;stroke-opacity:0"
         d="M 169.59375 3.1191406 L 157.44141 3.1191406 C 157.62702 3.9434004 157.81968 4.739295 157.91406 5.7988281 C 158.046 7.2799717 158.10114 9.0269776 158.10547 11.134766 C 158.11192 14.334109 158.18077 16.393762 158.38477 17.8125 C 158.58876 19.231238 158.92769 20.009626 159.47266 20.646484 C 159.84423 21.080702 160.30984 21.473577 160.76172 21.759766 C 161.2136 22.045955 161.6508 22.224609 161.96484 22.224609 C 162.36067 22.224609 162.75802 22.114716 163.15039 21.904297 C 163.54276 21.693878 163.93054 21.383634 164.31055 20.982422 C 165.07056 20.179997 165.796 19.014256 166.45312 17.566406 C 167.11025 16.118556 167.69867 14.387447 168.18164 12.451172 C 168.66461 10.514897 169.04368 8.3731689 169.28125 6.1054688 L 169.59375 3.1191406 z "
         id="path4285"
         transform="matrix(1.0090505,0,0,1.0106742,-1.2782867,-1.9225941)" />
      <path
         style="fill:url(#linearGradient3020);fill-opacity:1;fill-rule:nonzero;stroke:#552200;stroke-width:0.9807238;stroke-opacity:0"
         d="M 297.14258 94.369141 L 297.14258 52.150391 C 297.14258 24.986839 275.27206 3.1191406 248.10352 3.1191406 L 171.27734 3.1191406 L 171.58008 3.5898438 C 172.12133 4.4292645 172.50973 5.2407817 172.73438 6.0996094 C 172.95902 6.9584371 173.01998 7.8642843 172.91211 8.8945312 C 172.80423 9.9247782 172.52663 11.079915 172.07031 12.433594 C 171.614 13.787272 170.97888 15.3408 170.1582 17.169922 C 168.87505 20.029806 167.82617 22.511836 167.82617 22.685547 C 167.82617 22.859252 169.14664 23 170.75977 23 C 171.70972 23 172.5563 22.902073 173.33008 22.683594 C 174.10385 22.465114 174.80492 22.126693 175.45898 21.648438 C 176.11305 21.170182 176.7197 20.552766 177.31055 19.773438 C 177.90139 18.994109 178.47645 18.053338 179.06055 16.931641 C 179.58208 15.930089 180.05872 15.176384 180.4082 14.769531 C 180.58294 14.566105 180.72584 14.449837 180.82617 14.431641 C 180.9265 14.413444 180.9833 14.494143 180.98828 14.685547 C 181.00266 15.236251 180.82891 15.973617 180.50586 16.828125 C 180.18281 17.682633 179.71225 18.654197 179.13086 19.673828 C 177.96809 21.713091 176.36609 23.942867 174.64453 25.810547 C 172.9043 27.698464 171.67025 29.43393 171.90234 29.666016 C 172.13256 29.896232 173.91575 29.724777 175.91406 29.380859 C 177.91237 29.036942 180.12599 28.520409 181.21875 28.0625 C 181.66905 27.873808 182.00257 27.810216 182.21875 27.857422 C 182.43493 27.904628 182.53395 28.062012 182.51758 28.320312 C 182.48484 28.836913 181.98869 29.750738 181.03516 30.962891 C 180.47108 31.680004 179.78624 32.224765 178.83203 32.662109 C 177.87782 33.099454 176.65395 33.431231 175.01758 33.722656 C 172.54055 34.16381 170.6287 34.592417 169.23438 35.097656 C 168.53721 35.350276 167.96951 35.622971 167.52539 35.923828 C 167.08127 36.224685 166.76142 36.555209 166.55859 36.925781 C 166.35577 37.296353 166.27017 37.706205 166.29688 38.167969 C 166.32358 38.629733 166.46254 39.142363 166.70703 39.716797 C 167.19601 40.865664 168.10888 42.261825 169.39844 43.990234 C 170.73093 45.776173 172.06666 48.235092 173.08203 50.609375 C 173.58972 51.796517 174.01719 52.961308 174.32422 54.011719 C 174.63125 55.062129 174.81829 55.998188 174.84375 56.722656 C 174.85692 57.096964 175.16821 57.676779 175.75781 58.441406 C 176.34742 59.206034 177.21493 60.15532 178.33984 61.269531 C 180.58967 63.497954 183.86933 66.385231 188.01367 69.767578 C 192.85188 73.716195 196.63626 77.062853 199.34961 79.789062 C 200.70629 81.152167 201.79507 82.359939 202.61328 83.410156 C 203.43149 84.460374 203.979 85.353465 204.25391 86.085938 C 204.69468 87.260278 204.92846 88.220703 204.77344 88.220703 C 204.6185 88.220703 202.22399 87.158878 199.45117 85.861328 C 197.61809 85.003527 195.88657 84.305269 194.19922 83.757812 C 192.51187 83.210356 190.86734 82.813661 189.20898 82.558594 C 187.55062 82.303527 185.87892 82.189616 184.13281 82.208984 C 182.38671 82.228352 180.56777 82.380401 178.61719 82.65625 C 175.10316 83.153196 172.11249 83.674645 171.97266 83.814453 C 171.71489 84.07223 172.4631 86.518865 173.63672 89.619141 C 174.81034 92.719416 176.40972 96.473667 177.85156 99.34375 C 179.17962 101.98733 179.88703 103.47711 180.10938 104.35547 C 180.22055 104.79465 180.20968 105.0808 180.0957 105.28125 C 179.98173 105.4817 179.76392 105.59658 179.45898 105.69336 C 178.91319 105.86659 178.59852 106.10108 178.47461 106.54102 C 178.3507 106.98095 178.41719 107.62594 178.63281 108.625 C 178.97197 110.1965 179.00635 112.66637 178.83984 114.74219 C 178.75659 115.7801 178.62399 116.72018 178.45312 117.40039 C 178.28226 118.0806 178.07441 118.5 177.8418 118.5 C 177.64978 118.5 177.47421 118.29734 177.34766 117.9707 C 177.2211 117.64406 177.14258 117.1948 177.14258 116.69922 C 177.14258 116.20364 176.6452 114.75334 175.8418 112.81836 C 175.03839 110.88337 173.9299 108.4637 172.71094 106.02344 C 170.83565 102.26928 169.48389 99.803365 167.93359 97.599609 C 166.3833 95.395854 164.63495 93.454095 161.96289 90.744141 C 160.22602 88.98264 158.53288 87.381696 157.20508 86.220703 C 155.87728 85.05971 154.91444 84.337891 154.63672 84.337891 C 154.38422 84.337891 154.20195 84.556883 154.0918 85.068359 C 153.98165 85.579836 153.94358 86.384804 153.98047 87.556641 C 154.05424 89.900315 154.42715 93.713371 155.11719 99.591797 C 155.32983 101.40331 155.40791 102.41439 155.24219 103.0332 C 155.15932 103.34261 155.0153 103.55258 154.79688 103.7168 C 154.57845 103.88102 154.28561 103.99811 153.9043 104.11914 C 153.40967 104.27613 152.84997 104.29013 152.24609 104.16992 C 151.64222 104.04971 150.99251 103.7967 150.31641 103.41992 C 148.96419 102.66636 147.50499 101.41974 146.08594 99.763672 C 145.47158 99.046702 144.73362 98.452489 143.92969 97.994141 C 143.12575 97.535792 142.25525 97.214065 141.375 97.037109 C 140.49475 96.860154 139.60502 96.829824 138.76172 96.957031 C 137.91841 97.084239 137.12279 97.368124 136.42969 97.822266 C 135.88075 98.181937 135.25055 98.913681 134.66016 99.833984 C 134.06977 100.75429 133.51967 101.86339 133.125 102.97461 C 132.74676 104.03958 132.37952 104.89092 131.99414 105.55078 C 131.60876 106.21065 131.20351 106.67968 130.74609 106.97656 C 130.28867 107.27345 129.7799 107.39897 129.18555 107.375 C 128.59119 107.35103 127.91142 107.17771 127.11523 106.875 C 126.1447 106.506 125.29558 106.24661 124.56445 106.10547 C 123.83332 105.96433 123.22054 105.93964 122.72852 106.03906 C 122.23649 106.13849 121.86455 106.36214 121.61133 106.71484 C 121.3581 107.06755 121.22371 107.54927 121.20898 108.16797 C 121.17954 109.40537 121.6261 111.18875 122.54883 113.56641 C 123.47156 115.94407 124.87165 118.91748 126.74414 122.53711 C 127.5611 124.1163 128.22852 126.27124 128.22852 127.32617 C 128.22852 128.00604 128.43005 128.60883 128.875 129.19336 C 129.31995 129.77789 130.00901 130.34327 130.98633 130.94727 C 131.92685 131.52855 132.72548 132.12197 133.38867 132.73242 C 134.05186 133.34288 134.57905 133.97058 134.97266 134.62305 C 135.36626 135.27552 135.62604 135.95283 135.75781 136.66016 C 135.88958 137.36748 135.8938 138.10584 135.77148 138.88086 C 135.6839 139.43582 135.64394 139.9011 135.6875 140.3418 C 135.73106 140.78249 135.85741 141.19811 136.10156 141.6543 C 136.58987 142.56667 137.54847 143.63972 139.25586 145.39258 C 140.29575 146.46017 141.16028 147.4781 141.85156 148.46094 C 142.54284 149.44378 143.06159 150.39069 143.41406 151.31445 C 143.76654 152.23822 143.95115 153.13894 143.97461 154.0293 C 143.99807 154.91966 143.8602 155.80096 143.56445 156.68359 C 143.41175 157.13932 143.31478 157.52058 143.29883 157.87891 C 143.28287 158.23723 143.34767 158.57277 143.51562 158.93555 C 143.85153 159.66109 144.60257 160.49711 145.95703 161.85156 L 149.04688 164.93945 L 149.3125 173.0918 C 149.43875 176.94824 149.53917 179.03069 149.89648 180.54883 C 150.07514 181.3079 150.31906 181.92717 150.66211 182.55469 C 151.00516 183.18221 151.44687 183.81919 152.02539 184.61719 C 153.37053 186.47259 154.80197 187.99023 155.20508 187.99023 C 155.60818 187.99023 158.68443 184.32171 162.04297 179.83789 C 164.85431 176.08462 168.04298 172.2953 171.53711 168.5332 C 175.03124 164.77111 178.83256 161.03719 182.86523 157.39648 C 186.89791 153.75578 191.16285 150.20746 195.58984 146.81836 C 200.01683 143.42926 204.60418 140.19868 209.28125 137.19141 C 212.12854 135.36064 215.60241 133.31886 219.63281 131.09961 C 223.66322 128.88036 228.25133 126.48369 233.33008 123.94336 C 243.48758 118.8627 255.60616 113.20661 269.14844 107.24609 C 279.36896 102.74764 288.30743 98.66087 296.17578 94.867188 C 296.54486 94.689238 296.77818 94.545814 297.14258 94.369141 z "
         id="path4283"
         transform="matrix(1.0090505,0,0,1.0106742,-1.2782867,-1.9225941)" />
      <path
         style="fill:url(#linearGradient3020);fill-opacity:1;fill-rule:nonzero;stroke:#552200;stroke-width:0.9807238;stroke-opacity:0"
         d="M 246.15234 297.31055 L 248.10352 297.31055 C 275.27206 297.31055 297.14258 275.4409 297.14258 248.27734 L 297.14258 106.26953 C 295.12773 107.37505 293.91008 108.18691 291.08398 109.64258 C 284.05026 113.26552 273.73846 118.36689 256.33789 126.91016 C 247.04118 131.47464 239.00989 135.58566 231.93359 139.44531 C 224.8573 143.30496 218.73679 146.91361 213.26172 150.4707 C 207.78665 154.0278 202.95592 157.53263 198.46289 161.18945 C 193.96986 164.84627 189.81377 168.65368 185.68359 172.8125 C 183.44872 175.06288 181.4141 177.21518 179.51562 179.35156 C 177.61715 181.48794 175.85483 183.60925 174.16211 185.80078 C 172.46939 187.99231 170.84615 190.25408 169.22852 192.66992 C 167.61088 195.08576 165.99936 197.65554 164.32617 200.46484 C 161.54541 205.13372 158.22605 210.08072 156.94922 211.45703 C 156.16261 212.30493 155.55617 213.24465 155.13281 214.26172 C 154.70945 215.27879 154.46859 216.37225 154.41016 217.52539 C 154.35173 218.67853 154.47503 219.89233 154.7832 221.14844 C 155.09138 222.40454 155.58331 223.70333 156.25977 225.0293 C 157.16484 226.8034 157.61931 227.72077 157.62695 228.13672 C 157.63077 228.34469 157.52278 228.42562 157.30469 228.42773 C 157.0866 228.42985 156.75868 228.35291 156.32031 228.23828 C 155.83688 228.11186 155.3991 228.1243 155.01172 228.25781 C 154.62434 228.39133 154.28689 228.6455 154 228.99805 C 153.42623 229.70315 153.05723 230.80477 152.91211 232.14062 C 152.76699 233.47648 152.84499 235.04611 153.16406 236.68555 C 153.48313 238.32498 154.04448 240.03457 154.86328 241.65039 C 155.78536 243.47004 156.61844 244.84373 157.35156 245.77148 C 158.08468 246.69923 158.71792 247.18082 159.23438 247.21484 C 159.4926 247.23186 159.72106 247.13645 159.91992 246.92969 C 160.11879 246.72293 160.28779 246.40537 160.42383 245.97461 C 160.69591 245.11308 160.83789 243.80382 160.83789 242.04492 C 160.83789 240.47671 160.95315 238.99594 161.18359 237.60742 C 161.41403 236.2189 161.75949 234.92138 162.21875 233.7168 C 162.67801 232.51222 163.25104 231.40116 163.9375 230.38477 C 164.62396 229.36837 165.42389 228.44702 166.33594 227.62305 C 167.23261 226.81295 168.03618 226.19352 168.78711 225.75977 C 169.53804 225.32601 170.23652 225.07869 170.92188 225.01367 C 171.60723 224.94866 172.28051 225.06521 172.98047 225.36133 C 173.68042 225.65745 174.40644 226.1316 175.20117 226.78125 L 177.53125 228.68555 L 173.89453 228.55273 C 173.07806 228.52276 172.3259 228.56391 171.63672 228.67773 C 170.94754 228.79156 170.32137 228.97813 169.75586 229.24219 C 169.19035 229.50624 168.68571 229.84685 168.24023 230.26758 C 167.79476 230.6883 167.40914 231.1896 167.08008 231.77344 C 166.42196 232.9411 165.99159 234.44011 165.77734 236.29883 C 165.56309 238.15755 165.56503 240.37529 165.76562 242.97656 C 166.02819 246.38131 166.40064 249.3245 166.59375 249.51758 C 166.78683 249.71065 169.75215 248.78618 173.18359 247.46289 C 175.28517 246.65244 177.16574 246.04334 178.85547 245.63281 C 180.5452 245.22228 182.04368 245.01107 183.37695 245 C 184.71022 244.98893 185.87992 245.17652 186.91211 245.56445 C 187.9443 245.95239 188.83852 246.5397 189.625 247.32617 C 190.87325 248.57442 191.89453 249.97371 191.89453 250.43359 C 191.89453 250.69763 191.8981 250.89423 191.8418 251.02148 C 191.7855 251.14874 191.67078 251.20578 191.43164 251.18555 C 190.95335 251.14507 189.98262 250.7982 188.01367 250.10352 C 186.79401 249.67319 185.61209 249.35672 184.46875 249.15234 C 183.32541 248.94796 182.22031 248.85686 181.15234 248.87891 C 180.08438 248.90095 179.05406 249.0362 178.06055 249.28516 C 177.06703 249.53411 176.10946 249.89669 175.18945 250.37305 C 174.26944 250.8494 173.3865 251.43834 172.53906 252.14258 C 171.69163 252.84681 170.87932 253.66506 170.10352 254.59766 C 169.32771 255.53026 168.58791 256.57878 167.88281 257.74023 C 167.17771 258.90168 166.50839 260.17757 165.87305 261.56836 C 165.36946 262.67071 164.86779 264.12378 164.41211 265.7168 C 163.95643 267.30981 163.54667 269.04163 163.22266 270.69727 C 162.89865 272.3529 162.66131 273.93243 162.55273 275.22266 C 162.44416 276.51288 162.46367 277.51495 162.6543 278.01172 C 162.82084 278.44571 163.16166 278.8408 163.65039 279.19141 C 164.13912 279.54202 164.77694 279.84715 165.53711 280.09766 C 167.05745 280.59867 169.06954 280.88256 171.37109 280.88281 C 172.8071 280.88296 174.67751 280.56303 177.38867 279.80664 C 180.09983 279.05025 183.65056 277.85729 188.45117 276.11719 C 195.68269 273.49591 204.78633 270.52383 208.67969 269.51172 C 211.38901 268.8074 214.05737 268.25704 216.66016 267.85547 C 219.26294 267.4539 221.79891 267.20042 224.24219 267.08984 C 226.68546 266.97927 229.03678 267.01103 231.26758 267.17969 C 233.49838 267.34835 235.60886 267.6537 237.57422 268.08984 C 239.53958 268.52599 241.35891 269.09328 243.00586 269.78516 C 244.65281 270.47703 246.12873 271.29462 247.4043 272.23047 C 248.67986 273.16632 249.75621 274.2206 250.60742 275.38867 C 251.45864 276.55674 252.08314 277.83803 252.45703 279.22656 C 252.73592 280.2623 252.8022 281.43608 252.67969 282.71289 C 252.55718 283.9897 252.24697 285.36958 251.77148 286.81445 C 251.296 288.25933 250.65503 289.77061 249.875 291.31055 C 249.09497 292.85049 248.17483 294.41846 247.13867 295.98047 C 246.84091 296.42934 246.46868 296.86373 246.15234 297.31055 z "
         id="path4281"
         transform="matrix(1.0090505,0,0,1.0106742,-1.2782867,-1.9225941)" />
      <path
         style="fill:url(#linearGradient3020);fill-opacity:1;fill-rule:nonzero;stroke:#552200;stroke-width:0.9807238;stroke-opacity:0"
         d="M 2.8984375 172.30469 L 2.8984375 223.83398 C 3.9098853 222.87927 4.9005021 221.90405 5.984375 221.02148 C 7.6367524 219.67601 9.3737748 218.41455 11.195312 217.23633 C 13.01685 216.05811 14.922357 214.96264 16.914062 213.95117 C 18.905768 212.9397 20.983603 212.01125 23.146484 211.16602 C 25.309366 210.32078 27.557513 209.55841 29.892578 208.87891 C 32.227644 208.1994 34.647993 207.60218 37.15625 207.08789 C 39.664507 206.5736 42.260903 206.14256 44.943359 205.79297 C 46.060249 205.64741 47.029139 205.44007 47.691406 205.22461 C 48.353674 205.00915 48.709736 204.78486 48.597656 204.60352 C 48.373506 204.24081 45.027049 202.31258 41.162109 200.31641 C 38.182984 198.77775 35.24 197.12566 32.341797 195.36914 C 29.443594 193.61262 26.589586 191.74983 23.785156 189.78711 C 20.980726 187.82439 18.227102 185.76272 15.529297 183.60547 C 12.831491 181.44822 10.189658 179.19559 7.6113281 176.85547 C 5.9994905 175.39255 4.4595018 173.83537 2.8984375 172.30469 z "
         id="path4279"
         transform="matrix(1.0090505,0,0,1.0106742,-1.2782867,-1.9225941)" />
      <path
         style="fill:url(#linearGradient3020);fill-opacity:1;fill-rule:nonzero;stroke:#552200;stroke-width:0.9807238;stroke-opacity:0"
         d="M 132.29102 3.1191406 L 51.939453 3.1191406 C 24.770911 3.1191406 2.8984375 24.986839 2.8984375 52.150391 L 2.8984375 73.580078 C 6.9764251 76.949409 11.100092 80.366564 15.068359 83.546875 C 20.635956 88.008946 25.845065 92.074977 29.992188 95.158203 C 32.189182 96.791583 34.233539 98.425179 36.146484 100.09375 C 38.059429 101.76232 39.841354 103.4658 41.513672 105.24219 C 43.18599 107.01857 44.749496 108.86739 46.224609 110.82422 C 47.699723 112.78104 49.086871 114.84675 50.408203 117.05664 C 51.729535 119.26653 52.984339 121.62067 54.195312 124.15625 C 55.406286 126.69183 56.572759 129.40791 57.716797 132.3418 C 58.860834 135.27568 59.982991 138.42721 61.103516 141.83203 C 62.22404 145.23685 63.343941 148.89537 64.484375 152.84375 C 66.730105 160.61886 68.726821 167.09313 70.580078 172.48242 C 72.433335 177.87172 74.142955 182.17666 75.8125 185.60938 C 76.647272 187.32573 77.470841 188.82317 78.298828 190.13086 C 79.126815 191.43855 79.959343 192.55513 80.806641 193.50781 C 81.653938 194.46049 82.517454 195.24907 83.410156 195.90039 C 84.302858 196.55171 85.223298 197.06708 86.1875 197.4707 C 87.14068 197.86971 88.044217 198.10612 88.935547 198.16602 C 89.826876 198.22591 90.706419 198.10867 91.615234 197.80273 C 92.52405 197.4968 93.461159 197.00119 94.466797 196.30273 C 95.472435 195.60427 96.546718 194.70363 97.728516 193.58594 C 99.433943 191.97302 100.88088 190.20744 102.06836 188.29688 C 103.25584 186.38631 104.18496 184.32942 104.85156 182.13086 C 105.51817 179.9323 105.9236 177.59213 106.06641 175.11523 C 106.20921 172.63833 106.089 170.02488 105.70508 167.2793 C 105.43691 165.36154 105.15754 163.6673 104.79102 161.94141 C 104.42449 160.21552 103.97076 158.45923 103.35156 156.41602 C 102.11317 152.32958 100.21402 147.09843 97.039062 138.6875 C 94.056923 130.78743 90.750453 121.35437 89.689453 117.72461 C 89.089106 115.67079 88.591031 113.50342 88.203125 111.30078 C 87.815219 109.09814 87.536682 106.85896 87.373047 104.66602 C 87.209411 102.47307 87.159959 100.32551 87.232422 98.300781 C 87.304885 96.276054 87.499923 94.375729 87.820312 92.677734 C 88.191535 90.710348 88.464593 88.856754 88.640625 87.144531 C 88.816657 85.432308 88.895391 83.861328 88.876953 82.458984 C 88.858516 81.056641 88.743437 79.822905 88.53125 78.785156 C 88.319063 77.747408 88.008733 76.905547 87.603516 76.287109 C 87.196246 75.665535 86.913469 75.105883 86.765625 74.554688 C 86.617781 74.003492 86.605844 73.460562 86.742188 72.873047 C 86.878531 72.285531 87.162128 71.652409 87.607422 70.921875 C 88.052715 70.191341 88.658495 69.363063 89.4375 68.382812 C 90.100965 67.547947 90.606656 66.869669 90.962891 66.263672 C 91.319125 65.657675 91.527024 65.123668 91.597656 64.580078 C 91.668288 64.036489 91.601547 63.483579 91.408203 62.835938 C 91.214859 62.188296 90.894677 61.445497 90.458984 60.527344 L 89.181641 57.835938 L 92.011719 55.501953 C 93.051454 54.644912 93.759265 53.909865 94.207031 53.181641 C 94.654797 52.453416 94.841797 51.732386 94.841797 50.898438 C 94.841797 50.170755 95.052093 49.391168 95.527344 48.498047 C 96.002595 47.604926 96.743614 46.597716 97.804688 45.416016 C 99.926835 43.052615 103.33207 39.988979 108.46094 35.732422 C 110.45264 34.079457 112.24613 32.490598 113.81836 30.996094 C 115.39059 29.50159 116.74029 28.100555 117.83984 26.826172 C 118.93939 25.551789 119.78961 24.402759 120.36328 23.410156 C 120.93695 22.417554 121.23393 21.582757 121.22852 20.933594 C 121.22252 20.219318 121.14632 19.635491 120.97461 19.169922 C 120.8029 18.704353 120.53699 18.357281 120.1543 18.111328 C 119.7716 17.865375 119.27177 17.721443 118.63281 17.666016 C 117.99385 17.610588 117.21395 17.642039 116.27344 17.748047 C 115.29054 17.858834 114.39782 17.881645 113.75 17.828125 C 113.10218 17.774605 112.70117 17.645117 112.70117 17.453125 C 112.70117 17.196887 113.14093 16.736479 113.82812 16.189453 C 114.51532 15.642427 115.44924 15.009453 116.43555 14.408203 C 117.42186 13.806954 118.46006 13.237267 119.35742 12.818359 C 120.25478 12.399452 121.0113 12.130859 121.43164 12.130859 C 122.01006 12.130859 122.65875 12.263644 123.33594 12.501953 C 124.01313 12.740262 124.71955 13.084825 125.4082 13.507812 C 126.7855 14.353788 128.09682 15.514437 128.99609 16.777344 C 129.79855 17.904289 130.58985 18.616298 131.32422 18.943359 C 131.6914 19.10689 132.04555 19.174904 132.37891 19.150391 C 132.71226 19.125877 133.02418 19.009293 133.3125 18.804688 C 133.88915 18.395476 134.36603 17.632657 134.69531 16.550781 C 135.0246 15.468906 135.20693 14.067882 135.19922 12.376953 C 135.19384 11.196972 135.05865 10.020102 134.80664 8.875 C 134.55464 7.7298976 134.18675 6.6156185 133.71289 5.5605469 C 133.32218 4.6906203 132.81719 3.8936572 132.29102 3.1191406 z "
         id="path4277"
         transform="matrix(1.0090505,0,0,1.0106742,-1.2782867,-1.9225941)" />
      <path
         style="fill:url(#linearGradient3020);fill-opacity:1;fill-rule:nonzero;stroke:#552200;stroke-width:0.9807238;stroke-opacity:0"
         d="M 153.55273 3.1191406 L 142.39844 3.1191406 C 142.82436 3.6707875 143.23944 4.2338187 143.58008 4.8789062 C 144.00733 5.6880274 144.36739 6.569645 144.66016 7.5253906 C 145.24568 9.4368819 145.56201 11.641256 145.60742 14.136719 C 145.65712 16.869966 145.93475 19.109906 146.22461 19.113281 C 146.51449 19.116581 147.96463 17.974463 149.44727 16.576172 C 150.50126 15.582128 151.36171 14.411711 152.02344 13.083984 C 152.68517 11.756258 153.14864 10.270919 153.41211 8.6464844 C 153.67558 7.0220493 153.73844 5.2591713 153.59766 3.375 C 153.59165 3.294561 153.55949 3.2000179 153.55273 3.1191406 z "
         id="path4275"
         transform="matrix(1.0090505,0,0,1.0106742,-1.2782867,-1.9225941)" />
      <path
         style="fill:#ffffff;fill-opacity:1;fill-rule:nonzero;stroke:#552200;stroke-width:0.9807238;stroke-opacity:0"
         d="M 153.55273 3.1191406 C 153.55949 3.2000179 153.59165 3.294561 153.59766 3.375 C 153.73844 5.2591713 153.67558 7.0220493 153.41211 8.6464844 C 153.14864 10.270919 152.68517 11.756258 152.02344 13.083984 C 151.36171 14.411711 150.50126 15.582128 149.44727 16.576172 C 147.96463 17.974463 146.51449 19.116581 146.22461 19.113281 C 145.93475 19.109906 145.65712 16.869966 145.60742 14.136719 C 145.56201 11.641256 145.24568 9.4368819 144.66016 7.5253906 C 144.36739 6.569645 144.00733 5.6880274 143.58008 4.8789062 C 143.23944 4.2338187 142.82436 3.6707875 142.39844 3.1191406 L 132.29102 3.1191406 C 132.81719 3.8936572 133.32218 4.6906203 133.71289 5.5605469 C 134.18675 6.6156185 134.55464 7.7298976 134.80664 8.875 C 135.05865 10.020102 135.19384 11.196972 135.19922 12.376953 C 135.20693 14.067882 135.0246 15.468906 134.69531 16.550781 C 134.36603 17.632657 133.88915 18.395476 133.3125 18.804688 C 133.02418 19.009293 132.71226 19.125877 132.37891 19.150391 C 132.04555 19.174904 131.6914 19.10689 131.32422 18.943359 C 130.58985 18.616298 129.79855 17.904289 128.99609 16.777344 C 128.09682 15.514437 126.7855 14.353788 125.4082 13.507812 C 124.71955 13.084825 124.01313 12.740262 123.33594 12.501953 C 122.65875 12.263644 122.01006 12.130859 121.43164 12.130859 C 121.0113 12.130859 120.25478 12.399452 119.35742 12.818359 C 118.46006 13.237267 117.42186 13.806954 116.43555 14.408203 C 115.44924 15.009453 114.51532 15.642427 113.82812 16.189453 C 113.14093 16.736479 112.70117 17.196887 112.70117 17.453125 C 112.70117 17.645117 113.10218 17.774605 113.75 17.828125 C 114.39782 17.881645 115.29054 17.858834 116.27344 17.748047 C 117.21395 17.642039 117.99385 17.610588 118.63281 17.666016 C 119.27177 17.721443 119.7716 17.865375 120.1543 18.111328 C 120.53699 18.357281 120.8029 18.704353 120.97461 19.169922 C 121.14632 19.635491 121.22252 20.219318 121.22852 20.933594 C 121.23393 21.582757 120.93695 22.417554 120.36328 23.410156 C 119.78961 24.402759 118.93939 25.551789 117.83984 26.826172 C 116.74029 28.100555 115.39059 29.50159 113.81836 30.996094 C 112.24613 32.490598 110.45264 34.079457 108.46094 35.732422 C 103.33207 39.988979 99.926835 43.052615 97.804688 45.416016 C 96.743614 46.597716 96.002595 47.604926 95.527344 48.498047 C 95.052093 49.391168 94.841797 50.170755 94.841797 50.898438 C 94.841797 51.732386 94.654797 52.453416 94.207031 53.181641 C 93.759265 53.909865 93.051454 54.644912 92.011719 55.501953 L 89.181641 57.835938 L 90.458984 60.527344 C 90.894677 61.445497 91.214859 62.188296 91.408203 62.835938 C 91.601547 63.483579 91.668288 64.036489 91.597656 64.580078 C 91.527024 65.123668 91.319125 65.657675 90.962891 66.263672 C 90.606656 66.869669 90.100965 67.547947 89.4375 68.382812 C 88.658495 69.363063 88.052715 70.191341 87.607422 70.921875 C 87.162128 71.652409 86.878531 72.285531 86.742188 72.873047 C 86.605844 73.460562 86.617781 74.003492 86.765625 74.554688 C 86.913469 75.105883 87.196246 75.665535 87.603516 76.287109 C 88.008733 76.905547 88.319063 77.747408 88.53125 78.785156 C 88.743437 79.822905 88.858516 81.056641 88.876953 82.458984 C 88.895391 83.861328 88.816657 85.432308 88.640625 87.144531 C 88.464593 88.856754 88.191535 90.710348 87.820312 92.677734 C 87.499923 94.375729 87.304885 96.276054 87.232422 98.300781 C 87.159959 100.32551 87.209411 102.47307 87.373047 104.66602 C 87.536682 106.85896 87.815219 109.09814 88.203125 111.30078 C 88.591031 113.50342 89.089106 115.67079 89.689453 117.72461 C 90.750453 121.35437 94.056923 130.78743 97.039062 138.6875 C 100.21402 147.09843 102.11317 152.32958 103.35156 156.41602 C 103.97076 158.45923 104.42449 160.21552 104.79102 161.94141 C 105.15754 163.6673 105.43691 165.36154 105.70508 167.2793 C 106.089 170.02488 106.20921 172.63833 106.06641 175.11523 C 105.9236 177.59213 105.51817 179.9323 104.85156 182.13086 C 104.18496 184.32942 103.25584 186.38631 102.06836 188.29688 C 100.88088 190.20744 99.433943 191.97302 97.728516 193.58594 C 96.546718 194.70363 95.472435 195.60427 94.466797 196.30273 C 93.461159 197.00119 92.52405 197.4968 91.615234 197.80273 C 90.706419 198.10867 89.826876 198.22591 88.935547 198.16602 C 88.044217 198.10612 87.14068 197.86971 86.1875 197.4707 C 85.223298 197.06708 84.302858 196.55171 83.410156 195.90039 C 82.517454 195.24907 81.653938 194.46049 80.806641 193.50781 C 79.959343 192.55513 79.126815 191.43855 78.298828 190.13086 C 77.470841 188.82317 76.647272 187.32573 75.8125 185.60938 C 74.142955 182.17666 72.433335 177.87172 70.580078 172.48242 C 68.726821 167.09313 66.730105 160.61886 64.484375 152.84375 C 63.343941 148.89537 62.22404 145.23685 61.103516 141.83203 C 59.982991 138.42721 58.860834 135.27568 57.716797 132.3418 C 56.572759 129.40791 55.406286 126.69183 54.195312 124.15625 C 52.984339 121.62067 51.729535 119.26653 50.408203 117.05664 C 49.086871 114.84675 47.699723 112.78104 46.224609 110.82422 C 44.749496 108.86739 43.18599 107.01857 41.513672 105.24219 C 39.841354 103.4658 38.059429 101.76232 36.146484 100.09375 C 34.233539 98.425179 32.189182 96.791583 29.992188 95.158203 C 25.845065 92.074977 20.635956 88.008946 15.068359 83.546875 C 11.100092 80.366564 6.9764251 76.949409 2.8984375 73.580078 L 2.8984375 172.30469 C 4.4595018 173.83537 5.9994905 175.39255 7.6113281 176.85547 C 10.189658 179.19559 12.831491 181.44822 15.529297 183.60547 C 18.227102 185.76272 20.980726 187.82439 23.785156 189.78711 C 26.589586 191.74983 29.443594 193.61262 32.341797 195.36914 C 35.24 197.12566 38.182984 198.77775 41.162109 200.31641 C 45.027049 202.31258 48.373506 204.24081 48.597656 204.60352 C 48.709736 204.78486 48.353674 205.00915 47.691406 205.22461 C 47.029139 205.44007 46.060249 205.64741 44.943359 205.79297 C 42.260903 206.14256 39.664507 206.5736 37.15625 207.08789 C 34.647993 207.60218 32.227644 208.1994 29.892578 208.87891 C 27.557513 209.55841 25.309366 210.32078 23.146484 211.16602 C 20.983603 212.01125 18.905768 212.9397 16.914062 213.95117 C 14.922357 214.96264 13.01685 216.05811 11.195312 217.23633 C 9.3737748 218.41455 7.6367524 219.67601 5.984375 221.02148 C 4.9005021 221.90405 3.9098853 222.87927 2.8984375 223.83398 L 2.8984375 248.27734 C 2.8984375 275.4409 24.770911 297.31055 51.939453 297.31055 L 246.15234 297.31055 C 246.46868 296.86373 246.84091 296.42934 247.13867 295.98047 C 248.17483 294.41846 249.09497 292.85049 249.875 291.31055 C 250.65503 289.77061 251.296 288.25933 251.77148 286.81445 C 252.24697 285.36958 252.55718 283.9897 252.67969 282.71289 C 252.8022 281.43608 252.73592 280.2623 252.45703 279.22656 C 252.08314 277.83803 251.45864 276.55674 250.60742 275.38867 C 249.75621 274.2206 248.67986 273.16632 247.4043 272.23047 C 246.12873 271.29462 244.65281 270.47703 243.00586 269.78516 C 241.35891 269.09328 239.53958 268.52599 237.57422 268.08984 C 235.60886 267.6537 233.49838 267.34835 231.26758 267.17969 C 229.03678 267.01103 226.68546 266.97927 224.24219 267.08984 C 221.79891 267.20042 219.26294 267.4539 216.66016 267.85547 C 214.05737 268.25704 211.38901 268.8074 208.67969 269.51172 C 204.78633 270.52383 195.68269 273.49591 188.45117 276.11719 C 183.65056 277.85729 180.09983 279.05025 177.38867 279.80664 C 174.67751 280.56303 172.8071 280.88296 171.37109 280.88281 C 169.06954 280.88256 167.05745 280.59867 165.53711 280.09766 C 164.77694 279.84715 164.13912 279.54202 163.65039 279.19141 C 163.16166 278.8408 162.82084 278.44571 162.6543 278.01172 C 162.46367 277.51495 162.44416 276.51288 162.55273 275.22266 C 162.66131 273.93243 162.89865 272.3529 163.22266 270.69727 C 163.54667 269.04163 163.95643 267.30981 164.41211 265.7168 C 164.86779 264.12378 165.36946 262.67071 165.87305 261.56836 C 166.50839 260.17757 167.17771 258.90168 167.88281 257.74023 C 168.58791 256.57878 169.32771 255.53026 170.10352 254.59766 C 170.87932 253.66506 171.69163 252.84681 172.53906 252.14258 C 173.3865 251.43834 174.26944 250.8494 175.18945 250.37305 C 176.10946 249.89669 177.06703 249.53411 178.06055 249.28516 C 179.05406 249.0362 180.08438 248.90095 181.15234 248.87891 C 182.22031 248.85686 183.32541 248.94796 184.46875 249.15234 C 185.61209 249.35672 186.79401 249.67319 188.01367 250.10352 C 189.98262 250.7982 190.95335 251.14507 191.43164 251.18555 C 191.67078 251.20578 191.7855 251.14874 191.8418 251.02148 C 191.8981 250.89423 191.89453 250.69763 191.89453 250.43359 C 191.89453 249.97371 190.87325 248.57442 189.625 247.32617 C 188.83852 246.5397 187.9443 245.95239 186.91211 245.56445 C 185.87992 245.17652 184.71022 244.98893 183.37695 245 C 182.04368 245.01107 180.5452 245.22228 178.85547 245.63281 C 177.16574 246.04334 175.28517 246.65244 173.18359 247.46289 C 169.75215 248.78618 166.78683 249.71065 166.59375 249.51758 C 166.40064 249.3245 166.02819 246.38131 165.76562 242.97656 C 165.56503 240.37529 165.56309 238.15755 165.77734 236.29883 C 165.99159 234.44011 166.42196 232.9411 167.08008 231.77344 C 167.40914 231.1896 167.79476 230.6883 168.24023 230.26758 C 168.68571 229.84685 169.19035 229.50624 169.75586 229.24219 C 170.32137 228.97813 170.94754 228.79156 171.63672 228.67773 C 172.3259 228.56391 173.07806 228.52276 173.89453 228.55273 L 177.53125 228.68555 L 175.20117 226.78125 C 174.40644 226.1316 173.68042 225.65745 172.98047 225.36133 C 172.28051 225.06521 171.60723 224.94866 170.92188 225.01367 C 170.23652 225.07869 169.53804 225.32601 168.78711 225.75977 C 168.03618 226.19352 167.23261 226.81295 166.33594 227.62305 C 165.42389 228.44702 164.62396 229.36837 163.9375 230.38477 C 163.25104 231.40116 162.67801 232.51222 162.21875 233.7168 C 161.75949 234.92138 161.41403 236.2189 161.18359 237.60742 C 160.95315 238.99594 160.83789 240.47671 160.83789 242.04492 C 160.83789 243.80382 160.69591 245.11308 160.42383 245.97461 C 160.28779 246.40537 160.11879 246.72293 159.91992 246.92969 C 159.72106 247.13645 159.4926 247.23186 159.23438 247.21484 C 158.71792 247.18082 158.08468 246.69923 157.35156 245.77148 C 156.61844 244.84373 155.78536 243.47004 154.86328 241.65039 C 154.04448 240.03457 153.48313 238.32498 153.16406 236.68555 C 152.84499 235.04611 152.76699 233.47648 152.91211 232.14062 C 153.05723 230.80477 153.42623 229.70315 154 228.99805 C 154.28689 228.6455 154.62434 228.39133 155.01172 228.25781 C 155.3991 228.1243 155.83688 228.11186 156.32031 228.23828 C 156.75868 228.35291 157.0866 228.42985 157.30469 228.42773 C 157.52278 228.42562 157.63077 228.34469 157.62695 228.13672 C 157.61931 227.72077 157.16484 226.8034 156.25977 225.0293 C 155.58331 223.70333 155.09138 222.40454 154.7832 221.14844 C 154.47503 219.89233 154.35173 218.67853 154.41016 217.52539 C 154.46859 216.37225 154.70945 215.27879 155.13281 214.26172 C 155.55617 213.24465 156.16261 212.30493 156.94922 211.45703 C 158.22605 210.08072 161.54541 205.13372 164.32617 200.46484 C 165.99936 197.65554 167.61088 195.08576 169.22852 192.66992 C 170.84615 190.25408 172.46939 187.99231 174.16211 185.80078 C 175.85483 183.60925 177.61715 181.48794 179.51562 179.35156 C 181.4141 177.21518 183.44872 175.06288 185.68359 172.8125 C 189.81377 168.65368 193.96986 164.84627 198.46289 161.18945 C 202.95592 157.53263 207.78665 154.0278 213.26172 150.4707 C 218.73679 146.91361 224.8573 143.30496 231.93359 139.44531 C 239.00989 135.58566 247.04118 131.47464 256.33789 126.91016 C 273.73846 118.36689 284.05026 113.26552 291.08398 109.64258 C 293.91008 108.18691 295.12773 107.37505 297.14258 106.26953 L 297.14258 94.369141 C 296.77818 94.545814 296.54486 94.689238 296.17578 94.867188 C 288.30743 98.66087 279.36896 102.74764 269.14844 107.24609 C 255.60616 113.20661 243.48758 118.8627 233.33008 123.94336 C 228.25133 126.48369 223.66322 128.88036 219.63281 131.09961 C 215.60241 133.31886 212.12854 135.36064 209.28125 137.19141 C 204.60418 140.19868 200.01683 143.42926 195.58984 146.81836 C 191.16285 150.20746 186.89791 153.75578 182.86523 157.39648 C 178.83256 161.03719 175.03124 164.77111 171.53711 168.5332 C 168.04298 172.2953 164.85431 176.08462 162.04297 179.83789 C 158.68443 184.32171 155.60818 187.99023 155.20508 187.99023 C 154.80197 187.99023 153.37053 186.47259 152.02539 184.61719 C 151.44687 183.81919 151.00516 183.18221 150.66211 182.55469 C 150.31906 181.92717 150.07514 181.3079 149.89648 180.54883 C 149.53917 179.03069 149.43875 176.94824 149.3125 173.0918 L 149.04688 164.93945 L 145.95703 161.85156 C 144.60257 160.49711 143.85153 159.66109 143.51562 158.93555 C 143.34767 158.57277 143.28287 158.23723 143.29883 157.87891 C 143.31478 157.52058 143.41175 157.13932 143.56445 156.68359 C 143.8602 155.80096 143.99807 154.91966 143.97461 154.0293 C 143.95115 153.13894 143.76654 152.23822 143.41406 151.31445 C 143.06159 150.39069 142.54284 149.44378 141.85156 148.46094 C 141.16028 147.4781 140.29575 146.46017 139.25586 145.39258 C 137.54847 143.63972 136.58987 142.56667 136.10156 141.6543 C 135.85741 141.19811 135.73106 140.78249 135.6875 140.3418 C 135.64394 139.9011 135.6839 139.43582 135.77148 138.88086 C 135.8938 138.10584 135.88958 137.36748 135.75781 136.66016 C 135.62604 135.95283 135.36626 135.27552 134.97266 134.62305 C 134.57905 133.97058 134.05186 133.34288 133.38867 132.73242 C 132.72548 132.12197 131.92685 131.52855 130.98633 130.94727 C 130.00901 130.34327 129.31995 129.77789 128.875 129.19336 C 128.43005 128.60883 128.22852 128.00604 128.22852 127.32617 C 128.22852 126.27124 127.5611 124.1163 126.74414 122.53711 C 124.87165 118.91748 123.47156 115.94407 122.54883 113.56641 C 121.6261 111.18875 121.17954 109.40537 121.20898 108.16797 C 121.22371 107.54927 121.3581 107.06755 121.61133 106.71484 C 121.86455 106.36214 122.23649 106.13849 122.72852 106.03906 C 123.22054 105.93964 123.83332 105.96433 124.56445 106.10547 C 125.29558 106.24661 126.1447 106.506 127.11523 106.875 C 127.91142 107.17771 128.59119 107.35103 129.18555 107.375 C 129.7799 107.39897 130.28867 107.27345 130.74609 106.97656 C 131.20351 106.67968 131.60876 106.21065 131.99414 105.55078 C 132.37952 104.89092 132.74676 104.03958 133.125 102.97461 C 133.51967 101.86339 134.06977 100.75429 134.66016 99.833984 C 135.25055 98.913681 135.88075 98.181937 136.42969 97.822266 C 137.12279 97.368124 137.91841 97.084239 138.76172 96.957031 C 139.60502 96.829824 140.49475 96.860154 141.375 97.037109 C 142.25525 97.214065 143.12575 97.535792 143.92969 97.994141 C 144.73362 98.452489 145.47158 99.046702 146.08594 99.763672 C 147.50499 101.41974 148.96419 102.66636 150.31641 103.41992 C 150.99251 103.7967 151.64222 104.04971 152.24609 104.16992 C 152.84997 104.29013 153.40967 104.27613 153.9043 104.11914 C 154.28561 103.99811 154.57845 103.88102 154.79688 103.7168 C 155.0153 103.55258 155.15932 103.34261 155.24219 103.0332 C 155.40791 102.41439 155.32983 101.40331 155.11719 99.591797 C 154.42715 93.713371 154.05424 89.900315 153.98047 87.556641 C 153.94358 86.384804 153.98165 85.579836 154.0918 85.068359 C 154.20195 84.556883 154.38422 84.337891 154.63672 84.337891 C 154.91444 84.337891 155.87728 85.05971 157.20508 86.220703 C 158.53288 87.381696 160.22602 88.98264 161.96289 90.744141 C 164.63495 93.454095 166.3833 95.395854 167.93359 97.599609 C 169.48389 99.803365 170.83565 102.26928 172.71094 106.02344 C 173.9299 108.4637 175.03839 110.88337 175.8418 112.81836 C 176.6452 114.75334 177.14258 116.20364 177.14258 116.69922 C 177.14258 117.1948 177.2211 117.64406 177.34766 117.9707 C 177.47421 118.29734 177.64978 118.5 177.8418 118.5 C 178.07441 118.5 178.28226 118.0806 178.45312 117.40039 C 178.62399 116.72018 178.75659 115.7801 178.83984 114.74219 C 179.00635 112.66637 178.97197 110.1965 178.63281 108.625 C 178.41719 107.62594 178.3507 106.98095 178.47461 106.54102 C 178.59852 106.10108 178.91319 105.86659 179.45898 105.69336 C 179.76392 105.59658 179.98173 105.4817 180.0957 105.28125 C 180.20968 105.0808 180.22055 104.79465 180.10938 104.35547 C 179.88703 103.47711 179.17962 101.98733 177.85156 99.34375 C 176.40972 96.473667 174.81034 92.719416 173.63672 89.619141 C 172.4631 86.518865 171.71489 84.07223 171.97266 83.814453 C 172.11249 83.674645 175.10316 83.153196 178.61719 82.65625 C 180.56777 82.380401 182.38671 82.228352 184.13281 82.208984 C 185.87892 82.189616 187.55062 82.303527 189.20898 82.558594 C 190.86734 82.813661 192.51187 83.210356 194.19922 83.757812 C 195.88657 84.305269 197.61809 85.003527 199.45117 85.861328 C 202.22399 87.158878 204.6185 88.220703 204.77344 88.220703 C 204.92846 88.220703 204.69468 87.260278 204.25391 86.085938 C 203.979 85.353465 203.43149 84.460374 202.61328 83.410156 C 201.79507 82.359939 200.70629 81.152167 199.34961 79.789062 C 196.63626 77.062853 192.85188 73.716195 188.01367 69.767578 C 183.86933 66.385231 180.58967 63.497954 178.33984 61.269531 C 177.21493 60.15532 176.34742 59.206034 175.75781 58.441406 C 175.16821 57.676779 174.85692 57.096964 174.84375 56.722656 C 174.81829 55.998188 174.63125 55.062129 174.32422 54.011719 C 174.01719 52.961308 173.58972 51.796517 173.08203 50.609375 C 172.06666 48.235092 170.73093 45.776173 169.39844 43.990234 C 168.10888 42.261825 167.19601 40.865664 166.70703 39.716797 C 166.46254 39.142363 166.32358 38.629733 166.29688 38.167969 C 166.27017 37.706205 166.35577 37.296353 166.55859 36.925781 C 166.76142 36.555209 167.08127 36.224685 167.52539 35.923828 C 167.96951 35.622971 168.53721 35.350276 169.23438 35.097656 C 170.6287 34.592417 172.54055 34.16381 175.01758 33.722656 C 176.65395 33.431231 177.87782 33.099454 178.83203 32.662109 C 179.78624 32.224765 180.47108 31.680004 181.03516 30.962891 C 181.98869 29.750738 182.48484 28.836913 182.51758 28.320312 C 182.53395 28.062012 182.43493 27.904628 182.21875 27.857422 C 182.00257 27.810216 181.66905 27.873808 181.21875 28.0625 C 180.12599 28.520409 177.91237 29.036942 175.91406 29.380859 C 173.91575 29.724777 172.13256 29.896232 171.90234 29.666016 C 171.67025 29.43393 172.9043 27.698464 174.64453 25.810547 C 176.36609 23.942867 177.96809 21.713091 179.13086 19.673828 C 179.71225 18.654197 180.18281 17.682633 180.50586 16.828125 C 180.82891 15.973617 181.00266 15.236251 180.98828 14.685547 C 180.9833 14.494143 180.9265 14.413444 180.82617 14.431641 C 180.72584 14.449837 180.58294 14.566105 180.4082 14.769531 C 180.05872 15.176384 179.58208 15.930089 179.06055 16.931641 C 178.47645 18.053338 177.90139 18.994109 177.31055 19.773438 C 176.7197 20.552766 176.11305 21.170182 175.45898 21.648438 C 174.80492 22.126693 174.10385 22.465114 173.33008 22.683594 C 172.5563 22.902073 171.70972 23 170.75977 23 C 169.14664 23 167.82617 22.859252 167.82617 22.685547 C 167.82617 22.511836 168.87505 20.029806 170.1582 17.169922 C 170.97888 15.3408 171.614 13.787272 172.07031 12.433594 C 172.52663 11.079915 172.80423 9.9247782 172.91211 8.8945312 C 173.01998 7.8642843 172.95902 6.9584371 172.73438 6.0996094 C 172.50973 5.2407817 172.12133 4.4292645 171.58008 3.5898438 L 171.27734 3.1191406 L 169.59375 3.1191406 L 169.28125 6.1054688 C 169.04368 8.3731689 168.66461 10.514897 168.18164 12.451172 C 167.69867 14.387447 167.11025 16.118556 166.45312 17.566406 C 165.796 19.014256 165.07056 20.179997 164.31055 20.982422 C 163.93054 21.383634 163.54276 21.693878 163.15039 21.904297 C 162.75802 22.114716 162.36067 22.224609 161.96484 22.224609 C 161.6508 22.224609 161.2136 22.045955 160.76172 21.759766 C 160.30984 21.473577 159.84423 21.080702 159.47266 20.646484 C 158.92769 20.009626 158.58876 19.231238 158.38477 17.8125 C 158.18077 16.393762 158.11192 14.334109 158.10547 11.134766 C 158.10114 9.0269776 158.046 7.2799717 157.91406 5.7988281 C 157.81968 4.739295 157.62702 3.9434004 157.44141 3.1191406 L 153.55273 3.1191406 z M 146.58203 238.53906 L 149.24219 240.09375 C 150.27651 240.69783 151.17969 241.37521 151.95117 242.12891 C 152.72265 242.88261 153.36352 243.71273 153.875 244.62109 C 154.38648 245.52946 154.76912 246.51591 155.02344 247.58398 C 155.27775 248.65206 155.4043 249.80037 155.4043 251.0332 C 155.4043 252.67677 155.32272 254.01504 155.07227 255.1582 C 154.82181 256.30136 154.40127 257.25089 153.72461 258.11914 C 153.04795 258.98739 152.11453 259.77297 150.83594 260.5918 C 149.55734 261.41062 147.93323 262.26096 145.87695 263.25586 C 143.90597 264.2095 141.32927 265.30435 138.76367 266.29883 C 136.19808 267.29331 133.64431 268.18892 131.72266 268.74414 C 129.90472 269.26941 127.85323 269.72991 125.75586 270.10938 C 123.65849 270.48884 121.5153 270.78602 119.51758 270.98242 C 117.51986 271.17882 115.66742 271.27589 114.14844 271.25195 C 112.62945 271.22802 111.44438 271.08427 110.7832 270.80273 C 110.44727 270.65968 110.22086 270.51863 110.14062 270.33789 C 110.06039 270.15715 110.12622 269.93571 110.37109 269.63086 C 110.86085 269.02115 112.07061 268.07779 114.27734 266.45312 C 117.04019 264.41906 121.58057 261.3998 124.36719 259.74414 C 127.15381 258.08849 131.50523 255.06511 134.03711 253.02539 C 136.12283 251.3451 137.59793 250.01988 139.18164 248.24414 C 140.76536 246.4684 142.45634 244.24172 144.97461 240.75977 L 146.58203 238.53906 z "
         id="rect3179"
         transform="matrix(1.0090505,0,0,1.0106742,-1.2782867,-1.9225941)" />
    </g>
    <g
       transform="matrix(0.99103064,0,0,0.98943856,1.2668213,1.9022887)"
       id="layer5"
       style="display:inline;fill:#ffffff;fill-opacity:1"
       clip-path="none">
      <g
         id="g3342"
         transform="matrix(1.0090505,0,0,1.0106742,411.46737,-30.548174)"
         style="fill:#ffffff;fill-opacity:1">
        <g
           style="display:none;fill:#ffffff;fill-opacity:1"
           id="layer1-27"
           inkscape:label="Button">
          <path
             transform="matrix(1.0015936,0,0,1.0000039,-0.00173336,0.71369073)"
             d="M 300,149.64285 A 149.64285,149.64285 0 0 1 150.35715,299.28571 149.64285,149.64285 0 0 1 0.71429443,149.64285 149.64285,149.64285 0 0 1 150.35715,0 149.64285,149.64285 0 0 1 300,149.64285 Z"
             sodipodi:ry="149.64285"
             sodipodi:rx="149.64285"
             sodipodi:cy="149.64285"
             sodipodi:cx="150.35715"
             id="path3221-6"
             style="fill:#ffffff;fill-opacity:1;fill-rule:evenodd;stroke:#000000;stroke-width:1px;stroke-linecap:butt;stroke-linejoin:miter;stroke-opacity:0;filter:url(#filter4089-5)"
             sodipodi:type="arc" />
          <path
             transform="matrix(1.7575395,0,0,2.3083681,-112.20297,-59.060263)"
             d="M 212.85715,63.57143 A 63.57143,37.142857 0 0 1 149.28572,100.71429 63.57143,37.142857 0 0 1 85.714291,63.57143 63.57143,37.142857 0 0 1 149.28572,26.428574 63.57143,37.142857 0 0 1 212.85715,63.57143 Z"
             sodipodi:ry="37.142857"
             sodipodi:rx="63.57143"
             sodipodi:cy="63.57143"
             sodipodi:cx="149.28572"
             id="path4007-1"
             style="fill:#ffffff;fill-opacity:1;stroke:#000000;stroke-opacity:0"
             sodipodi:type="arc" />
        </g>
        <g
           style="display:inline;fill:#ffffff;fill-opacity:1"
           inkscape:label="Schatten"
           id="layer2-2"
           transform="translate(-706.77969,-20.338983)">
          <g
             id="g3350"
             transform="translate(-6.9915273,131.5678)"
             style="fill:#ffffff">
            <g
               style="display:none;fill:#ffffff"
               id="layer1-1"
               inkscape:label="Button">
              <path
                 transform="matrix(1.0015936,0,0,1.0000039,-0.00173336,0.71369073)"
                 d="M 300,149.64285 A 149.64285,149.64285 0 0 1 150.35715,299.28571 149.64285,149.64285 0 0 1 0.71429443,149.64285 149.64285,149.64285 0 0 1 150.35715,0 149.64285,149.64285 0 0 1 300,149.64285 Z"
                 sodipodi:ry="149.64285"
                 sodipodi:rx="149.64285"
                 sodipodi:cy="149.64285"
                 sodipodi:cx="150.35715"
                 id="path3221-9"
                 style="fill:#ffffff;fill-opacity:1;fill-rule:evenodd;stroke:#000000;stroke-width:1px;stroke-linecap:butt;stroke-linejoin:miter;stroke-opacity:0;filter:url(#filter4089-4)"
                 sodipodi:type="arc" />
              <path
                 transform="matrix(1.7575395,0,0,2.3083681,-112.20297,-59.060263)"
                 d="M 212.85715,63.57143 A 63.57143,37.142857 0 0 1 149.28572,100.71429 63.57143,37.142857 0 0 1 85.714291,63.57143 63.57143,37.142857 0 0 1 149.28572,26.428574 63.57143,37.142857 0 0 1 212.85715,63.57143 Z"
                 sodipodi:ry="37.142857"
                 sodipodi:rx="63.57143"
                 sodipodi:cy="63.57143"
                 sodipodi:cx="149.28572"
                 id="path4007-8"
                 style="fill:#ffffff;fill-opacity:1;stroke:#000000;stroke-opacity:0"
                 sodipodi:type="arc" />
            </g>
            <g
               style="display:inline;fill:#ffffff"
               inkscape:label="Schatten"
               id="layer2-5"
               transform="translate(-3.8135597,-59.110169)"
               inkscape:transform-center-x="5.7203391"
               inkscape:transform-center-y="-59.745764" />
          </g>
        </g>
      </g>
    </g>
  </g>
  <g
     id="layer1"
     style="display:none">
    <path
       d="m 300,149.64285 a 149.64285,149.64285 0 1 1 -299.28570557,0 149.64285,149.64285 0 1 1 299.28570557,0 z"
       transform="matrix(1.0015936,0,0,1.0000039,-0.00173336,0.71369073)"
       id="path3221"
       style="fill:url(#linearGradient4005);fill-opacity:1;fill-rule:evenodd;stroke:#000000;stroke-width:1px;stroke-linecap:butt;stroke-linejoin:miter;stroke-opacity:0;filter:url(#filter4089)" />
    <path
       d="m 212.85715,63.57143 a 63.57143,37.142857 0 1 1 -127.142859,0 63.57143,37.142857 0 1 1 127.142859,0 z"
       transform="matrix(1.7575395,0,0,2.3083681,-112.20297,-59.060263)"
       id="path4007"
       style="fill:url(#linearGradient4015);fill-opacity:1;stroke:#000000;stroke-opacity:0" />
  </g>
  <g
     id="layer3"
     style="display:none">
    <g
       transform="matrix(7.6581652,0,0,7.6581652,1681.0722,-1177.5586)"
       id="layer1-2">
      <path
         d="m -148.03125,80.96875 c -6.0579,-0.03504 -11.91131,4.711237 -11.8125,12.84375 l 0.0631,1.151808 c 0.62231,7.603432 4.13029,13.291242 12.93687,13.160692 2.52613,-0.004 5.68576,-0.29706 8.46875,-1.03125 0.35724,2.42974 0.1825,4.6184 0.1875,7.21875 l 1.28125,0 c 0.24505,-3.68777 0.0109,-7.26047 0.1875,-11.1875 l -0.0937,0 c -2.97137,1.06406 -5.15714,3.00998 -9.375,2.90625 -10.48573,-0.17175 -15.74858,-17.5421 -3.84375,-22.28125 4.78342,-1.58919 6.63867,1.44949 8.40625,4.34375 l 7.15625,-6.8125 c -6.03654,5.13181 -3.71384,4.85286 -5.71875,2.84375 -2.29826,-2.126353 -5.09016,-3.140321 -7.84375,-3.15625 z"
         transform="translate(-53.051416,77.162831)"
         id="text2395"
         style="font-size:40px;font-style:normal;font-variant:normal;font-weight:normal;font-stretch:normal;text-align:start;line-height:125%;writing-mode:lr-tb;text-anchor:start;fill:#ffffff;fill-opacity:1;stroke:#ffffff;stroke-width:1px;stroke-linecap:butt;stroke-linejoin:miter;stroke-opacity:1;font-family:'Magic:the Gathering';-inkscape-font-specification:'Magic:the Gathering'" />
    </g>
  </g>
  <g
     transform="matrix(0.99103064,0,0,0.98943856,1.2668213,1.9022887)"
     id="layer2"
     style="display:inline" />
</svg>
