<?xml version="1.0" encoding="UTF-8" standalone="no"?>
<!-- Created with Inkscape (http://www.inkscape.org/) -->
<svg
   xmlns:dc="http://purl.org/dc/elements/1.1/"
   xmlns:cc="http://creativecommons.org/ns#"
   xmlns:rdf="http://www.w3.org/1999/02/22-rdf-syntax-ns#"
   xmlns:svg="http://www.w3.org/2000/svg"
   xmlns="http://www.w3.org/2000/svg"
   xmlns:xlink="http://www.w3.org/1999/xlink"
   xmlns:sodipodi="http://sodipodi.sourceforge.net/DTD/sodipodi-0.dtd"
   xmlns:inkscape="http://www.inkscape.org/namespaces/inkscape"
   width="210mm"
   height="297mm"
   id="svg3852"
   sodipodi:version="0.32"
   inkscape:version="0.46"
   sodipodi:docname="icon_messages_settings.svg"
   inkscape:output_extension="org.inkscape.output.svg.inkscape">
  <defs
     id="defs3854">
    <linearGradient
       id="linearGradient4388">
      <stop
         id="stop4390"
         offset="0"
         style="stop-color:#b5c9de;stop-opacity:0.13725491;" />
      <stop
         style="stop-color:#a8cce0;stop-opacity:0.97890294;"
         offset="0.43452382"
         id="stop4398" />
      <stop
         id="stop4392"
         offset="1"
         style="stop-color:#000000;stop-opacity:0.16455697;" />
    </linearGradient>
    <inkscape:perspective
       sodipodi:type="inkscape:persp3d"
       inkscape:vp_x="0 : 526.18109 : 1"
       inkscape:vp_y="0 : 1000 : 0"
       inkscape:vp_z="744.09448 : 526.18109 : 1"
       inkscape:persp3d-origin="372.04724 : 350.78739 : 1"
       id="perspective3860" />
    <linearGradient
       inkscape:collect="always"
       xlink:href="#linearGradient4388"
       id="linearGradient4396"
       x1="183.26436"
       y1="493.67139"
       x2="786.44147"
       y2="240.67139"
       gradientUnits="userSpaceOnUse" />
  </defs>
  <sodipodi:namedview
     id="base"
     pagecolor="#ffffff"
     bordercolor="#666666"
     borderopacity="1.0"
     inkscape:pageopacity="0.0"
     inkscape:pageshadow="2"
     inkscape:zoom="1"
     inkscape:cx="338.57143"
     inkscape:cy="678.95901"
     inkscape:document-units="px"
     inkscape:current-layer="layer1"
     showgrid="false"
     inkscape:window-width="1280"
     inkscape:window-height="949"
     inkscape:window-x="0"
     inkscape:window-y="25" />
  <metadata
     id="metadata3857">
    <rdf:RDF>
      <cc:Work
         rdf:about="">
        <dc:format>image/svg+xml</dc:format>
        <dc:type
           rdf:resource="http://purl.org/dc/dcmitype/StillImage" />
      </cc:Work>
    </rdf:RDF>
  </metadata>
  <g
     inkscape:label="Ebene 1"
     inkscape:groupmode="layer"
     id="layer1">
    <g
       id="g4405">
      <path
         id="path3866"
         d="M 382.78125 298.90625 C 371.10611 299.72484 359.43678 300.81699 347.87712 302.67673 C 336.57687 304.52904 325.42182 307.20309 314.45419 310.48573 C 306.398 312.8216 298.49067 315.66228 290.72582 318.83006 C 282.89332 322.09023 275.27979 325.86729 267.86759 329.99084 C 258.25455 335.35144 249.14541 341.58591 240.53517 348.43612 C 235.22512 352.65719 230.0925 357.10869 225.31095 361.92455 C 216.78013 370.35737 209.27754 379.81968 202.96051 390.01534 C 199.52352 395.58355 196.44455 401.37753 193.81776 407.37214 C 190.81324 414.16141 188.51538 421.25595 186.78728 428.47286 C 184.72383 437.51496 183.71359 446.79674 183.76632 456.07014 C 183.83677 464.10258 184.94271 472.09017 186.55099 479.94975 C 188.53284 489.45573 191.62868 498.73924 195.88967 507.46985 C 198.6582 513.23503 201.84605 518.79614 205.28962 524.18288 C 210.33269 531.78275 215.99503 538.98768 222.38536 545.50324 C 228.24487 551.41668 234.42682 557.00854 240.85096 562.30214 C 248.70172 568.64532 257.14897 574.23034 265.94963 579.16446 C 273.11485 583.2376 280.48371 586.95716 288.04287 590.24328 C 293.99304 592.78937 300.00162 595.20945 306.13112 597.2926 C 312.71871 599.54766 319.38665 601.57943 326.14506 603.26042 C 337.80623 606.22062 349.70485 608.15945 361.63923 609.61923 C 372.08936 610.78878 382.59718 611.51236 393.1156 611.5348 C 405.20436 611.6283 417.29411 611.27623 429.38241 611.46379 C 433.05488 611.63379 436.75956 611.50632 440.39843 612.09619 C 445.98256 613.09144 451.21707 615.55449 455.87964 618.73745 C 462.53101 623.09478 468.57167 628.33216 474.19012 633.94339 C 479.70687 639.53643 484.68028 645.63451 489.40598 651.90218 C 496.51946 661.13559 503.02729 670.83464 510.49668 679.79268 C 513.26076 682.81981 516.07252 685.97383 519.75 687.90625 C 521.17914 688.66048 523.15235 688.82824 524.375 687.59375 C 526.2428 686.03563 526.55617 683.42926 526.74581 681.1461 C 527.15803 676.30333 526.41582 671.43328 525.15873 666.76132 C 523.57815 660.57232 521.05175 654.68787 518.92626 648.67775 C 517.20785 644.02959 515.63069 639.33067 513.96796 634.66212 C 511.49768 627.6228 509.16875 620.5165 507.47319 613.24625 C 506.51058 608.9928 505.81856 604.62234 506.0625 600.25 C 506.27685 597.20472 507.50422 594.18234 509.78838 592.10663 C 512.65893 589.15466 515.96169 586.67427 519.02278 583.92902 C 528.55238 575.71749 538.3464 567.81931 548.00624 559.76358 C 553.82559 554.70684 559.50011 549.47477 564.79441 543.86604 C 568.05381 540.41965 571.20609 536.86819 574.10109 533.10801 C 579.87965 525.83433 584.89815 517.95237 588.96653 509.59819 C 592.90141 501.5089 596.02152 493.01826 598.24384 484.30128 C 601.02388 473.43926 602.30318 462.17509 601.85307 450.96695 C 601.51914 443.12474 600.52438 435.29414 598.63082 427.67087 C 596.90003 420.37645 594.4315 413.25999 591.36839 406.41944 C 588.37728 399.72694 584.87497 393.2636 580.83466 387.14531 C 577.8236 382.55119 574.5885 378.0991 571.13313 373.82818 C 565.56203 366.96982 559.32496 360.67535 552.76052 354.77041 C 545.98605 348.75858 538.85227 343.14149 531.27989 338.16537 C 526.84411 335.20109 522.262 332.45499 517.58844 329.88322 C 509.70295 325.62665 501.62587 321.71254 493.29566 318.40128 C 483.9564 314.60955 474.40947 311.32933 464.73777 308.49421 C 457.32166 306.34607 449.77664 304.66677 442.16737 303.36646 C 433.59796 301.94936 424.96019 300.98873 416.31776 300.14182 C 406.07227 299.26617 395.78804 298.81479 385.50474 298.84768 C 384.59691 298.8672 383.68908 298.88673 382.78125 298.90625 z "
         style="fill:url(#linearGradient4396);fill-opacity:1.0;stroke:#000000;stroke-width:1;stroke-linecap:round;stroke-linejoin:round;stroke-miterlimit:4;stroke-dashoffset:60.01653384999999474;stroke-opacity:1"
         transform="translate(-54.285714,-125.71429)" />
      <path
         id="text4400"
         d="M 299.50867,369.19315 C 299.50857,380.54557 298.57715,390.0403 296.71441,397.67738 C 294.85147,405.31444 291.85021,411.43785 287.71065,416.04766 C 283.5709,420.72618 278.46532,424.0287 272.3939,425.95521 C 266.32233,427.95044 258.80195,428.94808 249.83275,428.94812 C 236.86178,428.94808 226.44364,425.71437 218.57832,419.24698 C 210.78194,412.77951 206.71128,403.59438 206.36633,391.69157 L 224.47733,391.69157 C 224.40831,396.43892 225.65021,400.36067 228.20303,403.45679 C 230.82478,406.62169 233.92952,408.78897 237.51727,409.95863 C 241.17392,411.12825 245.24458,411.71306 249.72926,411.71309 C 255.8007,411.71306 260.87178,410.74983 264.94252,408.82339 C 269.0821,406.9657 272.25584,404.1448 274.46374,400.36069 C 276.74047,396.57653 278.32733,392.24198 279.22435,387.35701 C 280.12118,382.47204 280.56965,376.58943 280.56974,369.70918 C 272.42833,379.27272 262.28617,384.05449 250.14323,384.05449 C 235.58538,384.05449 224.02885,378.92871 215.47358,368.67713 C 206.91827,358.42558 202.64062,345.07791 202.64062,328.63408 C 202.64062,311.91514 206.88377,298.29226 215.37008,287.76539 C 223.85636,277.23872 235.4819,271.97533 250.24673,271.97522 C 264.80445,271.97533 275.49857,275.82827 282.32909,283.53404 L 282.32909,274.45211 L 299.50867,274.45211 L 299.50867,369.19315 M 251.59211,289.41665 C 241.93286,289.41674 234.55048,292.82246 229.44492,299.63383 C 224.33931,306.44536 221.78653,315.66488 221.78656,327.29243 C 221.78653,353.09339 231.8252,365.99386 251.90259,365.99384 C 271.22092,365.99386 280.88013,353.29981 280.88022,327.91165 C 280.88013,321.65069 280.22469,316.14649 278.91387,311.39905 C 277.6029,306.58296 275.94704,302.83322 273.94628,300.14984 C 272.01437,297.39783 269.66856,295.19615 266.90886,293.5448 C 264.14901,291.89363 261.56173,290.79279 259.14699,290.24228 C 256.73212,289.69195 254.21384,289.41674 251.59211,289.41665 M 372.3667,385.18973 C 355.87701,385.18973 343.14757,380.30476 334.17833,370.53481 C 325.27806,360.69607 320.82793,346.93559 320.82793,329.25331 C 320.82793,311.63993 325.31256,297.70745 334.28182,287.45578 C 343.32006,277.13552 356.015,271.97533 372.3667,271.97522 C 388.23532,271.97533 400.75779,277.03231 409.93412,287.14618 C 419.17926,297.19142 423.80187,310.7111 423.80199,327.70525 C 423.80187,336.30561 422.83595,343.97707 420.90423,350.71969 C 419.04127,357.39355 416.52299,362.86335 413.34935,367.12907 C 410.17551,371.39484 406.31183,374.93817 401.7583,377.75906 C 397.27358,380.51116 392.61646,382.43763 387.78695,383.53847 C 383.02627,384.63931 377.88619,385.18973 372.3667,385.18973 M 372.3667,288.28141 C 361.81053,288.28151 353.7727,291.92804 348.25318,299.22101 C 342.7336,306.51415 339.97383,316.52491 339.97386,329.25331 C 339.97383,335.78958 340.69827,341.53459 342.14719,346.48832 C 343.59604,351.37334 345.38989,355.19187 347.52874,357.94394 C 349.73653,360.69607 352.35831,362.93214 355.39411,364.65218 C 358.4298,366.37227 361.25857,367.50751 363.8804,368.05792 C 366.57113,368.60835 369.39989,368.88356 372.3667,368.88355 C 382.99177,368.88356 391.0296,365.37463 396.48023,358.35676 C 401.93069,351.33893 404.65596,341.43139 404.65605,328.63408 C 404.65596,322.30431 403.93153,316.69691 402.48273,311.81186 C 401.03377,306.85817 399.20542,302.93642 396.99769,300.04664 C 394.85878,297.15703 392.2715,294.81774 389.23582,293.02879 C 386.269,291.17122 383.40574,289.93277 380.64602,289.31345 C 377.95519,288.62552 375.19542,288.28151 372.3667,288.28141 M 452.26216,280.95395 L 452.26216,234.40906 L 470.89062,234.40906 L 470.89062,280.95395 L 466.4405,346.38512 L 456.81577,346.38512 L 452.26216,280.95395 M 453.09009,364.03297 L 470.06269,364.03297 L 470.06269,384.05449 L 453.09009,384.05449 L 453.09009,364.03297"
         style="font-size:144px;font-style:normal;font-variant:normal;font-weight:normal;font-stretch:normal;text-align:start;line-height:125%;writing-mode:lr-tb;text-anchor:start;fill:#000000;fill-opacity:1;stroke:none;stroke-width:2;stroke-linecap:butt;stroke-linejoin:miter;stroke-miterlimit:4;stroke-dasharray:none;stroke-opacity:1;font-family:Umpush;-inkscape-font-specification:Umpush" />
    </g>
  </g>
</svg>
