<?xml version="1.0" encoding="UTF-8" standalone="no"?>
<!-- Created with Inkscape (http://www.inkscape.org/) -->
<svg
   xmlns:dc="http://purl.org/dc/elements/1.1/"
   xmlns:cc="http://creativecommons.org/ns#"
   xmlns:rdf="http://www.w3.org/1999/02/22-rdf-syntax-ns#"
   xmlns:svg="http://www.w3.org/2000/svg"
   xmlns="http://www.w3.org/2000/svg"
   xmlns:xlink="http://www.w3.org/1999/xlink"
   xmlns:sodipodi="http://sodipodi.sourceforge.net/DTD/sodipodi-0.dtd"
   xmlns:inkscape="http://www.inkscape.org/namespaces/inkscape"
   width="64px"
   height="64px"
   id="svg3715"
   sodipodi:version="0.32"
   inkscape:version="0.46"
   sodipodi:docname="icon_general_v1.svg"
   inkscape:output_extension="org.inkscape.output.svg.inkscape">
  <defs
     id="defs3717">
    <linearGradient
       id="linearGradient3372">
      <stop
         id="stop3374"
         offset="0"
         style="stop-color:#0053ff;stop-opacity:1;" />
      <stop
         id="stop3376"
         offset="1"
         style="stop-color:#008eff;stop-opacity:0.30980393;" />
    </linearGradient>
    <linearGradient
       id="linearGradient3172">
      <stop
         style="stop-color:#ffffff;stop-opacity:1;"
         offset="0"
         id="stop3174" />
      <stop
         style="stop-color:#ffffff;stop-opacity:0;"
         offset="1"
         id="stop3176" />
    </linearGradient>
    <linearGradient
       id="linearGradient3701">
      <stop
         id="stop3709"
         offset="0"
         style="stop-color:#ffffff;stop-opacity:0.30588236;" />
      <stop
         style="stop-color:#000000;stop-opacity:1;"
         offset="1"
         id="stop3711" />
    </linearGradient>
    <linearGradient
       inkscape:collect="always"
       xlink:href="#linearGradient3628"
       id="linearGradient3667"
       gradientUnits="userSpaceOnUse"
       x1="232.7204"
       y1="270.24258"
       x2="405.1579"
       y2="270.24258" />
    <linearGradient
       inkscape:collect="always"
       xlink:href="#linearGradient3628"
       id="linearGradient3665"
       gradientUnits="userSpaceOnUse"
       x1="298.79843"
       y1="421.66565"
       x2="471.55374"
       y2="421.66565" />
    <linearGradient
       id="linearGradient3628">
      <stop
         id="stop3630"
         offset="0"
         style="stop-color:#456b92;stop-opacity:1;" />
      <stop
         style="stop-color:#90b2dd;stop-opacity:1;"
         offset="0.5"
         id="stop3634" />
      <stop
         id="stop3636"
         offset="0.75"
         style="stop-color:#91b8e9;stop-opacity:1;" />
      <stop
         style="stop-color:#7597bc;stop-opacity:1;"
         offset="0.875"
         id="stop3638" />
      <stop
         id="stop3632"
         offset="1"
         style="stop-color:#79a9d9;stop-opacity:1;" />
    </linearGradient>
    <linearGradient
       inkscape:collect="always"
       xlink:href="#linearGradient3628"
       id="linearGradient3663"
       gradientUnits="userSpaceOnUse"
       x1="129.40549"
       y1="395.69638"
       x2="301.84299"
       y2="395.69638" />
    <inkscape:perspective
       sodipodi:type="inkscape:persp3d"
       inkscape:vp_x="0 : 32 : 1"
       inkscape:vp_y="0 : 1000 : 0"
       inkscape:vp_z="64 : 32 : 1"
       inkscape:persp3d-origin="32 : 21.333333 : 1"
       id="perspective3723" />
    <linearGradient
       inkscape:collect="always"
       xlink:href="#linearGradient3628"
       id="linearGradient3846"
       gradientUnits="userSpaceOnUse"
       x1="129.40549"
       y1="395.69638"
       x2="301.84299"
       y2="395.69638" />
    <linearGradient
       inkscape:collect="always"
       xlink:href="#linearGradient3628"
       id="linearGradient3848"
       gradientUnits="userSpaceOnUse"
       x1="298.79843"
       y1="421.66565"
       x2="471.55374"
       y2="421.66565" />
    <linearGradient
       inkscape:collect="always"
       xlink:href="#linearGradient3628"
       id="linearGradient3850"
       gradientUnits="userSpaceOnUse"
       x1="232.7204"
       y1="270.24258"
       x2="405.1579"
       y2="270.24258" />
    <linearGradient
       inkscape:collect="always"
       xlink:href="#linearGradient3172"
       id="linearGradient3178"
       x1="32.909092"
       y1="1.8181818"
       x2="32.909092"
       y2="15.636364"
       gradientUnits="userSpaceOnUse" />
    <filter
       inkscape:collect="always"
       id="filter3360"
       x="-0.057227139"
       width="1.1144543"
       y="-0.23493246"
       height="1.4698649">
      <feGaussianBlur
         inkscape:collect="always"
         stdDeviation="1.3526414"
         id="feGaussianBlur3362" />
    </filter>
    <linearGradient
       inkscape:collect="always"
       xlink:href="#linearGradient3372"
       id="linearGradient3370"
       x1="32.090912"
       y1="1.0909164"
       x2="32.090912"
       y2="67.636368"
       gradientUnits="userSpaceOnUse"
       gradientTransform="matrix(0.9859962,0,0,0.9859962,0.3584832,-1.3322407e-3)" />
  </defs>
  <sodipodi:namedview
     id="base"
     pagecolor="#ffffff"
     bordercolor="#666666"
     borderopacity="1.0"
     inkscape:pageopacity="0.0"
     inkscape:pageshadow="2"
     inkscape:zoom="5.5"
     inkscape:cx="9.1317777"
     inkscape:cy="7.2091255"
     inkscape:current-layer="layer1"
     showgrid="true"
     inkscape:document-units="px"
     inkscape:grid-bbox="true"
     inkscape:window-width="1280"
     inkscape:window-height="949"
     inkscape:window-x="0"
     inkscape:window-y="25" />
  <metadata
     id="metadata3720">
    <rdf:RDF>
      <cc:Work
         rdf:about="">
        <dc:format>image/svg+xml</dc:format>
        <dc:type
           rdf:resource="http://purl.org/dc/dcmitype/StillImage" />
      </cc:Work>
    </rdf:RDF>
  </metadata>
  <g
     id="layer1"
     inkscape:label="Layer 1"
     inkscape:groupmode="layer">
    <rect
       style="fill:url(#linearGradient3370);fill-opacity:1;stroke:#000000;stroke-width:0.49299812;stroke-linecap:round;stroke-linejoin:round;stroke-miterlimit:4;stroke-dasharray:none;stroke-dashoffset:60.01653385;stroke-opacity:1"
       id="rect3656"
       width="63.447906"
       height="63.515469"
       x="0.27604675"
       y="0.15136467"
       ry="5.0196171" />
    <rect
       style="opacity:1;fill:url(#linearGradient3178);fill-opacity:1;stroke:none;stroke-width:3.0999999;stroke-linecap:round;stroke-linejoin:round;stroke-miterlimit:4;stroke-dasharray:none;stroke-dashoffset:60.01653385;stroke-opacity:1;filter:url(#filter3360)"
       id="rect2400"
       width="56.727272"
       height="13.818182"
       x="4.5454545"
       y="1.8181818"
       ry="6.181818"
       transform="matrix(1.0839638,0,0,0.9859962,-3.6722628,-1.3322407e-3)" />
    <g
       id="g3658"
       transform="matrix(0.1560381,0,0,0.1624081,-14.886267,-24.980768)">
      <path
         id="path3576"
         d="M 218.53049,309.80577 L 215.43674,316.11827 L 214.31174,320.93077 L 214.34299,322.49327 L 207.34299,322.93077 L 207.15549,321.39952 L 205.46799,316.74327 L 201.59299,310.89952 L 197.09299,311.74327 L 195.62424,318.61827 L 195.74924,323.55577 L 196.15549,325.08702 L 189.49924,327.24327 L 188.93674,325.77452 L 186.12424,321.71202 L 180.93674,316.99327 L 176.78049,318.93077 L 177.09299,325.96202 L 178.43674,330.71202 L 179.21799,332.08702 L 173.28049,335.83702 L 172.37424,334.55577 L 168.65549,331.33702 L 162.43674,328.05577 L 158.90549,330.96202 L 160.96799,337.71202 L 163.43674,341.96202 L 164.53049,343.08702 L 159.71799,348.21202 L 158.53049,347.18077 L 154.12424,344.99327 L 147.28049,343.36827 L 144.56174,347.05577 L 148.24924,353.05577 L 151.68674,356.58702 L 153.03049,357.39952 L 149.65549,363.55577 L 148.24924,362.86827 L 143.43674,361.83702 L 136.40549,361.96202 L 134.71799,366.21202 L 139.74924,371.11827 L 143.96799,373.64952 L 145.46799,374.11827 L 143.71799,380.93077 L 142.18674,380.58702 L 137.24924,380.80577 L 130.46799,382.68077 L 129.90549,387.21202 L 135.99924,390.71202 L 140.74924,392.11827 L 142.31174,392.21202 L 142.31174,399.21202 L 140.74924,399.27452 L 135.99924,400.71202 L 129.90549,404.21202 L 130.46799,408.74327 L 137.24924,410.61827 L 142.18674,410.80577 L 143.71799,410.49327 L 145.46799,417.27452 L 143.96799,417.74327 L 139.74924,420.30577 L 134.71799,425.21202 L 136.40549,429.46202 L 143.43674,429.58702 L 148.24924,428.55577 L 149.65549,427.86827 L 153.03049,434.02452 L 151.68674,434.83702 L 148.24924,438.33702 L 144.56174,444.33702 L 147.28049,448.05577 L 154.12424,446.43077 L 158.53049,444.21202 L 159.71799,443.21202 L 164.53049,448.33702 L 163.43674,449.46202 L 160.96799,453.71202 L 158.90549,460.43077 L 162.43674,463.36827 L 168.65549,460.08702 L 172.37424,456.83702 L 173.28049,455.55577 L 179.21799,459.33702 L 178.43674,460.68077 L 177.09299,465.43077 L 176.78049,472.46202 L 180.93674,474.43077 L 186.12424,469.68077 L 188.93674,465.64952 L 189.49924,464.18077 L 196.15549,466.33702 L 195.74924,467.83702 L 195.62424,472.77452 L 197.09299,479.68077 L 201.59299,480.52452 L 205.46799,474.64952 L 207.15549,470.02452 L 207.34299,468.46202 L 214.34299,468.89952 L 214.31174,470.46202 L 215.43674,475.27452 L 218.53049,481.58702 L 223.12424,481.30577 L 225.40549,474.64952 L 225.90549,469.74327 L 225.68674,468.18077 L 232.56174,466.86827 L 232.93674,468.39952 L 235.21799,472.77452 L 239.81174,478.11827 L 244.15549,476.71202 L 244.71799,469.68077 L 243.99924,464.80577 L 243.40549,463.36827 L 249.74924,460.36827 L 250.46799,461.77452 L 253.78049,465.43077 L 259.53049,469.46202 L 263.40549,467.02452 L 262.21799,460.08702 L 260.28049,455.55577 L 259.34299,454.27452 L 264.74924,449.80577 L 265.81174,450.96202 L 269.90549,453.71202 L 276.49924,456.18077 L 279.62424,452.83702 L 276.74924,446.43077 L 273.74924,442.49327 L 272.53049,441.52452 L 276.65549,435.83702 L 277.96799,436.71202 L 282.62424,438.33702 L 289.62424,439.11827 L 291.81174,435.08702 L 287.43674,429.58702 L 283.56174,426.52452 L 282.12424,425.89952 L 284.71799,419.36827 L 286.18674,419.86827 L 291.12424,420.30577 L 298.06174,419.30577 L 299.21799,414.86827 L 293.59299,410.61827 L 289.09299,408.61827 L 287.53049,408.33702 L 288.40549,401.39952 L 289.96799,401.52452 L 294.84299,400.71202 L 301.34299,397.99327 L 301.34299,393.43077 L 294.84299,390.71202 L 289.96799,389.89952 L 288.40549,390.02452 L 287.53049,383.05577 L 289.09299,382.80577 L 293.59299,380.80577 L 299.21799,376.55577 L 298.06174,372.11827 L 291.12424,371.11827 L 286.18674,371.55577 L 284.71799,372.05577 L 282.12424,365.52452 L 283.56174,364.86827 L 287.43674,361.83702 L 291.81174,356.33702 L 289.62424,352.30577 L 282.62424,353.05577 L 277.96799,354.71202 L 276.65549,355.55577 L 272.53049,349.89952 L 273.74924,348.89952 L 276.74924,344.99327 L 279.62424,338.55577 L 276.49924,335.21202 L 269.90549,337.71202 L 265.81174,340.43077 L 264.74924,341.58702 L 259.34299,337.11827 L 260.28049,335.86827 L 262.21799,331.33702 L 263.40549,324.39952 L 259.53049,321.93077 L 253.78049,325.96202 L 250.46799,329.64952 L 249.74924,331.02452 L 243.40549,328.05577 L 243.99924,326.58702 L 244.71799,321.71202 L 244.15549,314.71202 L 239.81174,313.30577 L 235.21799,318.61827 L 232.93674,322.99327 L 232.56174,324.52452 L 225.68674,323.21202 L 225.90549,321.68077 L 225.40549,316.74327 L 223.12424,310.11827 L 218.53049,309.80577 z M 215.62424,331.96202 C 223.34173,331.96202 230.72521,333.3904 237.56174,335.96202 L 221.99924,364.68077 C 219.78717,364.13897 217.49518,363.83702 215.12424,363.83702 C 206.70703,363.83702 199.08995,367.46255 193.65549,373.27452 L 165.03049,357.74327 C 176.52254,342.11379 194.90488,331.96202 215.62424,331.96202 z M 253.68674,344.93077 C 268.8566,356.57512 278.65549,374.97695 278.65549,395.71202 C 278.65549,403.31678 277.35531,410.63577 274.93674,417.39952 L 244.43674,400.83702 C 244.80424,398.8959 244.99924,396.88927 244.99924,394.83702 C 244.99924,387.04213 242.24119,379.91103 237.65549,374.46202 L 253.68674,344.93077 z M 156.37424,374.02452 L 185.59299,389.89952 C 185.34453,391.50738 185.21799,393.15691 185.21799,394.83702 C 185.21799,403.31105 188.49225,410.98924 193.81174,416.58702 L 177.59299,446.52452 C 162.42186,434.88026 152.59299,416.44811 152.59299,395.71202 C 152.59299,388.0931 153.94707,380.79888 156.37424,374.02452 z M 214.65549,375.96202 C 214.97309,375.94495 215.30266,375.96202 215.62424,375.96202 C 225.91474,375.96201 234.28049,384.81048 234.28049,395.71202 C 234.28049,406.61356 225.91474,415.43077 215.62424,415.43077 C 205.33374,415.43078 196.96799,406.61356 196.96799,395.71202 C 196.96799,385.15116 204.81002,376.49129 214.65549,375.96202 z M 235.84299,417.14952 L 266.24924,433.68077 C 254.75888,449.32955 236.35862,459.46202 215.62424,459.46202 C 207.89657,459.46202 200.49956,458.07136 193.65549,455.49327 L 209.99924,425.39952 C 211.66126,425.69705 213.38067,425.83702 215.12424,425.83702 C 223.1717,425.83702 230.46718,422.51892 235.84299,417.14952 z"
         style="fill:url(#linearGradient3846);fill-opacity:1;stroke:#000000" />
      <path
         style="fill:url(#linearGradient3848);fill-opacity:1;stroke:#000000"
         d="M 414.44011,340.65881 L 409.56102,345.71979 L 407.01559,349.95613 L 406.56658,351.45305 L 399.76921,349.72472 L 400.0599,348.20967 L 399.88023,343.26032 L 397.98211,336.51034 L 393.44003,335.93473 L 389.93544,342.02904 L 388.54159,346.76736 L 388.45912,348.34943 L 381.46234,348.36251 L 381.37692,346.79206 L 379.94444,342.06319 L 376.45225,335.98197 L 371.90225,336.55281 L 370.04536,343.34163 L 369.86909,348.2749 L 370.19147,349.82313 L 363.39054,351.57353 L 362.92046,350.07623 L 360.36678,345.87288 L 355.45251,340.84404 L 351.20062,342.52854 L 351.09574,349.58582 L 352.14357,354.38783 L 352.84001,355.79385 L 346.68868,359.19781 L 345.87427,357.85232 L 342.35019,354.41996 L 336.3335,350.77621 L 332.61567,353.45333 L 334.28742,360.29459 L 336.47763,364.70924 L 337.50779,365.89439 L 332.40886,370.72045 L 331.28088,369.63515 L 327.01582,367.17895 L 320.28446,365.14358 L 317.37593,368.67212 L 320.66192,374.88397 L 323.90219,378.58609 L 325.18643,379.49189 L 321.43326,385.44053 L 320.08098,384.64414 L 315.31394,383.33954 L 308.28434,383.04659 L 306.36052,387.18755 L 311.0888,392.38633 L 315.17947,395.18033 L 316.63809,395.74832 L 314.49331,402.41164 L 312.9868,401.99239 L 308.02481,401.90537 L 301.15176,403.36991 L 300.29883,407.85557 L 306.17944,411.71816 L 310.822,413.40948 L 312.37536,413.58118 L 311.96342,420.57247 L 310.39195,420.55908 L 305.59095,421.70571 L 299.29842,424.83442 L 299.60258,429.39706 L 306.25734,431.6704 L 311.15435,432.1633 L 312.70361,431.93973 L 314.03002,438.83398 L 312.50196,439.19568 L 308.1574,441.4741 L 302.80887,446.05569 L 304.25744,450.42859 L 311.26992,450.97867 L 316.14406,450.2167 L 317.58084,449.62864 L 320.59159,455.98168 L 319.20575,456.71745 L 315.55355,460.00662 L 311.53163,465.77028 L 313.993,469.64847 L 320.91801,468.43044 L 325.4537,466.47618 L 326.70894,465.53423 L 331.2023,470.95285 L 330.0469,471.9926 L 327.31238,476.10241 L 324.86055,482.69973 L 328.21368,485.84726 L 334.60707,482.91517 L 338.51946,479.93954 L 339.50493,478.71379 L 345.18037,482.80579 L 344.33406,484.10918 L 342.70223,488.77089 L 341.98427,495.795 L 346.00931,497.97696 L 351.49804,493.57183 L 354.52146,489.68632 L 355.1787,488.25642 L 361.70797,490.81766 L 361.19948,492.29543 L 360.79582,497.22117 L 361.80663,504.17798 L 366.26562,505.31778 L 370.4766,499.68064 L 372.45583,495.16356 L 372.72634,493.60919 L 379.67283,494.4663 L 379.56062,496.0388 L 380.39166,500.90234 L 383.12715,507.3966 L 387.69285,507.38891 L 390.38265,500.86819 L 391.19217,496.00743 L 391.06743,494.45714 L 398.02525,493.54515 L 398.27857,495.10399 L 400.31147,499.59933 L 404.54975,505.19848 L 408.98523,504.06551 L 409.98048,497.09783 L 409.52453,492.19087 L 409.0247,490.684 L 415.54014,488.08664 L 416.19726,489.51283 L 419.25152,493.38488 L 424.77171,497.75521 L 428.77094,495.52977 L 427.99708,488.55075 L 426.34782,483.88344 L 425.4845,482.58786 L 431.15374,478.4378 L 432.13501,479.67286 L 436.06942,482.64636 L 442.49337,485.53484 L 445.81082,482.36772 L 443.33144,475.79176 L 440.58116,471.68925 L 439.4043,470.65387 L 443.87446,465.23147 L 445.11937,466.15745 L 449.68534,468.08675 L 456.59558,469.26048 L 459.05585,465.39069 L 455.00358,459.6216 L 451.33282,456.339 L 449.93164,455.59253 L 452.8902,449.2568 L 454.33925,449.85454 L 459.22872,450.5748 L 466.24911,449.97841 L 467.64706,445.63535 L 462.2927,441.05576 L 457.90113,438.78865 L 456.37547,438.42889 L 457.67777,431.52722 L 459.24173,431.768 L 464.13808,431.24298 L 470.79473,428.92088 L 471.05373,424.34253 L 464.75631,421.26499 L 459.92223,420.1686 L 458.37093,420.19453 L 457.90309,413.18271 L 459.47253,412.99846 L 464.08992,411.3003 L 469.93969,407.40533 L 469.09257,402.89772 L 462.19944,401.46685 L 457.25967,401.61678 L 455.75178,402.0178 L 453.55823,395.36969 L 455.02477,394.79122 L 459.07734,391.99205 L 463.78651,386.74506 L 461.83632,382.60464 L 454.79372,382.96409 L 450.06385,384.29775 L 448.69817,385.07284 L 444.92116,379.16256 L 446.19657,378.25993 L 449.42925,374.54027 L 452.68527,368.30029 L 449.75307,364.76298 L 443.04446,366.83855 L 438.76143,369.33375 L 437.65595,370.42239 L 432.52693,365.65271 L 433.54215,364.43653 L 435.72003,360.01622 L 437.32937,353.18055 L 433.62541,350.51102 L 427.62486,354.16049 L 424.11284,357.62609 L 423.2867,358.96879 L 417.14452,355.61294 L 417.82191,354.22236 L 418.8588,349.36914 L 418.71717,342.36381 L 414.44011,340.65881 z M 404.885,360.85897 C 412.2313,363.22358 418.82201,366.84555 424.54179,371.38818 L 400.92842,393.95734 C 398.98875,392.76382 396.89952,391.77414 394.64261,391.04768 C 386.63024,388.46867 378.26865,389.58595 371.31479,393.45329 L 348.82531,369.89839 C 364.55348,358.54178 385.16218,354.51058 404.885,360.85897 z M 437.14323,384.86624 C 448.01566,400.59856 451.70496,421.11769 445.35178,440.85547 C 443.02169,448.09447 439.54152,454.66306 435.16687,460.36046 L 411.20854,435.24941 C 412.15312,433.51425 412.95357,431.66388 413.58238,429.71033 C 415.97072,422.29035 415.53028,414.65717 412.8347,408.06519 L 437.14323,384.86624 z M 335.59685,382.74431 L 358.54621,406.80834 C 357.81704,408.26274 357.19118,409.79416 356.6764,411.39346 C 354.07998,419.45992 354.84417,427.77205 358.19266,434.73048 L 333.58117,458.25869 C 322.7075,442.52607 318.99895,421.9689 325.35245,402.23013 C 327.68687,394.97766 331.21076,388.44916 335.59685,382.74431 z M 390.48132,402.44589 C 390.78888,402.52695 391.09737,402.64418 391.40348,402.74271 C 401.19905,405.89569 406.45128,416.88183 403.11107,427.25905 C 399.77085,437.63626 389.10588,443.46614 379.31032,440.31315 C 369.51476,437.16018 364.25295,426.20378 367.59317,415.82656 C 370.829,405.77364 380.94722,399.93307 390.48132,402.44589 z M 398.03,448.14423 L 421.90867,473.1968 C 406.1762,484.5723 385.55636,488.57962 365.81922,482.22665 C 358.46323,479.85891 351.84808,476.2687 346.12312,471.71759 L 370.90146,448.07894 C 372.39237,448.87141 373.9862,449.53147 375.64591,450.0657 C 383.30632,452.53143 391.26757,451.60823 398.03,448.14423 z"
         id="path3616" />
      <path
         id="path3618"
         d="M 321.8454,184.35195 L 318.75165,190.66445 L 317.62665,195.47695 L 317.6579,197.03945 L 310.6579,197.47695 L 310.4704,195.9457 L 308.7829,191.28945 L 304.9079,185.4457 L 300.4079,186.28945 L 298.93915,193.16445 L 299.06415,198.10195 L 299.4704,199.6332 L 292.81415,201.78945 L 292.25165,200.3207 L 289.43915,196.2582 L 284.25165,191.53945 L 280.0954,193.47695 L 280.4079,200.5082 L 281.75165,205.2582 L 282.5329,206.6332 L 276.5954,210.3832 L 275.68915,209.10195 L 271.9704,205.8832 L 265.75165,202.60195 L 262.2204,205.5082 L 264.2829,212.2582 L 266.75165,216.5082 L 267.8454,217.6332 L 263.0329,222.7582 L 261.8454,221.72695 L 257.43915,219.53945 L 250.5954,217.91445 L 247.87665,221.60195 L 251.56415,227.60195 L 255.00165,231.1332 L 256.3454,231.9457 L 252.9704,238.10195 L 251.56415,237.41445 L 246.75165,236.3832 L 239.7204,236.5082 L 238.0329,240.7582 L 243.06415,245.66445 L 247.2829,248.1957 L 248.7829,248.66445 L 247.0329,255.47695 L 245.50165,255.1332 L 240.56415,255.35195 L 233.7829,257.22695 L 233.2204,261.7582 L 239.31415,265.2582 L 244.06415,266.66445 L 245.62665,266.7582 L 245.62665,273.7582 L 244.06415,273.8207 L 239.31415,275.2582 L 233.2204,278.7582 L 233.7829,283.28945 L 240.56415,285.16445 L 245.50165,285.35195 L 247.0329,285.03945 L 248.7829,291.8207 L 247.2829,292.28945 L 243.06415,294.85195 L 238.0329,299.7582 L 239.7204,304.0082 L 246.75165,304.1332 L 251.56415,303.10195 L 252.9704,302.41445 L 256.3454,308.5707 L 255.00165,309.3832 L 251.56415,312.8832 L 247.87665,318.8832 L 250.5954,322.60195 L 257.43915,320.97695 L 261.8454,318.7582 L 263.0329,317.7582 L 267.8454,322.8832 L 266.75165,324.0082 L 264.2829,328.2582 L 262.2204,334.97695 L 265.75165,337.91445 L 271.9704,334.6332 L 275.68915,331.3832 L 276.5954,330.10195 L 282.5329,333.8832 L 281.75165,335.22695 L 280.4079,339.97695 L 280.0954,347.0082 L 284.25165,348.97695 L 289.43915,344.22695 L 292.25165,340.1957 L 292.81415,338.72695 L 299.4704,340.8832 L 299.06415,342.3832 L 298.93915,347.3207 L 300.4079,354.22695 L 304.9079,355.0707 L 308.7829,349.1957 L 310.4704,344.5707 L 310.6579,343.0082 L 317.6579,343.4457 L 317.62665,345.0082 L 318.75165,349.8207 L 321.8454,356.1332 L 326.43915,355.85195 L 328.7204,349.1957 L 329.2204,344.28945 L 329.00165,342.72695 L 335.87665,341.41445 L 336.25165,342.9457 L 338.5329,347.3207 L 343.12665,352.66445 L 347.4704,351.2582 L 348.0329,344.22695 L 347.31415,339.35195 L 346.7204,337.91445 L 353.06415,334.91445 L 353.7829,336.3207 L 357.0954,339.97695 L 362.8454,344.0082 L 366.7204,341.5707 L 365.5329,334.6332 L 363.5954,330.10195 L 362.6579,328.8207 L 368.06415,324.35195 L 369.12665,325.5082 L 373.2204,328.2582 L 379.81415,330.72695 L 382.93915,327.3832 L 380.06415,320.97695 L 377.06415,317.03945 L 375.8454,316.0707 L 379.9704,310.3832 L 381.2829,311.2582 L 385.93915,312.8832 L 392.93915,313.66445 L 395.12665,309.6332 L 390.75165,304.1332 L 386.87665,301.0707 L 385.43915,300.4457 L 388.0329,293.91445 L 389.50165,294.41445 L 394.43915,294.85195 L 401.37665,293.85195 L 402.5329,289.41445 L 396.9079,285.16445 L 392.4079,283.16445 L 390.8454,282.8832 L 391.7204,275.9457 L 393.2829,276.0707 L 398.1579,275.2582 L 404.6579,272.53945 L 404.6579,267.97695 L 398.1579,265.2582 L 393.2829,264.4457 L 391.7204,264.5707 L 390.8454,257.60195 L 392.4079,257.35195 L 396.9079,255.35195 L 402.5329,251.10195 L 401.37665,246.66445 L 394.43915,245.66445 L 389.50165,246.10195 L 388.0329,246.60195 L 385.43915,240.0707 L 386.87665,239.41445 L 390.75165,236.3832 L 395.12665,230.8832 L 392.93915,226.85195 L 385.93915,227.60195 L 381.2829,229.2582 L 379.9704,230.10195 L 375.8454,224.4457 L 377.06415,223.4457 L 380.06415,219.53945 L 382.93915,213.10195 L 379.81415,209.7582 L 373.2204,212.2582 L 369.12665,214.97695 L 368.06415,216.1332 L 362.6579,211.66445 L 363.5954,210.41445 L 365.5329,205.8832 L 366.7204,198.9457 L 362.8454,196.47695 L 357.0954,200.5082 L 353.7829,204.1957 L 353.06415,205.5707 L 346.7204,202.60195 L 347.31415,201.1332 L 348.0329,196.2582 L 347.4704,189.2582 L 343.12665,187.85195 L 338.5329,193.16445 L 336.25165,197.53945 L 335.87665,199.0707 L 329.00165,197.7582 L 329.2204,196.22695 L 328.7204,191.28945 L 326.43915,184.66445 L 321.8454,184.35195 z M 318.93915,206.5082 C 326.65664,206.5082 334.04012,207.93658 340.87665,210.5082 L 325.31415,239.22695 C 323.10208,238.68515 320.81009,238.3832 318.43915,238.3832 C 310.02194,238.3832 302.40486,242.00873 296.9704,247.8207 L 268.3454,232.28945 C 279.83745,216.65997 298.21979,206.5082 318.93915,206.5082 z M 357.00165,219.47695 C 372.17151,231.1213 381.9704,249.52313 381.9704,270.2582 C 381.9704,277.86296 380.67022,285.18195 378.25165,291.9457 L 347.75165,275.3832 C 348.11915,273.44208 348.31415,271.43545 348.31415,269.3832 C 348.31415,261.58831 345.5561,254.45721 340.9704,249.0082 L 357.00165,219.47695 z M 259.68915,248.5707 L 288.9079,264.4457 C 288.65944,266.05356 288.5329,267.70309 288.5329,269.3832 C 288.5329,277.85723 291.80716,285.53542 297.12665,291.1332 L 280.9079,321.0707 C 265.73677,309.42644 255.9079,290.99429 255.9079,270.2582 C 255.9079,262.63928 257.26198,255.34506 259.68915,248.5707 z M 317.9704,250.5082 C 318.288,250.49113 318.61757,250.5082 318.93915,250.5082 C 329.22965,250.50819 337.5954,259.35666 337.5954,270.2582 C 337.5954,281.15974 329.22965,289.97695 318.93915,289.97695 C 308.64865,289.97696 300.2829,281.15974 300.2829,270.2582 C 300.2829,259.69734 308.12493,251.03747 317.9704,250.5082 z M 339.1579,291.6957 L 369.56415,308.22695 C 358.07379,323.87573 339.67353,334.0082 318.93915,334.0082 C 311.21148,334.0082 303.81447,332.61754 296.9704,330.03945 L 313.31415,299.9457 C 314.97617,300.24323 316.69558,300.3832 318.43915,300.3832 C 326.48661,300.3832 333.78209,297.0651 339.1579,291.6957 z"
         style="fill:url(#linearGradient3850);fill-opacity:1;stroke:#000000" />
    </g>
  </g>
</svg>
