<?xml version="1.0" encoding="UTF-8" standalone="no"?>
<!-- Created with Inkscape (http://www.inkscape.org/) -->
<svg
   xmlns:dc="http://purl.org/dc/elements/1.1/"
   xmlns:cc="http://creativecommons.org/ns#"
   xmlns:rdf="http://www.w3.org/1999/02/22-rdf-syntax-ns#"
   xmlns:svg="http://www.w3.org/2000/svg"
   xmlns="http://www.w3.org/2000/svg"
   xmlns:xlink="http://www.w3.org/1999/xlink"
   xmlns:sodipodi="http://sodipodi.sourceforge.net/DTD/sodipodi-0.dtd"
   xmlns:inkscape="http://www.inkscape.org/namespaces/inkscape"
   width="64px"
   height="64px"
   id="svg8129"
   sodipodi:version="0.32"
   inkscape:version="0.46"
   sodipodi:docname="icon_draw.svg"
   inkscape:output_extension="org.inkscape.output.svg.inkscape">
  <defs
     id="defs8131">
    <linearGradient
       id="linearGradient4758">
      <stop
         style="stop-color:#a05a2c;stop-opacity:1;"
         offset="0"
         id="stop4760" />
      <stop
         style="stop-color:#3d2210;stop-opacity:1;"
         offset="1"
         id="stop4762" />
    </linearGradient>
    <linearGradient
       id="linearGradient4766">
      <stop
         style="stop-color:#784421;stop-opacity:1;"
         offset="0"
         id="stop4768" />
      <stop
         style="stop-color:#3d2210;stop-opacity:0;"
         offset="1"
         id="stop4770" />
    </linearGradient>
    <filter
       inkscape:collect="always"
       id="filter3287">
      <feGaussianBlur
         inkscape:collect="always"
         stdDeviation="0.88403668"
         id="feGaussianBlur3289" />
    </filter>
    <linearGradient
       id="linearGradient3169">
      <stop
         style="stop-color:#0000ff;stop-opacity:1;"
         offset="0"
         id="stop3171" />
      <stop
         style="stop-color:#000067;stop-opacity:1;"
         offset="1"
         id="stop3173" />
    </linearGradient>
    <linearGradient
       id="linearGradient8119">
      <stop
         style="stop-color:#c70000;stop-opacity:1;"
         offset="0"
         id="stop8121" />
      <stop
         style="stop-color:#020202;stop-opacity:0.52156866;"
         offset="1"
         id="stop8123" />
    </linearGradient>
    <inkscape:perspective
       sodipodi:type="inkscape:persp3d"
       inkscape:vp_x="0 : 32 : 1"
       inkscape:vp_y="0 : 1000 : 0"
       inkscape:vp_z="64 : 32 : 1"
       inkscape:persp3d-origin="32 : 21.333333 : 1"
       id="perspective8137" />
    <linearGradient
       inkscape:collect="always"
       xlink:href="#linearGradient4758"
       id="linearGradient8169"
       gradientUnits="userSpaceOnUse"
       gradientTransform="matrix(0.9650128,0,0,0.9948433,-537.9578,-516.4442)"
       x1="590.62201"
       y1="434.7522"
       x2="698.54004"
       y2="517.79218" />
    <linearGradient
       inkscape:collect="always"
       xlink:href="#linearGradient4766"
       id="linearGradient8171"
       gradientUnits="userSpaceOnUse"
       gradientTransform="matrix(0.9650128,0,0,0.9948433,-537.9578,-516.4442)"
       x1="661.24402"
       y1="602.90814"
       x2="431.5"
       y2="201.5482" />
    <radialGradient
       inkscape:collect="always"
       xlink:href="#linearGradient3169"
       id="radialGradient8173"
       gradientUnits="userSpaceOnUse"
       gradientTransform="matrix(1,0,0,0.2116376,-88.252151,-159.37774)"
       cx="120.07376"
       cy="56.138123"
       fx="120.07376"
       fy="56.138123"
       r="82.790039" />
    <linearGradient
       inkscape:collect="always"
       xlink:href="#linearGradient8119"
       id="linearGradient8175"
       gradientUnits="userSpaceOnUse"
       gradientTransform="translate(-88.252151,-203.63493)"
       x1="84.142616"
       y1="368.53818"
       x2="188.70921"
       y2="465.65488" />
  </defs>
  <sodipodi:namedview
     id="base"
     pagecolor="#ffffff"
     bordercolor="#666666"
     borderopacity="1.0"
     inkscape:pageopacity="0.0"
     inkscape:pageshadow="2"
     inkscape:zoom="1.5369145"
     inkscape:cx="-81.213848"
     inkscape:cy="69.958288"
     inkscape:current-layer="layer1"
     showgrid="true"
     inkscape:document-units="px"
     inkscape:grid-bbox="true"
     inkscape:window-width="1280"
     inkscape:window-height="949"
     inkscape:window-x="0"
     inkscape:window-y="25" />
  <metadata
     id="metadata8134">
    <rdf:RDF>
      <cc:Work
         rdf:about="">
        <dc:format>image/svg+xml</dc:format>
        <dc:type
           rdf:resource="http://purl.org/dc/dcmitype/StillImage" />
      </cc:Work>
    </rdf:RDF>
  </metadata>
  <g
     id="layer1"
     inkscape:label="Layer 1"
     inkscape:groupmode="layer">
    <g
       id="g8162"
       transform="matrix(0.1334022,0,0,0.1334022,27.73113,27.920851)">
      <rect
         y="-193.73871"
         x="-78.519058"
         height="321.49753"
         width="221.03812"
         id="rect2490"
         style="fill:url(#linearGradient8169);fill-opacity:1;fill-rule:nonzero;stroke:#000000;stroke-width:19.59629059;stroke-linejoin:round;stroke-miterlimit:4;stroke-dasharray:none;stroke-opacity:1" />
      <rect
         y="-172.39737"
         x="-57.817608"
         height="277.43793"
         width="178.29964"
         id="rect3302"
         style="fill:url(#linearGradient8171);fill-opacity:1;stroke:#000000;stroke-width:1.95962906;stroke-linejoin:miter;stroke-miterlimit:4;stroke-dasharray:none;stroke-opacity:1" />
      <path
         transform="matrix(1.1399786,0,0,1.0181427,-640.44702,-533.01873)"
         d="M 661.55199,489.76617 A 71.968002,128.71201 0 1 1 517.61598,489.76617 A 71.968002,128.71201 0 1 1 661.55199,489.76617 z"
         sodipodi:ry="128.71201"
         sodipodi:rx="71.968002"
         sodipodi:cy="489.76617"
         sodipodi:cx="589.58398"
         id="path3304"
         style="opacity:0.39208954;fill:#a05a2c;stroke:#000000;stroke-width:2.00029755;stroke-linejoin:round;stroke-miterlimit:4;stroke-dasharray:none;stroke-dashoffset:0;stroke-opacity:1;filter:url(#filter3287)"
         sodipodi:type="arc" />
      <path
         id="text2395"
         d="M -50.42937,-150.95384 C -50.455412,-151.38351 -50.468433,-151.79692 -50.468433,-152.19407 C -50.468433,-154.86333 -49.804371,-157.07686 -48.476245,-158.8347 C -46.92677,-160.85941 -45.126642,-162.31449 -43.075855,-163.19993 C -41.018573,-164.07881 -39.443054,-164.51826 -38.349292,-164.51829 C -36.962587,-164.51826 -35.829776,-164.27738 -34.950855,-163.79564 C -34.098007,-163.2878 -33.232122,-162.64652 -32.353199,-161.87181 C -31.474312,-161.10355 -30.820015,-160.71944 -30.390308,-160.71946 C -30.312203,-160.71944 -29.954131,-160.94405 -29.316089,-161.39329 C -28.67158,-161.82295 -28.150747,-162.18428 -27.753589,-162.47728 C -27.40856,-162.47725 -27.141634,-162.21032 -26.952808,-161.67649 L -32.470386,-156.99876 C -32.548529,-157.05082 -32.948919,-157.45121 -33.671558,-158.19993 C -34.39423,-158.91606 -35.074568,-159.55408 -35.712574,-160.11399 C -36.350609,-160.64782 -37.125348,-161.15564 -38.036792,-161.63743 C -38.941752,-162.11918 -39.820657,-162.36006 -40.673511,-162.36009 C -41.741228,-162.36006 -42.753597,-161.65043 -43.71062,-160.23118 C -44.70021,-158.79236 -45.461928,-157.15499 -45.995777,-155.31907 C -46.445,-153.82166 -46.669609,-152.60747 -46.669605,-151.67649 C -46.669609,-151.46164 -46.656588,-151.25981 -46.630542,-151.07103 C -46.096693,-147.39263 -44.722996,-144.31321 -42.509449,-141.83274 C -40.321959,-139.35227 -37.776389,-138.11204 -34.87273,-138.11204 C -34.4691,-138.11204 -33.176784,-138.72727 -30.995777,-139.95774 C -28.938507,-141.07753 -27.737336,-141.63743 -27.392261,-141.63743 C -27.366243,-141.63743 -27.340201,-141.63743 -27.314136,-141.63743 C -27.314159,-140.8106 -27.301139,-139.62246 -27.275074,-138.07298 C -27.275097,-136.53001 -27.301139,-134.87637 -27.353199,-133.11204 C -27.431347,-131.35423 -27.56481,-130.47533 -27.753589,-130.47532 L -28.788745,-130.47532 C -28.762726,-131.67324 -28.749705,-133.1804 -28.749683,-134.99681 C -28.749705,-136.78066 -28.818064,-137.67259 -28.954761,-137.67259 C -29.006866,-137.67259 -29.501657,-137.56517 -30.439136,-137.35032 C -31.370145,-137.14199 -32.366238,-136.96946 -33.427417,-136.83274 C -34.521183,-136.70254 -35.855818,-136.63743 -37.431324,-136.63743 C -41.057635,-136.63743 -44.003596,-137.54238 -46.269214,-139.35228 C -47.258801,-140.1791 -48.140962,-141.57883 -48.915699,-143.55149 C -49.70997,-145.4981 -50.214527,-147.96555 -50.42937,-150.95384 M -25.478199,-146.63743 C -25.34799,-148.31711 -24.602548,-149.57036 -23.24187,-150.3972 C -21.881197,-151.19796 -19.986667,-151.95643 -17.558277,-152.67259 C -17.291358,-152.75721 -17.024431,-152.79953 -16.757495,-152.79954 C -16.197609,-152.79953 -15.58563,-152.65304 -14.921558,-152.36009 C -13.931986,-151.90434 -13.04006,-151.22401 -12.245777,-150.31907 C -11.471051,-149.38156 -10.963239,-148.18039 -10.722339,-146.71556 C -10.644229,-146.28586 -10.605166,-145.85943 -10.605152,-145.43626 C -10.605166,-144.31646 -10.829776,-143.14133 -11.27898,-141.91087 C -11.545921,-141.14264 -12.148134,-140.31907 -13.08562,-139.44017 C -14.016621,-138.52871 -15.015969,-137.79303 -16.083667,-137.23314 C -17.066748,-136.72532 -17.945654,-136.47142 -18.720386,-136.47142 C -18.798518,-136.47142 -18.879898,-136.47142 -18.964527,-136.47142 C -21.920259,-136.68626 -23.987314,-137.99485 -25.165699,-140.3972 C -25.484709,-140.98313 -25.644214,-142.05084 -25.644214,-143.60032 C -25.644214,-144.45318 -25.588875,-145.46555 -25.478199,-146.63743 M -19.882495,-150.75853 C -21.217135,-150.2507 -22.135103,-149.11789 -22.636402,-147.36009 C -22.747081,-146.98247 -22.80242,-146.55279 -22.802417,-146.07103 C -22.80242,-145.59576 -22.747081,-145.05214 -22.636402,-144.44017 C -22.428071,-143.23573 -21.855155,-142.07362 -20.917652,-140.95384 C -20.012709,-139.83404 -18.668309,-139.03326 -16.884449,-138.55149 C -15.601906,-138.55149 -14.840188,-139.00397 -14.599292,-139.90892 C -14.358418,-140.82037 -14.237975,-142.42193 -14.237964,-144.7136 C -14.237975,-145.99615 -14.573261,-147.14198 -15.243824,-148.1511 C -15.907895,-149.14067 -16.6924,-149.88937 -17.597339,-150.3972 C -18.215836,-150.71619 -18.74969,-150.8757 -19.198902,-150.87571 C -19.439793,-150.8757 -19.667657,-150.83664 -19.882495,-150.75853 M -9.6188235,-143.1511 C -9.6188235,-145.65761 -8.9645265,-147.85812 -7.6559325,-149.75267 C -6.3733835,-151.62114 -4.4658335,-152.55538 -1.9332765,-152.5554 C -1.1325035,-152.55538 -0.038754536,-152.30148 1.3479735,-151.79368 C 2.7021285,-151.28585 3.3792105,-150.63156 3.3792235,-149.83079 C 3.3792105,-149.5964 3.1415805,-149.27739 2.6663335,-148.87376 C 2.1585085,-148.45057 1.7450975,-148.13156 1.4260985,-147.91673 C 1.4260875,-147.91672 1.4260875,-147.91672 1.4260985,-147.91673 C 1.4260875,-147.9688 1.1200985,-148.28781 0.50813046,-148.87376 C -0.16245254,-149.51177 -0.83302454,-150.05864 -1.5035885,-150.51439 C -2.1676585,-150.9701 -2.8186995,-151.19796 -3.4567135,-151.19798 C -4.2835425,-151.19796 -4.9508595,-150.58273 -5.4586665,-149.35228 C -5.9925245,-148.10226 -6.2594515,-146.77089 -6.2594485,-145.35814 C -6.2594515,-143.43756 -5.7516395,-141.82297 -4.7360105,-140.51439 C -3.7464335,-139.17975 -2.2653145,-138.51243 -0.29265154,-138.51243 C 0.34535946,-138.51243 1.0908015,-138.93886 1.9436765,-139.79173 C 2.7965295,-140.64459 3.2359815,-141.07102 3.2620365,-141.07103 C 3.3987415,-141.07102 3.5452265,-140.9929 3.7014895,-140.83665 C 3.8381945,-140.64784 3.9065535,-140.51438 3.9065675,-140.43626 C 3.9065535,-140.35813 3.5452265,-139.97076 2.8225835,-139.27415 C 2.1064255,-138.558 1.2665825,-137.91998 0.30305146,-137.36009 C -0.68002954,-136.80019 -1.6793775,-136.52024 -2.6949945,-136.52024 C -5.1494265,-136.52024 -6.9104925,-137.14524 -7.9781985,-138.39524 C -9.0719485,-139.65175 -9.6188235,-141.23704 -9.6188235,-143.1511 M 11.562817,-163.67845 C 11.588853,-163.46358 11.601874,-161.93038 11.60188,-159.07884 C 11.575832,-156.1947 11.549791,-153.30083 11.523755,-150.3972 C 11.497707,-148.45057 11.484687,-147.10292 11.484692,-146.35423 C 11.484687,-145.98313 11.484687,-145.77154 11.484692,-145.71946 C 13.724269,-147.13221 15.416979,-148.22271 16.562819,-148.99095 C 17.682599,-149.73963 18.431299,-150.2214 18.808909,-150.43626 C 19.844049,-151.10031 20.576479,-151.55278 21.006179,-151.79368 C 21.351209,-152.00851 21.657199,-152.11593 21.924149,-152.11595 C 21.950169,-152.11593 21.976209,-152.11593 22.002269,-152.11595 C 22.243139,-152.06385 22.523089,-151.80994 22.842109,-151.35423 C 21.696269,-150.60552 20.270489,-149.65825 18.564769,-148.51243 C 16.859029,-147.36659 16.006169,-146.71555 16.006179,-146.55931 C 16.006169,-146.5593 16.006169,-146.5593 16.006179,-146.55931 C 16.247049,-146.34445 16.579079,-145.98313 17.002269,-145.47532 C 17.431949,-144.94146 17.754209,-144.30018 17.969069,-143.55149 C 18.125309,-143.07623 18.564759,-142.23638 19.287429,-141.03196 C 19.977519,-139.83404 20.511369,-139.12766 20.888989,-138.91282 C 21.155899,-138.75657 21.367489,-138.67845 21.523759,-138.67845 C 21.575819,-138.67845 21.631159,-138.69147 21.689769,-138.71751 C 21.846009,-138.79563 22.083639,-139.02024 22.402659,-139.39134 C 22.695609,-139.76894 23.001599,-139.9968 23.320629,-140.07493 C 23.353169,-140.07493 23.382459,-140.07493 23.408519,-140.07493 C 23.538709,-140.07493 23.685199,-140.02285 23.847969,-139.91868 C 23.978159,-139.78196 24.043269,-139.66152 24.043289,-139.55735 C 24.043269,-139.53131 24.043269,-139.50527 24.043289,-139.47923 C 23.965139,-138.8347 23.232719,-138.15436 21.846019,-137.43821 C 20.915019,-136.95644 20.114239,-136.71556 19.443679,-136.71556 C 19.098609,-136.71556 18.779599,-136.78066 18.486649,-136.91087 C 18.219709,-137.02155 17.366839,-138.3692 15.928049,-140.95384 C 14.489239,-143.51243 13.701479,-144.80474 13.564769,-144.83079 C 13.375959,-144.88938 13.203439,-144.91867 13.047189,-144.91868 C 12.435209,-144.91867 12.034819,-144.58339 11.846019,-143.91282 C 11.631171,-143.11203 11.523749,-142.0606 11.523755,-140.75853 C 11.523749,-140.6218 11.523749,-140.47532 11.523755,-140.31907 C 11.523749,-139.81126 11.523749,-139.36855 11.523755,-138.99095 C 11.523749,-138.2748 11.510728,-137.86139 11.484692,-137.75071 C 11.165677,-137.51634 10.687161,-137.23639 10.049145,-136.91087 C 9.4566945,-136.59186 8.9358615,-136.43235 8.4866455,-136.43235 C 8.4606015,-136.43235 8.4345605,-136.43235 8.4085205,-136.43235 C 8.4085185,-145.55344 8.4085185,-150.92778 8.4085205,-152.5554 C 8.4085185,-153.35617 8.4085185,-154.0365 8.4085205,-154.59642 C 8.3824765,-155.18234 8.3824765,-155.64783 8.4085205,-155.9929 C 8.4345605,-156.63741 8.4475805,-157.19731 8.4475835,-157.67259 C 8.4475805,-157.91345 8.4475805,-158.14132 8.4475835,-158.35618 C 8.4215395,-158.9421 8.3954975,-159.46293 8.3694585,-159.91868 C 8.3694555,-160.31579 8.1936745,-160.6348 7.8421145,-160.87571 C 7.4970605,-161.11657 7.0055245,-161.40954 6.3675055,-161.75462 C 5.9117765,-161.99548 5.6839115,-162.16801 5.6839115,-162.2722 C 5.6839115,-162.29821 5.7229745,-162.31123 5.8010985,-162.31126 C 5.9378175,-162.34379 6.5921135,-162.53259 7.7639895,-162.87767 C 8.9358615,-163.22269 9.8570845,-163.48962 10.527661,-163.67845 C 10.846666,-163.75655 11.084296,-163.79561 11.240551,-163.79564 C 11.429348,-163.79561 11.53677,-163.75655 11.562817,-163.67845 M 25.586259,-148.79564 C 25.482089,-149.01047 25.430009,-149.22531 25.430009,-149.44017 C 25.430009,-149.88937 25.709949,-150.3158 26.269849,-150.71946 C 27.070629,-151.27934 28.164379,-151.74484 29.551099,-152.11595 C 30.911769,-152.46098 32.057599,-152.63351 32.988599,-152.63353 C 34.056299,-152.63351 35.377909,-152.28846 36.953439,-151.59837 C 38.522439,-150.8757 39.306939,-150.03586 39.306959,-149.07884 L 39.306959,-141.35423 C 39.332989,-141.0873 39.427389,-140.72922 39.590159,-140.28001 C 39.752909,-139.79824 40.032859,-139.44993 40.430009,-139.23509 C 41.152649,-138.91608 41.738579,-138.70449 42.187819,-138.60032 C 42.617489,-138.4636 42.858369,-138.3692 42.910469,-138.31712 C 42.962539,-138.26503 42.988579,-138.14459 42.988599,-137.95579 C 42.988579,-137.74095 42.669569,-137.44798 42.031569,-137.07689 C 41.387019,-136.67324 40.905249,-136.47142 40.586259,-136.47142 C 39.362279,-136.47142 38.444319,-136.6179 37.832349,-136.91087 C 37.187809,-137.1778 36.614889,-137.53912 36.113599,-137.99485 C 35.579729,-138.45058 35.179339,-138.67845 34.912429,-138.67845 C 34.593409,-138.67845 34.166979,-138.45058 33.633129,-137.99485 C 33.073229,-137.53912 32.500309,-137.16478 31.914379,-136.87181 C 31.295879,-136.5528 30.413719,-136.39329 29.267899,-136.39329 C 27.803049,-136.39329 26.764639,-136.59511 26.152659,-136.99876 C 25.508129,-137.36985 25.185859,-137.99485 25.185859,-138.87376 C 25.185859,-139.99355 25.745759,-140.97988 26.865549,-141.83274 C 27.985339,-142.65956 29.053049,-143.23248 30.068679,-143.55149 C 30.843409,-143.84446 31.657209,-144.1537 32.510079,-144.47923 C 33.336899,-144.79823 33.987939,-145.13026 34.463209,-145.47532 C 34.944969,-145.82037 35.185849,-146.22076 35.185859,-146.67649 C 35.185849,-147.92648 34.746399,-148.89653 33.867509,-149.58665 C 32.988589,-150.28325 32.054349,-150.63156 31.064769,-150.63157 C 30.882469,-150.63156 30.485339,-150.51437 29.873359,-150.28001 C 29.228829,-150.01307 28.906559,-149.79823 28.906569,-149.63548 C 28.906559,-149.42062 29.108389,-149.2481 29.512039,-149.1179 C 29.883129,-148.98117 30.068669,-148.80864 30.068679,-148.60032 C 30.068669,-148.43755 29.762679,-148.20969 29.150709,-147.91673 C 28.694979,-147.70187 28.229479,-147.59445 27.754219,-147.59446 C 27.591459,-147.59445 27.415679,-147.60747 27.226879,-147.63353 C 26.562819,-147.71164 26.015939,-148.09901 25.586259,-148.79564 M 34.912429,-144.19603 C 33.577779,-143.68821 32.311509,-143.05995 31.113599,-142.31126 C 29.883129,-141.54303 29.267889,-140.87896 29.267899,-140.31907 C 29.267889,-139.32949 29.668279,-138.70123 30.469069,-138.43431 C 30.709949,-138.35618 30.963849,-138.31712 31.230789,-138.31712 C 31.816719,-138.31712 32.471009,-138.558 33.193679,-139.03978 C 34.124659,-139.67779 34.710589,-140.54368 34.951489,-141.63743 C 35.055649,-142.14524 35.107729,-142.61073 35.107739,-143.03392 C 35.107729,-143.48964 35.042629,-143.87701 34.912429,-144.19603 M 43.281569,-151.23704 L 49.678049,-155.3972 C 49.866849,-155.13025 49.974269,-154.78195 50.000319,-154.35228 C 50.026349,-153.90304 50.039369,-153.48963 50.039379,-153.11204 C 50.039369,-153.05994 50.039369,-153.02088 50.039379,-152.99485 C 50.039369,-152.70187 50.117499,-152.51632 50.273759,-152.43821 C 50.488589,-152.38611 50.823879,-152.36007 51.279609,-152.36009 C 51.735339,-152.36007 52.308249,-152.38611 52.998359,-152.43821 C 53.584289,-152.46424 54.170229,-152.47726 54.756179,-152.47728 C 55.556949,-152.47726 56.357729,-152.45122 57.158519,-152.39915 C 57.158509,-152.34054 57.239889,-152.11268 57.402659,-151.71556 C 57.454729,-151.52674 57.480769,-151.35421 57.480789,-151.19798 C 57.506809,-151.0352 57.480769,-150.88872 57.402659,-150.75853 C 57.265929,-150.49158 56.878559,-150.3451 56.240549,-150.31907 C 53.786109,-150.26047 52.252909,-150.23117 51.640939,-150.23118 C 50.996399,-150.23117 50.462549,-150.23117 50.039379,-150.23118 C 49.850569,-150.02284 49.756169,-149.31646 49.756179,-148.11204 C 49.756169,-146.91411 49.756169,-145.58274 49.756179,-144.1179 C 49.756169,-142.73118 49.782209,-141.74485 49.834299,-141.15892 C 49.892889,-140.54042 50.120749,-139.93821 50.517899,-139.35228 C 50.888979,-138.76634 51.543279,-138.32688 52.480789,-138.03392 C 52.988589,-137.87767 53.467099,-137.79954 53.916329,-137.79954 C 54.261369,-137.79954 54.596659,-137.85162 54.922189,-137.95579 C 55.612279,-138.14459 56.172179,-138.31712 56.601879,-138.47337 C 56.732079,-138.52545 56.852519,-138.55149 56.963209,-138.55149 C 57.197569,-138.55149 57.357069,-138.44733 57.441719,-138.23899 C 57.441709,-138.21295 57.441709,-138.18365 57.441719,-138.1511 C 57.441709,-137.91673 56.959939,-137.5847 55.996409,-137.15501 C 54.928689,-136.67324 53.955389,-136.32819 53.076489,-136.11985 C 52.464499,-135.98314 51.878559,-135.91478 51.318679,-135.91478 C 50.439759,-135.91478 49.612939,-136.07428 48.838209,-136.39329 C 47.555649,-136.9011 46.647449,-137.78326 46.113599,-139.03978 C 46.113599,-140.60878 46.100579,-142.6205 46.074539,-145.07493 C 46.048489,-147.50331 46.009429,-148.80864 45.957349,-148.99095 C 45.879219,-149.3425 45.504869,-149.6908 44.834299,-150.03587 C 44.144199,-150.38091 43.626619,-150.7813 43.281569,-151.23704 M 65.029609,-149.79173 C 65.133769,-149.79172 65.853179,-150.24419 67.187819,-151.14915 C 68.522439,-152.06059 69.349269,-152.51632 69.668289,-152.51634 C 69.694319,-152.51632 69.720359,-152.51632 69.746409,-152.51634 C 69.961239,-152.51632 70.416969,-152.4089 71.113599,-152.19407 C 71.855769,-151.95317 72.269179,-151.71229 72.353829,-151.47142 C 72.138979,-151.04822 71.872049,-150.51763 71.553049,-149.87962 C 71.201479,-149.23508 70.934549,-148.89979 70.752269,-148.87376 C 70.693669,-148.87375 70.638329,-148.87375 70.586259,-148.87376 C 70.319319,-148.87375 69.974259,-149.06255 69.551099,-149.44017 C 69.043279,-149.86333 68.522439,-150.10096 67.988599,-150.15306 C 67.988589,-150.15304 67.988589,-150.15304 67.988599,-150.15306 C 67.773749,-150.15304 67.187809,-149.80799 66.230789,-149.1179 C 65.215159,-148.36919 64.707339,-147.94276 64.707349,-147.8386 L 64.707349,-138.27806 C 64.655259,-138.03717 64.163719,-137.62376 63.232739,-137.03782 C 62.431949,-136.53001 61.803699,-136.2761 61.347969,-136.2761 C 61.269849,-136.2761 61.204739,-136.28913 61.152659,-136.31517 C 60.911769,-136.36725 60.778309,-137.04759 60.752269,-138.35618 C 60.752269,-138.77936 60.752269,-139.27089 60.752269,-139.83079 C 60.752269,-140.95709 60.765289,-142.34381 60.791329,-143.99095 C 60.817369,-144.98052 60.830389,-145.80734 60.830399,-146.47142 C 60.830389,-147.46099 60.804349,-148.07622 60.752269,-148.31712 C 60.615549,-149.09185 60.387689,-149.58338 60.068679,-149.79173 C 59.749669,-149.98052 59.323229,-150.16932 58.789379,-150.35814 C 58.333649,-150.48833 58.105789,-150.6869 58.105789,-150.95384 C 58.105789,-150.97987 58.105789,-151.00591 58.105789,-151.03196 C 58.131829,-151.11658 58.213209,-151.18494 58.349929,-151.23704 C 58.480139,-151.28911 58.691719,-151.32817 58.984689,-151.35423 C 59.277659,-151.38026 59.652009,-151.41932 60.107739,-151.47142 C 61.012689,-151.63416 61.852529,-151.83598 62.627269,-152.07689 C 63.239249,-152.26567 63.678699,-152.36007 63.945629,-152.36009 C 64.004219,-152.36007 64.059559,-152.36007 64.111649,-152.36009 C 64.456689,-152.30148 64.629219,-152.07361 64.629219,-151.67649 C 64.603179,-151.27283 64.577129,-150.87244 64.551099,-150.47532 C 64.551089,-150.44927 64.551089,-150.42323 64.551099,-150.3972 C 64.551089,-150.05213 64.710599,-149.85031 65.029609,-149.79173 M 78.105789,-159.19603 C 78.398749,-159.91866 78.610339,-160.45251 78.740549,-160.79759 C 78.851219,-161.14262 78.971669,-161.39652 79.101879,-161.55931 C 79.238589,-161.68949 79.505519,-161.80668 79.902659,-161.91087 C 80.273749,-161.99548 80.713199,-162.05082 81.221019,-162.07689 C 81.331689,-162.07686 81.439109,-162.07686 81.543289,-162.07689 C 82.051089,-162.07686 82.344059,-161.90433 82.422189,-161.55931 C 82.422179,-161.50069 82.422179,-161.44535 82.422189,-161.39329 C 82.422179,-160.99613 82.223619,-160.51762 81.826489,-159.95774 C 81.370749,-159.28715 80.797839,-158.68494 80.107739,-158.1511 C 79.411119,-157.62374 78.743799,-157.31775 78.105789,-157.23314 C 77.728179,-157.39587 77.513339,-157.55538 77.461259,-157.71165 C 77.461249,-157.73767 77.461249,-157.76697 77.461259,-157.79954 C 77.461249,-157.92973 77.529609,-158.10225 77.666329,-158.31712 C 77.822579,-158.58402 77.969059,-158.87699 78.105789,-159.19603 M 73.467109,-152.67259 C 74.261389,-152.88742 75.312819,-153.16736 76.621409,-153.51243 C 77.903959,-153.86398 78.838199,-154.05278 79.424149,-154.07884 C 79.450179,-154.07882 79.476219,-154.07882 79.502269,-154.07884 C 79.821279,-154.07882 80.049139,-153.9714 80.185859,-153.75657 C 80.263979,-153.56775 80.303049,-153.30083 80.303049,-152.95579 C 80.303049,-152.87765 80.303049,-152.79627 80.303049,-152.71165 C 80.250959,-152.23637 80.224919,-151.8783 80.224929,-151.63743 L 80.224929,-139.79173 C 80.596009,-139.79173 81.116849,-139.99355 81.787429,-140.3972 C 82.288719,-140.69016 82.646789,-140.83665 82.861649,-140.83665 C 82.913719,-140.83665 82.952779,-140.82363 82.978829,-140.79759 C 83.141579,-140.68691 83.222959,-140.56646 83.222969,-140.43626 C 83.222959,-140.0912 82.663069,-139.63873 81.543289,-139.07884 C 81.172189,-138.86399 80.625309,-138.50266 79.902659,-137.99485 C 79.153959,-137.461 78.473619,-137.03457 77.861649,-136.71556 C 77.757479,-136.61139 77.584949,-136.51699 77.344069,-136.43235 C 77.265939,-136.40631 77.184559,-136.39329 77.099929,-136.39329 C 76.943669,-136.39329 76.797189,-136.47467 76.660469,-136.63743 C 76.608389,-136.71556 76.582349,-139.56712 76.582349,-145.19212 C 76.582349,-145.77805 76.582349,-146.39328 76.582349,-147.03782 C 76.582349,-147.67583 76.556299,-148.27479 76.504219,-148.8347 C 76.426099,-149.36854 76.292629,-149.79497 76.103829,-150.11399 C 75.888989,-150.51763 75.622059,-150.82362 75.303049,-151.03196 C 74.957999,-151.22075 74.596669,-151.40955 74.219069,-151.59837 C 73.821929,-151.7546 73.571279,-151.91411 73.467109,-152.07689 C 73.408519,-152.12895 73.379219,-152.20708 73.379219,-152.31126 C 73.353179,-152.42192 73.382479,-152.54236 73.467109,-152.67259 M 84.365549,-143.1511 C 84.365549,-145.65761 85.019849,-147.85812 86.328439,-149.75267 C 87.610989,-151.62114 89.518539,-152.55538 92.051099,-152.5554 C 92.851869,-152.55538 93.945619,-152.30148 95.332349,-151.79368 C 96.686499,-151.28585 97.363589,-150.63156 97.363599,-149.83079 C 97.363589,-149.5964 97.125959,-149.27739 96.650709,-148.87376 C 96.142879,-148.45057 95.729469,-148.13156 95.410469,-147.91673 C 95.410459,-147.91672 95.410459,-147.91672 95.410469,-147.91673 C 95.410459,-147.9688 95.104469,-148.28781 94.492509,-148.87376 C 93.821919,-149.51177 93.151349,-150.05864 92.480789,-150.51439 C 91.816719,-150.9701 91.165679,-151.19796 90.527659,-151.19798 C 89.700829,-151.19796 89.033519,-150.58273 88.525709,-149.35228 C 87.991849,-148.10226 87.724919,-146.77089 87.724929,-145.35814 C 87.724919,-143.43756 88.232739,-141.82297 89.248359,-140.51439 C 90.237939,-139.17975 91.719059,-138.51243 93.691719,-138.51243 C 94.329739,-138.51243 95.075179,-138.93886 95.928049,-139.79173 C 96.780899,-140.64459 97.220359,-141.07102 97.246409,-141.07103 C 97.383119,-141.07102 97.529599,-140.9929 97.685859,-140.83665 C 97.822569,-140.64784 97.890929,-140.51438 97.890939,-140.43626 C 97.890929,-140.35813 97.529599,-139.97076 96.806959,-139.27415 C 96.090799,-138.558 95.250959,-137.91998 94.287429,-137.36009 C 93.304349,-136.80019 92.304999,-136.52024 91.289379,-136.52024 C 88.834949,-136.52024 87.073879,-137.14524 86.006179,-138.39524 C 84.912429,-139.65175 84.365549,-141.23704 84.365549,-143.1511 M 100.54719,-144.39134 C 100.73599,-147.35357 101.49771,-149.39458 102.83235,-150.51439 C 104.13443,-151.63416 105.85318,-152.19406 107.9886,-152.19407 C 108.71125,-152.19406 109.29718,-152.08664 109.74641,-151.87181 C 110.20213,-151.63742 110.69692,-151.29237 111.23079,-150.83665 C 111.76463,-150.38091 112.1227,-150.15304 112.30501,-150.15306 C 112.33755,-150.15304 112.53937,-150.24744 112.91047,-150.43626 C 113.25551,-150.62505 113.52244,-150.71945 113.71126,-150.71946 C 113.97817,-150.71945 114.11163,-150.53065 114.11165,-150.15306 C 114.11163,-150.10096 113.44432,-149.68755 112.10969,-148.91282 C 111.57583,-148.61984 110.53742,-148.10226 108.99446,-147.36009 C 107.44497,-146.58534 106.21776,-145.905 105.31282,-145.31907 C 104.40136,-144.70057 103.94563,-144.17974 103.94563,-143.75657 C 103.94563,-142.26568 104.40136,-140.99941 105.31282,-139.95774 C 106.19172,-138.89003 107.43195,-138.35618 109.03352,-138.35618 C 109.74966,-138.35618 110.5602,-138.70123 111.46516,-139.39134 C 112.35057,-140.06191 112.88442,-140.39719 113.06672,-140.3972 C 113.22947,-140.39719 113.34991,-140.32883 113.42805,-140.19212 C 113.50616,-140.06191 113.5615,-139.94147 113.59407,-139.83079 C 113.37921,-139.59641 113.13833,-139.33274 112.87141,-139.03978 C 112.60447,-138.7468 112.16502,-138.29108 111.55305,-137.67259 C 111.04523,-137.40566 110.27049,-137.08665 109.22883,-136.71556 C 108.18716,-136.31842 107.30825,-136.11985 106.59211,-136.11985 C 105.60253,-136.11985 104.6162,-136.42584 103.63313,-137.03782 C 102.64354,-137.62376 101.85579,-138.55475 101.26985,-139.83079 C 100.76204,-140.8985 100.50813,-142.155 100.50813,-143.60032 C 100.50813,-143.86073 100.52115,-144.1244 100.54719,-144.39134 M 106.59211,-150.79759 C 105.79133,-150.79757 105.18912,-150.21164 104.78547,-149.03978 C 104.38833,-147.83534 104.13768,-146.83273 104.03352,-146.03196 C 104.40461,-146.11659 105.29654,-146.51698 106.7093,-147.23314 C 108.12205,-147.95578 108.82843,-148.36919 108.82844,-148.47337 C 108.82843,-148.6882 108.4964,-149.12765 107.83235,-149.79173 C 107.16177,-150.46229 106.74836,-150.79757 106.59211,-150.79759"
         style="font-size:40px;font-style:normal;font-variant:normal;font-weight:normal;font-stretch:normal;text-align:start;line-height:125%;writing-mode:lr-tb;text-anchor:start;fill:url(#radialGradient8173);fill-opacity:1;stroke:#000000;stroke-width:1px;stroke-linecap:butt;stroke-linejoin:miter;stroke-opacity:1;font-family:'Magic:the Gathering';-inkscape-font-specification:'Magic:the Gathering'" />
      <path
         id="rect5741"
         d="M 13.942609,73.808291 L 13.942609,200.34952 L -33.917629,200.34952 L 33.269719,267.53686 L 100.45706,200.34952 L 52.610699,200.34952 L 52.610699,73.808291 L 13.942609,73.808291 z"
         style="fill:url(#linearGradient8175);fill-opacity:1;stroke:none;stroke-width:3.0999999;stroke-linecap:round;stroke-linejoin:round;stroke-miterlimit:4;stroke-dashoffset:60.01653385;stroke-opacity:1" />
    </g>
  </g>
</svg>
