<?xml version="1.0" encoding="UTF-8" standalone="no"?>
<!-- Created with Inkscape (http://www.inkscape.org/) -->

<svg
   xmlns:dc="http://purl.org/dc/elements/1.1/"
   xmlns:cc="http://creativecommons.org/ns#"
   xmlns:rdf="http://www.w3.org/1999/02/22-rdf-syntax-ns#"
   xmlns:svg="http://www.w3.org/2000/svg"
   xmlns="http://www.w3.org/2000/svg"
   xmlns:xlink="http://www.w3.org/1999/xlink"
   xmlns:sodipodi="http://sodipodi.sourceforge.net/DTD/sodipodi-0.dtd"
   xmlns:inkscape="http://www.inkscape.org/namespaces/inkscape"
   width="100"
   height="100"
   id="svg2858"
   version="1.1"
   inkscape:version="0.48.5 r10040"
   sodipodi:docname="icon_tab_changed.svg">
  <defs
     id="defs2860">
    <linearGradient
       id="linearGradient3753">
      <stop
         style="stop-color:#02db0e;stop-opacity:1;"
         offset="0"
         id="stop3755" />
      <stop
         style="stop-color:#02db0e;stop-opacity:1;"
         offset="1"
         id="stop3757" />
    </linearGradient>
    <inkscape:perspective
       sodipodi:type="inkscape:persp3d"
       inkscape:vp_x="0 : 526.18109 : 1"
       inkscape:vp_y="0 : 1000 : 0"
       inkscape:vp_z="744.09448 : 526.18109 : 1"
       inkscape:persp3d-origin="372.04724 : 350.78739 : 1"
       id="perspective2866" />
    <inkscape:perspective
       id="perspective2853"
       inkscape:persp3d-origin="0.5 : 0.33333333 : 1"
       inkscape:vp_z="1 : 0.5 : 1"
       inkscape:vp_y="0 : 1000 : 0"
       inkscape:vp_x="0 : 0.5 : 1"
       sodipodi:type="inkscape:persp3d" />
    <linearGradient
       inkscape:collect="always"
       xlink:href="#linearGradient3753"
       id="linearGradient3766"
       x1="103.53491"
       y1="132.64713"
       x2="-1.5473157"
       y2="33.224445"
       gradientUnits="userSpaceOnUse" />
  </defs>
  <sodipodi:namedview
     id="base"
     pagecolor="#ffffff"
     bordercolor="#666666"
     borderopacity="1.0"
     inkscape:pageopacity="0.0"
     inkscape:pageshadow="2"
     inkscape:zoom="5"
     inkscape:cx="-9.896878"
     inkscape:cy="42.810059"
     inkscape:document-units="px"
     inkscape:current-layer="layer2"
     showgrid="false"
     inkscape:window-width="1920"
     inkscape:window-height="1028"
     inkscape:window-x="-8"
     inkscape:window-y="-8"
     inkscape:window-maximized="1" />
  <metadata
     id="metadata2863">
    <rdf:RDF>
      <cc:Work
         rdf:about="">
        <dc:format>image/svg+xml</dc:format>
        <dc:type
           rdf:resource="http://purl.org/dc/dcmitype/StillImage" />
        <dc:title />
      </cc:Work>
    </rdf:RDF>
  </metadata>
  <g
     inkscape:groupmode="layer"
     id="layer2"
     inkscape:label="Triangle"
     style="display:inline">
    <path
       sodipodi:type="arc"
       style="fill:#007aff;fill-opacity:1;fill-rule:nonzero;stroke:none;display:inline"
       id="path3758-1"
       sodipodi:cx="53.900002"
       sodipodi:cy="78.5"
       sodipodi:rx="46.5"
       sodipodi:ry="46.5"
       d="M 100.4,78.5 A 46.5,46.5 0 1 1 7.4000015,78.5 46.5,46.5 0 1 1 100.4,78.5 z"
       transform="matrix(1.05866,0,0,1.05866,-7.0617752,-32.704809)" />
    <g
       style="font-size:133.49534607px;font-style:normal;font-variant:normal;font-weight:normal;font-stretch:normal;line-height:125%;letter-spacing:0px;word-spacing:0px;fill:#ffffff;fill-opacity:1;stroke:#ffffff;stroke-width:1.06498075;stroke-opacity:1;font-family:'Magic:the Gathering';-inkscape-font-specification:'Magic:the Gathering'"
       id="text3759">
      <path
         d="m 46.854005,16.085692 c 0.977733,-2.411704 1.683885,-4.193378 2.118456,-5.345028 0.369355,-1.1514901 0.771318,-1.9988718 1.205891,-2.5421482 0.456264,-0.4344718 1.347101,-0.825571 2.672514,-1.1732989 1.23846,-0.2823765 2.705082,-0.4670623 4.399871,-0.5540578 0.369346,8.46e-5 0.727854,8.46e-5 1.075524,0 1.694737,8.46e-5 2.672485,0.5758696 2.933248,1.7273567 -3e-5,0.1956326 -3e-5,0.3803183 0,0.5540579 -3e-5,1.3254743 -0.662726,2.9224633 -1.98809,4.7909703 -1.520969,2.238035 -3.43301,4.24785 -5.736128,6.029453 -2.32489,1.760018 -4.551983,2.781222 -6.681286,3.063614 -1.260224,-0.543125 -1.977239,-1.075454 -2.151048,-1.59699 -1.3e-5,-0.08684 -1.3e-5,-0.184616 0,-0.293325 -1.3e-5,-0.434484 0.228128,-1.010269 0.684424,-1.727357 0.521453,-0.890765 1.010327,-1.868513 1.466624,-2.933247 z M 31.372977,37.856906 c 2.650785,-0.716962 6.159814,-1.651255 10.527099,-2.802881 4.280354,-1.173242 7.398284,-1.803346 9.3538,-1.890315 0.08689,5.8e-5 0.173803,5.8e-5 0.260733,0 1.06464,5.8e-5 1.82511,0.358566 2.281415,1.075524 0.260711,0.630161 0.391077,1.520998 0.391099,2.672514 -2.2e-5,0.260787 -2.2e-5,0.532384 0,0.814791 -0.173844,1.586178 -0.260755,2.781204 -0.260733,3.58508 l 0,39.533656 c 1.238459,1e-5 2.976678,-0.673549 5.214662,-2.020681 1.673009,-0.977736 2.868034,-1.46661 3.58508,-1.466624 0.173791,1.4e-5 0.304158,0.04347 0.3911,0.130367 0.543162,0.369385 0.814759,0.771348 0.814791,1.20589 -3.2e-5,1.151583 -1.868617,2.66166 -5.605762,4.530238 -1.238507,0.717023 -3.063637,1.922912 -5.475395,3.617671 -2.49871,1.781679 -4.769259,3.204846 -6.811652,4.269505 -0.347658,0.347644 -0.923443,0.662696 -1.727357,0.945157 -0.260745,0.08691 -0.532342,0.130366 -0.814791,0.130367 -0.521477,-10e-7 -1.010351,-0.271598 -1.466623,-0.814791 C 41.856611,91.111641 41.7697,81.594892 41.76971,62.8221 c -1e-5,-1.955468 -1e-5,-4.008739 0,-6.15982 -1e-5,-2.129283 -0.08692,-4.128235 -0.260734,-5.996861 -0.260742,-1.781634 -0.706161,-3.204801 -1.336257,-4.269504 -0.717023,-1.347075 -1.60786,-2.368279 -2.672514,-3.063614 -1.151576,-0.630057 -2.357465,-1.260161 -3.617672,-1.890315 -1.325394,-0.521416 -2.161911,-1.053746 -2.509556,-1.59699 -0.195549,-0.173771 -0.293324,-0.434504 -0.293324,-0.7822 -0.08691,-0.369319 0.01086,-0.771282 0.293324,-1.20589 z"
         style=""
         id="path2993" />
    </g>
  </g>
  <g
     inkscape:label="Layer 1"
     inkscape:groupmode="layer"
     id="layer1"
     transform="translate(0,-952.36218)"
     style="display:inline" />
</svg>
