<?xml version="1.0" encoding="UTF-8" standalone="no"?>
<svg
        width="169.34801mm"
        height="169.34801mm"
        viewBox="0 0 600 600"
        version="1.1"
        id="svg1"
        sodipodi:docname="B.svg"
        inkscape:export-filename="B.svg"
        inkscape:export-xdpi="96"
        inkscape:export-ydpi="96"
        xmlns:inkscape="http://www.inkscape.org/namespaces/inkscape"
        xmlns:sodipodi="http://sodipodi.sourceforge.net/DTD/sodipodi-0.dtd"
        xmlns="http://www.w3.org/2000/svg">
  <defs
          id="defs1"/>
  <sodipodi:namedview
          id="namedview1"
          pagecolor="#505050"
          bordercolor="#eeeeee"
          borderopacity="1"
          inkscape:showpageshadow="0"
          inkscape:pageopacity="0"
          inkscape:pagecheckerboard="0"
          inkscape:deskcolor="#505050"
          inkscape:document-units="mm">
    <inkscape:page
            x="0"
            y="0"
            width="600"
            height="600"
            id="page2"
            margin="0"
            bleed="0"/>
  </sodipodi:namedview>
  <path
          id="Selection"
          fill="none"
          stroke="#000000"
          stroke-width="1"
          d="m 275,0.21 c 0,0 42,0 42,0 0,0 19,1.51 19,1.51 29.13,3.58 56.99,10.83 84,22.43 33.64,14.45 59.89,32.91 86.91,57.41 17.38,15.76 34.67,37.56 47.14,57.44 22.78,36.31 37.1,74.56 43.22,117 1.28,8.88 2.72,19.08 2.73,28 0,0 0,34 0,34 0,0 -0.91,10 -0.91,10 -2.36,32.29 -11.93,67.59 -25.4,97 -27.01,58.98 -70.49,105.42 -126.69,137.57 -34.3,19.63 -79.56,33.64 -119,36.52 0,0 -12,0.91 -12,0.91 0,0 -34,0 -34,0 0,0 -10,-0.91 -10,-0.91 -26.57,-1.94 -53.09,-8.27 -78,-17.67 C 163.49,569.9 134.12,553.46 109,532.57 79.87,508.33 54.41,478.39 36.31,445 -5.08,368.65 -11.86,276.57 18.05,195 47.85,113.75 113.21,48.92 194,18.42 213.55,11.04 236.32,5.43 257,2.43 Z"
          style="display:inline;fill:#ababab;fill-opacity:1"/>
  <path
          d="m 299.67889,84.945431 c -118.26949,0 -214.122988,83.892719 -214.122988,187.357619 0,58.63289 30.863828,110.90901 79.041488,145.28579 8.02961,5.77129 12.71356,15.13917 11.29165,25.0089 l -7.86234,55.37086 c -1.17098,8.02962 5.01851,15.22281 13.13176,15.22281 h 64.98968 v -46.83939 c 0,-3.68025 3.01111,-6.69135 6.69135,-6.69135 h 13.38268 c 3.68024,0 6.69135,3.0111 6.69135,6.69135 v 46.83939 h 53.53075 v -46.83939 c 0,-3.68025 3.01111,-6.69135 6.69134,-6.69135 h 13.38269 c 3.68023,0 6.69134,3.0111 6.69134,6.69135 v 46.83939 h 64.98967 c 8.11327,0 14.30275,-7.19319 13.13177,-15.22281 l -7.86234,-55.37086 c -1.4219,-9.78609 3.1784,-19.23761 11.29165,-25.0089 48.17767,-34.37678 79.0415,-86.6529 79.0415,-145.28579 0,-103.4649 -95.8535,-187.357619 -214.123,-187.357619 z M 219.38277,352.59917 c -29.52555,0 -53.53075,-24.0052 -53.53075,-53.53075 0,-29.52555 24.0052,-53.53075 53.53075,-53.53075 29.52555,0 53.53075,24.0052 53.53075,53.53075 0,29.52555 -24.0052,53.53075 -53.53075,53.53075 z m 160.59225,0 c -29.52555,0 -53.53075,-24.0052 -53.53075,-53.53075 0,-29.52555 24.0052,-53.53075 53.53075,-53.53075 29.52555,0 53.53075,24.0052 53.53075,53.53075 0,29.52555 -24.0052,53.53075 -53.53075,53.53075 z"
          id="path1"
          style="fill:#4d4d4d;fill-opacity:1;stroke:#000000;stroke-width:0.836419;stroke-opacity:1"/>
</svg>
