<?xml version="1.0" encoding="UTF-8" standalone="no"?>
<svg
        xmlns:inkscape="http://www.inkscape.org/namespaces/inkscape"
        xmlns:sodipodi="http://sodipodi.sourceforge.net/DTD/sodipodi-0.dtd"
        width="169.34801mm"
        height="169.34801mm"
        viewBox="0 0 600 600"
        version="1.1"
        id="svg1"
        sodipodi:docname="B.svg"
        inkscape:export-filename="B.svg"
        inkscape:export-xdpi="96"
        inkscape:export-ydpi="96"
        xmlns="http://www.w3.org/2000/svg">
    <defs
            id="defs1"/>
    <sodipodi:namedview
            id="namedview1"
            pagecolor="#505050"
            bordercolor="#eeeeee"
            borderopacity="1"
            inkscape:showpageshadow="0"
            inkscape:pageopacity="0"
            inkscape:pagecheckerboard="0"
            inkscape:deskcolor="#505050"
            inkscape:document-units="mm">
        <inkscape:page
                x="0"
                y="0"
                width="600"
                height="600"
                id="page2"
                margin="0"
                bleed="0"/>
    </sodipodi:namedview>
    <path
            id="Selection"
            fill="none"
            stroke="#000000"
            stroke-width="1"
            d="m 275,0.21 c 0,0 42,0 42,0 0,0 19,1.51 19,1.51 29.13,3.58 56.99,10.83 84,22.43 33.64,14.45 59.89,32.91 86.91,57.41 17.38,15.76 34.67,37.56 47.14,57.44 22.78,36.31 37.1,74.56 43.22,117 1.28,8.88 2.72,19.08 2.73,28 0,0 0,34 0,34 0,0 -0.91,10 -0.91,10 -2.36,32.29 -11.93,67.59 -25.4,97 -27.01,58.98 -70.49,105.42 -126.69,137.57 -34.3,19.63 -79.56,33.64 -119,36.52 0,0 -12,0.91 -12,0.91 0,0 -34,0 -34,0 0,0 -10,-0.91 -10,-0.91 -26.57,-1.94 -53.09,-8.27 -78,-17.67 C 163.49,569.9 134.12,553.46 109,532.57 79.87,508.33 54.41,478.39 36.31,445 -5.08,368.65 -11.86,276.57 18.05,195 47.85,113.75 113.21,48.92 194,18.42 213.55,11.04 236.32,5.43 257,2.43 Z"
            style="display:inline;fill:#ababab;fill-opacity:1"/>
    <path
            id="Selection #1"
            fill="none"
            stroke="#000000"
            stroke-width="1"
            d="m 155,276 c -7.54,-6.64 -13.32,-24.39 -16.69,-34 -14,-39.89 -9.17,-85.6 17.95,-119 3.46,-4.26 8.68,-11.19 12.75,-14.41 0,0 14.99,-11.47 14.99,-11.47 21.27,-13.49 51.19,-21.04 76,-24.3 0,0 8,-1.63 8,-1.63 14.31,-1.72 53.93,-1.94 68,0 0,0 7,1.69 7,1.69 0,0 22,4.84 22,4.84 0,0 9,1.86 9,1.86 0,0 10,3.46 10,3.46 22.39,7.08 30.98,10.94 48,27.96 20.59,20.58 31.29,41.44 36.63,70 0,0 0.54,12 0.54,12 0,0 1.5,9 1.5,9 0.34,3.91 -0.89,7.19 -1.55,11 0,0 0,8 0,8 -0.37,3.79 -2.37,10.04 -3.39,14 -2.7,10.48 -5.66,17.6 -11.03,27 -2.91,5.09 -4.24,9.16 -9.7,12 0,0 0,-20 0,-20 0.03,-17.94 5.78,-23.86 7.64,-32 3.2,-14 2.39,-19.01 2.36,-33 -0.01,-6.41 -0.65,-9.68 -4.63,-14.99 -1.47,-1.96 -3.6,-4.55 -6.37,-3.81 -1.62,0.43 -3.81,2.63 -4.99,3.81 -1.22,1.22 -3.34,3.32 -3.83,4.99 -0.75,2.55 1.27,4.63 2.09,7 0.8,2.32 0.72,4.58 0.73,7 0.04,7.9 0.35,13.12 -1.28,21 -3.88,18.73 -8.76,18.73 -9.86,44.72 -0.19,4.63 0.56,6.98 1.16,11.28 0,0 0,9 0,9 0,0 1.61,6 1.61,6 0,0 0.98,8 0.98,8 0,0 5.07,31 5.07,31 0.24,3.31 -0.38,4.85 -0.74,8 0,0 0,8 0,8 -0.85,4.87 -4.93,16.19 -8.27,19.71 -8.29,8.75 -21.86,11.2 -32.67,15.3 -8.45,3.2 -21.81,13.25 -27.83,19.99 -6.99,7.83 -7.41,11.37 -9.62,21 -0.6,2.63 -1.48,4.12 -1.31,7 0.36,6.34 4.17,6.94 3.74,17.98 C 358.59,451.1 344,453.92 336,455 c 0,0 0,-27 0,-27 0,0 -9,0 -9,0 0,0 0,19 0,19 0,0 -1.17,7.43 -1.17,7.43 0,0 -6.83,1.66 -6.83,1.66 0,0 -13,1.91 -13,1.91 0,0 0,-28 0,-28 -2.59,-0.32 -6.29,-1.23 -8.4,0.75 -1.94,1.82 -1.6,5.78 -1.6,8.25 0,0 0,19 0,19 -11.55,0 -10.54,0.58 -22,-2 0,0 -1,-28 -1,-28 -2.01,0.03 -4.96,-0.13 -6.69,1.02 -3.58,2.39 -2.24,14.75 -2.31,18.98 -0.04,1.71 0.1,4.83 -1.6,5.85 -2.04,1.24 -6.39,-1.35 -8.4,-2.2 -11.65,-4.92 -13.24,-4.48 -12.98,-13.65 0.21,-7.88 3.01,-8.64 4.03,-14 0.66,-3.55 -0.29,-9.57 -1.41,-13 -5.52,-17 -20.21,-29.45 -36.64,-35.68 -12.04,-4.56 -28.9,-6.73 -35.56,-19.32 -2.13,-4.02 -4.11,-11.44 -4.85,-16 -3.66,-22.53 1.57,-29.86 5.09,-51 0,0 1.49,-20 1.49,-20 0,0 1.26,-10 1.26,-10 0,0 -1.14,-8 -1.14,-8 -0.6,-4.61 0.1,-5.6 -1.19,-11 0,0 -6.32,-20 -6.32,-20 0,0 -1.15,-7 -1.15,-7 -0.98,-4.93 -1.55,-4.21 -1.46,-10 0,0 0,-14 0,-14 0.9,-4.3 3.03,-6.73 1.71,-10 -0.58,-1.41 -1.89,-2.89 -2.94,-3.98 -11.55,-12.08 -16.56,10.74 -16.9,18.98 -1.26,30.02 18.36,50.29 9.96,82 z m 86,-22.86 c 0,0 -18,2.58 -18,2.58 -14.28,1.76 -33.47,3.16 -38.98,19.28 -1.11,3.22 -1.01,6.65 -1.02,10 -0.02,13.1 0.86,13.15 5.6,25 1.42,3.55 2.93,7.75 4.88,11 8.12,13.53 21.52,21.76 37.52,19.82 8.17,-0.99 14.18,-5.79 19.41,-11.83 9.26,-10.71 24.71,-30.85 26.41,-44.99 1.21,-10.08 -2.41,-25.73 -12.82,-29.99 -2.84,-1.17 -5.99,-1.01 -9,-0.87 z m 97,0.37 c -11.87,5 -13.86,14.9 -14,26.49 -0.16,13.9 3.46,16.63 10.58,28 10.19,16.29 24.07,37.78 46.42,32.4 10.7,-2.57 20.82,-9.83 26.37,-19.4 0,0 6.49,-16 6.49,-16 5.52,-13.36 9.02,-25.92 -2.3,-37.82 -7.57,-7.95 -12.8,-7.88 -22.56,-9.64 -12.68,-2.29 -38.85,-6.2 -51,-4.03 z m -43,69 c -14.44,5.95 -27.92,27.97 -28,43.49 0,0 0,19 0,19 0.01,4.85 0.86,12.91 5.39,15.83 1.37,0.88 3.02,1.05 4.61,1.12 7.47,0.33 10.04,-4.15 15,-8.93 2.46,-2.38 5.22,-5.55 9,-4.34 6.23,1.98 14.44,17.13 24,13.72 8.04,-2.87 9.67,-15.97 9.96,-23.4 0.17,-4.3 -0.39,-6.85 -0.96,-11 -1.89,-13.82 -4.38,-21.67 -13,-32.91 -7.05,-9.2 -14.08,-14.7 -26,-12.58 z M 384,436 c 0,0 5,0 5,0 0.9,5.87 1.92,6.53 2,13 0.18,15.26 -0.47,31.13 -7.63,45 -17.97,34.78 -54.87,41.41 -90.37,41 -11.91,-0.14 -37.88,-5.08 -48,-11.02 -14.46,-8.49 -26.33,-23.11 -31.76,-38.98 0,0 -2.42,-12 -2.42,-12 -2.61,-11.51 -2.79,-23.57 0,-35 0,0 5.18,0 5.18,0 0,0 1.68,9 1.68,9 0.92,5.63 0.85,11.61 3.04,17 2.7,6.61 13.46,14.99 20.28,17 0,0 0,-24 0,-24 7.33,0.78 7.16,2.55 13,4.93 4.71,1.92 8.17,0.11 9.94,6.11 2.48,8.4 -0.89,19.5 3.57,23.2 3.17,2.63 5.79,0.17 6.42,-3.26 0,0 0,-21.98 0,-21.98 0,0 11.07,1.96 11.07,1.96 0,0 9.43,1.21 9.43,1.21 0,0 1.57,7.83 1.57,7.83 0,0 0,18 0,18 0,0 11,0 11,0 0,0 -0.91,-20 -0.91,-20 0,0 1.65,-7.01 1.65,-7.01 0,0 7.26,-0.79 7.26,-0.79 0,0 11,0 11,0 0,0 0,25.8 0,25.8 12.92,-0.33 9.72,-6.57 10,-22 0.18,-9.69 4.43,-6.37 11,-9.07 5.4,-2.22 5.12,-3.99 12,-4.93 0,0 2,24 2,24 6.24,-2.84 15.31,-10.64 18.07,-17 1.23,-2.85 2.62,-14.38 3.14,-18 0.64,-4.48 1.46,-3.92 1.79,-10 z"
            style="display:inline;fill:#0e0e0e;fill-opacity:1"/>
</svg>
