<?xml version="1.0" encoding="UTF-8" standalone="no"?>
<svg
        xmlns:inkscape="http://www.inkscape.org/namespaces/inkscape"
        xmlns:sodipodi="http://sodipodi.sourceforge.net/DTD/sodipodi-0.dtd"
        width="169.34801mm"
        height="169.34801mm"
        viewBox="0 0 600 600"
        version="1.1"
        id="svg1"
        sodipodi:docname="B.svg"
        inkscape:export-filename="U.svg"
        inkscape:export-xdpi="96"
        inkscape:export-ydpi="96"
        xmlns="http://www.w3.org/2000/svg">
    <defs
            id="defs1"/>
    <sodipodi:namedview
            id="namedview1"
            pagecolor="#505050"
            bordercolor="#eeeeee"
            borderopacity="1"
            inkscape:showpageshadow="0"
            inkscape:pageopacity="0"
            inkscape:pagecheckerboard="0"
            inkscape:deskcolor="#505050"
            inkscape:document-units="mm">
        <inkscape:page
                x="0"
                y="0"
                width="600"
                height="600"
                id="page2"
                margin="0"
                bleed="0"/>
    </sodipodi:namedview>
    <path
            id="Selection"
            fill="none"
            stroke="#000000"
            stroke-width="1"
            d="m 275,0.21 c 0,0 42,0 42,0 0,0 19,1.51 19,1.51 29.13,3.58 56.99,10.83 84,22.43 33.64,14.45 59.89,32.91 86.91,57.41 17.38,15.76 34.67,37.56 47.14,57.44 22.78,36.31 37.1,74.56 43.22,117 1.28,8.88 2.72,19.08 2.73,28 0,0 0,34 0,34 0,0 -0.91,10 -0.91,10 -2.36,32.29 -11.93,67.59 -25.4,97 -27.01,58.98 -70.49,105.42 -126.69,137.57 -34.3,19.63 -79.56,33.64 -119,36.52 0,0 -12,0.91 -12,0.91 0,0 -34,0 -34,0 0,0 -10,-0.91 -10,-0.91 -26.57,-1.94 -53.09,-8.27 -78,-17.67 C 163.49,569.9 134.12,553.46 109,532.57 79.87,508.33 54.41,478.39 36.31,445 -5.08,368.65 -11.86,276.57 18.05,195 47.85,113.75 113.21,48.92 194,18.42 213.55,11.04 236.32,5.43 257,2.43 Z"
            style="display:inline;fill:#5f9f56;fill-opacity:1"/>
    <path
            d="m 488.52401,428.04591 -80.36527,-83.50228 h 30.81218 c 9.06362,0 17.08104,-4.61393 20.90363,-12.05153 3.82262,-7.41912 2.56521,-15.92714 -3.29949,-22.19282 l -78.59482,-83.87142 h 29.06188 c 9.15413,0 17.40291,-4.93688 20.98411,-12.55902 3.54092,-7.50219 1.87106,-16.23169 -4.26525,-22.22053 L 312.83499,83.240199 c -6.06588,-5.951919 -17.38282,-5.951919 -23.45873,0 L 178.44019,191.64831 c -6.13629,5.98884 -7.79612,14.71834 -4.26523,22.22053 3.58119,7.62214 11.84001,12.55902 20.99414,12.55902 h 29.06189 l -78.60489,83.88987 c -5.84454,6.25645 -7.10199,14.75525 -3.28944,22.18361 3.82262,7.42836 11.82996,12.04229 20.90363,12.04229 h 30.81222 l -80.36527,83.50228 c -6.03569,6.26567 -7.40379,14.84754 -3.58117,22.38663 3.7723,7.42839 12.07138,12.22682 21.13497,12.22682 h 129.63669 c 0,0 -36.12127,66.38546 0,62.75824 h 80.45578 c 33.50708,5.78651 0,-62.75824 0,-62.75824 h 129.63668 c 9.06361,0 17.36266,-4.79843 21.13499,-12.22682 3.82262,-7.53909 2.45452,-16.12096 -3.58117,-22.38663 z"
            id="ENVIR"
            style="fill:#3f6e3a;fill-opacity:1;stroke:#000000;stroke-width:1.09833;stroke-miterlimit:4;stroke-dasharray:none;stroke-opacity:1"/>
</svg>
