<?xml version="1.0" encoding="UTF-8" standalone="no"?>
<svg
        xmlns:inkscape="http://www.inkscape.org/namespaces/inkscape"
        xmlns:sodipodi="http://sodipodi.sourceforge.net/DTD/sodipodi-0.dtd"
        width="169.34801mm"
        height="169.34801mm"
        viewBox="0 0 600 600"
        version="1.1"
        id="svg1"
        sodipodi:docname="B.svg"
        inkscape:export-filename="B.svg"
        inkscape:export-xdpi="96"
        inkscape:export-ydpi="96"
        xmlns="http://www.w3.org/2000/svg">
    <defs
            id="defs1"/>
    <sodipodi:namedview
            id="namedview1"
            pagecolor="#505050"
            bordercolor="#eeeeee"
            borderopacity="1"
            inkscape:showpageshadow="0"
            inkscape:pageopacity="0"
            inkscape:pagecheckerboard="0"
            inkscape:deskcolor="#505050"
            inkscape:document-units="mm">
        <inkscape:page
                x="0"
                y="0"
                width="600"
                height="600"
                id="page2"
                margin="0"
                bleed="0"/>
    </sodipodi:namedview>
    <path
            id="Selection"
            fill="none"
            stroke="#000000"
            stroke-width="1"
            d="m 275,0.21 c 0,0 42,0 42,0 0,0 19,1.51 19,1.51 29.13,3.58 56.99,10.83 84,22.43 33.64,14.45 59.89,32.91 86.91,57.41 17.38,15.76 34.67,37.56 47.14,57.44 22.78,36.31 37.1,74.56 43.22,117 1.28,8.88 2.72,19.08 2.73,28 0,0 0,34 0,34 0,0 -0.91,10 -0.91,10 -2.36,32.29 -11.93,67.59 -25.4,97 -27.01,58.98 -70.49,105.42 -126.69,137.57 -34.3,19.63 -79.56,33.64 -119,36.52 0,0 -12,0.91 -12,0.91 0,0 -34,0 -34,0 0,0 -10,-0.91 -10,-0.91 -26.57,-1.94 -53.09,-8.27 -78,-17.67 C 163.49,569.9 134.12,553.46 109,532.57 79.87,508.33 54.41,478.39 36.31,445 -5.08,368.65 -11.86,276.57 18.05,195 47.85,113.75 113.21,48.92 194,18.42 213.55,11.04 236.32,5.43 257,2.43 Z"
            style="display:inline;fill:#c95e46;fill-opacity:1"/>
    <path
            style="display:inline;fill:#7e3525;fill-opacity:1;stroke:#000000;stroke-width:0.999129;stroke-dasharray:none;stroke-opacity:1"
            d="m 278.25473,537.27772 c -22.36635,-1.29637 -48.78648,-8.31223 -69.74195,-18.51997 -47.30139,-23.04123 -75.19872,-59.72004 -85.45343,-112.35234 -2.77041,-14.21911 -2.51753,-48.32296 0.4755,-64.1246 4.84373,-25.57244 17.23939,-55.03329 30.65191,-72.85059 3.74877,-4.97991 16.33133,-18.11906 30.23479,-31.57223 13.09764,-12.67346 26.64745,-26.67202 30.11069,-31.10792 16.66894,-21.35045 26.46602,-44.71272 29.68313,-70.78286 1.93489,-15.67951 0.37962,-45.867231 -3.5802,-69.491071 -0.58906,-3.51428 0.36584,-3.52724 11.47726,-0.15583 36.51454,11.0792 67.37028,34.791071 89.32423,68.643431 9.96686,15.36862 20.07787,39.31263 24.78919,58.70364 2.23257,9.18886 2.53252,44.73878 0.46396,54.98571 -0.75708,3.75024 -1.10086,7.09425 -0.76396,7.43114 1.5021,1.5021 14.63666,-6.65479 21.98002,-13.65016 10.59844,-10.09621 14.32693,-17.61354 15.94714,-32.15254 l 1.16788,-10.47988 3.4626,3.95724 c 26.80954,30.6392 41.75268,56.11528 54.11775,92.26358 11.02075,32.21825 14.93902,62.79297 12.47422,97.33768 -1.88493,26.41774 -10.16486,50.6958 -24.95555,73.17369 -6.31625,9.59901 -30.86306,34.05172 -40.40914,40.25423 -23.44452,15.23295 -50.15355,25.25695 -77.26806,28.99903 -12.48732,1.72336 -38.04339,2.42637 -54.18798,1.49062 z m 48.34948,-30.34196 c 30.78066,-8.0491 53.53846,-30.12825 59.69792,-57.9177 2.48916,-11.23027 2.26087,-34.25269 -0.43747,-44.11787 -5.3998,-19.74181 -9.72931,-26.61651 -30.6237,-48.62658 -16.92925,-17.8332 -21.73398,-24.64464 -25.45673,-36.0889 -2.38622,-7.33554 -2.63126,-9.53814 -2.57644,-23.15876 0.0334,-8.27872 0.486,-17.4607 1.00593,-20.40441 0.75887,-4.29636 0.66928,-5.45812 -0.45409,-5.88919 -2.12997,-0.81736 -16.25071,4.45522 -21.90917,8.1807 -25.69349,16.91641 -42.62753,52.30879 -40.22917,84.07948 0.39046,5.17228 0.2831,8.79277 -0.26071,8.79277 -1.78935,0 -13.49435,-13.46378 -15.34792,-17.65406 -1.03171,-2.33236 -2.15967,-6.42651 -2.50657,-9.09812 -1.00143,-7.71233 -1.60778,-8.14619 -5.46339,-3.90915 -13.31687,14.63425 -24.58113,35.69359 -29.53283,55.21379 -11.75615,46.34414 2.14731,84.38956 37.55813,102.77397 16.56338,8.59931 29.2427,11.25369 51.26679,10.73261 12.58064,-0.29766 17.41119,-0.85366 25.26942,-2.90858 z"
            id="path8"/>
</svg>
