<?xml version="1.0" encoding="UTF-8" standalone="no"?>
<svg
        xmlns:inkscape="http://www.inkscape.org/namespaces/inkscape"
        xmlns:sodipodi="http://sodipodi.sourceforge.net/DTD/sodipodi-0.dtd"
        width="169.34801mm"
        height="169.34801mm"
        viewBox="0 0 600 600"
        version="1.1"
        id="svg1"
        sodipodi:docname="U.svg"
        inkscape:export-filename="U.png"
        inkscape:export-xdpi="96"
        inkscape:export-ydpi="96"
        xmlns="http://www.w3.org/2000/svg">
    <defs
            id="defs1"/>
    <sodipodi:namedview
            id="namedview1"
            pagecolor="#505050"
            bordercolor="#eeeeee"
            borderopacity="1"
            inkscape:showpageshadow="0"
            inkscape:pageopacity="0"
            inkscape:pagecheckerboard="0"
            inkscape:deskcolor="#505050"
            inkscape:document-units="mm">
        <inkscape:page
                x="0"
                y="0"
                width="600"
                height="600"
                id="page2"
                margin="0"
                bleed="0"/>
    </sodipodi:namedview>
    <path
            id="Selection"
            fill="none"
            stroke="#000000"
            stroke-width="1"
            d="m 275,0.21 c 0,0 42,0 42,0 0,0 19,1.51 19,1.51 29.13,3.58 56.99,10.83 84,22.43 33.64,14.45 59.89,32.91 86.91,57.41 17.38,15.76 34.67,37.56 47.14,57.44 22.78,36.31 37.1,74.56 43.22,117 1.28,8.88 2.72,19.08 2.73,28 0,0 0,34 0,34 0,0 -0.91,10 -0.91,10 -2.36,32.29 -11.93,67.59 -25.4,97 -27.01,58.98 -70.49,105.42 -126.69,137.57 -34.3,19.63 -79.56,33.64 -119,36.52 0,0 -12,0.91 -12,0.91 0,0 -34,0 -34,0 0,0 -10,-0.91 -10,-0.91 -26.57,-1.94 -53.09,-8.27 -78,-17.67 C 163.49,569.9 134.12,553.46 109,532.57 79.87,508.33 54.41,478.39 36.31,445 -5.08,368.65 -11.86,276.57 18.05,195 47.85,113.75 113.21,48.92 194,18.42 213.55,11.04 236.32,5.43 257,2.43 Z"
            style="display:inline;fill:#4a8fd8;fill-opacity:1"/>
    <path
            style="display:inline;fill:#3266af;fill-opacity:1;stroke:#000000;stroke-width:1.06525;stroke-opacity:1"
            d="m 275.20608,536.5693 c -58.69596,-9.5447 -107.01545,-50.69962 -125.66779,-107.0344 -9.25532,-27.95342 -10.39669,-58.82111 -3.22092,-87.1088 5.31307,-20.94475 9.06296,-28.00552 81.87785,-154.17 38.54798,-66.79109 70.40461,-121.77997 70.79251,-122.19751 1.00535,-1.08215 140.3595,240.63696 145.26785,251.97682 8.6735,20.03855 12.6923,39.82747 12.6923,62.49805 0,44.25387 -16.70161,83.24077 -48.85852,114.0514 -21.46938,20.57055 -45.69209,33.39124 -76.46586,40.47213 -12.83139,2.95245 -42.64639,3.75165 -56.41742,1.51231 z"
            id="path2"
            sodipodi:nodetypes="ssssssssss"/>
</svg>
