<?xml version="1.0" encoding="UTF-8" standalone="no"?>
<svg
        width="169.34801mm"
        height="169.34801mm"
        viewBox="0 0 600 600"
        version="1.1"
        id="svg1"
        xmlns:inkscape="http://www.inkscape.org/namespaces/inkscape"
        xmlns:sodipodi="http://sodipodi.sourceforge.net/DTD/sodipodi-0.dtd"
        inkscape:export-xdpi="96"
        inkscape:export-ydpi="96"
        sodipodi:docname="W.svg"
        inkscape:export-filename="W.png"
        xmlns="http://www.w3.org/2000/svg">
    <defs
            id="defs1"/>
    <sodipodi:namedview
            id="namedview1"
            pagecolor="#505050"
            bordercolor="#eeeeee"
            borderopacity="1"
            inkscape:showpageshadow="0"
            inkscape:pageopacity="0"
            inkscape:pagecheckerboard="0"
            inkscape:deskcolor="#505050"
            inkscape:document-units="mm">
        <inkscape:page
                x="0"
                y="0"
                width="600"
                height="600"
                id="page2"
                margin="0"
                bleed="0"/>
    </sodipodi:namedview>
    <path
            id="Selection"
            fill="none"
            stroke="#000000"
            stroke-width="1"
            d="m 275,0.21 c 0,0 42,0 42,0 0,0 19,1.51 19,1.51 29.13,3.58 56.99,10.83 84,22.43 33.64,14.45 59.89,32.91 86.91,57.41 17.38,15.76 34.67,37.56 47.14,57.44 22.78,36.31 37.1,74.56 43.22,117 1.28,8.88 2.72,19.08 2.73,28 0,0 0,34 0,34 0,0 -0.91,10 -0.91,10 -2.36,32.29 -11.93,67.59 -25.4,97 -27.01,58.98 -70.49,105.42 -126.69,137.57 -34.3,19.63 -79.56,33.64 -119,36.52 0,0 -12,0.91 -12,0.91 0,0 -34,0 -34,0 0,0 -10,-0.91 -10,-0.91 -26.57,-1.94 -53.09,-8.27 -78,-17.67 C 163.49,569.9 134.12,553.46 109,532.57 79.87,508.33 54.41,478.39 36.31,445 -5.08,368.65 -11.86,276.57 18.05,195 47.85,113.75 113.21,48.92 194,18.42 213.55,11.04 236.32,5.43 257,2.43 Z"
            style="display:inline;fill:#ffefb3;fill-opacity:1"/>
    <path
            id="circle8"
            d="M 387.28106,302.711 A 85.962512,85.962512 0 0 1 301.31852,388.67353 85.962512,85.962512 0 0 1 215.35597,302.711 85.962512,85.962512 0 0 1 301.31852,216.74844 85.962512,85.962512 0 0 1 387.28106,302.711 Z M 191.75349,358.6114 143.05798,460.97151 245.4181,412.27601 A 121.73882,121.73882 0 0 1 191.75349,358.6114 Z M 178.33753,302.711 c 0,-13.16763 2.23687,-25.83857 5.96271,-38.01232 L 77.71657,302.711 184.30024,340.7233 a 119.25435,119.25435 0 0 1 -5.96271,-38.0123 z m 178.8814,109.56501 102.36011,48.6955 -48.6955,-102.36011 a 121.73882,121.73882 0 0 1 -53.66461,53.66461 z m -55.90041,13.41595 c -13.16762,0 -26.0869,-2.23687 -38.01232,-5.9627 l 38.01232,106.58368 38.01231,-106.58368 a 119.25435,119.25435 0 0 1 -38.01231,5.9627 z m 109.56502,-178.88139 48.6955,-102.36012 -102.36011,48.69551 a 122.98106,122.98106 0 0 1 53.66461,53.66461 z M 245.66643,193.14596 143.30658,144.45045 192.00209,246.81057 a 121.73882,121.73882 0 0 1 53.66434,-53.66461 z M 524.92046,302.711 418.33679,264.69868 a 119.25435,119.25435 0 0 1 0,76.02462 z M 301.31852,179.73 c 13.16761,0 26.0869,2.23688 38.01231,5.96271 L 301.31852,79.109036 263.3062,185.69271 A 119.25435,119.25435 0 0 1 301.31852,179.73 Z"
            style="fill:#b4a35e;fill-opacity:1;stroke:#000000;stroke-width:1.09833;stroke-dasharray:none;stroke-opacity:1"/>
</svg>
