<?xml version="1.0" encoding="UTF-8" standalone="no"?>
<!-- Created with Inkscape (http://www.inkscape.org/) -->

<svg
   xmlns:dc="http://purl.org/dc/elements/1.1/"
   xmlns:cc="http://creativecommons.org/ns#"
   xmlns:rdf="http://www.w3.org/1999/02/22-rdf-syntax-ns#"
   xmlns:svg="http://www.w3.org/2000/svg"
   xmlns="http://www.w3.org/2000/svg"
   xmlns:xlink="http://www.w3.org/1999/xlink"
   xmlns:sodipodi="http://sodipodi.sourceforge.net/DTD/sodipodi-0.dtd"
   xmlns:inkscape="http://www.inkscape.org/namespaces/inkscape"
   width="64px"
   height="64px"
   id="svg3715"
   sodipodi:version="0.32"
   inkscape:version="0.48.5 r10040"
   sodipodi:docname="icon_config_general.svg"
   inkscape:output_extension="org.inkscape.output.svg.inkscape"
   version="1.1">
  <defs
     id="defs3717">
    <linearGradient
       id="linearGradient3372">
      <stop
         id="stop3374"
         offset="0"
         style="stop-color:#0053ff;stop-opacity:1;" />
      <stop
         id="stop3376"
         offset="1"
         style="stop-color:#008eff;stop-opacity:0.30980393;" />
    </linearGradient>
    <linearGradient
       id="linearGradient3172">
      <stop
         style="stop-color:#ffffff;stop-opacity:1;"
         offset="0"
         id="stop3174" />
      <stop
         style="stop-color:#ffffff;stop-opacity:0;"
         offset="1"
         id="stop3176" />
    </linearGradient>
    <linearGradient
       id="linearGradient3701">
      <stop
         id="stop3709"
         offset="0"
         style="stop-color:#ffffff;stop-opacity:0.30588236;" />
      <stop
         style="stop-color:#000000;stop-opacity:1;"
         offset="1"
         id="stop3711" />
    </linearGradient>
    <linearGradient
       inkscape:collect="always"
       xlink:href="#linearGradient3628"
       id="linearGradient3667"
       gradientUnits="userSpaceOnUse"
       x1="232.7204"
       y1="270.24258"
       x2="405.1579"
       y2="270.24258" />
    <linearGradient
       inkscape:collect="always"
       xlink:href="#linearGradient3628"
       id="linearGradient3665"
       gradientUnits="userSpaceOnUse"
       x1="298.79843"
       y1="421.66565"
       x2="471.55374"
       y2="421.66565" />
    <linearGradient
       id="linearGradient3628">
      <stop
         id="stop3630"
         offset="0"
         style="stop-color:#456b92;stop-opacity:1;" />
      <stop
         style="stop-color:#90b2dd;stop-opacity:1;"
         offset="0.5"
         id="stop3634" />
      <stop
         id="stop3636"
         offset="0.75"
         style="stop-color:#91b8e9;stop-opacity:1;" />
      <stop
         style="stop-color:#7597bc;stop-opacity:1;"
         offset="0.875"
         id="stop3638" />
      <stop
         id="stop3632"
         offset="1"
         style="stop-color:#79a9d9;stop-opacity:1;" />
    </linearGradient>
    <linearGradient
       inkscape:collect="always"
       xlink:href="#linearGradient3628"
       id="linearGradient3663"
       gradientUnits="userSpaceOnUse"
       x1="129.40549"
       y1="395.69638"
       x2="301.84299"
       y2="395.69638" />
    <inkscape:perspective
       sodipodi:type="inkscape:persp3d"
       inkscape:vp_x="0 : 32 : 1"
       inkscape:vp_y="0 : 1000 : 0"
       inkscape:vp_z="64 : 32 : 1"
       inkscape:persp3d-origin="32 : 21.333333 : 1"
       id="perspective3723" />
    <linearGradient
       inkscape:collect="always"
       xlink:href="#linearGradient3628"
       id="linearGradient3846"
       gradientUnits="userSpaceOnUse"
       x1="129.40549"
       y1="395.69638"
       x2="301.84299"
       y2="395.69638" />
    <linearGradient
       inkscape:collect="always"
       xlink:href="#linearGradient3628"
       id="linearGradient3848"
       gradientUnits="userSpaceOnUse"
       x1="298.79843"
       y1="421.66565"
       x2="471.55374"
       y2="421.66565" />
    <linearGradient
       inkscape:collect="always"
       xlink:href="#linearGradient3628"
       id="linearGradient3850"
       gradientUnits="userSpaceOnUse"
       x1="232.7204"
       y1="270.24258"
       x2="405.1579"
       y2="270.24258" />
    <linearGradient
       inkscape:collect="always"
       xlink:href="#linearGradient3172"
       id="linearGradient3178"
       x1="32.909092"
       y1="1.8181818"
       x2="32.909092"
       y2="15.636364"
       gradientUnits="userSpaceOnUse" />
    <linearGradient
       inkscape:collect="always"
       xlink:href="#linearGradient3372"
       id="linearGradient3370"
       x1="32.090912"
       y1="1.0909164"
       x2="32.090912"
       y2="67.636368"
       gradientUnits="userSpaceOnUse"
       gradientTransform="matrix(0.9859962,0,0,0.9859962,0.3584832,-1.3322407e-3)" />
    <linearGradient
       inkscape:collect="always"
       xlink:href="#linearGradient6464"
       id="linearGradient6470"
       x1="32.090908"
       y1="1.8181819"
       x2="31.09091"
       y2="62.909088"
       gradientUnits="userSpaceOnUse"
       gradientTransform="translate(0,-0.1818182)" />
    <linearGradient
       id="linearGradient6464">
      <stop
         style="stop-color:#0061ff;stop-opacity:1;"
         offset="0"
         id="stop6466" />
      <stop
         style="stop-color:#001c4c;stop-opacity:1;"
         offset="1"
         id="stop6468" />
    </linearGradient>
    <linearGradient
       y2="62.909088"
       x2="31.09091"
       y1="1.8181819"
       x1="32.090908"
       gradientTransform="matrix(1.0188073,0,0,1.0264157,-0.59868968,-1.2688528)"
       gradientUnits="userSpaceOnUse"
       id="linearGradient3045"
       xlink:href="#linearGradient6464"
       inkscape:collect="always" />
    <linearGradient
       inkscape:collect="always"
       xlink:href="#linearGradient6482"
       id="linearGradient6488"
       x1="32.18182"
       y1="3.2835093"
       x2="32.18182"
       y2="13.02554"
       gradientUnits="userSpaceOnUse"
       gradientTransform="matrix(1.0489761,0,0,1.0704672,-1.576142,-1.64517)" />
    <linearGradient
       id="linearGradient6482">
      <stop
         style="stop-color:#ffffff;stop-opacity:1;"
         offset="0"
         id="stop6484" />
      <stop
         style="stop-color:#00ff00;stop-opacity:0;"
         offset="1"
         id="stop6486" />
    </linearGradient>
    <linearGradient
       y2="13.02554"
       x2="32.18182"
       y1="3.2835093"
       x1="32.18182"
       gradientTransform="matrix(1.0583546,0,0,1.0704672,-1.9688677,-2.3154113)"
       gradientUnits="userSpaceOnUse"
       id="linearGradient3045-1"
       xlink:href="#linearGradient6482"
       inkscape:collect="always" />
  </defs>
  <sodipodi:namedview
     id="base"
     pagecolor="#ffffff"
     bordercolor="#666666"
     borderopacity="1.0"
     inkscape:pageopacity="0.0"
     inkscape:pageshadow="2"
     inkscape:zoom="5.5"
     inkscape:cx="-10.082463"
     inkscape:cy="25.822073"
     inkscape:current-layer="layer1"
     showgrid="true"
     inkscape:document-units="px"
     inkscape:grid-bbox="true"
     inkscape:window-width="1280"
     inkscape:window-height="949"
     inkscape:window-x="0"
     inkscape:window-y="25"
     inkscape:window-maximized="0" />
  <metadata
     id="metadata3720">
    <rdf:RDF>
      <cc:Work
         rdf:about="">
        <dc:format>image/svg+xml</dc:format>
        <dc:type
           rdf:resource="http://purl.org/dc/dcmitype/StillImage" />
      </cc:Work>
    </rdf:RDF>
  </metadata>
  <g
     id="layer1"
     inkscape:label="Layer 1"
     inkscape:groupmode="layer">
    <rect
       style="fill:url(#linearGradient3045);fill-opacity:1;fill-rule:nonzero;stroke:#000000;stroke-width:1.02260447;stroke-opacity:1"
       id="rect6462"
       width="62.795578"
       height="62.704666"
       x="0.69797516"
       y="0.59735847"
       ry="5.7852521" />
    <rect
       style="fill:url(#linearGradient3045-1);fill-opacity:1;fill-rule:nonzero;stroke:none"
       id="rect6472"
       width="61.554176"
       height="13.601046"
       x="1.3138213"
       y="1.1994778"
       ry="4.8575158" />
    <g
       id="g3658"
       transform="matrix(0.15897276,0,0,0.16669822,-15.816182,-26.391316)">
      <path
         id="path3576"
         d="m 218.53049,309.80577 -3.09375,6.3125 -1.125,4.8125 0.0312,1.5625 -7,0.4375 -0.1875,-1.53125 -1.6875,-4.65625 -3.875,-5.84375 -4.5,0.84375 -1.46875,6.875 0.125,4.9375 0.40625,1.53125 -6.65625,2.15625 -0.5625,-1.46875 -2.8125,-4.0625 -5.1875,-4.71875 -4.15625,1.9375 0.3125,7.03125 1.34375,4.75 0.78125,1.375 -5.9375,3.75 -0.90625,-1.28125 -3.71875,-3.21875 -6.21875,-3.28125 -3.53125,2.90625 2.0625,6.75 2.46875,4.25 1.09375,1.125 -4.8125,5.125 -1.1875,-1.03125 -4.40625,-2.1875 -6.84375,-1.625 -2.71875,3.6875 3.6875,6 3.4375,3.53125 1.34375,0.8125 -3.375,6.15625 -1.40625,-0.6875 -4.8125,-1.03125 -7.03125,0.125 -1.6875,4.25 5.03125,4.90625 4.21875,2.53125 1.5,0.46875 -1.75,6.8125 -1.53125,-0.34375 -4.9375,0.21875 -6.78125,1.875 -0.5625,4.53125 6.09375,3.5 4.75,1.40625 1.5625,0.0937 0,7 -1.5625,0.0625 -4.75,1.4375 -6.09375,3.5 0.5625,4.53125 6.78125,1.875 4.9375,0.1875 1.53125,-0.3125 1.75,6.78125 -1.5,0.46875 -4.21875,2.5625 -5.03125,4.90625 1.6875,4.25 7.03125,0.125 4.8125,-1.03125 1.40625,-0.6875 3.375,6.15625 -1.34375,0.8125 -3.4375,3.5 -3.6875,6 2.71875,3.71875 6.84375,-1.625 4.40625,-2.21875 1.1875,-1 4.8125,5.125 -1.09375,1.125 -2.46875,4.25 -2.0625,6.71875 3.53125,2.9375 6.21875,-3.28125 3.71875,-3.25 0.90625,-1.28125 5.9375,3.78125 -0.78125,1.34375 -1.34375,4.75 -0.3125,7.03125 4.15625,1.96875 5.1875,-4.75 2.8125,-4.03125 0.5625,-1.46875 6.65625,2.15625 -0.40625,1.5 -0.125,4.9375 1.46875,6.90625 4.5,0.84375 3.875,-5.875 1.6875,-4.625 0.1875,-1.5625 7,0.4375 -0.0312,1.5625 1.125,4.8125 3.09375,6.3125 4.59375,-0.28125 2.28125,-6.65625 0.5,-4.90625 -0.21875,-1.5625 6.875,-1.3125 0.375,1.53125 2.28125,4.375 4.59375,5.34375 4.34375,-1.40625 0.5625,-7.03125 -0.71875,-4.875 -0.59375,-1.4375 6.34375,-3 0.71875,1.40625 3.3125,3.65625 5.75,4.03125 3.875,-2.4375 -1.1875,-6.9375 -1.9375,-4.53125 -0.9375,-1.28125 5.40625,-4.46875 1.0625,1.15625 4.09375,2.75 6.59375,2.46875 3.125,-3.34375 -2.875,-6.40625 -3,-3.9375 -1.21875,-0.96875 4.125,-5.6875 1.3125,0.875 4.65625,1.625 7,0.78125 2.1875,-4.03125 -4.375,-5.5 -3.875,-3.0625 -1.4375,-0.625 2.59375,-6.53125 1.46875,0.5 4.9375,0.4375 6.9375,-1 1.15625,-4.4375 -5.625,-4.25 -4.5,-2 -1.5625,-0.28125 0.875,-6.9375 1.5625,0.125 4.875,-0.8125 6.5,-2.71875 0,-4.5625 -6.5,-2.71875 -4.875,-0.8125 -1.5625,0.125 -0.875,-6.96875 1.5625,-0.25 4.5,-2 5.625,-4.25 -1.15625,-4.4375 -6.9375,-1 -4.9375,0.4375 -1.46875,0.5 -2.59375,-6.53125 1.4375,-0.65625 3.875,-3.03125 4.375,-5.5 -2.1875,-4.03125 -7,0.75 -4.65625,1.65625 -1.3125,0.84375 -4.125,-5.65625 1.21875,-1 3,-3.90625 2.875,-6.4375 -3.125,-3.34375 -6.59375,2.5 -4.09375,2.71875 -1.0625,1.15625 -5.40625,-4.46875 0.9375,-1.25 1.9375,-4.53125 1.1875,-6.9375 -3.875,-2.46875 -5.75,4.03125 -3.3125,3.6875 -0.71875,1.375 -6.34375,-2.96875 0.59375,-1.46875 0.71875,-4.875 -0.5625,-7 -4.34375,-1.40625 -4.59375,5.3125 -2.28125,4.375 -0.375,1.53125 -6.875,-1.3125 0.21875,-1.53125 -0.5,-4.9375 -2.28125,-6.625 -4.59375,-0.3125 z m -2.90625,22.15625 c 7.71749,0 15.10097,1.42838 21.9375,4 l -15.5625,28.71875 c -2.21207,-0.5418 -4.50406,-0.84375 -6.875,-0.84375 -8.41721,0 -16.03429,3.62553 -21.46875,9.4375 l -28.625,-15.53125 c 11.49205,-15.62948 29.87439,-25.78125 50.59375,-25.78125 z m 38.0625,12.96875 c 15.16986,11.64435 24.96875,30.04618 24.96875,50.78125 0,7.60476 -1.30018,14.92375 -3.71875,21.6875 l -30.5,-16.5625 c 0.3675,-1.94112 0.5625,-3.94775 0.5625,-6 0,-7.79489 -2.75805,-14.92599 -7.34375,-20.375 l 16.03125,-29.53125 z m -97.3125,29.09375 29.21875,15.875 c -0.24846,1.60786 -0.375,3.25739 -0.375,4.9375 0,8.47403 3.27426,16.15222 8.59375,21.75 l -16.21875,29.9375 c -15.17113,-11.64426 -25,-30.07641 -25,-50.8125 0,-7.61892 1.35408,-14.91314 3.78125,-21.6875 z m 58.28125,1.9375 c 0.3176,-0.0171 0.64717,0 0.96875,0 10.2905,-10e-6 18.65625,8.84846 18.65625,19.75 0,10.90154 -8.36575,19.71875 -18.65625,19.71875 -10.2905,1e-5 -18.65625,-8.81721 -18.65625,-19.71875 0,-10.56086 7.84203,-19.22073 17.6875,-19.75 z m 21.1875,41.1875 30.40625,16.53125 c -11.49036,15.64878 -29.89062,25.78125 -50.625,25.78125 -7.72767,0 -15.12468,-1.39066 -21.96875,-3.96875 l 16.34375,-30.09375 c 1.66202,0.29753 3.38143,0.4375 5.125,0.4375 8.04746,0 15.34294,-3.3181 20.71875,-8.6875 z"
         style="fill:url(#linearGradient3846);fill-opacity:1;stroke:#000000"
         inkscape:connector-curvature="0" />
      <path
         style="fill:url(#linearGradient3848);fill-opacity:1;stroke:#000000"
         d="m 414.44011,340.65881 -4.87909,5.06098 -2.54543,4.23634 -0.44901,1.49692 -6.79737,-1.72833 0.29069,-1.51505 -0.17967,-4.94935 -1.89812,-6.74998 -4.54208,-0.57561 -3.50459,6.09431 -1.39385,4.73832 -0.0825,1.58207 -6.99678,0.0131 -0.0854,-1.57045 -1.43248,-4.72887 -3.49219,-6.08122 -4.55,0.57084 -1.85689,6.78882 -0.17627,4.93327 0.32238,1.54823 -6.80093,1.7504 -0.47008,-1.4973 -2.55368,-4.20335 -4.91427,-5.02884 -4.25189,1.6845 -0.10488,7.05728 1.04783,4.80201 0.69644,1.40602 -6.15133,3.40396 -0.81441,-1.34549 -3.52408,-3.43236 -6.01669,-3.64375 -3.71783,2.67712 1.67175,6.84126 2.19021,4.41465 1.03016,1.18515 -5.09893,4.82606 -1.12798,-1.0853 -4.26506,-2.4562 -6.73136,-2.03537 -2.90853,3.52854 3.28599,6.21185 3.24027,3.70212 1.28424,0.9058 -3.75317,5.94864 -1.35228,-0.79639 -4.76704,-1.3046 -7.0296,-0.29295 -1.92382,4.14096 4.72828,5.19878 4.09067,2.794 1.45862,0.56799 -2.14478,6.66332 -1.50651,-0.41925 -4.96199,-0.087 -6.87305,1.46454 -0.85293,4.48566 5.88061,3.86259 4.64256,1.69132 1.55336,0.1717 -0.41194,6.99129 -1.57147,-0.0134 -4.801,1.14663 -6.29253,3.12871 0.30416,4.56264 6.65476,2.27334 4.89701,0.4929 1.54926,-0.22357 1.32641,6.89425 -1.52806,0.3617 -4.34456,2.27842 -5.34853,4.58159 1.44857,4.3729 7.01248,0.55008 4.87414,-0.76197 1.43678,-0.58806 3.01075,6.35304 -1.38584,0.73577 -3.6522,3.28917 -4.02192,5.76366 2.46137,3.87819 6.92501,-1.21803 4.53569,-1.95426 1.25524,-0.94195 4.49336,5.41862 -1.1554,1.03975 -2.73452,4.10981 -2.45183,6.59732 3.35313,3.14753 6.39339,-2.93209 3.91239,-2.97563 0.98547,-1.22575 5.67544,4.092 -0.84631,1.30339 -1.63183,4.66171 -0.71796,7.02411 4.02504,2.18196 5.48873,-4.40513 3.02342,-3.88551 0.65724,-1.4299 6.52927,2.56124 -0.50849,1.47777 -0.40366,4.92574 1.01081,6.95681 4.45899,1.1398 4.21098,-5.63714 1.97923,-4.51708 0.27051,-1.55437 6.94649,0.85711 -0.11221,1.5725 0.83104,4.86354 2.73549,6.49426 4.5657,-0.008 2.6898,-6.52072 0.80952,-4.86076 -0.12474,-1.55029 6.95782,-0.91199 0.25332,1.55884 2.0329,4.49534 4.23828,5.59915 4.43548,-1.13297 0.99525,-6.96768 -0.45595,-4.90696 -0.49983,-1.50687 6.51544,-2.59736 0.65712,1.42619 3.05426,3.87205 5.52019,4.37033 3.99923,-2.22544 -0.77386,-6.97902 -1.64926,-4.66731 -0.86332,-1.29558 5.66924,-4.15006 0.98127,1.23506 3.93441,2.9735 6.42395,2.88848 3.31745,-3.16712 -2.47938,-6.57596 -2.75028,-4.10251 -1.17686,-1.03538 4.47016,-5.4224 1.24491,0.92598 4.56597,1.9293 6.91024,1.17373 2.46027,-3.86979 -4.05227,-5.76909 -3.67076,-3.2826 -1.40118,-0.74647 2.95856,-6.33573 1.44905,0.59774 4.88947,0.72026 7.02039,-0.59639 1.39795,-4.34306 -5.35436,-4.57959 -4.39157,-2.26711 -1.52566,-0.35976 1.3023,-6.90167 1.56396,0.24078 4.89635,-0.52502 6.65665,-2.3221 0.259,-4.57835 -6.29742,-3.07754 -4.83408,-1.09639 -1.5513,0.0259 -0.46784,-7.01182 1.56944,-0.18425 4.61739,-1.69816 5.84977,-3.89497 -0.84712,-4.50761 -6.89313,-1.43087 -4.93977,0.14993 -1.50789,0.40102 -2.19355,-6.64811 1.46654,-0.57847 4.05257,-2.79917 4.70917,-5.24699 -1.95019,-4.14042 -7.0426,0.35945 -4.72987,1.33366 -1.36568,0.77509 -3.77701,-5.91028 1.27541,-0.90263 3.23268,-3.71966 3.25602,-6.23998 -2.9322,-3.53731 -6.70861,2.07557 -4.28303,2.4952 -1.10548,1.08864 -5.12902,-4.76968 1.01522,-1.21618 2.17788,-4.42031 1.60934,-6.83567 -3.70396,-2.66953 -6.00055,3.64947 -3.51202,3.4656 -0.82614,1.3427 -6.14218,-3.35585 0.67739,-1.39058 1.03689,-4.85322 -0.14163,-7.00533 -4.27706,-1.705 z m -9.55511,20.20016 c 7.3463,2.36461 13.93701,5.98658 19.65679,10.52921 l -23.61337,22.56916 c -1.93967,-1.19352 -4.0289,-2.1832 -6.28581,-2.90966 -8.01237,-2.57901 -16.37396,-1.46173 -23.32782,2.40561 l -22.48948,-23.5549 c 15.72817,-11.35661 36.33687,-15.38781 56.05969,-9.03942 z m 32.25823,24.00727 c 10.87243,15.73232 14.56173,36.25145 8.20855,55.98923 -2.33009,7.239 -5.81026,13.80759 -10.18491,19.50499 l -23.95833,-25.11105 c 0.94458,-1.73516 1.74503,-3.58553 2.37384,-5.53908 2.38834,-7.41998 1.9479,-15.05316 -0.74768,-21.64514 l 24.30853,-23.19895 z m -101.54638,-2.12193 22.94936,24.06403 c -0.72917,1.4544 -1.35503,2.98582 -1.86981,4.58512 -2.59642,8.06646 -1.83223,16.37859 1.51626,23.33702 l -24.61149,23.52821 c -10.87367,-15.73262 -14.58222,-36.28979 -8.22872,-56.02856 2.33442,-7.25247 5.85831,-13.78097 10.2444,-19.48582 z m 54.88447,19.70158 c 0.30756,0.0811 0.61605,0.19829 0.92216,0.29682 9.79557,3.15298 15.0478,14.13912 11.70759,24.51634 -3.34022,10.37721 -14.00519,16.20709 -23.80075,13.0541 -9.79556,-3.15297 -15.05737,-14.10937 -11.71715,-24.48659 3.23583,-10.05292 13.35405,-15.89349 22.88815,-13.38067 z m 7.54868,45.69834 23.87867,25.05257 c -15.73247,11.3755 -36.35231,15.38282 -56.08945,9.02985 -7.35599,-2.36774 -13.97114,-5.95795 -19.6961,-10.50906 l 24.77834,-23.63865 c 1.49091,0.79247 3.08474,1.45253 4.74445,1.98676 7.66041,2.46573 15.62166,1.54253 22.38409,-1.92147 z"
         id="path3616"
         inkscape:connector-curvature="0" />
      <path
         id="path3618"
         d="m 321.8454,184.35195 -3.09375,6.3125 -1.125,4.8125 0.0312,1.5625 -7,0.4375 -0.1875,-1.53125 -1.6875,-4.65625 -3.875,-5.84375 -4.5,0.84375 -1.46875,6.875 0.125,4.9375 0.40625,1.53125 -6.65625,2.15625 -0.5625,-1.46875 -2.8125,-4.0625 -5.1875,-4.71875 -4.15625,1.9375 0.3125,7.03125 1.34375,4.75 0.78125,1.375 -5.9375,3.75 -0.90625,-1.28125 -3.71875,-3.21875 -6.21875,-3.28125 -3.53125,2.90625 2.0625,6.75 2.46875,4.25 1.09375,1.125 -4.8125,5.125 -1.1875,-1.03125 -4.40625,-2.1875 -6.84375,-1.625 -2.71875,3.6875 3.6875,6 3.4375,3.53125 1.34375,0.8125 -3.375,6.15625 -1.40625,-0.6875 -4.8125,-1.03125 -7.03125,0.125 -1.6875,4.25 5.03125,4.90625 4.21875,2.53125 1.5,0.46875 -1.75,6.8125 -1.53125,-0.34375 -4.9375,0.21875 -6.78125,1.875 -0.5625,4.53125 6.09375,3.5 4.75,1.40625 1.5625,0.0937 0,7 -1.5625,0.0625 -4.75,1.4375 -6.09375,3.5 0.5625,4.53125 6.78125,1.875 4.9375,0.1875 1.53125,-0.3125 1.75,6.78125 -1.5,0.46875 -4.21875,2.5625 -5.03125,4.90625 1.6875,4.25 7.03125,0.125 4.8125,-1.03125 1.40625,-0.6875 3.375,6.15625 -1.34375,0.8125 -3.4375,3.5 -3.6875,6 2.71875,3.71875 6.84375,-1.625 4.40625,-2.21875 1.1875,-1 4.8125,5.125 -1.09375,1.125 -2.46875,4.25 -2.0625,6.71875 3.53125,2.9375 6.21875,-3.28125 3.71875,-3.25 0.90625,-1.28125 5.9375,3.78125 -0.78125,1.34375 -1.34375,4.75 -0.3125,7.03125 4.15625,1.96875 5.1875,-4.75 2.8125,-4.03125 0.5625,-1.46875 6.65625,2.15625 -0.40625,1.5 -0.125,4.9375 1.46875,6.90625 4.5,0.84375 3.875,-5.875 1.6875,-4.625 0.1875,-1.5625 7,0.4375 -0.0312,1.5625 1.125,4.8125 3.09375,6.3125 4.59375,-0.28125 2.28125,-6.65625 0.5,-4.90625 -0.21875,-1.5625 6.875,-1.3125 0.375,1.53125 2.28125,4.375 4.59375,5.34375 4.34375,-1.40625 0.5625,-7.03125 -0.71875,-4.875 -0.59375,-1.4375 6.34375,-3 0.71875,1.40625 3.3125,3.65625 5.75,4.03125 3.875,-2.4375 -1.1875,-6.9375 -1.9375,-4.53125 -0.9375,-1.28125 5.40625,-4.46875 1.0625,1.15625 4.09375,2.75 6.59375,2.46875 3.125,-3.34375 -2.875,-6.40625 -3,-3.9375 -1.21875,-0.96875 4.125,-5.6875 1.3125,0.875 4.65625,1.625 7,0.78125 2.1875,-4.03125 -4.375,-5.5 -3.875,-3.0625 -1.4375,-0.625 2.59375,-6.53125 1.46875,0.5 4.9375,0.4375 6.9375,-1 1.15625,-4.4375 -5.625,-4.25 -4.5,-2 -1.5625,-0.28125 0.875,-6.9375 1.5625,0.125 4.875,-0.8125 6.5,-2.71875 0,-4.5625 -6.5,-2.71875 -4.875,-0.8125 -1.5625,0.125 -0.875,-6.96875 1.5625,-0.25 4.5,-2 5.625,-4.25 -1.15625,-4.4375 -6.9375,-1 -4.9375,0.4375 -1.46875,0.5 -2.59375,-6.53125 1.4375,-0.65625 3.875,-3.03125 4.375,-5.5 -2.1875,-4.03125 -7,0.75 -4.65625,1.65625 -1.3125,0.84375 -4.125,-5.65625 1.21875,-1 3,-3.90625 2.875,-6.4375 -3.125,-3.34375 -6.59375,2.5 -4.09375,2.71875 -1.0625,1.15625 -5.40625,-4.46875 0.9375,-1.25 1.9375,-4.53125 1.1875,-6.9375 -3.875,-2.46875 -5.75,4.03125 -3.3125,3.6875 -0.71875,1.375 -6.34375,-2.96875 0.59375,-1.46875 0.71875,-4.875 -0.5625,-7 -4.34375,-1.40625 -4.59375,5.3125 -2.28125,4.375 -0.375,1.53125 -6.875,-1.3125 0.21875,-1.53125 -0.5,-4.9375 -2.28125,-6.625 -4.59375,-0.3125 z m -2.90625,22.15625 c 7.71749,0 15.10097,1.42838 21.9375,4 l -15.5625,28.71875 c -2.21207,-0.5418 -4.50406,-0.84375 -6.875,-0.84375 -8.41721,0 -16.03429,3.62553 -21.46875,9.4375 l -28.625,-15.53125 c 11.49205,-15.62948 29.87439,-25.78125 50.59375,-25.78125 z m 38.0625,12.96875 c 15.16986,11.64435 24.96875,30.04618 24.96875,50.78125 0,7.60476 -1.30018,14.92375 -3.71875,21.6875 l -30.5,-16.5625 c 0.3675,-1.94112 0.5625,-3.94775 0.5625,-6 0,-7.79489 -2.75805,-14.92599 -7.34375,-20.375 l 16.03125,-29.53125 z m -97.3125,29.09375 29.21875,15.875 c -0.24846,1.60786 -0.375,3.25739 -0.375,4.9375 0,8.47403 3.27426,16.15222 8.59375,21.75 l -16.21875,29.9375 c -15.17113,-11.64426 -25,-30.07641 -25,-50.8125 0,-7.61892 1.35408,-14.91314 3.78125,-21.6875 z m 58.28125,1.9375 c 0.3176,-0.0171 0.64717,0 0.96875,0 10.2905,-10e-6 18.65625,8.84846 18.65625,19.75 0,10.90154 -8.36575,19.71875 -18.65625,19.71875 -10.2905,1e-5 -18.65625,-8.81721 -18.65625,-19.71875 0,-10.56086 7.84203,-19.22073 17.6875,-19.75 z m 21.1875,41.1875 30.40625,16.53125 c -11.49036,15.64878 -29.89062,25.78125 -50.625,25.78125 -7.72767,0 -15.12468,-1.39066 -21.96875,-3.96875 l 16.34375,-30.09375 c 1.66202,0.29753 3.38143,0.4375 5.125,0.4375 8.04746,0 15.34294,-3.3181 20.71875,-8.6875 z"
         style="fill:url(#linearGradient3850);fill-opacity:1;stroke:#000000"
         inkscape:connector-curvature="0" />
    </g>
  </g>
</svg>
