<?xml version="1.0" encoding="UTF-8" standalone="no"?>
<!-- Created with Inkscape (http://www.inkscape.org/) -->

<svg
   xmlns:dc="http://purl.org/dc/elements/1.1/"
   xmlns:cc="http://creativecommons.org/ns#"
   xmlns:rdf="http://www.w3.org/1999/02/22-rdf-syntax-ns#"
   xmlns:svg="http://www.w3.org/2000/svg"
   xmlns="http://www.w3.org/2000/svg"
   xmlns:xlink="http://www.w3.org/1999/xlink"
   xmlns:sodipodi="http://sodipodi.sourceforge.net/DTD/sodipodi-0.dtd"
   xmlns:inkscape="http://www.inkscape.org/namespaces/inkscape"
   width="64px"
   height="64px"
   id="svg4456"
   sodipodi:version="0.32"
   inkscape:version="0.48.5 r10040"
   sodipodi:docname="icon_config_messages.svg"
   inkscape:output_extension="org.inkscape.output.svg.inkscape"
   version="1.1">
  <defs
     id="defs4458">
    <linearGradient
       id="linearGradient8828">
      <stop
         style="stop-color:#ffffff;stop-opacity:1;"
         offset="0"
         id="stop8830" />
      <stop
         style="stop-color:#ffffff;stop-opacity:0;"
         offset="1"
         id="stop8832" />
    </linearGradient>
    <linearGradient
       id="linearGradient3291">
      <stop
         style="stop-color:#ffffff;stop-opacity:0;"
         offset="0"
         id="stop3293" />
      <stop
         style="stop-color:#ffffff;stop-opacity:1;"
         offset="1"
         id="stop3295" />
    </linearGradient>
    <linearGradient
       id="linearGradient3281">
      <stop
         style="stop-color:#ffffff;stop-opacity:0;"
         offset="0"
         id="stop3283" />
      <stop
         style="stop-color:#ffffff;stop-opacity:1;"
         offset="1"
         id="stop3285" />
    </linearGradient>
    <linearGradient
       id="linearGradient4388">
      <stop
         id="stop4390"
         offset="0"
         style="stop-color:#b5c9de;stop-opacity:1;" />
      <stop
         style="stop-color:#a8cce0;stop-opacity:1;"
         offset="1"
         id="stop4398" />
    </linearGradient>
    <inkscape:perspective
       sodipodi:type="inkscape:persp3d"
       inkscape:vp_x="0 : 32 : 1"
       inkscape:vp_y="0 : 1000 : 0"
       inkscape:vp_z="64 : 32 : 1"
       inkscape:persp3d-origin="32 : 21.333333 : 1"
       id="perspective4464" />
    <linearGradient
       inkscape:collect="always"
       xlink:href="#linearGradient4388"
       id="linearGradient2507"
       gradientUnits="userSpaceOnUse"
       x1="392.85291"
       y1="298.36151"
       x2="392.85291"
       y2="610.24268"
       gradientTransform="matrix(0.1517229,0,0,0.1616016,-27.270313,-47.446867)" />
    <linearGradient
       inkscape:collect="always"
       xlink:href="#linearGradient3281"
       id="linearGradient3287"
       x1="35.072235"
       y1="25.42054"
       x2="56.655151"
       y2="25.42054"
       gradientUnits="userSpaceOnUse" />
    <linearGradient
       inkscape:collect="always"
       xlink:href="#linearGradient3291"
       id="linearGradient3297"
       x1="38.143646"
       y1="31.558012"
       x2="38.143646"
       y2="7.2486181"
       gradientUnits="userSpaceOnUse" />
    <filter
       inkscape:collect="always"
       id="filter3315"
       x="-0.055607294"
       width="1.1112146"
       y="-0.1235493"
       height="1.2470986">
      <feGaussianBlur
         inkscape:collect="always"
         stdDeviation="1.2514202"
         id="feGaussianBlur3317" />
    </filter>
    <radialGradient
       inkscape:collect="always"
       xlink:href="#linearGradient8828"
       id="radialGradient8834"
       cx="37.018585"
       cy="39.258972"
       fx="37.018585"
       fy="39.258972"
       r="20.799664"
       gradientTransform="matrix(1,0,0,1.1305163,0,-3.3604633)"
       gradientUnits="userSpaceOnUse" />
    <linearGradient
       inkscape:collect="always"
       xlink:href="#linearGradient3372"
       id="linearGradient3370"
       x1="32.090912"
       y1="1.0909164"
       x2="32.090912"
       y2="67.636368"
       gradientUnits="userSpaceOnUse"
       gradientTransform="matrix(0.9859962,0,0,0.9859962,0.3584832,-0.00133224)" />
    <linearGradient
       id="linearGradient3372">
      <stop
         id="stop3374"
         offset="0"
         style="stop-color:#0053ff;stop-opacity:1;" />
      <stop
         id="stop3376"
         offset="1"
         style="stop-color:#008eff;stop-opacity:0.30980393;" />
    </linearGradient>
    <linearGradient
       y2="67.636368"
       x2="32.090912"
       y1="1.0909164"
       x1="32.090912"
       gradientTransform="matrix(0.9859962,0,0,0.9859962,0.40019796,0.13844058)"
       gradientUnits="userSpaceOnUse"
       id="linearGradient3029"
       xlink:href="#linearGradient3372"
       inkscape:collect="always" />
    <linearGradient
       inkscape:collect="always"
       xlink:href="#linearGradient6464"
       id="linearGradient6470"
       x1="32.090908"
       y1="1.8181819"
       x2="31.09091"
       y2="62.909088"
       gradientUnits="userSpaceOnUse"
       gradientTransform="translate(0,-0.1818182)" />
    <linearGradient
       id="linearGradient6464">
      <stop
         style="stop-color:#0061ff;stop-opacity:1;"
         offset="0"
         id="stop6466" />
      <stop
         style="stop-color:#001c4c;stop-opacity:1;"
         offset="1"
         id="stop6468" />
    </linearGradient>
    <linearGradient
       y2="62.909088"
       x2="31.09091"
       y1="1.8181819"
       x1="32.090908"
       gradientTransform="matrix(1.0235582,0,0,1.0338679,-0.64074569,-1.2340088)"
       gradientUnits="userSpaceOnUse"
       id="linearGradient3045"
       xlink:href="#linearGradient6464"
       inkscape:collect="always" />
    <linearGradient
       inkscape:collect="always"
       xlink:href="#linearGradient6482"
       id="linearGradient6488"
       x1="32.18182"
       y1="3.2835093"
       x2="32.18182"
       y2="13.02554"
       gradientUnits="userSpaceOnUse"
       gradientTransform="matrix(1.0489761,0,0,1.0704672,-1.576142,-1.64517)" />
    <linearGradient
       id="linearGradient6482">
      <stop
         style="stop-color:#ffffff;stop-opacity:1;"
         offset="0"
         id="stop6484" />
      <stop
         style="stop-color:#00ff00;stop-opacity:0;"
         offset="1"
         id="stop6486" />
    </linearGradient>
    <linearGradient
       y2="13.02554"
       x2="32.18182"
       y1="3.2835093"
       x1="32.18182"
       gradientTransform="matrix(1.061706,0,0,1.0704672,-2.0848571,-2.2134742)"
       gradientUnits="userSpaceOnUse"
       id="linearGradient3045-1"
       xlink:href="#linearGradient6482"
       inkscape:collect="always" />
  </defs>
  <sodipodi:namedview
     id="base"
     pagecolor="#ffffff"
     bordercolor="#666666"
     borderopacity="1.0"
     inkscape:pageopacity="0.0"
     inkscape:pageshadow="2"
     inkscape:zoom="8.1040376"
     inkscape:cx="12.301334"
     inkscape:cy="38.69057"
     inkscape:current-layer="layer1"
     showgrid="true"
     inkscape:document-units="px"
     inkscape:grid-bbox="true"
     inkscape:window-width="1280"
     inkscape:window-height="949"
     inkscape:window-x="0"
     inkscape:window-y="25"
     inkscape:window-maximized="0" />
  <metadata
     id="metadata4461">
    <rdf:RDF>
      <cc:Work
         rdf:about="">
        <dc:format>image/svg+xml</dc:format>
        <dc:type
           rdf:resource="http://purl.org/dc/dcmitype/StillImage" />
      </cc:Work>
    </rdf:RDF>
  </metadata>
  <g
     id="layer1"
     inkscape:label="Layer 1"
     inkscape:groupmode="layer">
    <rect
       style="fill:url(#linearGradient3045);fill-opacity:1;fill-rule:nonzero;stroke:#000000;stroke-width:1.02870011;stroke-opacity:1"
       id="rect6462"
       width="63.088406"
       height="63.159927"
       x="0.66196382"
       y="0.64575124"
       ry="5.8272552" />
    <rect
       style="fill:url(#linearGradient3045-1);fill-opacity:1;fill-rule:nonzero;stroke:none"
       id="rect6472"
       width="61.749092"
       height="13.601046"
       x="1.2082272"
       y="1.3014144"
       ry="4.8575158" />
    <path
       style="fill:url(#linearGradient2507);fill-opacity:1;stroke:#000000;stroke-width:0.55699998;stroke-linecap:round;stroke-linejoin:round;stroke-miterlimit:4;stroke-dasharray:none;stroke-dashoffset:60.01653385;stroke-opacity:1"
       d="M 30.806368,0.85686126 C 29.034982,0.98914726 27.264478,1.1656403 25.510612,1.4661773 C 23.796106,1.7655132 22.103629,2.1976442 20.439589,2.7281242 C 19.21728,3.1056042 18.017557,3.5646622 16.839452,4.0765812 C 15.651082,4.6034292 14.495935,5.2138092 13.371335,5.8801812 C 11.912816,6.7464622 10.530751,7.7539632 9.2243805,8.8609672 C 8.4187244,9.5430992 7.6399884,10.262469 6.9145177,11.040719 C 5.620197,12.403477 4.4818823,13.932601 3.5234442,15.580236 C 3.0019741,16.480068 2.5348238,17.416384 2.1362796,18.385123 C 1.6804251,19.48228 1.3317871,20.628769 1.0695948,21.795033 C 0.75652219,23.256251 0.60324564,24.756201 0.61124599,26.254797 C 0.62193487,27.552852 0.7897313,28.84366 1.0337442,30.113781 C 1.3344362,31.649962 1.8041461,33.150192 2.4506358,34.561073 C 2.8706852,35.492735 3.3543551,36.391419 3.8768235,37.261925 C 4.6419727,38.490076 5.5010793,39.654404 6.4706387,40.707329 C 7.3596606,41.662951 8.297604,42.566604 9.2722931,43.422059 C 10.463433,44.447127 11.745074,45.349675 13.080336,46.147036 C 14.167464,46.805262 15.285489,47.406349 16.432387,47.937391 C 17.335164,48.348844 18.246803,48.739932 19.176788,49.076573 C 20.176277,49.440994 21.187956,49.769331 22.213361,50.040982 C 23.982628,50.519355 25.787921,50.832673 27.59864,51.068576 C 29.184164,51.257577 30.778441,51.374509 32.374326,51.378135 C 34.208468,51.393245 36.04276,51.33635 37.876831,51.36666 C 38.434029,51.394132 38.996114,51.373533 39.548214,51.468857 C 40.395454,51.629691 41.189649,52.027723 41.897068,52.542095 C 42.906233,53.246246 43.82274,54.092615 44.675187,54.999399 C 45.512204,55.903243 46.266785,56.888703 46.983782,57.901568 C 48.063059,59.393702 49.050446,60.961084 50.183724,62.408718 C 50.603098,62.897907 51.029706,63.407601 51.587664,63.719884 C 51.804498,63.841768 52.103879,63.868879 52.289383,63.669383 C 52.572771,63.417588 52.620316,62.996395 52.649089,62.627433 C 52.711632,61.844833 52.599022,61.057825 52.408292,60.302829 C 52.168482,59.302677 51.78517,58.35174 51.462684,57.380495 C 51.201962,56.629345 50.962671,55.869992 50.710396,55.115547 C 50.335598,53.977982 49.982246,52.829592 49.724991,51.654708 C 49.578941,50.967344 49.473946,50.261071 49.510957,49.554493 C 49.543479,49.062371 49.729699,48.57395 50.076258,48.238512 C 50.511787,47.761469 51.012891,47.360634 51.477328,46.916997 C 52.923187,45.590001 54.409164,44.313642 55.874783,43.011823 C 56.757712,42.194646 57.618666,41.349135 58.421933,40.442755 C 58.916458,39.885813 59.394731,39.311891 59.833969,38.70424 C 60.710709,37.528802 61.472131,36.255065 62.089397,34.905016 C 62.686408,33.597774 63.1598,32.225673 63.496977,30.816995 C 63.918773,29.061675 64.112872,27.241367 64.04458,25.430114 C 63.993915,24.1628 63.842987,22.897362 63.555691,21.66543 C 63.293091,20.48664 62.918558,19.336609 62.453814,18.231165 C 61.999994,17.149646 61.468614,16.10516 60.855606,15.116435 C 60.398759,14.374017 59.907921,13.654553 59.383662,12.964365 C 58.538398,11.856043 57.592092,10.838847 56.596116,9.8845992 C 55.568274,8.9130772 54.485916,8.0053472 53.337013,7.2011982 C 52.664003,6.7221662 51.968792,6.2783912 51.259706,5.8627892 C 50.063297,5.1749212 48.837819,4.5423942 47.573935,4.0072892 C 46.156955,3.3945402 44.708468,2.8644512 43.241049,2.4062912 C 42.115855,2.0591482 40.971103,1.7877702 39.816603,1.5776382 C 38.516427,1.3486333 37.205879,1.1933933 35.894625,1.0565313 C 34.340149,0.91502526 32.779796,0.84208126 31.219584,0.84739626 C 31.081846,0.85055126 30.944107,0.85370726 30.806368,0.85686126 z"
       id="path3866" />
    <path
       sodipodi:type="arc"
       style="fill:url(#linearGradient3297);fill-opacity:1;stroke:none;filter:url(#filter3315)"
       id="path3289"
       sodipodi:cx="38.143646"
       sodipodi:cy="19.403315"
       sodipodi:rx="27.005526"
       sodipodi:ry="12.154696"
       d="m 65.149172,19.403315 a 27.005526,12.154696 0 1 1 -54.011051,0 27.005526,12.154696 0 1 1 54.011051,0 z"
       transform="matrix(1,0,0,1.52,-6.2560322,-9.1853735)" />
    <path
       style="font-size:144px;font-style:normal;font-variant:normal;font-weight:normal;font-stretch:normal;text-align:start;line-height:125%;writing-mode:lr-tb;text-anchor:start;fill:#000000;fill-opacity:1;stroke:none;stroke-width:2;stroke-linecap:butt;stroke-linejoin:miter;stroke-miterlimit:4;stroke-dasharray:none;stroke-opacity:1;font-family:Umpush;-inkscape-font-specification:Umpush"
       d="M 26.408397,32.530967 C 26.408382,34.365536 26.267064,35.8999 25.984444,37.134064 C 25.701793,38.368225 25.246433,39.357778 24.618367,40.102731 C 23.990272,40.858787 23.215639,41.392479 22.294465,41.703806 C 21.373269,42.026239 20.232255,42.187459 18.871422,42.187466 C 16.903429,42.187459 15.322759,41.664886 14.12941,40.619746 C 12.94652,39.574592 12.328908,38.090261 12.276571,36.166747 L 15.024424,36.166747 C 15.013953,36.933927 15.202377,37.567688 15.589699,38.068026 C 15.987478,38.579479 16.458538,38.929715 17.002882,39.118734 C 17.55768,39.307746 18.175292,39.402252 18.855721,39.402257 C 19.776897,39.402252 20.546296,39.246593 21.16392,38.935277 C 21.79199,38.635071 22.273519,38.179209 22.608508,37.567691 C 22.95394,36.956165 23.194703,36.255695 23.330801,35.466276 C 23.466871,34.676857 23.534914,33.726217 23.534928,32.614358 C 22.299689,34.159841 20.760891,34.932583 18.918529,34.932583 C 16.70977,34.932583 14.95638,34.104249 13.658349,32.447577 C 12.360313,30.79091 11.711296,28.633905 11.711296,25.976556 C 11.711296,23.274749 12.355079,21.073269 13.642646,19.37211 C 14.930209,17.670984 16.69407,16.820411 18.934233,16.820394 C 21.142972,16.820411 22.765515,17.443053 23.801861,18.688318 L 23.801861,17.220663 L 26.408397,17.220663 L 26.408397,32.530967 M 19.138358,19.638957 C 17.672828,19.638971 16.552752,20.189341 15.778122,21.290069 C 15.003484,22.390823 14.616169,23.880713 14.616173,25.759743 C 14.616169,29.92922 16.139265,32.013956 19.185464,32.013953 C 22.116498,32.013956 23.582021,29.962578 23.582035,25.85981 C 23.582021,24.848029 23.482576,23.958542 23.283694,23.191348 C 23.08479,22.41306 22.833558,21.807096 22.529997,21.373457 C 22.236882,20.928728 21.880969,20.572933 21.462259,20.306072 C 21.043527,20.039241 20.650977,19.861343 20.284606,19.77238 C 19.918215,19.683446 19.536134,19.638971 19.138358,19.638957 M 37.462629,35.11604 C 34.960765,35.11604 33.029417,34.326621 31.668578,32.747781 C 30.318204,31.157825 29.643017,28.934109 29.643017,26.076625 C 29.643017,23.230274 30.323438,20.978763 31.68428,19.322077 C 33.055588,17.654306 34.981701,16.820411 37.462629,16.820394 C 39.870262,16.820411 41.770207,17.637628 43.162466,19.272045 C 44.565166,20.895372 45.266522,23.080174 45.26654,25.826456 C 45.266522,27.216288 45.11997,28.456008 44.826883,29.545626 C 44.54423,30.624133 44.162149,31.508061 43.680635,32.197408 C 43.199091,32.886763 42.612882,33.459371 41.922007,33.915232 C 41.241573,34.359975 40.534981,34.671296 39.802234,34.849193 C 39.079929,35.027091 38.300062,35.11604 37.462629,35.11604 M 37.462629,19.4555 C 35.861016,19.455516 34.641493,20.044801 33.804055,21.223357 C 32.966609,22.40194 32.547888,24.019695 32.547893,26.076625 C 32.547888,27.132896 32.657803,28.061299 32.877637,28.86183 C 33.097461,29.651257 33.369629,30.268337 33.694141,30.713076 C 34.029114,31.157825 34.426898,31.519178 34.887498,31.797139 C 35.348082,32.075108 35.777271,32.258565 36.175063,32.347512 C 36.583308,32.436462 37.012496,32.480937 37.462629,32.480935 C 39.074695,32.480937 40.294218,31.913888 41.121203,30.779789 C 41.948163,29.645696 42.361649,28.044622 42.361662,25.976556 C 42.361649,24.953655 42.251736,24.04749 42.03192,23.258058 C 41.81208,22.457534 41.534677,21.823773 41.199714,21.35678 C 40.875192,20.889814 40.482643,20.511781 40.02206,20.222684 C 39.571926,19.922498 39.137504,19.722363 38.718791,19.622279 C 38.31053,19.511109 37.89181,19.455516 37.462629,19.4555 M 49.584599,18.271371 L 49.584599,10.749642 L 52.410963,10.749642 L 52.410963,18.271371 L 51.735778,28.845153 L 50.275486,28.845153 L 49.584599,18.271371 M 49.710215,31.697073 L 52.285348,31.697073 L 52.285348,34.932583 L 49.710215,34.932583 L 49.710215,31.697073"
       id="text4400" />
    <path
       sodipodi:type="arc"
       style="opacity:1;fill:#000000;fill-opacity:1;stroke:none;stroke-width:3.0999999;stroke-linecap:round;stroke-linejoin:round;stroke-miterlimit:4;stroke-dasharray:none;stroke-dashoffset:60.01653385;stroke-opacity:1"
       id="path2403"
       sodipodi:cx="-269.4953"
       sodipodi:cy="-38.171291"
       sodipodi:rx="0.98716223"
       sodipodi:ry="0.49358112"
       d="M -268.50814,-38.171291 A 0.98716223,0.49358112 0 1 1 -270.48246,-38.171291 A 0.98716223,0.49358112 0 1 1 -268.50814,-38.171291 z" />
  </g>
</svg>
